<svg width="544" height="170" viewBox="0 0 544 170" fill="none" xmlns="http://www.w3.org/2000/svg">
<g clip-path="url(#clip0_4706_218)">
<path fill-rule="evenodd" clip-rule="evenodd" d="M266.25 76.4973V31.5686H355.389V0H226.906V170H266.25V108.066H338.294V76.4973H266.25ZM454.71 110.975L495.76 170H495.778H541.192L477.803 82.082L537.061 0H494.557L456.183 55.1283L417.072 0H372.395L432.12 83.5365L369.216 170H414.396L454.71 110.975Z" fill="#072440"/>
<path fill-rule="evenodd" clip-rule="evenodd" d="M124.257 0H61.5089V34.5168H114.056C141.839 34.5168 164.557 57.2347 164.557 85.017C164.557 112.799 141.839 135.517 114.056 135.517H61.5089V170.034H122.299C169.783 170.034 208.286 131.548 208.286 84.0472C208.286 36.5462 170.663 0 124.257 0ZM47.1419 132.159C73.1776 132.159 94.2837 111.053 94.2837 85.017C94.2837 58.9813 73.1776 37.8751 47.1419 37.8751C21.1061 37.8751 0 58.9813 0 85.017C0 111.053 21.1061 132.159 47.1419 132.159ZM78.5518 41.2693C84.0472 40.2816 89.812 40.3355 95.5947 41.6465C118.672 46.8545 133.165 69.7879 127.957 92.865C123.144 114.182 103.209 128.172 81.9999 126.071C93.6193 116.193 101 101.467 101 85.017C101 66.9864 92.1466 51.0569 78.5518 41.2693Z" fill="#072440"/>
</g>
<defs>
<clipPath id="clip0_4706_218">
<rect width="541.174" height="170" fill="white"/>
</clipPath>
</defs>
</svg>
