<svg width="116" height="95" viewBox="0 0 116 95" fill="none" xmlns="http://www.w3.org/2000/svg">
<path fill-rule="evenodd" clip-rule="evenodd" d="M69.19 0H34.25V19.22H63.51C78.98 19.22 91.63 31.87 91.63 47.34C91.63 62.81 78.98 75.46 63.51 75.46H34.25V94.68H68.1C94.54 94.68 115.98 73.25 115.98 46.8C115.98 20.35 95.03 0 69.19 0ZM26.25 73.59C40.7475 73.59 52.5 61.8375 52.5 47.34C52.5 32.8425 40.7475 21.09 26.25 21.09C11.7525 21.09 0 32.8425 0 47.34C0 61.8375 11.7525 73.59 26.25 73.59ZM43.74 22.98C46.8 22.43 50.01 22.46 53.23 23.19C66.08 26.09 74.15 38.86 71.25 51.71C68.57 63.58 57.47 71.37 45.66 70.2C52.13 64.7 56.24 56.5 56.24 47.34C56.24 37.3 51.31 28.43 43.74 22.98Z" fill="url(#paint0_linear_4757_262)"/>
<defs>
<linearGradient id="paint0_linear_4757_262" x1="66.47" y1="33" x2="35.14" y2="59.28" gradientUnits="userSpaceOnUse">
<stop offset="0.11" stop-color="white"/>
<stop offset="1" stop-color="white"/>
</linearGradient>
</defs>
</svg>
