<svg width="116" height="95" viewBox="0 0 116 95" fill="none" xmlns="http://www.w3.org/2000/svg">
<path d="M69.2019 0H34.2559V19.277H63.5209C78.9936 19.277 91.6458 31.9711 91.6458 47.495C91.6458 63.0189 78.9936 75.713 63.5209 75.713H34.2559V95H68.1117C94.5563 95 116 73.4953 116 46.9531C116 20.4109 95.0464 0 69.2019 0Z" fill="#072440"/>
<path d="M47.9883 70.5553C61.1681 70.5553 71.8524 59.8356 71.8524 46.6121C71.8524 33.3887 61.1681 22.6689 47.9883 22.6689C34.8085 22.6689 24.1242 33.3887 24.1242 46.6121C24.1242 59.8356 34.8085 70.5553 47.9883 70.5553Z" fill="url(#paint0_linear_4757_227)"/>
<path d="M26.2545 73.8366C40.7545 73.8366 52.509 62.0431 52.509 47.4951C52.509 32.9471 40.7545 21.1536 26.2545 21.1536C11.7546 21.1536 0 32.9471 0 47.4951C0 62.0431 11.7546 73.8366 26.2545 73.8366Z" fill="url(#paint1_linear_4757_227)"/>
<defs>
<linearGradient id="paint0_linear_4757_227" x1="68.0197" y1="36.138" x2="25.5474" y2="57.9692" gradientUnits="userSpaceOnUse">
<stop offset="0.04" stop-color="#F5516C"/>
<stop offset="0.14" stop-color="#C74863"/>
<stop offset="0.31" stop-color="#853B57"/>
<stop offset="0.44" stop-color="#55324E"/>
<stop offset="0.55" stop-color="#382D49"/>
<stop offset="0.61" stop-color="#2D2B47"/>
</linearGradient>
<linearGradient id="paint1_linear_4757_227" x1="42.2673" y1="28.3486" x2="8.38037" y2="68.5984" gradientUnits="userSpaceOnUse">
<stop offset="0.2" stop-color="#F5516C"/>
<stop offset="1" stop-color="#6B3753"/>
</linearGradient>
</defs>
</svg>
