<svg width="39" height="16" viewBox="0 0 39 16" fill="none" xmlns="http://www.w3.org/2000/svg">
<g clip-path="url(#clip0_6001_1228)">
<path d="M7.15228 2.0628C6.69557 2.60324 5.96484 3.0295 5.23411 2.9686C5.14277 2.23787 5.50052 1.46147 5.91917 0.981922C6.37588 0.426261 7.17512 0.0304472 7.82212 0C7.89824 0.76118 7.60138 1.50714 7.15228 2.0628ZM7.81451 3.11323C6.75647 3.05233 5.85067 3.71456 5.34829 3.71456C4.8383 3.71456 4.0695 3.14367 3.23221 3.1589C2.14372 3.17412 1.13135 3.79068 0.575689 4.7726C-0.56608 6.73644 0.278829 9.64415 1.38254 11.2426C1.92298 12.0343 2.56998 12.902 3.4225 12.8716C4.22935 12.8411 4.54905 12.3463 5.52336 12.3463C6.50528 12.3463 6.78692 12.8716 7.63944 12.8563C8.52241 12.8411 9.07807 12.0647 9.6185 11.2731C10.2351 10.3749 10.4862 9.49952 10.5015 9.45385C10.4862 9.43863 8.79643 8.79163 8.78121 6.84301C8.76598 5.21408 10.1133 4.43768 10.1742 4.39201C9.41299 3.26546 8.22555 3.14367 7.81451 3.11323ZM13.9268 0.905804V12.7726H15.7688V8.71551H18.3188C20.648 8.71551 22.2845 7.11703 22.2845 4.80304C22.2845 2.48906 20.6784 0.905804 18.3797 0.905804H13.9268ZM15.7688 2.45861H17.8925C19.491 2.45861 20.4044 3.31113 20.4044 4.81066C20.4044 6.31018 19.491 7.17031 17.8849 7.17031H15.7688V2.45861ZM25.649 12.8639C26.8059 12.8639 27.8792 12.2778 28.3664 11.3492H28.4044V12.7726H30.1095V6.86584C30.1095 5.15319 28.7393 4.04948 26.6309 4.04948C24.6746 4.04948 23.2284 5.16841 23.1751 6.70599H24.8345C24.9715 5.97526 25.649 5.49572 26.5776 5.49572C27.7041 5.49572 28.3359 6.02093 28.3359 6.98763V7.64225L26.0372 7.77926C23.8982 7.90866 22.7412 8.78401 22.7412 10.3064C22.7412 11.844 23.9363 12.8639 25.649 12.8639ZM26.1437 11.4558C25.1618 11.4558 24.5376 10.9838 24.5376 10.2607C24.5376 9.51475 25.139 9.08088 26.2883 9.01237L28.3359 8.88297V9.55281C28.3359 10.6641 27.3921 11.4558 26.1437 11.4558ZM32.3854 16C34.1818 16 35.0267 15.3149 35.765 13.2369L39 4.16365H37.1275L34.9582 11.1741H34.9201L32.7508 4.16365H30.825L33.9458 12.803L33.7784 13.3283C33.4967 14.2188 33.04 14.5614 32.2255 14.5614C32.0809 14.5614 31.7993 14.5461 31.6851 14.5309V15.9543C31.7917 15.9848 32.2484 16 32.3854 16Z" fill="black"/>
</g>
<defs>
<clipPath id="clip0_6001_1228">
<rect width="38.9679" height="16" fill="white" transform="translate(0.0321045)"/>
</clipPath>
</defs>
</svg>
