<svg width="208" height="241" viewBox="0 0 208 241" fill="none" xmlns="http://www.w3.org/2000/svg">
<g clip-path="url(#clip0_4152_426)">
<path d="M41.74 44.1099L20.61 47.0399L40.66 50.1299L61.79 47.1999L41.74 44.1099Z" fill="#074C99" stroke="black" stroke-linecap="round" stroke-linejoin="round"/>
<path d="M40.66 78.95L20.61 75.86V47.04L40.66 50.13V78.95Z" fill="#074C99" stroke="black" stroke-linecap="round" stroke-linejoin="round"/>
<path d="M61.79 47.2002L40.66 50.1302V78.9502L61.79 76.0202V47.2002Z" fill="#074C99" stroke="black" stroke-linecap="round" stroke-linejoin="round"/>
<path d="M134.41 58.3799L113.28 61.3099V90.1199L134.41 87.1899V58.3799Z" fill="#1985DD" stroke="black" stroke-linecap="round" stroke-linejoin="round"/>
<path d="M113.28 90.1202L93.22 87.0402V58.2202L113.28 61.3102V90.1202Z" fill="#1168B7" stroke="black" stroke-linecap="round" stroke-linejoin="round"/>
<path d="M114.35 55.29L93.22 58.22L113.28 61.31L134.41 58.38L114.35 55.29Z" fill="#1985DD" stroke="black" stroke-linecap="round" stroke-linejoin="round"/>
<path d="M52.84 63.3198L91.34 69.2498" stroke="#1D1D1B" stroke-miterlimit="10" stroke-linecap="round"/>
<path d="M72.96 125.74C68.86 120.34 65.78 114.24 63.55 107.88C61.32 101.5 59.94 94.82 59.3 88.11C58.02 74.73 59.65 60.85 63.86 48.11C65.98 41.7 68.77 35.49 72.27 29.71C75.76 23.95 79.99 18.56 84.95 13.97C89.9 9.40004 95.62 5.58004 101.98 3.18004C108.35 0.780037 115.11 -0.109963 121.89 0.940037C126.32 1.62004 130.75 2.30004 135.18 2.99004C126.97 1.73004 118.87 3.29004 111.49 6.86004C104.14 10.41 97.78 15.8 92.58 21.96C87.33 28.17 83.14 35.28 79.96 42.72C76.77 50.18 74.56 58.1 73.33 66.11C72.1 74.12 71.83 82.34 72.62 90.42C73.41 98.48 75.27 106.52 78.41 114.01C80.07 117.97 82.08 121.78 84.49 125.34C86.64 128.51 89.11 131.47 91.9 134.1C97.86 139.72 105.13 143.66 113.33 144.92C108.9 144.24 104.47 143.56 100.04 142.87C94.51 142.02 89.34 139.94 84.68 136.87C80.96 134.42 75.67 129.3 72.96 125.74Z" fill="url(#paint0_linear_4152_426)" stroke="black" stroke-linecap="round" stroke-linejoin="round"/>
<path d="M107.54 138.35C110.92 138.21 114.24 137.58 117.45 136.55C120.92 135.43 124.2 133.85 127.29 131.92C133.25 128.19 138.35 123.22 142.58 117.68C151.04 106.59 156.28 92.84 158.38 79.21C160.48 65.57 159.61 50.89 154.88 37.77C152.52 31.22 149.13 24.93 144.58 19.59C140.03 14.25 134.36 9.94005 127.68 7.51005C129.95 7.41005 132.18 7.53005 134.43 7.88005C142.07 9.06005 148.82 12.71 154.37 17.94C159.9 23.15 164.04 29.71 166.94 36.64C169.86 43.62 171.6 51.12 172.33 58.62C173.07 66.14 172.82 73.78 171.67 81.25C170.52 88.71 168.46 96.09 165.49 103.04C162.53 109.97 158.62 116.59 153.74 122.37C151.16 125.42 148.3 128.25 145.17 130.73C142.37 132.94 139.35 134.88 136.13 136.44C129.27 139.76 121.72 141.22 114.08 140.04C111.83 139.69 109.67 139.14 107.53 138.36L107.54 138.35Z" fill="#072440" stroke="black" stroke-linecap="round" stroke-linejoin="round"/>
<path d="M0.879986 225.14C1.20999 224.69 1.69999 224.44 2.20999 224.3C2.85999 224.12 3.56999 224.11 4.22999 224.16C5.42999 224.26 6.63999 224.58 7.75999 224.98C9.99999 225.76 12.26 226.97 14.22 228.28C16.18 229.59 18.17 231.21 19.75 232.97C20.54 233.85 21.32 234.86 21.87 235.91C22.18 236.5 22.45 237.18 22.53 237.85C22.59 238.37 22.54 238.91 22.26 239.37C22.03 239.75 21.68 240.01 21.28 240.19C20.8 240.4 20.26 240.48 19.75 240.5C18.81 240.54 17.82 240.37 16.92 240.15C15.11 239.7 13.25 238.9 11.62 238.03C8.45999 236.35 4.98999 233.78 2.68999 230.97C2.02999 230.16 1.36999 229.21 0.949986 228.25C0.569986 227.37 0.209986 226.08 0.879986 225.16V225.14Z" fill="#AD435F" stroke="black" stroke-linecap="round" stroke-linejoin="round"/>
<path d="M87.43 132.35C87.75 131.82 87.43 131.04 87.19 130.6C86.9 130.05 86.55 129.56 86.16 129.08C84.77 127.38 82.75 125.69 80.88 124.58C79.91 124 78.8 123.46 77.7 123.17C77.15 123.03 76.55 122.93 75.98 122.97C75.42 123.01 74.81 123.19 74.45 123.69C49.92 157.51 25.4 191.33 0.880005 225.14C1.21 224.69 1.7 224.44 2.21 224.3C2.86 224.12 3.57 224.11 4.23 224.16C5.43001 224.26 6.64001 224.58 7.76 224.98C10 225.76 12.26 226.97 14.22 228.28C16.18 229.59 18.17 231.21 19.75 232.97C20.54 233.85 21.32 234.86 21.87 235.91C22.18 236.5 22.45 237.18 22.53 237.85C22.59 238.37 22.54 238.91 22.26 239.37C43.99 203.7 65.71 168.02 87.44 132.35H87.43Z" fill="url(#paint1_linear_4152_426)" stroke="black" stroke-linecap="round" stroke-linejoin="round"/>
<path d="M175.37 53.2201C173.73 42.0301 169.88 30.7001 163.19 21.3701C159.85 16.7101 155.8 12.5501 151.03 9.31007C146.25 6.07007 140.91 3.86007 135.18 2.98007C126.97 1.72007 118.87 3.28007 111.5 6.85007C104.15 10.4001 97.79 15.8001 92.58 21.9601C87.34 28.1601 83.15 35.2601 79.97 42.7101C76.78 50.1701 74.57 58.0901 73.33 66.1001C72.1 74.1101 71.83 82.3401 72.62 90.4101C73.41 98.4701 75.27 106.51 78.41 114C80.07 117.96 82.08 121.77 84.49 125.33C86.64 128.5 89.11 131.46 91.9 134.09C97.86 139.71 105.13 143.65 113.33 144.91C123.05 146.41 132.54 143.92 140.8 139C149.04 134.1 155.84 126.93 161.08 119.06C167.42 109.54 171.76 98.5701 174.14 87.4401C176.52 76.2801 177.02 64.5301 175.37 53.2101V53.2201ZM171.68 81.2401C170.53 88.7001 168.47 96.0801 165.5 103.02C162.54 109.95 158.63 116.57 153.76 122.35C151.18 125.4 148.32 128.23 145.19 130.71C142.39 132.92 139.37 134.86 136.15 136.42C129.29 139.74 121.73 141.2 114.09 140.02C107.11 138.95 100.85 135.8 95.56 131.23C90.29 126.68 86.19 120.92 83.15 114.73C80.1 108.51 78.08 101.77 76.94 94.9701C76.38 91.6201 76.02 88.2701 75.86 84.8801C75.69 81.3301 75.74 77.8001 75.99 74.2601C76.95 60.5901 81 46.7001 88.1 34.8801C91.65 28.9601 96.04 23.4601 101.26 18.8901C104.03 16.4701 107.03 14.3201 110.25 12.5501C113.1 10.9801 116.11 9.72007 119.24 8.84007C124.19 7.45007 129.32 7.07007 134.43 7.85007C142.08 9.03007 148.83 12.6901 154.38 17.9201C159.91 23.1301 164.05 29.6901 166.94 36.6301C169.86 43.6001 171.59 51.1101 172.33 58.6001C173.07 66.1201 172.82 73.7601 171.67 81.2201L171.68 81.2401Z" fill="url(#paint2_linear_4152_426)" stroke="black" stroke-linecap="round" stroke-linejoin="round"/>
<path d="M126.38 74.6401L165.84 80.7101" stroke="#1D1D1B" stroke-miterlimit="10" stroke-linecap="round"/>
<path d="M207.02 69.5498L185.89 72.4798V101.3L207.02 98.3698V69.5498Z" fill="#1985DD" stroke="black" stroke-linecap="round" stroke-linejoin="round"/>
<path d="M185.89 101.3L165.84 98.2099V69.3999L185.89 72.4799V101.3Z" fill="#1985DD" stroke="black" stroke-linecap="round" stroke-linejoin="round"/>
<path d="M186.97 66.4702L165.84 69.4002L185.89 72.4802L207.02 69.5502L186.97 66.4702Z" fill="#1985DD" stroke="black" stroke-linecap="round" stroke-linejoin="round"/>
</g>
<defs>
<linearGradient id="paint0_linear_4152_426" x1="97.03" y1="144.91" x2="97.03" y2="0.500037" gradientUnits="userSpaceOnUse">
<stop stop-color="#072440"/>
<stop offset="0.14" stop-color="#62354E"/>
<stop offset="0.27" stop-color="#B2455B"/>
<stop offset="0.37" stop-color="#E44F63"/>
<stop offset="0.41" stop-color="#F85367"/>
<stop offset="0.78" stop-color="#FF5468"/>
<stop offset="0.81" stop-color="#F85266"/>
<stop offset="0.85" stop-color="#E54E64"/>
<stop offset="0.9" stop-color="#C6485F"/>
<stop offset="0.96" stop-color="#9B4058"/>
<stop offset="1" stop-color="#773953"/>
</linearGradient>
<linearGradient id="paint1_linear_4152_426" x1="0.880005" y1="181.17" x2="87.57" y2="181.17" gradientUnits="userSpaceOnUse">
<stop stop-color="#3D2E49"/>
<stop offset="0.36" stop-color="#893C55"/>
<stop offset="0.89" stop-color="#FF5468"/>
</linearGradient>
<linearGradient id="paint2_linear_4152_426" x1="72.18" y1="73.9501" x2="176.34" y2="73.9501" gradientUnits="userSpaceOnUse">
<stop offset="0.08" stop-color="#F5516C"/>
<stop offset="1" stop-color="#683652"/>
</linearGradient>
<clipPath id="clip0_4152_426">
<rect width="207.52" height="241" fill="white"/>
</clipPath>
</defs>
</svg>
