<svg width="201" height="40" viewBox="0 0 201 40" fill="none" xmlns="http://www.w3.org/2000/svg">
<g clip-path="url(#clip0_4876_2411)">
<path d="M13.0451 16.8075L20.8139 9.04194L28.5858 16.8138L33.1036 12.2929L20.8139 0L8.52417 12.2897L13.0451 16.8075Z" fill="#F3BA2F"/>
<path d="M5.33279 15.4817L0.813477 20.001L5.33279 24.5203L9.85211 20.001L5.33279 15.4817Z" fill="#F3BA2F"/>
<path d="M13.045 23.1926L20.8137 30.9614L28.5856 23.1895L33.1066 27.7041L33.1034 27.7073L20.8137 40.0001L8.52402 27.7136L8.5177 27.7073L13.045 23.1926Z" fill="#F3BA2F"/>
<path d="M36.2928 15.4826L31.7735 20.002L36.2928 24.5213L40.8121 20.002L36.2928 15.4826Z" fill="#F3BA2F"/>
<path d="M25.398 19.998L20.8139 15.4106L17.424 18.8006L17.0322 19.1892L16.2297 19.9916L16.2234 20.0011L16.2297 20.0074L20.8139 24.5884L25.398 20.0011H25.4012L25.398 19.998Z" fill="#F3BA2F"/>
<path d="M47.8606 9.69238H57.6924C60.1314 9.69238 61.9764 10.3179 63.2275 11.5722C64.1942 12.5421 64.6776 13.7458 64.6776 15.1769V15.237C64.6776 15.8436 64.6018 16.3775 64.4533 16.8419C64.3017 17.3063 64.1026 17.7265 63.8499 18.0993C63.6003 18.4721 63.3096 18.8007 62.9779 19.085C62.6462 19.3693 62.2892 19.6095 61.9101 19.8116C63.1359 20.2761 64.1026 20.9079 64.8072 21.7072C65.5117 22.5065 65.8624 23.6123 65.8624 25.0245V25.0845C65.8624 26.0544 65.676 26.9011 65.3032 27.6309C64.9304 28.3576 64.3964 28.9642 63.6982 29.4475C63.0032 29.9341 62.166 30.2942 61.1866 30.5375C60.2072 30.7808 59.1236 30.9008 57.9357 30.9008H47.8606V9.69238ZM56.7067 18.2667C57.7366 18.2667 58.5549 18.0898 59.1615 17.736C59.7681 17.3821 60.0714 16.8103 60.0714 16.0236V15.9636C60.0714 15.2559 59.8091 14.7157 59.2847 14.3429C58.7602 13.9701 58.002 13.7805 57.0131 13.7805H52.4069V18.2636H56.7098L56.7067 18.2667ZM57.9515 26.8127C58.9814 26.8127 59.7902 26.6263 60.3746 26.2535C60.9591 25.8807 61.2529 25.2994 61.2529 24.5095V24.4495C61.2529 23.7418 60.9812 23.1826 60.4347 22.7688C59.8881 22.3549 59.0098 22.1495 57.7966 22.1495H52.4037V26.8158H57.9483L57.9515 26.8127Z" fill="#F3BA2F"/>
<path d="M71.7134 9.69238H76.3797V30.904H71.7134V9.69238Z" fill="#F3BA2F"/>
<path d="M83.4504 9.69238H87.7534L97.6925 22.753V9.69238H102.299V30.904H98.3307L88.0566 17.42V30.904H83.4504V9.69238Z" fill="#F3BA2F"/>
<path d="M116.424 9.54102H120.727L129.819 30.9043H124.941L123.002 26.1463H114.032L112.093 30.9043H107.335L116.427 9.54102H116.424ZM121.333 22.0266L118.515 15.1488L115.697 22.0266H121.333Z" fill="#F3BA2F"/>
<path d="M134.855 9.69238H139.158L149.098 22.753V9.69238H153.704V30.904H149.736L139.462 17.42V30.904H134.855V9.69238Z" fill="#F3BA2F"/>
<path d="M170.499 31.2673C168.941 31.2673 167.497 30.983 166.164 30.4206C164.831 29.8583 163.681 29.0811 162.711 28.1017C161.741 27.1223 160.983 25.966 160.439 24.6328C159.893 23.2996 159.621 21.8747 159.621 20.3582V20.2982C159.621 18.7818 159.893 17.3632 160.439 16.0395C160.986 14.7157 161.741 13.5563 162.711 12.5548C163.681 11.5533 164.843 10.7666 166.196 10.1916C167.548 9.6166 169.045 9.3291 170.682 9.3291C171.671 9.3291 172.574 9.41124 173.393 9.57237C174.211 9.73349 174.953 9.9578 175.62 10.239C176.287 10.5233 176.903 10.8645 177.468 11.2689C178.034 11.6733 178.558 12.1188 179.045 12.6021L176.075 16.0268C175.247 15.2781 174.404 14.6936 173.544 14.2703C172.685 13.8469 171.721 13.6352 170.65 13.6352C169.763 13.6352 168.938 13.8058 168.18 14.1502C167.421 14.4946 166.771 14.9685 166.224 15.5751C165.681 16.1816 165.254 16.883 164.951 17.6823C164.648 18.4816 164.496 19.3346 164.496 20.2414V20.3014C164.496 21.2113 164.648 22.0706 164.951 22.8762C165.254 23.685 165.671 24.3927 166.208 24.9961C166.742 25.6027 167.39 26.0829 168.148 26.4368C168.906 26.7906 169.74 26.9675 170.647 26.9675C171.86 26.9675 172.884 26.7464 173.721 26.3009C174.558 25.8586 175.392 25.252 176.22 24.4843L179.19 27.4856C178.643 28.0733 178.078 28.5977 177.493 29.0621C176.909 29.5266 176.264 29.9246 175.569 30.2595C174.871 30.5912 174.11 30.8471 173.282 31.0178C172.454 31.1884 171.525 31.2768 170.495 31.2768L170.499 31.2673Z" fill="#F3BA2F"/>
<path d="M184.687 9.69238H200.657V13.8437H189.293V18.1467H199.293V22.298H189.293V26.7526H200.809V30.904H184.687V9.69238Z" fill="#F3BA2F"/>
</g>
<defs>
<clipPath id="clip0_4876_2411">
<rect width="199.997" height="40" fill="white" transform="translate(0.811707)"/>
</clipPath>
</defs>
</svg>
