<svg width="140" height="34" viewBox="0 0 140 34" fill="none" xmlns="http://www.w3.org/2000/svg">
<g clip-path="url(#clip0_4438_1230)">
<path d="M52.4137 24.9161C55.1871 24.9161 56.6554 23.6761 56.6554 21.5552C56.6554 19.4345 55.1545 18.1619 52.4137 18.1619H46.9756V24.9161H52.4137ZM46.9756 14.6054H52.3158C54.6652 14.6054 55.9702 13.5178 55.9702 11.6034C55.9702 9.68908 54.7631 8.79745 52.3485 8.79745H46.9648L46.9756 14.6054ZM61.2236 21.9142C61.2236 25.9602 58.4501 28.4399 54.0453 28.4399H42.3967V5.27344H53.4252C57.5037 5.27344 60.4078 7.44871 60.4078 11.2446C60.503 13.5437 59.0244 15.6139 56.8185 16.2694C59.6574 17.1503 61.1691 19.0102 61.1691 21.9142" fill="#191919"/>
<path d="M68.4235 5.27344H64.1818V9.51513H68.4235V5.27344Z" fill="#191919"/>
<path d="M68.4235 11.7666H64.1818V28.44H68.4235V11.7666Z" fill="#191919"/>
<path d="M81.8123 28.2112C80.6048 28.6256 79.3366 28.835 78.0599 28.8311C74.7971 28.8311 73.3288 27.2975 73.3288 24.1326V14.9964H70.3596V11.7988H73.3287V6.61084H77.5705V11.7988H81.5512V15.0616H77.5705V23.6756C77.5705 24.8176 78.0598 25.2093 79.2345 25.2093C79.9422 25.1714 80.643 25.0509 81.3227 24.8503L81.8123 28.2112Z" fill="#191919"/>
<path d="M94.4505 24.9161C97.2239 24.9161 98.6922 23.6761 98.6922 21.5552C98.6922 19.4345 97.1913 18.1619 94.4505 18.1619H89.0123V24.9161H94.4505ZM89.0123 14.6054H94.3634C96.7127 14.6054 98.0179 13.5178 98.0179 11.6034C98.0179 9.68908 96.7779 8.79745 94.3853 8.79745H89.0015L89.0123 14.6054ZM103.304 21.9142C103.304 25.9602 100.53 28.4399 96.1255 28.4399H84.4335V5.27344H95.4619C99.5405 5.27344 102.444 7.44871 102.444 11.2446C102.54 13.5437 101.061 15.6139 98.8553 16.2694C101.694 17.1503 103.26 19.0102 103.26 21.9142" fill="#191919"/>
<path d="M109.568 20.087C109.568 23.3498 111.298 25.3728 113.919 25.3728C116.54 25.3728 118.27 23.3172 118.27 20.087C118.27 16.8566 116.54 14.801 113.919 14.801C111.298 14.801 109.568 16.9763 109.568 20.087ZM122.62 20.087C122.62 25.3728 118.998 28.9619 113.919 28.9619C108.84 28.9619 105.218 25.3728 105.218 20.087C105.218 14.801 108.84 11.2119 113.919 11.2119C118.998 11.2119 122.62 14.801 122.62 20.087Z" fill="#191919"/>
<path d="M134.725 28.44L130.973 22.73L127.188 28.44H122.62L128.624 19.6954L123.175 11.7666H127.775L131.038 16.6609L134.236 11.7666H138.793L133.42 19.5323L139.38 28.44H134.725Z" fill="#191919"/>
<path d="M0.968018 25.71V17.8063L7.35215 15.0608V2.75898L13.6831 0V20.1788L0.968018 25.71Z" fill="#191919"/>
<path d="M29.5835 25.7768V17.8866L23.1993 15.1276V2.83912L16.8552 0.0668945V20.2456L29.5835 25.7768Z" fill="#191919"/>
<path d="M15.2957 22.9512L2.6073 28.4957L15.2824 34.0001L28.0108 28.469L15.2957 22.9512Z" fill="#191919"/>
</g>
<defs>
<clipPath id="clip0_4438_1230">
<rect width="138.412" height="34" fill="white" transform="translate(0.968018)"/>
</clipPath>
</defs>
</svg>
