<svg width="40" height="40" viewBox="0 0 40 40" fill="none" xmlns="http://www.w3.org/2000/svg">
<circle cx="20" cy="20" r="20" fill="#F99602"/>
<path d="M24.3931 11.6287L25.393 7.87885L23.1431 7.25387L22.2681 10.8788C21.6431 10.7538 21.0182 10.6288 20.3932 10.5038L21.2682 6.75389L18.8932 6.25391L18.0183 10.0038C17.5183 9.87879 17.0183 9.75379 16.5183 9.6288L13.3934 8.87882L12.7684 11.3787C12.7684 11.3787 14.5184 11.7537 14.3934 11.7537C15.2683 12.0037 15.5183 12.6287 15.5183 13.1287L12.8934 23.3783C12.7684 23.6283 12.5184 24.1283 11.7685 23.8783L10.1435 23.5033L9.01855 26.1283L12.0185 26.8782L13.6434 27.2532L12.6434 31.0031L14.8934 31.6281L15.8933 27.8782C16.5183 28.0032 17.1433 28.2532 17.7683 28.3782L16.8933 32.1281L19.1432 32.753L20.1432 29.0032C24.0181 29.7531 27.018 29.5031 28.2679 25.8783C29.2679 23.0034 28.2679 21.3784 26.143 20.3784C27.6429 20.0035 28.7679 19.0035 29.0179 17.0036C29.3929 14.1286 27.393 12.6287 24.3931 11.6287ZM23.7681 24.2533C23.0181 27.1282 18.2683 25.5033 16.7683 25.1283L18.0183 20.1285C19.5182 20.5034 24.518 21.2534 23.7681 24.2533ZM24.518 16.8786C23.8931 19.5035 19.8932 18.1285 18.6432 17.8785L19.7682 13.2537C21.0182 13.5037 25.143 14.1286 24.518 16.8786Z" fill="white"/>
</svg>
