<svg width="164" height="40" viewBox="0 0 164 40" fill="none" xmlns="http://www.w3.org/2000/svg">
<mask id="mask0_4097_545" style="mask-type:luminance" maskUnits="userSpaceOnUse" x="0" y="0" width="164" height="40">
<path d="M163.485 0H0.360107V40H163.485V0Z" fill="white"/>
</mask>
<g mask="url(#mask0_4097_545)">
<path d="M163.402 28.3585C162.146 28.7042 161.037 28.7826 160.078 28.5939C159.12 28.405 158.373 27.9653 157.838 27.2734C157.32 26.582 157.06 25.6549 157.06 24.4913L157.085 18.0069H154.609V15.9559H157.085V12.7256H159.418L159.395 15.9559H163.356V18.0069H159.395L159.372 24.4672C159.372 25.0487 159.521 25.5125 159.821 25.8588C160.133 26.2044 160.59 26.401 161.187 26.4481C161.784 26.4953 162.522 26.377 163.402 26.094V28.358V28.3585Z" fill="#312938"/>
<path d="M147.615 28.6414C146.436 28.6414 145.351 28.3506 144.361 27.7691C143.385 27.187 142.616 26.4015 142.05 25.411C141.484 24.4211 141.201 23.3443 141.201 22.1808C141.201 21.0172 141.484 19.9252 142.05 18.9503C142.632 17.9604 143.411 17.1817 144.384 16.6164C145.374 16.0343 146.451 15.7441 147.615 15.7441C148.652 15.7441 149.619 15.9878 150.515 16.4752C151.426 16.9469 152.174 17.599 152.754 18.4322C153.353 19.2495 153.731 20.1694 153.887 21.1908C154.028 21.8669 154.037 22.4878 153.91 23.0541H143.535C143.63 23.7454 143.866 24.3589 144.243 24.8929C144.636 25.4121 145.123 25.8127 145.706 26.0956C146.287 26.3786 146.923 26.5197 147.615 26.5197C148.353 26.5197 149.053 26.3629 149.713 26.048C150.372 25.7342 150.916 25.3017 151.34 24.7516L153.438 25.294C152.952 26.2996 152.158 27.1096 151.058 27.722C149.973 28.3355 148.825 28.642 147.614 28.642H147.615V28.6414ZM151.6 21.2138C151.505 20.6008 151.268 20.0349 150.892 19.5157C150.53 18.9964 150.058 18.5885 149.478 18.2894C148.911 17.9907 148.283 17.8411 147.59 17.8411C146.9 17.8411 146.239 17.9907 145.656 18.2894C145.075 18.588 144.603 18.9964 144.242 19.5157C143.88 20.034 143.645 20.6003 143.535 21.2138H151.599H151.6Z" fill="#312938"/>
<path d="M137.055 11.9482H139.412V28.4529H137.055V11.9482Z" fill="#312938"/>
<path d="M132.461 11.9482H134.819V28.4529H132.461V11.9482Z" fill="#312938"/>
<path d="M123.594 28.6415C122.367 28.6415 121.291 28.335 120.363 27.7215C119.436 27.1086 118.964 26.1574 118.948 24.8683C118.948 24.0509 119.137 23.3517 119.514 22.7697C119.907 22.1882 120.497 21.7393 121.283 21.4257C122.084 21.0951 123.067 20.9303 124.23 20.9303L128.145 20.9068V20.0822C128.145 19.3118 127.83 18.7297 127.202 18.3375C126.573 17.9286 125.779 17.7245 124.82 17.7245C124.019 17.7245 123.311 17.8742 122.698 18.1728C122.1 18.4714 121.732 18.9588 121.59 19.6344L119.302 19.658C119.349 18.8569 119.617 18.1644 120.104 17.5829C120.607 16.9862 121.267 16.5297 122.085 16.2153C122.902 15.9006 123.798 15.7437 124.773 15.7437C125.747 15.7437 126.73 15.9089 127.578 16.2388C128.443 16.5688 129.127 17.0401 129.629 17.6534C130.132 18.2664 130.384 18.9818 130.384 19.7987V28.4517H128.144V26.2118C127.815 26.7777 127.265 27.3278 126.494 27.8623C125.723 28.3806 124.756 28.6404 123.594 28.6404V28.6415ZM123.759 26.661C124.498 26.661 125.205 26.48 125.881 26.1186C126.557 25.7574 127.099 25.2699 127.508 24.657C127.933 24.0435 128.145 23.3758 128.145 22.653H124.656C123.839 22.653 123.171 22.7634 122.652 22.983C122.149 23.1875 121.787 23.462 121.567 23.8087C121.363 24.1545 121.277 24.5242 121.308 24.9164C121.371 25.498 121.637 25.9382 122.109 26.2369C122.581 26.5197 123.131 26.6616 123.76 26.6616L123.759 26.661Z" fill="#312938"/>
<path d="M96.9415 11.9482H99.4643L102.576 26.8496L106.019 11.9482H109.862L113.234 26.8261L116.323 11.9482H118.845L115.143 28.4529H111.252L107.951 13.2447L104.462 28.4529H100.595L96.9406 11.9482H96.941H96.9415Z" fill="#312938"/>
<path d="M84.437 28.6414C83.2582 28.6414 82.1731 28.3506 81.1831 27.7691C80.2082 27.187 79.4385 26.4015 78.8726 25.411C78.3067 24.4211 78.0238 23.3443 78.0238 22.1808C78.0238 21.0172 78.3067 19.9252 78.8726 18.9503C79.4547 17.9604 80.2328 17.1817 81.2066 16.6164C82.1966 16.0343 83.2734 15.7441 84.4374 15.7441C85.475 15.7441 86.4414 15.9878 87.3373 16.4752C88.2488 16.9469 88.9957 17.599 89.5767 18.4322C90.1744 19.2495 90.5514 20.1694 90.7089 21.1908C90.8505 21.8669 90.8579 22.4878 90.7324 23.0541H80.3578C80.452 23.7454 80.6874 24.3589 81.0649 24.8929C81.4576 25.4121 81.9456 25.8127 82.5266 26.0956C83.1086 26.3786 83.7446 26.5197 84.437 26.5197C85.1759 26.5197 85.8751 26.3629 86.5357 26.048C87.1956 25.7342 87.7384 25.3017 88.1625 24.7516L90.2613 25.294C89.7738 26.2996 88.9799 27.1096 87.8797 27.722C86.7955 28.3355 85.6471 28.642 84.437 28.642H84.4374L84.437 28.6414ZM88.4219 21.2138C88.3278 20.6008 88.0914 20.0349 87.7149 19.5157C87.3535 18.9964 86.8818 18.5885 86.3003 18.2894C85.7344 17.9907 85.1058 17.8411 84.4139 17.8411C83.7221 17.8411 83.0616 17.9907 82.4806 18.2894C81.899 18.588 81.4273 18.9964 81.0659 19.5157C80.7041 20.034 80.4693 20.6003 80.3589 21.2138H88.423H88.4219Z" fill="#312938"/>
<path d="M66.8314 11.9482H69.1894V22.4881L75.2725 15.9567H78.1024L72.7733 21.6393L78.3141 28.4535H75.5319L71.3347 23.172L69.1889 25.436V28.4546H66.8308V11.9488L66.8314 11.9482Z" fill="#312938"/>
<path d="M57.9886 28.6415C56.7623 28.6415 55.6855 28.335 54.7584 27.7215C53.8311 27.1086 53.3594 26.1574 53.3436 24.8683C53.3436 24.0509 53.5325 23.3517 53.9095 22.7697C54.3027 22.1882 54.8921 21.7393 55.6776 21.4257C56.4789 21.0951 57.4615 20.9303 58.6251 20.9303L62.5395 20.9068V20.0822C62.5395 19.3118 62.2246 18.7297 61.5961 18.3375C60.9675 17.929 60.1736 17.7245 59.2145 17.7245C58.4132 17.7245 57.7051 17.8742 57.0923 18.1728C56.4956 18.4714 56.1259 18.9588 55.9846 19.6344L53.6971 19.658C53.7447 18.8569 54.012 18.1644 54.4984 17.5829C55.0015 16.9862 55.662 16.5297 56.4794 16.2153C57.2967 15.9006 58.1931 15.7437 59.1674 15.7437C60.1416 15.7437 61.1244 15.9089 61.9731 16.2388C62.8381 16.5694 63.5216 17.0401 64.0241 17.6534C64.5272 18.2664 64.7787 18.9818 64.7787 19.7987V28.4517H62.539V26.2118C62.2084 26.7777 61.6583 27.3278 60.8885 27.8623C60.1181 28.3806 59.1511 28.6404 57.9886 28.6404V28.6415ZM58.154 26.661C58.8928 26.661 59.6004 26.48 60.2761 26.1186C60.9523 25.7574 61.4941 25.2699 61.9031 24.657C62.3271 24.0441 62.5399 23.3758 62.5399 22.653H59.0508C58.2334 22.653 57.5651 22.7634 57.0468 22.983C56.5437 23.1875 56.1818 23.462 55.9622 23.8087C55.7577 24.1545 55.6714 24.5242 55.7028 24.9174C55.7656 25.4989 56.0328 25.9393 56.5039 26.2379C56.9757 26.5208 57.5258 26.6625 58.1544 26.6625L58.154 26.661Z" fill="#312938"/>
<path d="M44.6802 28.5712C43.1553 28.5712 41.7484 28.194 40.4599 27.4394C39.187 26.6848 38.1803 25.6629 37.4413 24.3743C36.7023 23.0852 36.3326 21.678 36.3326 20.1541C36.3326 18.63 36.7023 17.1987 37.4413 15.9102C38.1803 14.6211 39.1859 13.5997 40.4599 12.8451C41.749 12.0904 43.1553 11.7134 44.6802 11.7134C46.362 11.7134 47.8714 12.1773 49.207 13.105C50.5431 14.0322 51.5409 15.2664 52.2015 16.807L49.8675 17.4675C49.38 16.4143 48.6887 15.5813 47.7924 14.9683C46.8965 14.3554 45.8589 14.0489 44.6797 14.0489C43.5637 14.0489 42.5497 14.3161 41.6382 14.8501C40.7423 15.3845 40.0347 16.123 39.5159 17.0664C39.0128 17.9937 38.7613 19.0234 38.7613 20.155C38.7613 21.2868 39.0128 22.2773 39.5159 23.2201C40.0342 24.1474 40.7423 24.8864 41.6382 25.4365C42.5497 25.971 43.5637 26.2377 44.6797 26.2377C45.8584 26.2377 46.8886 25.939 47.7683 25.3418C48.6642 24.7441 49.356 23.9267 49.8429 22.8892L52.2009 23.526C51.5404 25.0354 50.5431 26.2534 49.2064 27.1805C47.8703 28.1078 46.3615 28.5721 44.6797 28.5721H44.6802V28.5712Z" fill="#312938"/>
<path d="M27.1316 17.821C26.7138 18.2377 26.365 18.6665 26.1297 19.2957C25.8943 19.9248 25.7782 20.6088 25.6104 21.6914C25.3708 23.2325 24.9018 23.8387 24.5315 24.2205C23.7742 25.0012 22.6995 24.9573 21.3895 24.6984C20.5658 24.5358 20.3519 24.7318 19.373 25.5775L14.2124 30.6885L14.2102 38.4476C14.2102 38.5873 14.3792 38.6573 14.4781 38.5586L29.7208 23.3398C29.9264 23.1342 30.0425 22.856 30.043 22.5652L30.0623 14.875L27.1321 17.821H27.1316Z" fill="#FF630F"/>
<path d="M20.9816 22.6762C21.9747 22.705 22.667 23.4229 23.4845 22.9084C24.3024 22.3932 24.2793 21.819 24.4379 20.8704C24.5968 19.9218 24.9117 18.8177 25.1925 18.1515C25.4738 17.4847 26.1025 16.6328 26.7421 16.0116L30.0366 12.5835L30.0581 9.12986C30.0592 8.91805 29.8035 8.81137 29.6539 8.96093L14.6709 23.9438C14.3765 24.2383 14.2113 24.6373 14.2113 25.053V28.4534L19.272 23.3733C19.272 23.3733 19.9874 22.6479 20.9805 22.6762H20.9811H20.9816Z" fill="#61C5FF"/>
<path d="M30.0618 6.29849L14.2113 22.1918V18.7984C14.2113 18.3821 14.3765 17.983 14.6709 17.6892L29.6576 2.70208C29.8066 2.55303 30.0618 2.65866 30.0618 2.86942V6.29797V6.29849Z" fill="#FFC414"/>
<path d="M28.8429 0.259114L2.00639 6.10584C1.04571 6.31504 0.360107 7.1659 0.360107 8.14958V27.745C0.360107 28.0364 0.475682 28.3155 0.68173 28.5217L11.9736 39.8135C12.2042 40.0441 12.5985 39.8809 12.5985 39.5546L12.6001 18.5544C12.6001 17.8615 12.8751 17.1968 13.3652 16.7068L29.1797 0.875165C29.438 0.616822 29.1995 0.181192 28.8429 0.258591V0.259114Z" fill="#312938"/>
</g>
</svg>
