<svg width="177" height="30" viewBox="0 0 177 30" fill="none" xmlns="http://www.w3.org/2000/svg">
<g clip-path="url(#clip0_4881_2425)">
<path d="M10.2416 10.9687C9.60405 10.9687 8.97593 11.0999 8.39468 11.353C7.83218 11.6062 7.34468 11.9437 6.9228 12.3655C6.49155 12.8062 6.15405 13.3218 5.91968 13.8843C5.66655 14.4655 5.5353 15.0937 5.54468 15.7218C5.54468 16.378 5.66655 16.9968 5.91968 17.5968C6.15405 18.1499 6.50093 18.6562 6.9228 19.0874C7.34468 19.5093 7.83218 19.8468 8.39468 20.0999C8.97593 20.353 9.60405 20.4843 10.2416 20.4843C11.1134 20.4843 11.9009 20.2593 12.5853 19.8187C13.2791 19.3874 13.8509 18.7874 14.2447 18.0749H19.2791C19.0166 19.0405 18.5853 19.9499 18.0322 20.7749C17.4697 21.5812 16.7947 22.2843 15.9978 22.903C15.1916 23.503 14.2916 23.9718 13.3353 24.2999C12.3416 24.6374 11.2916 24.8155 10.2416 24.8062C8.9478 24.8062 7.72905 24.5718 6.5853 24.1124C5.46968 23.653 4.45718 22.978 3.5853 22.1437C2.75093 21.3093 2.06655 20.3343 1.57905 19.2562C1.09155 18.1405 0.857178 16.9405 0.857178 15.7312C0.857178 14.4843 1.10093 13.3124 1.57905 12.2062C2.06655 11.128 2.74155 10.153 3.5853 9.31865C4.45718 8.48428 5.46968 7.82803 6.5853 7.3874C7.7478 6.8999 8.9853 6.64678 10.2416 6.65615C11.3478 6.65615 12.3884 6.83428 13.3728 7.19053C14.3291 7.51865 15.2291 7.99678 16.0353 8.61553C16.8509 9.20615 17.5447 9.9374 18.0978 10.7718C18.6791 11.5968 18.8197 11.8499 19.0728 12.8437L14.4041 13.4999C14.0009 12.7499 13.4103 12.1124 12.6791 11.6624C11.9666 11.1937 11.1603 10.9687 10.2416 10.9687ZM20.1603 1.4624H24.8572V8.18428C25.4009 7.69678 26.0197 7.32178 26.7041 7.07803C27.4072 6.79678 28.1666 6.65615 28.9259 6.66553C30.2197 6.66553 31.4009 6.90928 32.4603 7.39678C33.5103 7.8374 34.4666 8.49365 35.2447 9.32803C36.0228 10.1624 36.6322 11.1468 37.0259 12.2155C37.4666 13.3124 37.6822 14.4937 37.6822 15.7405V24.2999H32.9853V15.7405C32.9853 15.0843 32.8916 14.4749 32.7041 13.903C32.5541 13.3499 32.2916 12.8249 31.9259 12.3843C31.5791 11.953 31.1384 11.6062 30.6416 11.3718C30.1447 11.1187 29.5634 10.9874 28.9259 10.9874C28.2791 10.9874 27.6978 11.1187 27.1728 11.3718C26.6759 11.6062 26.2447 11.9437 25.8884 12.3843C25.5416 12.8343 25.2791 13.3312 25.1103 13.8749C24.9416 14.4749 24.8572 15.0937 24.8572 15.7124V24.3093H20.1603V1.4624ZM47.7697 6.65615C49.0634 6.65615 50.2728 6.8999 51.3978 7.3874C53.6103 8.2874 55.3728 10.0124 56.3103 12.2062C56.8166 13.3124 57.0697 14.5124 57.0603 15.7312V24.2905H52.6822V22.1624C52.1478 22.9593 51.4259 23.6249 50.5822 24.0937C49.7197 24.5624 48.7447 24.7968 47.7697 24.7874C46.4947 24.7874 45.2853 24.553 44.1416 24.0937C43.0447 23.6249 42.0509 22.9593 41.1978 22.1249C40.3634 21.2905 39.6791 20.3155 39.1916 19.2374C38.7134 18.1312 38.4697 16.9312 38.4697 15.7124C38.4697 14.4655 38.7134 13.2937 39.1916 12.1874C39.6791 11.1093 40.3541 10.1343 41.1978 9.2999C42.0416 8.46553 43.0447 7.80928 44.1416 7.36865C45.2853 6.88115 46.5228 6.6374 47.7697 6.6374M47.8634 20.4843C48.4916 20.4843 49.1103 20.3624 49.6822 20.0999C50.2447 19.8655 50.7509 19.5187 51.1822 19.0874C51.6041 18.6562 51.9416 18.1499 52.1853 17.5968C52.4384 17.0062 52.5603 16.378 52.5603 15.7218C52.5603 15.0655 52.4384 14.4562 52.1853 13.8843C51.9509 13.3218 51.6134 12.7968 51.1822 12.3655C50.7509 11.9343 50.2447 11.5874 49.6822 11.353C49.1103 11.0999 48.4916 10.9687 47.8634 10.9687C47.2259 10.9687 46.5978 11.0999 46.0166 11.353C45.4541 11.6062 44.9666 11.9437 44.5447 12.3655C44.1134 12.8062 43.7759 13.3218 43.5416 13.8843C43.2884 14.4655 43.1572 15.0937 43.1666 15.7218C43.1666 16.378 43.2884 16.9968 43.5416 17.5968C43.7759 18.1499 44.1228 18.6562 44.5447 19.0874C44.9666 19.5093 45.4541 19.8468 46.0166 20.0999C46.5978 20.353 47.2259 20.4843 47.8634 20.4843ZM59.0759 7.17178H63.7634V24.2905H59.0666V7.17178H59.0759ZM65.7509 15.7312C65.7509 14.4843 65.9572 13.3124 66.3791 12.2062C66.8009 11.1374 67.4103 10.1624 68.1884 9.31865C68.9666 8.49365 69.9041 7.8374 70.9447 7.3874C72.0322 6.8999 73.2228 6.65615 74.5166 6.65615C75.8103 6.65615 76.9916 6.8999 78.0509 7.3874C79.1009 7.82803 80.0572 8.48428 80.8353 9.31865C81.6134 10.153 82.2228 11.1374 82.6166 12.2062C83.0572 13.303 83.2728 14.4843 83.2728 15.7312V24.2905H78.5759V15.7312C78.5759 15.0749 78.4822 14.4655 78.2947 13.8937C78.1447 13.3405 77.8822 12.8155 77.5166 12.3749C77.1697 11.9437 76.7291 11.5968 76.2322 11.3624C75.7353 11.1093 75.1634 10.978 74.5166 10.978C73.8697 10.978 73.2884 11.1093 72.7634 11.3624C72.2666 11.6155 71.8353 11.953 71.4791 12.3749C71.1322 12.8343 70.8603 13.3499 70.7009 13.8937C70.5322 14.4937 70.4478 15.1124 70.4478 15.7312V24.2905H65.7509V15.7312ZM89.4509 22.0124C89.4509 22.3968 89.3759 22.753 89.2353 23.0905C89.0853 23.4093 88.8884 23.6999 88.6447 23.9437C88.4103 24.1968 88.1291 24.3843 87.8009 24.5155C87.4916 24.6655 87.1447 24.7405 86.7697 24.7405C86.0197 24.7405 85.3822 24.478 84.8572 23.9437C84.3322 23.4187 84.0791 22.7718 84.0791 22.0124C84.0791 21.628 84.1447 21.2812 84.2666 20.9624C84.4166 20.6249 84.6134 20.3437 84.8572 20.1093C85.1103 19.8562 85.3916 19.6593 85.7009 19.5093C86.0384 19.3593 86.3947 19.2843 86.7697 19.2843C87.1447 19.2843 87.4916 19.3593 87.8009 19.5093C88.1384 19.6593 88.4197 19.8562 88.6447 20.1093C88.8978 20.3437 89.0947 20.6249 89.2447 20.9624C89.3947 21.2812 89.4603 21.628 89.4603 22.0124M90.2291 15.7312C90.2291 14.4843 90.4353 13.3124 90.8572 12.2062C91.2791 11.1374 91.8884 10.1624 92.6666 9.31865C93.4447 8.49365 94.3822 7.8374 95.4228 7.3874C96.5103 6.8999 97.6916 6.65615 98.9947 6.65615H99.6228V10.9687C98.9759 10.9687 98.3572 11.0999 97.7759 11.353C97.2228 11.5968 96.7259 11.9437 96.3041 12.3655C95.8728 12.8062 95.5353 13.3218 95.3009 13.8843C95.0478 14.4655 94.9166 15.0937 94.9259 15.7218V24.2812H90.2291V15.7218V15.7312ZM108.867 6.65615C110.16 6.65615 111.379 6.8999 112.523 7.3874C113.629 7.82803 114.642 8.48428 115.495 9.31865C116.348 10.1343 117.032 11.1187 117.501 12.2062C118.007 13.3124 118.26 14.5124 118.251 15.7312C118.251 16.0312 118.232 16.3124 118.185 16.5843C118.167 16.8374 118.129 17.0999 118.092 17.3812H104.451C104.798 18.2718 105.379 19.0499 106.138 19.6312C106.935 20.203 107.835 20.4843 108.857 20.4843C109.607 20.4843 110.31 20.3155 110.957 19.978C111.585 19.6593 112.129 19.1999 112.551 18.6468H117.745C117.426 19.5374 116.976 20.3718 116.404 21.1218C115.842 21.8812 115.148 22.5468 114.37 23.0905C113.582 23.6249 112.72 24.0468 111.801 24.328C110.854 24.6468 109.86 24.8155 108.857 24.8062C107.563 24.8062 106.345 24.5718 105.201 24.1124C104.085 23.653 103.063 22.978 102.201 22.1437C101.367 21.3093 100.682 20.3343 100.195 19.2562C99.7166 18.1499 99.4634 16.9499 99.4728 15.7312C99.4728 14.4843 99.7166 13.3124 100.195 12.2062C100.682 11.128 101.357 10.153 102.201 9.31865C103.073 8.48428 104.085 7.82803 105.201 7.3874C106.363 6.8999 107.601 6.64678 108.857 6.65615M113.273 14.0812C112.926 13.1905 112.335 12.4124 111.548 11.8593C110.77 11.2687 109.832 10.9593 108.857 10.9687C107.835 10.9687 106.926 11.2687 106.138 11.8593C105.37 12.4218 104.788 13.1905 104.451 14.0812H113.273ZM128.376 6.65615C129.67 6.65615 130.879 6.8999 132.004 7.3874C134.217 8.2874 135.979 10.0124 136.917 12.2062C137.423 13.3124 137.676 14.5124 137.667 15.7312C137.667 16.978 137.413 18.1499 136.917 19.2562C136.448 20.3343 135.782 21.3187 134.948 22.1437C134.104 22.978 133.101 23.6437 132.004 24.1124C130.879 24.5812 129.67 24.8062 128.376 24.8062C127.476 24.8062 126.632 24.6374 125.845 24.2999C125.076 23.9624 124.373 23.4937 123.782 22.903V30.0093H119.085V15.7405C119.085 14.4937 119.329 13.3218 119.807 12.2155C120.295 11.1374 120.97 10.1624 121.813 9.32803C122.657 8.49365 123.66 7.8374 124.757 7.39678C125.901 6.90928 127.138 6.66553 128.385 6.66553M128.282 20.4843C128.91 20.4843 129.529 20.3624 130.101 20.0999C130.663 19.8655 131.17 19.5187 131.601 19.0874C132.023 18.6562 132.36 18.1499 132.604 17.5968C132.857 17.0062 132.979 16.3687 132.979 15.7218C132.979 15.0655 132.857 14.4562 132.604 13.8843C132.37 13.3218 132.032 12.7968 131.601 12.3655C131.17 11.9343 130.663 11.5874 130.101 11.353C129.529 11.0999 128.91 10.9687 128.282 10.9687C127.635 10.9687 127.017 11.0999 126.435 11.353C125.882 11.5968 125.385 11.9437 124.963 12.3655C124.532 12.8062 124.195 13.3218 123.96 13.8843C123.707 14.4655 123.576 15.0937 123.585 15.7218C123.585 16.378 123.707 16.9968 123.96 17.5968C124.195 18.1499 124.542 18.6562 124.963 19.0874C125.376 19.5093 125.873 19.8468 126.435 20.0999C127.017 20.353 127.635 20.4843 128.282 20.4843Z" fill="black"/>
<path d="M156.323 15.7312C156.323 16.978 156.07 18.1499 155.573 19.2562C155.104 20.3437 154.42 21.3187 153.567 22.1437C152.732 22.9687 151.748 23.6249 150.623 24.1124C149.498 24.5812 148.288 24.8062 146.995 24.8062C145.701 24.8062 144.492 24.5718 143.367 24.1124C142.27 23.6437 141.257 22.978 140.395 22.1437C139.56 21.3093 138.876 20.3343 138.388 19.2562C137.91 18.1499 137.657 16.9499 137.667 15.7312C137.667 14.4843 137.91 13.3124 138.388 12.2062C138.876 11.128 139.551 10.153 140.395 9.31865C141.257 8.49365 142.26 7.8374 143.367 7.3874C144.51 6.8999 145.748 6.64678 146.995 6.65615C148.288 6.65615 149.498 6.8999 150.623 7.3874C151.72 7.8374 152.723 8.49365 153.567 9.31865C154.42 10.1343 155.104 11.1187 155.573 12.2062C156.079 13.3124 156.332 14.5124 156.323 15.7312ZM151.626 15.7312C151.626 15.0749 151.504 14.4655 151.251 13.8937C151.035 13.3218 150.707 12.8062 150.285 12.3749C149.863 11.953 149.367 11.6062 148.813 11.3624C148.242 11.1093 147.623 10.978 146.995 10.978C146.367 10.978 145.748 11.0999 145.176 11.3624C144.632 11.6062 144.126 11.953 143.704 12.3749C143.273 12.8155 142.935 13.3312 142.701 13.8937C142.467 14.4749 142.354 15.103 142.354 15.7312C142.354 16.3874 142.467 17.0062 142.701 17.6062C142.935 18.1593 143.282 18.6655 143.704 19.0968C144.126 19.5187 144.623 19.8655 145.176 20.1093C145.748 20.3624 146.367 20.4937 146.995 20.4937C147.623 20.4937 148.242 20.3718 148.813 20.1093C149.367 19.8655 149.863 19.5187 150.285 19.0968C150.707 18.6749 151.026 18.178 151.251 17.6062C151.504 17.0155 151.626 16.378 151.626 15.7312ZM157.101 15.7312C157.101 14.4843 157.307 13.3124 157.729 12.2062C158.151 11.1374 158.76 10.1624 159.548 9.31865C160.326 8.49365 161.263 7.8374 162.304 7.3874C163.392 6.8999 164.582 6.65615 165.867 6.65615H166.495V10.9687C165.848 10.9687 165.229 11.0999 164.648 11.353C164.095 11.5968 163.598 11.9437 163.176 12.3655C162.745 12.8062 162.407 13.3218 162.173 13.8843C161.92 14.4655 161.788 15.0937 161.798 15.7218V24.2812H157.101V15.7218V15.7312ZM171.876 1.4624V7.17178H176.573V11.2312H171.876V15.7312C171.876 16.3874 171.998 17.0062 172.251 17.6062C172.485 18.1593 172.832 18.6655 173.254 19.0968C173.676 19.5187 174.163 19.8562 174.726 20.1093C175.307 20.3624 175.926 20.4937 176.573 20.4937L175.945 24.8062C174.651 24.8062 173.46 24.5718 172.382 24.1124C171.342 23.6437 170.404 22.978 169.626 22.1437C168.848 21.3093 168.229 20.3249 167.807 19.2562C167.385 18.1312 167.17 16.9405 167.179 15.7312V1.4624H171.876Z" fill="black"/>
<path d="M62.4416 0.225C62.1228 0.075 61.7666 0 61.4103 0C61.0353 0 60.6791 0.075 60.3509 0.225C60.0322 0.375 59.7509 0.58125 59.5072 0.825C59.2541 1.06875 59.0478 1.35937 58.9166 1.67812C58.7947 1.99687 58.7291 2.34375 58.7291 2.72813C58.7291 3.4875 58.9916 4.13437 59.5072 4.65937C60.0041 5.175 60.6978 5.46563 61.4197 5.45625C61.7947 5.45625 62.1416 5.39062 62.4509 5.26875C62.7697 5.12812 63.0603 4.92188 63.2947 4.66875C63.5478 4.41563 63.7447 4.13438 63.8853 3.81563C64.0353 3.47813 64.1103 3.1125 64.1009 2.7375C64.1009 2.35313 64.0259 2.00625 63.8853 1.6875C63.7447 1.35937 63.5478 1.06875 63.2947 0.834375C63.0603 0.571875 62.7697 0.375 62.4509 0.234375" fill="#FFBF2C"/>
</g>
<defs>
<clipPath id="clip0_4881_2425">
<rect width="175.716" height="30" fill="white" transform="translate(0.857178)"/>
</clipPath>
</defs>
</svg>
