<svg width="183" height="34" viewBox="0 0 183 34" fill="none" xmlns="http://www.w3.org/2000/svg">
<g clip-path="url(#clip0_4881_2430)">
<path d="M29.8799 24.8933C25.3783 24.8933 21.7264 21.2414 21.7264 16.7399C21.7264 12.2383 25.3783 8.58643 29.8799 8.58643C34.3814 8.58643 38.0333 12.2383 38.0333 16.7399C38.0333 21.2414 34.3814 24.8933 29.8799 24.8933ZM29.8799 12.1638C27.3459 12.1638 25.3038 14.2059 25.3038 16.7399C25.3038 19.2738 27.3459 21.3159 29.8799 21.3159C32.4139 21.3159 34.4559 19.2738 34.4559 16.7399C34.4559 14.2208 32.399 12.1638 29.8799 12.1638Z" fill="#0D253E"/>
<path d="M43.9062 8.86914H40.3884V24.9524H43.9062V8.86914Z" fill="#0D253E"/>
<path d="M50.9566 24.9525H47.409V8.8692H50.9566V11.2839C51.8807 9.42071 54.0868 8.52637 55.8755 8.52637C59.7659 8.52637 62.0017 11.0454 62.0017 15.5768V24.9376H58.4542V15.9792C58.4542 13.4304 57.1425 11.9845 55.0855 11.9845C53.0285 11.9845 50.9566 13.1173 50.9566 16.2923V24.9525Z" fill="#0D253E"/>
<path d="M58.5734 1.22217H81.1854V4.63558H71.3626V24.9521H67.6361V4.63558H58.5585V1.22217H58.5734Z" fill="#008AFB"/>
<path d="M80.8873 24.9522H77.3397V8.86891H80.8873V11.7755C81.9903 9.76325 83.1828 8.86891 85.2994 8.52607C86.4173 8.3472 87.6396 8.79438 88.1613 9.15212L87.58 12.4314C86.8496 12.0587 86.0298 11.865 85.21 11.8799C82.1841 11.8799 80.9022 14.9057 80.9022 19.1837L80.8873 24.9522Z" fill="#008AFB"/>
<path d="M101.815 22.6421C100.742 24.401 98.4016 25.2953 96.4042 25.2953C92.0666 25.2953 88.2358 22.031 88.2358 16.8885C88.2358 11.746 92.0517 8.52637 96.4042 8.52637C98.327 8.52637 100.712 9.31637 101.815 11.1349V8.8692H105.333V24.9525H101.815V22.6421ZM96.8216 21.8521C99.445 21.8521 101.785 20.0336 101.785 16.8587C101.785 13.6838 99.2363 11.9696 96.8216 11.9696C94.1385 11.9696 91.9027 13.8924 91.9027 16.8587C91.9027 19.8249 94.1385 21.8521 96.8216 21.8521Z" fill="#008AFB"/>
<path d="M116.378 8.52637C118.927 8.52637 121.237 9.52505 122.743 11.3137L119.985 13.5198C119.121 12.5211 117.779 11.9696 116.363 11.9696C113.68 11.9696 111.295 13.8626 111.295 16.8587C111.295 19.8547 113.665 21.8819 116.363 21.8819C117.779 21.8819 119.121 21.3006 119.985 20.3019L122.772 22.4781C121.252 24.2668 118.957 25.2953 116.363 25.2953C111.742 25.2953 107.792 21.9564 107.792 16.8587C107.792 11.7609 111.757 8.52637 116.378 8.52637Z" fill="#008AFB"/>
<path d="M128.586 17.4699V24.9377H125.068V0.119629H128.586V14.1608L133.683 8.85439H138.438L131.582 15.8452L139.989 24.9377H135.442L128.586 17.4699Z" fill="#008AFB"/>
<path d="M144.55 8.86914H141.032V24.9524H144.55V8.86914Z" fill="#008AFB"/>
<path d="M151.6 24.9525H148.053V8.8692H151.6V11.2839C152.524 9.42071 154.73 8.52637 156.519 8.52637C160.409 8.52637 162.645 11.0454 162.645 15.5768V24.9376H159.098V15.9792C159.098 13.4304 157.786 11.9845 155.729 11.9845C153.672 11.9845 151.6 13.1173 151.6 16.2923V24.9525Z" fill="#008AFB"/>
<path d="M182.231 16.6204C182.231 14.787 181.561 13.0133 180.368 11.6121L182.306 9.06323L179.384 7.12549L177.611 9.46569C176.374 8.85455 175.002 8.54153 173.616 8.54153C168.861 8.54153 165 12.1785 165 16.6354C165 21.0922 168.861 24.7292 173.616 24.7292C176.627 24.7292 178.714 26.2496 178.714 27.606C178.714 28.9624 176.612 30.4828 173.616 30.4828C170.62 30.4828 168.518 28.9624 168.518 27.606H165C165 31.1834 168.786 34.0005 173.616 34.0005C178.445 34.0005 182.231 31.1983 182.231 27.606C182.231 25.6384 181.084 23.9094 179.265 22.7467C181.084 21.2412 182.231 19.0501 182.231 16.6204ZM168.518 16.6204C168.518 14.1014 170.814 12.0444 173.616 12.0444C176.418 12.0444 178.714 14.1014 178.714 16.6204C178.714 19.1395 176.418 21.1965 173.616 21.1965C170.814 21.1965 168.518 19.1395 168.518 16.6204Z" fill="#008AFB"/>
<path d="M12.4849 25.4144C5.77728 25.4144 0.351593 19.9738 0.351593 13.2662C0.351593 10.0466 1.63349 6.96109 3.91407 4.68051C8.65409 -0.0595184 16.3455 -0.0595184 21.0855 4.68051L18.4472 7.31882C15.153 4.02466 9.83164 4.02466 6.53748 7.31882C3.24331 10.613 3.24331 15.9343 6.53748 19.2285C9.83164 22.5227 15.153 22.5227 18.4472 19.2285L21.0855 21.8668C18.8049 24.1474 15.7194 25.4293 12.4849 25.4144Z" fill="#0D253E"/>
<path d="M42.192 4.62078C43.468 4.62078 44.5024 3.58638 44.5024 2.31039C44.5024 1.0344 43.468 0 42.192 0C40.916 0 39.8816 1.0344 39.8816 2.31039C39.8816 3.58638 40.916 4.62078 42.192 4.62078Z" fill="#0D253E"/>
<path d="M142.657 4.62078C143.933 4.62078 144.967 3.58638 144.967 2.31039C144.967 1.0344 143.933 0 142.657 0C141.381 0 140.346 1.0344 140.346 2.31039C140.346 3.58638 141.381 4.62078 142.657 4.62078Z" fill="#008AFB"/>
</g>
<defs>
<clipPath id="clip0_4881_2430">
<rect width="181.954" height="34" fill="white" transform="translate(0.351593)"/>
</clipPath>
</defs>
</svg>
