<svg width="80" height="16" viewBox="0 0 80 16" fill="none" xmlns="http://www.w3.org/2000/svg">
<g clip-path="url(#clip0_6001_1575)">
<path d="M24.1004 0.436118L20.925 15.6891H17.0842L20.26 0.436118H24.1004ZM40.2587 10.2854L42.2806 4.55714L43.4436 10.2854H40.2587ZM44.5458 15.6891H48.0972L44.9944 0.436118H41.7183C40.98 0.436118 40.3579 0.876025 40.0824 1.55426L34.3192 15.6891H38.3527L39.1536 13.4113H44.0804L44.5458 15.6891ZM34.5192 10.7093C34.5362 6.68404 29.1034 6.46083 29.1394 4.66237C29.1513 4.11575 29.6585 3.53355 30.7678 3.38474C31.318 3.31182 32.8354 3.25312 34.5558 4.06743L35.2286 0.83156C34.3045 0.48829 33.1155 0.157471 31.6363 0.157471C27.8394 0.157471 25.1683 2.22954 25.1469 5.19921C25.1227 7.39519 27.0549 8.61946 28.5076 9.35076C30.0056 10.0984 30.5076 10.578 30.5004 11.2459C30.49 12.2691 29.3056 12.7221 28.2035 12.7393C26.271 12.7701 25.1515 12.2027 24.2588 11.7753L23.5618 15.1191C24.4605 15.5418 26.1166 15.9096 27.8316 15.9286C31.868 15.9286 34.5073 13.8806 34.5192 10.7093ZM18.6125 0.436118L12.3895 15.6891H8.33L5.26737 3.51606C5.08185 2.76757 4.91999 2.49248 4.35536 2.17618C3.43181 1.66068 1.90699 1.17868 0.566528 0.878693L0.657123 0.436118H7.19266C8.02503 0.436118 8.77403 1.00527 8.96445 1.99032L10.5822 10.8175L14.5776 0.436118H18.6125Z" fill="#1A1F71"/>
</g>
<g clip-path="url(#clip1_6001_1575)">
<path d="M70.7781 2.21033H64.0662V14.2412H70.7781V2.21033Z" fill="#FF5F00"/>
<path d="M64.4923 8.2256C64.4923 5.78115 65.6429 3.61304 67.4115 2.21014C66.1117 1.18985 64.471 0.573425 62.6812 0.573425C58.441 0.573425 55.0105 3.99565 55.0105 8.2256C55.0105 12.4556 58.441 15.8778 62.6812 15.8778C64.471 15.8778 66.1117 15.2613 67.4115 14.2411C65.6429 12.8594 64.4923 10.67 64.4923 8.2256Z" fill="#EB001B"/>
<path d="M79.8336 8.22578C79.8336 12.4557 76.4031 15.878 72.1629 15.878C70.3731 15.878 68.7324 15.2615 67.4326 14.2412C69.2224 12.8383 70.3517 10.6702 70.3517 8.22578C70.3517 5.78134 69.2011 3.61322 67.4326 2.21032C68.7324 1.19003 70.3731 0.573608 72.1629 0.573608C76.4031 0.573608 79.8336 4.01709 79.8336 8.22578Z" fill="#F79E1B"/>
</g>
<defs>
<clipPath id="clip0_6001_1575">
<rect width="48" height="16" fill="white" transform="translate(0.409668)"/>
</clipPath>
<clipPath id="clip1_6001_1575">
<rect width="25.0435" height="16" fill="white" transform="translate(54.8094)"/>
</clipPath>
</defs>
</svg>
