<svg width="259" height="30" viewBox="0 0 259 30" fill="none" xmlns="http://www.w3.org/2000/svg">
<g clip-path="url(#clip0_4097_841)">
<mask id="mask0_4097_841" style="mask-type:luminance" maskUnits="userSpaceOnUse" x="0" y="0" width="259" height="30">
<path d="M258.148 0H0.718994V30H258.148V0Z" fill="white"/>
</mask>
<g mask="url(#mask0_4097_841)">
<path d="M2.14135 24.6812C3.08292 26.3039 4.36506 27.5961 5.98776 28.5577C7.61047 29.4892 9.42349 29.95 11.4368 29.95C13.0095 29.95 14.522 29.6295 15.9744 28.9884C17.4268 28.3273 18.6889 27.4158 19.7307 26.2739L19.8709 26.1236L16.4352 22.4475L16.2849 22.6178C15.5838 23.359 14.8525 23.92 14.0712 24.2906C13.33 24.6311 12.5387 24.8114 11.6672 24.8114C10.6856 24.8114 9.77407 24.571 8.97274 24.1003C8.1714 23.5994 7.53033 22.9283 7.05955 22.0669C6.6088 21.1854 6.39845 20.2138 6.39845 19.152C6.39845 18.0902 6.62883 17.0585 7.05955 16.1971C7.53033 15.3457 8.14135 14.6645 8.91264 14.1637C9.69394 13.6629 10.5754 13.4124 11.5671 13.4124C12.4886 13.4124 13.32 13.6128 14.0813 14.0135C14.8726 14.3841 15.6238 14.9851 16.355 15.8064L16.5053 15.9867L20.0312 12.1904L19.9009 12.0402C18.8292 10.8382 17.547 9.91662 16.0646 9.29559C14.6121 8.65452 13.0595 8.33398 11.4469 8.33398C9.44352 8.33398 7.62048 8.80477 5.99778 9.77639C4.37507 10.738 3.09294 12.0301 2.15137 13.6528C1.21981 15.2655 0.739014 17.0986 0.739014 19.142C0.739014 21.1854 1.2098 22.9984 2.14135 24.6512V24.6812Z" fill="black"/>
<path d="M22.6155 8.74422V29.5389L28.305 23.599V16.1866C28.8058 15.2751 29.4469 14.5739 30.2382 14.0931C31.0395 13.5923 31.951 13.3419 32.9327 13.3419C33.4035 13.3419 33.8642 13.392 34.315 13.4921C34.7657 13.5723 35.1564 13.6925 35.527 13.8628L35.8375 14.003V8.83437L35.7373 8.77427C35.1964 8.45374 34.4352 8.30349 33.4535 8.27344C32.2916 8.27344 31.2599 8.51384 30.3183 9.00466C29.5671 9.40532 28.8959 9.93621 28.325 10.6173V8.75424H22.6255L22.6155 8.74422Z" fill="black"/>
<path d="M57.774 8.74463L63.3834 29.5693H68.7723L72.4885 17.0685L76.2047 29.5693H81.5637L87.2131 8.74463H81.8441L78.6889 21.3456L74.9026 8.74463H70.1747L66.3483 21.3056L63.193 8.74463H57.744H57.754H57.774Z" fill="black"/>
<path fill-rule="evenodd" clip-rule="evenodd" d="M89.2965 24.5609C88.375 22.9382 87.9243 21.1251 87.9243 19.1318C87.9243 17.1385 88.385 15.3355 89.2965 13.7428C90.2381 12.1201 91.5102 10.838 93.1029 9.90644C94.7056 8.94484 96.4885 8.47406 98.4718 8.47406C99.4935 8.47406 100.465 8.61429 101.407 8.90478C102.228 9.13516 102.989 9.46571 103.711 9.90644V1.77289L109.4 0.80127V29.5592H103.791V28.0867C102.188 29.2487 100.365 29.8297 98.3216 29.8297C96.3884 29.8297 94.6455 29.3589 93.0728 28.3872C91.5002 27.4256 90.2481 26.1535 89.3166 24.5509H89.3066L89.2965 24.5609ZM96.2682 14.2036C95.4368 14.6744 94.7757 15.3555 94.2748 16.237C93.794 17.0884 93.5336 18.05 93.5336 19.1418C93.5336 20.2337 93.774 21.1953 94.2748 22.0467C94.7757 22.8981 95.4368 23.5792 96.2682 24.0801C97.1196 24.5809 98.0912 24.8313 99.153 24.8313C100.095 24.8313 100.956 24.6811 101.717 24.3706C102.489 24.05 103.14 23.5993 103.701 22.9983V15.2253C103.15 14.6744 102.489 14.2437 101.717 13.9231C100.926 13.5926 100.064 13.4223 99.153 13.4223C98.0912 13.4223 97.1196 13.6827 96.2682 14.1736V14.2036Z" fill="black"/>
<path d="M49.4402 8.58419C49.5003 8.5942 49.5804 8.62425 49.6405 8.63427L43.31 15.1051C42.6188 15.7461 42.098 16.5875 41.8375 17.5591C41.3567 19.3822 41.7774 21.065 42.9895 22.3271L39.1831 26.2236C36.6489 23.6293 35.5871 19.9131 36.5988 16.1368C38.1113 10.4573 43.8208 7.05163 49.4402 8.57417H49.4302L49.4402 8.58419Z" fill="black"/>
<path d="M49.2899 19.7632C48.8692 21.3658 47.2465 22.3074 45.6639 21.8767C44.0812 21.446 43.1497 19.8233 43.5704 18.2206C43.9911 16.6279 45.6138 15.6764 47.1964 16.1071C48.7791 16.5278 49.7106 18.1605 49.2899 19.7632Z" fill="black"/>
<path d="M43.36 29.5393C43.2999 29.5293 43.2198 29.4993 43.1597 29.4892L49.5403 23.0185C50.2315 22.3774 50.7724 21.536 51.0228 20.5644C51.5036 18.7413 51.0829 17.0285 49.8608 15.7664L53.6872 11.8599C56.2415 14.4542 57.3433 18.2104 56.3216 21.9867C54.7991 27.6662 49.0495 31.0719 43.37 29.5493L43.36 29.5393Z" fill="black"/>
<path d="M209.437 13.6928L206.161 29.5693H211.751L215.066 13.6928H220.375L221.367 8.75458H216.058L216.378 7.31217C216.559 6.51084 216.869 5.93989 217.3 5.59932C217.761 5.23872 218.412 5.05842 219.243 5.05842C219.714 5.05842 220.165 5.09848 220.585 5.1686C221.006 5.24873 221.427 5.35892 221.868 5.50917L222.098 5.59932L223.07 0.731205L222.919 0.651071C222.459 0.430704 221.858 0.270437 221.126 0.17027C220.425 0.070103 219.744 0.0200195 219.093 0.0200195C216.909 0.0200195 215.096 0.590971 213.684 1.74289C212.282 2.90483 211.36 4.5676 210.889 6.71117L210.428 8.75458H206.081L205.09 13.6928H209.447H209.437Z" fill="url(#paint0_linear_4097_841)"/>
<path d="M115.15 27.2253C115.3 27.5558 115.51 27.8563 115.751 28.1368C116.812 29.2987 118.515 29.8496 120.789 29.8496C121.39 29.8496 122.041 29.7995 122.732 29.6994C123.423 29.6192 124.014 29.5291 124.485 29.4189L124.615 29.3889L125.637 24.5809L125.317 24.661C124.856 24.7612 124.445 24.8413 124.065 24.8914C123.694 24.9415 123.293 24.9715 122.903 24.9715C121.821 24.9715 121.15 24.7712 120.829 24.4206C120.509 24.05 120.398 23.4189 120.579 22.4473L122.462 13.6627H128.031L129.043 8.76449H123.474L124.826 2.28369L118.946 3.59588L117.874 8.76449H113.837L112.826 13.6627H116.863L114.879 23.2586C114.709 24.06 114.639 24.8012 114.689 25.4723C114.689 25.4723 114.699 26.0733 114.809 26.4339C114.899 26.7645 115.14 27.2353 115.14 27.2353H115.16L115.15 27.2253Z" fill="url(#paint1_linear_4097_841)"/>
<path d="M126.829 29.5591L131.186 8.7344H136.776L136.445 10.3471C137.066 9.78615 137.737 9.3354 138.469 8.99483C139.39 8.56412 140.372 8.34375 141.393 8.34375C142.515 8.34375 143.387 8.52405 143.998 8.93474L144.128 9.01487L143.066 14.1835L142.796 13.9932C142.575 13.8429 142.195 13.6826 141.644 13.5624C141.093 13.4122 140.572 13.3321 140.081 13.3321C138.178 13.3321 136.565 14.2035 135.253 15.9865L132.469 29.5691H126.829V29.5591Z" fill="url(#paint2_linear_4097_841)"/>
<path fill-rule="evenodd" clip-rule="evenodd" d="M144.128 28.2171C145.41 29.2789 147.103 29.7897 149.216 29.7897C150.138 29.7897 151.009 29.6795 151.851 29.4291C152.542 29.2087 153.233 28.9082 153.914 28.5176L153.724 29.5493H159.233L161.807 17.1286C162.208 15.3256 162.128 13.763 161.567 12.4508C161.006 11.1186 160.035 10.1069 158.662 9.40574C157.32 8.70458 155.617 8.37402 153.574 8.37402C152.342 8.37402 151.07 8.51426 149.727 8.80474C148.385 9.07519 146.953 9.50591 145.46 10.1069L145.28 10.187L146.672 14.6244L146.873 14.5443C148.125 14.0735 149.176 13.743 150.028 13.5326C150.909 13.3323 151.711 13.2221 152.442 13.2221C154.065 13.2221 155.136 13.5627 155.737 14.2037C156.348 14.8047 156.569 15.7463 156.288 17.0885L156.108 17.8899C155.347 17.5994 154.525 17.349 153.654 17.1887C152.722 17.0084 151.771 16.9082 150.799 16.9082C149.036 16.9082 147.504 17.1887 146.221 17.7496C144.929 18.3106 143.938 19.1019 143.206 20.1236C142.515 21.1553 142.175 22.3974 142.175 23.8398C142.175 25.6128 142.816 27.0652 144.088 28.157L144.128 28.187V28.2171ZM150.989 25.5627C151.691 25.5627 152.362 25.4725 153.013 25.2922C153.624 25.1019 154.215 24.8314 154.766 24.5009L155.367 21.7864C154.105 21.1954 152.732 20.9049 151.23 20.9049C150.058 20.9049 149.136 21.1453 148.465 21.6061C147.824 22.0668 147.524 22.6678 147.524 23.4191C147.524 24.0702 147.804 24.581 148.375 24.9517C149.006 25.3323 149.858 25.5426 150.999 25.5426L150.989 25.5627Z" fill="url(#paint3_linear_4097_841)"/>
<path d="M162.689 29.5591L167.006 8.73435H172.595L172.335 9.95638C173.918 8.93468 175.63 8.42383 177.474 8.42383C179.096 8.42383 180.479 8.80446 181.59 9.59578C182.732 10.347 183.534 11.3988 183.984 12.711C184.435 14.0432 184.485 15.5357 184.155 17.2085L183.183 22.337L176.091 29.5591L178.485 17.6492C178.726 16.337 178.545 15.3253 177.984 14.5841C177.423 13.8128 176.542 13.4222 175.31 13.4222C174.519 13.4222 173.777 13.5724 173.086 13.8729C172.435 14.1634 171.834 14.6041 171.273 15.1851L168.298 29.5791H162.709V29.549L162.689 29.5591Z" fill="url(#paint4_linear_4097_841)"/>
<path d="M185.427 27.2752C187.1 28.327 187.13 28.4372 188.772 29.0382C190.485 29.6793 192.278 29.9798 194.151 29.9798C195.784 29.9798 197.267 29.6692 198.589 29.0582C199.891 28.4172 200.943 27.5657 201.704 26.4939C202.465 25.4121 202.856 24.1901 202.856 22.8479C202.856 21.4155 202.385 20.2035 201.454 19.2218C200.522 18.2402 199.18 17.5691 197.467 17.1985L193.821 16.3771C192.989 16.1968 192.418 15.9664 192.068 15.716C191.757 15.4455 191.607 15.105 191.607 14.6642C191.607 14.1133 191.838 13.6826 192.318 13.3621C192.809 13.0315 193.49 12.8512 194.392 12.8512C195.363 12.8512 196.345 13.0515 197.347 13.4622C198.368 13.8429 199.38 14.4238 200.362 15.1851L200.512 15.3153L203.667 11.7494L203.497 11.6091C202.295 10.5774 200.943 9.79612 199.43 9.25521C197.918 8.69428 196.355 8.42383 194.712 8.42383C193.07 8.42383 191.627 8.7043 190.395 9.26523C189.183 9.82617 188.252 10.6175 187.58 11.6592C186.919 12.6709 186.579 13.8829 186.579 15.3053C186.579 16.7277 187.009 18.0298 187.911 19.0115C188.812 19.9931 190.125 20.6642 191.787 21.0348L195.474 21.8562C196.205 22.0365 196.716 22.2669 197.046 22.5173C197.357 22.7577 197.507 23.0783 197.507 23.4789C197.507 24.0399 197.226 24.5106 196.615 24.9013C196.014 25.2819 195.223 25.4923 194.191 25.4923C193.09 25.4923 192.008 25.2619 190.936 24.8011C190.706 24.701 190.515 24.6208 190.345 24.5607C189.784 24.3303 189.584 24.2202 188.903 23.7293L185.437 27.2652H185.427V27.2752Z" fill="url(#paint5_linear_4097_841)"/>
<path fill-rule="evenodd" clip-rule="evenodd" d="M224.943 28.7177C223.4 27.8662 222.178 26.6843 221.287 25.1918C220.395 23.6692 219.954 21.9564 219.954 20.0632C219.954 18.4706 220.235 16.9681 220.806 15.5657C221.377 14.1634 222.178 12.9213 223.2 11.8596C224.221 10.7778 225.403 9.92633 226.726 9.34536C228.058 8.73435 229.49 8.42383 230.993 8.42383C232.796 8.42383 234.388 8.85455 235.801 9.75605C237.193 10.6075 238.285 11.7894 239.076 13.2819C239.868 14.7744 240.248 16.5173 240.248 18.4706C240.248 18.7611 240.238 19.0716 240.208 19.4121C240.208 19.7727 240.158 20.2836 240.058 20.9547L240.028 21.135H225.584C225.754 21.8662 226.034 22.5173 226.455 23.0883C226.916 23.7193 227.507 24.2001 228.218 24.5407C228.959 24.8813 229.781 25.0616 230.702 25.0616C231.524 25.0616 232.305 24.9313 233.016 24.6809C233.727 24.4205 234.368 24.0799 234.909 23.6192L235.08 23.4889L238.245 27.2352L238.055 27.3754C236.812 28.2669 235.58 28.918 234.348 29.3187C233.126 29.7193 231.764 29.9197 230.282 29.9197C228.298 29.9197 226.525 29.509 224.953 28.6776V28.7076L224.943 28.7177ZM225.924 16.918H234.919C234.769 16.2368 234.509 15.6559 234.168 15.145C233.777 14.5741 233.287 14.1233 232.696 13.8028C232.125 13.4823 231.454 13.322 230.732 13.322C230.011 13.322 229.3 13.4923 228.639 13.8028C227.998 14.1233 227.437 14.5841 226.936 15.155C226.525 15.6659 226.195 16.2368 225.924 16.908V16.918Z" fill="url(#paint6_linear_4097_841)"/>
<path d="M245.196 8.74442L240.839 29.5691H246.459L249.243 15.9865C250.555 14.2135 252.168 13.3321 254.071 13.3321C254.562 13.3321 255.083 13.4122 255.634 13.5624C256.185 13.6927 256.565 13.8429 256.786 13.9932L257.056 14.1835L258.118 9.01487L257.988 8.93474C257.377 8.53407 256.495 8.34375 255.383 8.34375C254.352 8.34375 253.38 8.56412 252.459 8.99483C251.727 9.32539 251.066 9.78615 250.435 10.3471L250.766 8.7344H245.176H245.186L245.196 8.74442Z" fill="url(#paint7_linear_4097_841)"/>
</g>
</g>
<defs>
<linearGradient id="paint0_linear_4097_841" x1="199.37" y1="49.9633" x2="218.392" y2="-3.21537" gradientUnits="userSpaceOnUse">
<stop stop-color="#FF8C21"/>
<stop offset="1" stop-color="#F5576E"/>
</linearGradient>
<linearGradient id="paint1_linear_4097_841" x1="118.515" y1="21.045" x2="137.517" y2="-32.1337" gradientUnits="userSpaceOnUse">
<stop stop-color="#FF8C21"/>
<stop offset="1" stop-color="#F5576E"/>
</linearGradient>
<linearGradient id="paint2_linear_4097_841" x1="131.978" y1="25.8629" x2="150.999" y2="-27.3257" gradientUnits="userSpaceOnUse">
<stop stop-color="#FF8C21"/>
<stop offset="1" stop-color="#F5576E"/>
</linearGradient>
<linearGradient id="paint3_linear_4097_841" x1="148.045" y1="31.6128" x2="167.066" y2="-21.5759" gradientUnits="userSpaceOnUse">
<stop stop-color="#FF8C21"/>
<stop offset="1" stop-color="#F5576E"/>
</linearGradient>
<linearGradient id="paint4_linear_4097_841" x1="166.936" y1="38.3637" x2="185.948" y2="-14.8349" gradientUnits="userSpaceOnUse">
<stop stop-color="#FF8C21"/>
<stop offset="1" stop-color="#F5576E"/>
</linearGradient>
<linearGradient id="paint5_linear_4097_841" x1="185.437" y1="44.9747" x2="204.449" y2="-8.2139" gradientUnits="userSpaceOnUse">
<stop stop-color="#FF8C21"/>
<stop offset="1" stop-color="#F5576E"/>
</linearGradient>
<linearGradient id="paint6_linear_4097_841" x1="217.06" y1="56.2836" x2="236.071" y2="3.09494" gradientUnits="userSpaceOnUse">
<stop stop-color="#FF8C21"/>
<stop offset="1" stop-color="#F5576E"/>
</linearGradient>
<linearGradient id="paint7_linear_4097_841" x1="233.056" y1="62.0032" x2="252.068" y2="8.81454" gradientUnits="userSpaceOnUse">
<stop stop-color="#FF8C21"/>
<stop offset="1" stop-color="#F5576E"/>
</linearGradient>
<clipPath id="clip0_4097_841">
<rect width="257.429" height="30" fill="white" transform="translate(0.718994)"/>
</clipPath>
</defs>
</svg>
