<svg width="98" height="32" viewBox="0 0 98 32" fill="none" xmlns="http://www.w3.org/2000/svg">
<g clip-path="url(#clip0_4488_19040)">
<path d="M16 32C24.8366 32 32 24.8366 32 16C32 7.16344 24.8366 0 16 0C7.16344 0 0 7.16344 0 16C0 24.8366 7.16344 32 16 32Z" fill="url(#paint0_linear_4488_19040)"/>
<path d="M16 32C24.8366 32 32 24.8366 32 16C32 7.16344 24.8366 0 16 0C7.16344 0 0 7.16344 0 16C0 24.8366 7.16344 32 16 32Z" fill="url(#paint1_radial_4488_19040)"/>
<path d="M16 1C24.27 1 31 7.73 31 16C31 24.27 24.27 31 16 31C7.73 31 1 24.27 1 16C1 7.73 7.73 1 16 1ZM16 0C7.16 0 0 7.16 0 16C0 24.84 7.16 32 16 32C24.84 32 32 24.84 32 16C32 7.16 24.84 0 16 0Z" fill="url(#paint2_linear_4488_19040)"/>
<path d="M20 26V24H12V26H20Z" fill="#272B38" fill-opacity="0.45"/>
<path d="M22 22H20V24H22V22Z" fill="#272B38" fill-opacity="0.45"/>
<path d="M12 22H10V24H12V22Z" fill="#272B38" fill-opacity="0.45"/>
<path d="M24 20H22V22H24V20Z" fill="#272B38" fill-opacity="0.45"/>
<path d="M24 12H22V14H24V12Z" fill="#272B38" fill-opacity="0.45"/>
<path d="M8 14H6V16H8V18H6V20H8V22H10V20H18V18H10V16H20V14H10V12H8V14Z" fill="#272B38" fill-opacity="0.45"/>
<path d="M22 10H20V12H22V10Z" fill="#272B38" fill-opacity="0.45"/>
<path d="M12 10H10V12H12V10Z" fill="#272B38" fill-opacity="0.45"/>
<path d="M12 8V10H20V8H12Z" fill="#272B38" fill-opacity="0.45"/>
<path d="M20 25V23H12V25H20Z" fill="url(#paint3_linear_4488_19040)"/>
<path d="M22 21H20V23H22V21Z" fill="url(#paint4_linear_4488_19040)"/>
<path d="M12 21H10V23H12V21Z" fill="url(#paint5_linear_4488_19040)"/>
<path d="M24 19H22V21H24V19Z" fill="url(#paint6_linear_4488_19040)"/>
<path d="M24 11H22V13H24V11Z" fill="url(#paint7_linear_4488_19040)"/>
<path d="M8 13H6V15H8V17H6V19H8V21H10V19H18V17H10V15H20V13H10V11H8V13Z" fill="url(#paint8_linear_4488_19040)"/>
<path d="M22 9H20V11H22V9Z" fill="url(#paint9_linear_4488_19040)"/>
<path d="M12 9H10V11H12V9Z" fill="url(#paint10_linear_4488_19040)"/>
<path d="M12 7V9H20V7H12Z" fill="url(#paint11_linear_4488_19040)"/>
</g>
<path d="M37.8867 13.2284H48.091V16.2846H41.1976V19.0861H47.709V22.1423H41.1976V25.1985H48.473V28.2547H37.8867V13.2284Z" fill="#272B38"/>
<path d="M63.5672 22.4649C63.5672 23.3563 63.4314 24.1797 63.1597 24.9268C62.888 25.6739 62.489 26.3276 61.9627 26.8794C61.4363 27.4312 60.7742 27.8641 59.9762 28.1698C59.1866 28.4839 58.2698 28.6367 57.2341 28.6367C56.1984 28.6367 55.2645 28.4839 54.475 28.1698C53.6855 27.8556 53.0233 27.4227 52.4885 26.8794C51.9537 26.336 51.5547 25.6739 51.2915 24.9268C51.0198 24.1797 50.884 23.3563 50.884 22.4649V13.2284H54.1949V22.329C54.1949 22.796 54.2713 23.2289 54.4156 23.6279C54.5684 24.0269 54.7722 24.3665 55.0438 24.6551C55.3155 24.9438 55.6381 25.173 56.0116 25.3343C56.3851 25.4956 56.7926 25.5805 57.2341 25.5805C57.6755 25.5805 58.0745 25.4956 58.4481 25.3343C58.8131 25.173 59.1357 24.9438 59.3989 24.6551C59.6705 24.3665 59.8743 24.0184 60.0271 23.6279C60.1714 23.2289 60.2478 22.796 60.2478 22.329V13.2284H63.5587V22.4649H63.5672Z" fill="#272B38"/>
<path d="M66.4536 13.2284H72.2688C73.0329 13.2284 73.7545 13.3048 74.4421 13.4491C75.1298 13.6019 75.7325 13.8481 76.2419 14.1962C76.7597 14.5443 77.1672 15.0112 77.4728 15.5969C77.7785 16.1827 77.9313 16.9128 77.9313 17.7957C77.9313 18.8569 77.6511 19.7568 77.0993 20.5038C76.5475 21.2509 75.741 21.7178 74.6798 21.9131L78.5001 28.2631H74.5355L71.3944 22.2611H69.7645V28.2631H66.4536V13.2284ZM69.7645 19.4511H71.717C72.0142 19.4511 72.3283 19.4426 72.6593 19.4172C72.9904 19.4002 73.296 19.3323 73.5592 19.2304C73.8224 19.1285 74.0516 18.9587 74.2299 18.7295C74.4082 18.5003 74.4931 18.1862 74.4931 17.7787C74.4931 17.3967 74.4167 17.0911 74.2638 16.8704C74.111 16.6411 73.9073 16.4714 73.6696 16.3525C73.4319 16.2336 73.1517 16.1488 72.8461 16.1063C72.532 16.0639 72.2264 16.0469 71.9293 16.0469H69.7645V19.4596V19.4511Z" fill="#272B38"/>
<path d="M79.5188 20.7415C79.5188 19.536 79.7225 18.4494 80.1215 17.4731C80.529 16.4968 81.0893 15.6649 81.8109 14.9772C82.5325 14.2896 83.39 13.7632 84.3832 13.3982C85.3765 13.0331 86.4547 12.8464 87.6262 12.8464C88.7977 12.8464 89.8844 13.0331 90.8776 13.3982C91.8709 13.7632 92.7198 14.2896 93.4414 14.9772C94.163 15.6649 94.7233 16.4968 95.1308 17.4731C95.5383 18.4494 95.7336 19.536 95.7336 20.7415C95.7336 21.947 95.5298 23.0337 95.1308 24.0099C94.7318 24.9862 94.163 25.8182 93.4414 26.5058C92.7198 27.1935 91.8624 27.7198 90.8776 28.0849C89.8844 28.4499 88.8062 28.6367 87.6262 28.6367C86.4462 28.6367 85.368 28.4499 84.3832 28.0849C83.39 27.7198 82.5325 27.1935 81.8109 26.5058C81.0893 25.8182 80.529 24.9862 80.1215 24.0099C79.7141 23.0337 79.5188 21.947 79.5188 20.7415ZM82.957 20.7415C82.957 21.4461 83.0674 22.0998 83.2881 22.6856C83.5088 23.2714 83.8229 23.7807 84.2304 24.2137C84.6379 24.6467 85.1303 24.9777 85.7076 25.2239C86.2764 25.4616 86.9216 25.589 87.6262 25.589C88.3308 25.589 88.976 25.4701 89.5448 25.2239C90.1136 24.9862 90.606 24.6467 91.022 24.2137C91.4294 23.7807 91.7435 23.2714 91.9643 22.6856C92.185 22.0998 92.2954 21.4546 92.2954 20.7415C92.2954 20.0284 92.185 19.4087 91.9643 18.8144C91.7435 18.2202 91.4294 17.7108 91.022 17.2778C90.6145 16.8449 90.1221 16.5138 89.5448 16.2676C88.9675 16.0299 88.3308 15.9026 87.6262 15.9026C86.9216 15.9026 86.2764 16.0214 85.7076 16.2676C85.1303 16.5053 84.6464 16.8449 84.2304 17.2778C83.8229 17.7108 83.5088 18.2202 83.2881 18.8144C83.0674 19.4087 82.957 20.0539 82.957 20.7415Z" fill="#272B38"/>
<path d="M43.0915 9.83598H41.722V9.20084H41.7021C41.6426 9.28685 41.5632 9.37616 41.4639 9.46879C41.3713 9.5548 41.2588 9.63419 41.1265 9.70697C41.0008 9.77975 40.8586 9.83929 40.6998 9.8856C40.5476 9.93192 40.3888 9.95507 40.2234 9.95507C39.8662 9.95507 39.542 9.89553 39.2509 9.77644C38.9598 9.65073 38.7083 9.47871 38.4966 9.26038C38.2915 9.03544 38.1327 8.77079 38.0203 8.46645C37.9078 8.16211 37.8516 7.828 37.8516 7.46412C37.8516 7.1267 37.9012 6.80582 38.0004 6.50148C38.1063 6.19052 38.2518 5.91595 38.4371 5.67777C38.629 5.43959 38.8605 5.25104 39.1318 5.1121C39.403 4.96654 39.7107 4.89377 40.0547 4.89377C40.3657 4.89377 40.6535 4.94339 40.9181 5.04263C41.1894 5.13525 41.411 5.29735 41.583 5.52891H41.6029V2.33334H43.0915V9.83598ZM41.722 7.42442C41.722 7.06053 41.6161 6.76612 41.4044 6.54117C41.1993 6.31623 40.9082 6.20375 40.5311 6.20375C40.154 6.20375 39.8595 6.31623 39.6478 6.54117C39.4427 6.76612 39.3402 7.06053 39.3402 7.42442C39.3402 7.7883 39.4427 8.08272 39.6478 8.30767C39.8595 8.53261 40.154 8.64509 40.5311 8.64509C40.9082 8.64509 41.1993 8.53261 41.4044 8.30767C41.6161 8.08272 41.722 7.7883 41.722 7.42442Z" fill="#272B38"/>
<path d="M48.8463 9.00236C48.6082 9.30669 48.3071 9.54157 47.9432 9.70697C47.5793 9.87237 47.2022 9.95507 46.8119 9.95507C46.4414 9.95507 46.0907 9.89553 45.7599 9.77644C45.4357 9.65735 45.1512 9.48864 44.9065 9.27031C44.6683 9.04536 44.4797 8.77741 44.3408 8.46645C44.2018 8.1555 44.1324 7.80815 44.1324 7.42442C44.1324 7.04069 44.2018 6.69334 44.3408 6.38239C44.4797 6.07143 44.6683 5.80679 44.9065 5.58846C45.1512 5.36351 45.4357 5.19149 45.7599 5.0724C46.0907 4.95331 46.4414 4.89377 46.8119 4.89377C47.1559 4.89377 47.4669 4.95331 47.7448 5.0724C48.0292 5.19149 48.2674 5.36351 48.4593 5.58846C48.6578 5.80679 48.8099 6.07143 48.9158 6.38239C49.0217 6.69334 49.0746 7.04069 49.0746 7.42442V7.89085H45.621C45.6805 8.17534 45.8095 8.4036 46.008 8.57562C46.2065 8.74102 46.4513 8.82372 46.7424 8.82372C46.9872 8.82372 47.1923 8.77079 47.3577 8.66494C47.5297 8.55246 47.6786 8.41022 47.8043 8.2382L48.8463 9.00236ZM47.586 6.87859C47.5926 6.62718 47.5099 6.41216 47.3379 6.23352C47.1658 6.05489 46.9442 5.96557 46.6729 5.96557C46.5075 5.96557 46.362 5.99204 46.2363 6.04497C46.1106 6.09789 46.0014 6.16736 45.9088 6.25337C45.8228 6.33277 45.7533 6.4287 45.7004 6.54117C45.6541 6.64703 45.6276 6.7595 45.621 6.87859H47.586Z" fill="#272B38"/>
<path d="M53.2449 6.57094C53.1721 6.46509 53.0696 6.37908 52.9372 6.31292C52.8049 6.24014 52.6627 6.20375 52.5105 6.20375C52.1334 6.20375 51.839 6.31623 51.6273 6.54117C51.4222 6.76612 51.3196 7.06053 51.3196 7.42442C51.3196 7.7883 51.4222 8.08272 51.6273 8.30767C51.839 8.53261 52.1334 8.64509 52.5105 8.64509C52.6759 8.64509 52.8181 8.6087 52.9372 8.53592C53.0563 8.46314 53.1589 8.37714 53.2449 8.27789L54.2274 9.31C53.9958 9.54818 53.7212 9.71689 53.4037 9.81613C53.0927 9.90876 52.795 9.95507 52.5105 9.95507C52.14 9.95507 51.7893 9.89553 51.4585 9.77644C51.1344 9.65735 50.8499 9.48864 50.6051 9.27031C50.3669 9.04536 50.1783 8.77741 50.0394 8.46645C49.9005 8.1555 49.831 7.80815 49.831 7.42442C49.831 7.04069 49.9005 6.69334 50.0394 6.38239C50.1783 6.07143 50.3669 5.80679 50.6051 5.58846C50.8499 5.36351 51.1344 5.19149 51.4585 5.0724C51.7893 4.95331 52.14 4.89377 52.5105 4.89377C52.795 4.89377 53.0927 4.94339 53.4037 5.04263C53.7212 5.13525 53.9958 5.30066 54.2274 5.53884L53.2449 6.57094Z" fill="#272B38"/>
<path d="M59.3326 9.00236C59.0944 9.30669 58.7934 9.54157 58.4295 9.70697C58.0656 9.87237 57.6885 9.95507 57.2981 9.95507C56.9276 9.95507 56.577 9.89553 56.2462 9.77644C55.922 9.65735 55.6375 9.48864 55.3927 9.27031C55.1545 9.04536 54.9659 8.77741 54.827 8.46645C54.6881 8.1555 54.6186 7.80815 54.6186 7.42442C54.6186 7.04069 54.6881 6.69334 54.827 6.38239C54.9659 6.07143 55.1545 5.80679 55.3927 5.58846C55.6375 5.36351 55.922 5.19149 56.2462 5.0724C56.577 4.95331 56.9276 4.89377 57.2981 4.89377C57.6422 4.89377 57.9531 4.95331 58.231 5.0724C58.5155 5.19149 58.7537 5.36351 58.9455 5.58846C59.144 5.80679 59.2962 6.07143 59.402 6.38239C59.5079 6.69334 59.5608 7.04069 59.5608 7.42442V7.89085H56.1072C56.1668 8.17534 56.2958 8.4036 56.4943 8.57562C56.6927 8.74102 56.9375 8.82372 57.2286 8.82372C57.4734 8.82372 57.6785 8.77079 57.8439 8.66494C58.016 8.55246 58.1648 8.41022 58.2905 8.2382L59.3326 9.00236ZM58.0722 6.87859C58.0788 6.62718 57.9961 6.41216 57.8241 6.23352C57.6521 6.05489 57.4304 5.96557 57.1592 5.96557C56.9938 5.96557 56.8482 5.99204 56.7225 6.04497C56.5968 6.09789 56.4876 6.16736 56.395 6.25337C56.309 6.33277 56.2395 6.4287 56.1866 6.54117C56.1403 6.64703 56.1138 6.7595 56.1072 6.87859H58.0722Z" fill="#272B38"/>
<path d="M63.751 6.20375H62.441V7.81146C62.441 7.94378 62.4476 8.06618 62.4608 8.17865C62.4741 8.28451 62.5038 8.37714 62.5501 8.45653C62.5965 8.53592 62.6659 8.59877 62.7586 8.64509C62.8578 8.68478 62.9868 8.70463 63.1456 8.70463C63.225 8.70463 63.3275 8.69802 63.4532 8.68478C63.5856 8.66494 63.6848 8.62524 63.751 8.56569V9.80621C63.5856 9.86575 63.4135 9.90545 63.2349 9.9253C63.0563 9.94515 62.881 9.95507 62.7089 9.95507C62.4575 9.95507 62.226 9.92861 62.0142 9.87568C61.8025 9.82275 61.6173 9.74005 61.4585 9.62757C61.2997 9.50849 61.174 9.35632 61.0814 9.17107C60.9954 8.98582 60.9524 8.76087 60.9524 8.49623V6.20375H59.9996V5.01286H60.9524V3.58378H62.441V5.01286H63.751V6.20375Z" fill="#272B38"/>
<path d="M64.5075 5.01286H65.9961V5.78694H66.0159C66.1747 5.48922 66.3633 5.26758 66.5816 5.12202C66.7999 4.96985 67.0745 4.89377 67.4053 4.89377C67.4913 4.89377 67.5773 4.89708 67.6633 4.90369C67.7493 4.91031 67.8287 4.92354 67.9015 4.94339V6.30299C67.7956 6.26991 67.6898 6.24676 67.5839 6.23352C67.4847 6.21368 67.3788 6.20375 67.2664 6.20375C66.9819 6.20375 66.7569 6.24345 66.5915 6.32284C66.4261 6.40223 66.2971 6.51471 66.2045 6.66026C66.1185 6.7992 66.0622 6.96791 66.0358 7.16639C66.0093 7.36487 65.9961 7.58321 65.9961 7.82138V9.83598H64.5075V5.01286Z" fill="#272B38"/>
<path d="M71.5757 9.23061H71.5558C71.3904 9.48864 71.1688 9.67389 70.8909 9.78636C70.6197 9.89883 70.3319 9.95507 70.0275 9.95507C69.8026 9.95507 69.5842 9.92199 69.3725 9.85583C69.1674 9.79629 68.9855 9.70366 68.8267 9.57795C68.6679 9.45225 68.5422 9.29677 68.4496 9.11152C68.357 8.92627 68.3106 8.71125 68.3106 8.46645C68.3106 8.18858 68.3603 7.95371 68.4595 7.76184C68.5654 7.56997 68.7043 7.41119 68.8763 7.28548C69.0549 7.15978 69.2567 7.06384 69.4817 6.99768C69.7066 6.92491 69.9382 6.87198 70.1764 6.8389C70.4212 6.80582 70.6627 6.78597 70.9008 6.77935C71.1456 6.77274 71.3706 6.76943 71.5757 6.76943C71.5757 6.50478 71.4797 6.29638 71.2879 6.14421C71.1026 5.98542 70.881 5.90603 70.623 5.90603C70.3782 5.90603 70.1532 5.95896 69.9481 6.06481C69.7496 6.16406 69.571 6.30299 69.4122 6.48163L68.6183 5.66785C68.8962 5.40982 69.2203 5.21796 69.5908 5.09225C69.9613 4.95993 70.3451 4.89377 70.742 4.89377C71.1787 4.89377 71.536 4.95 71.8139 5.06248C72.0983 5.16833 72.3233 5.32712 72.4887 5.53884C72.6607 5.75055 72.7798 6.01189 72.846 6.32284C72.9121 6.62718 72.9452 6.98114 72.9452 7.38472V9.83598H71.5757V9.23061ZM71.2085 7.72214C71.096 7.72214 70.9538 7.72876 70.7817 7.74199C70.6163 7.74861 70.4543 7.77507 70.2955 7.82138C70.1433 7.8677 70.011 7.93717 69.8985 8.02979C69.7926 8.12242 69.7397 8.25143 69.7397 8.41683C69.7397 8.59547 69.8158 8.72779 69.968 8.8138C70.1201 8.89981 70.2789 8.94281 70.4443 8.94281C70.5899 8.94281 70.7288 8.92296 70.8611 8.88327C71.0001 8.84357 71.1225 8.78733 71.2283 8.71456C71.3342 8.64178 71.4169 8.54915 71.4764 8.43668C71.5426 8.32421 71.5757 8.19188 71.5757 8.03972V7.72214H71.2085Z" fill="#272B38"/>
<path d="M73.899 2.33334H75.3876V9.83598H73.899V2.33334Z" fill="#272B38"/>
<path d="M76.477 5.01286H77.9656V9.83598H76.477V5.01286ZM76.3579 3.49447C76.3579 3.25629 76.4406 3.0545 76.606 2.88909C76.778 2.71708 76.9831 2.63107 77.2213 2.63107C77.4594 2.63107 77.6612 2.71708 77.8266 2.88909C77.9986 3.0545 78.0847 3.25629 78.0847 3.49447C78.0847 3.73264 77.9986 3.93774 77.8266 4.10976C77.6612 4.27516 77.4594 4.35786 77.2213 4.35786C76.9831 4.35786 76.778 4.27516 76.606 4.10976C76.4406 3.93774 76.3579 3.73264 76.3579 3.49447Z" fill="#272B38"/>
<path d="M78.8465 8.34736L81.3474 6.20375H78.906V5.01286H83.0742V6.44193L80.4542 8.64509H83.1337V9.83598H78.8465V8.34736Z" fill="#272B38"/>
<path d="M88.5622 9.00236C88.324 9.30669 88.023 9.54157 87.6591 9.70697C87.2952 9.87237 86.9181 9.95507 86.5278 9.95507C86.1573 9.95507 85.8066 9.89553 85.4758 9.77644C85.1516 9.65735 84.8671 9.48864 84.6223 9.27031C84.3842 9.04536 84.1956 8.77741 84.0567 8.46645C83.9177 8.1555 83.8483 7.80815 83.8483 7.42442C83.8483 7.04069 83.9177 6.69334 84.0567 6.38239C84.1956 6.07143 84.3842 5.80679 84.6223 5.58846C84.8671 5.36351 85.1516 5.19149 85.4758 5.0724C85.8066 4.95331 86.1573 4.89377 86.5278 4.89377C86.8718 4.89377 87.1828 4.95331 87.4606 5.0724C87.7451 5.19149 87.9833 5.36351 88.1752 5.58846C88.3737 5.80679 88.5258 6.07143 88.6317 6.38239C88.7375 6.69334 88.7905 7.04069 88.7905 7.42442V7.89085H85.3369C85.3964 8.17534 85.5254 8.4036 85.7239 8.57562C85.9224 8.74102 86.1672 8.82372 86.4583 8.82372C86.7031 8.82372 86.9082 8.77079 87.0736 8.66494C87.2456 8.55246 87.3945 8.41022 87.5202 8.2382L88.5622 9.00236ZM87.3018 6.87859C87.3085 6.62718 87.2258 6.41216 87.0537 6.23352C86.8817 6.05489 86.6601 5.96557 86.3888 5.96557C86.2234 5.96557 86.0779 5.99204 85.9522 6.04497C85.8265 6.09789 85.7173 6.16736 85.6247 6.25337C85.5387 6.33277 85.4692 6.4287 85.4163 6.54117C85.3699 6.64703 85.3435 6.7595 85.3369 6.87859H87.3018Z" fill="#272B38"/>
<path d="M94.757 9.83598H93.3875V9.20084H93.3677C93.3081 9.28685 93.2287 9.37616 93.1295 9.46879C93.0369 9.5548 92.9244 9.63419 92.7921 9.70697C92.6664 9.77975 92.5241 9.83929 92.3653 9.8856C92.2132 9.93192 92.0544 9.95507 91.889 9.95507C91.5317 9.95507 91.2075 9.89553 90.9164 9.77644C90.6253 9.65073 90.3739 9.47871 90.1622 9.26038C89.9571 9.03544 89.7983 8.77079 89.6858 8.46645C89.5733 8.16211 89.5171 7.828 89.5171 7.46412C89.5171 7.1267 89.5667 6.80582 89.666 6.50148C89.7718 6.19052 89.9174 5.91595 90.1026 5.67777C90.2945 5.43959 90.5261 5.25104 90.7973 5.1121C91.0686 4.96654 91.3762 4.89377 91.7203 4.89377C92.0312 4.89377 92.319 4.94339 92.5836 5.04263C92.8549 5.13525 93.0765 5.29735 93.2486 5.52891H93.2684V2.33334H94.757V9.83598ZM93.3875 7.42442C93.3875 7.06053 93.2816 6.76612 93.0699 6.54117C92.8648 6.31623 92.5737 6.20375 92.1966 6.20375C91.8195 6.20375 91.5251 6.31623 91.3134 6.54117C91.1083 6.76612 91.0057 7.06053 91.0057 7.42442C91.0057 7.7883 91.1083 8.08272 91.3134 8.30767C91.5251 8.53261 91.8195 8.64509 92.1966 8.64509C92.5737 8.64509 92.8648 8.53261 93.0699 8.30767C93.2816 8.08272 93.3875 7.7883 93.3875 7.42442Z" fill="#272B38"/>
<defs>
<linearGradient id="paint0_linear_4488_19040" x1="16" y1="32" x2="16" y2="0" gradientUnits="userSpaceOnUse">
<stop stop-color="#424756"/>
<stop offset="0.31" stop-color="#505565"/>
<stop offset="0.42" stop-color="#5F6475"/>
<stop offset="0.61" stop-color="#747A8B"/>
<stop offset="0.73" stop-color="#7C8394"/>
<stop offset="0.88" stop-color="#757C8C"/>
<stop offset="1" stop-color="#6E7484"/>
</linearGradient>
<radialGradient id="paint1_radial_4488_19040" cx="0" cy="0" r="1" gradientUnits="userSpaceOnUse" gradientTransform="translate(16 16) rotate(90) scale(16)">
<stop offset="0.80207" stop-color="#272B38" stop-opacity="0"/>
<stop offset="0.848055" stop-color="#272B38" stop-opacity="0.0421641"/>
<stop offset="0.882811" stop-color="#272B38" stop-opacity="0.0948692"/>
<stop offset="0.913817" stop-color="#272B38" stop-opacity="0.15"/>
<stop offset="0.957038" stop-color="#272B38" stop-opacity="0.34"/>
</radialGradient>
<linearGradient id="paint2_linear_4488_19040" x1="16" y1="32" x2="16" y2="0" gradientUnits="userSpaceOnUse">
<stop stop-color="#6D6E7C"/>
<stop offset="0.17" stop-color="#7A7C8A"/>
<stop offset="0.51" stop-color="#9EA2B1"/>
<stop offset="0.67" stop-color="#B3B8C7"/>
</linearGradient>
<linearGradient id="paint3_linear_4488_19040" x1="15" y1="8" x2="15" y2="23.8333" gradientUnits="userSpaceOnUse">
<stop offset="0.4" stop-color="white"/>
<stop offset="0.54" stop-color="#EAEAEC"/>
<stop offset="0.84" stop-color="#C4C6CB"/>
<stop offset="0.99" stop-color="#B6B8BF"/>
</linearGradient>
<linearGradient id="paint4_linear_4488_19040" x1="15" y1="8" x2="15" y2="23.8333" gradientUnits="userSpaceOnUse">
<stop offset="0.4" stop-color="white"/>
<stop offset="0.54" stop-color="#EAEAEC"/>
<stop offset="0.84" stop-color="#C4C6CB"/>
<stop offset="0.99" stop-color="#B6B8BF"/>
</linearGradient>
<linearGradient id="paint5_linear_4488_19040" x1="15" y1="8" x2="15" y2="23.8333" gradientUnits="userSpaceOnUse">
<stop offset="0.4" stop-color="white"/>
<stop offset="0.54" stop-color="#EAEAEC"/>
<stop offset="0.84" stop-color="#C4C6CB"/>
<stop offset="0.99" stop-color="#B6B8BF"/>
</linearGradient>
<linearGradient id="paint6_linear_4488_19040" x1="15" y1="8" x2="15" y2="23.8333" gradientUnits="userSpaceOnUse">
<stop offset="0.4" stop-color="white"/>
<stop offset="0.54" stop-color="#EAEAEC"/>
<stop offset="0.84" stop-color="#C4C6CB"/>
<stop offset="0.99" stop-color="#B6B8BF"/>
</linearGradient>
<linearGradient id="paint7_linear_4488_19040" x1="15" y1="8" x2="15" y2="23.8333" gradientUnits="userSpaceOnUse">
<stop offset="0.4" stop-color="white"/>
<stop offset="0.54" stop-color="#EAEAEC"/>
<stop offset="0.84" stop-color="#C4C6CB"/>
<stop offset="0.99" stop-color="#B6B8BF"/>
</linearGradient>
<linearGradient id="paint8_linear_4488_19040" x1="15" y1="8" x2="15" y2="23.8333" gradientUnits="userSpaceOnUse">
<stop offset="0.4" stop-color="white"/>
<stop offset="0.54" stop-color="#EAEAEC"/>
<stop offset="0.84" stop-color="#C4C6CB"/>
<stop offset="0.99" stop-color="#B6B8BF"/>
</linearGradient>
<linearGradient id="paint9_linear_4488_19040" x1="15" y1="8" x2="15" y2="23.8333" gradientUnits="userSpaceOnUse">
<stop offset="0.4" stop-color="white"/>
<stop offset="0.54" stop-color="#EAEAEC"/>
<stop offset="0.84" stop-color="#C4C6CB"/>
<stop offset="0.99" stop-color="#B6B8BF"/>
</linearGradient>
<linearGradient id="paint10_linear_4488_19040" x1="15" y1="8" x2="15" y2="23.8333" gradientUnits="userSpaceOnUse">
<stop offset="0.4" stop-color="white"/>
<stop offset="0.54" stop-color="#EAEAEC"/>
<stop offset="0.84" stop-color="#C4C6CB"/>
<stop offset="0.99" stop-color="#B6B8BF"/>
</linearGradient>
<linearGradient id="paint11_linear_4488_19040" x1="15" y1="8" x2="15" y2="23.8333" gradientUnits="userSpaceOnUse">
<stop offset="0.4" stop-color="white"/>
<stop offset="0.54" stop-color="#EAEAEC"/>
<stop offset="0.84" stop-color="#C4C6CB"/>
<stop offset="0.99" stop-color="#B6B8BF"/>
</linearGradient>
<clipPath id="clip0_4488_19040">
<rect width="32" height="32" fill="white"/>
</clipPath>
</defs>
</svg>
