<svg width="98" height="33" viewBox="0 0 98 33" fill="none" xmlns="http://www.w3.org/2000/svg">
<g clip-path="url(#clip0_2799_1060)">
<path d="M16 32.5C24.8366 32.5 32 25.3366 32 16.5C32 7.66344 24.8366 0.5 16 0.5C7.16344 0.5 0 7.66344 0 16.5C0 25.3366 7.16344 32.5 16 32.5Z" fill="url(#paint0_linear_2799_1060)"/>
<path d="M16 32.5C24.8366 32.5 32 25.3366 32 16.5C32 7.66344 24.8366 0.5 16 0.5C7.16344 0.5 0 7.66344 0 16.5C0 25.3366 7.16344 32.5 16 32.5Z" fill="url(#paint1_radial_2799_1060)"/>
<path d="M16 1.5C24.27 1.5 31 8.23 31 16.5C31 24.77 24.27 31.5 16 31.5C7.73 31.5 1 24.77 1 16.5C1 8.23 7.73 1.5 16 1.5ZM16 0.5C7.16 0.5 0 7.66 0 16.5C0 25.34 7.16 32.5 16 32.5C24.84 32.5 32 25.34 32 16.5C32 7.66 24.84 0.5 16 0.5Z" fill="url(#paint2_linear_2799_1060)"/>
<path d="M20 26.5V24.5H12V26.5H20Z" fill="#272B38" fill-opacity="0.45"/>
<path d="M22 22.5H20V24.5H22V22.5Z" fill="#272B38" fill-opacity="0.45"/>
<path d="M12 22.5H10V24.5H12V22.5Z" fill="#272B38" fill-opacity="0.45"/>
<path d="M24 20.5H22V22.5H24V20.5Z" fill="#272B38" fill-opacity="0.45"/>
<path d="M24 12.5H22V14.5H24V12.5Z" fill="#272B38" fill-opacity="0.45"/>
<path d="M8 14.5H6V16.5H8V18.5H6V20.5H8V22.5H10V20.5H18V18.5H10V16.5H20V14.5H10V12.5H8V14.5Z" fill="#272B38" fill-opacity="0.45"/>
<path d="M22 10.5H20V12.5H22V10.5Z" fill="#272B38" fill-opacity="0.45"/>
<path d="M12 10.5H10V12.5H12V10.5Z" fill="#272B38" fill-opacity="0.45"/>
<path d="M12 8.5V10.5H20V8.5H12Z" fill="#272B38" fill-opacity="0.45"/>
<path d="M20 25.5V23.5H12V25.5H20Z" fill="url(#paint3_linear_2799_1060)"/>
<path d="M22 21.5H20V23.5H22V21.5Z" fill="url(#paint4_linear_2799_1060)"/>
<path d="M12 21.5H10V23.5H12V21.5Z" fill="url(#paint5_linear_2799_1060)"/>
<path d="M24 19.5H22V21.5H24V19.5Z" fill="url(#paint6_linear_2799_1060)"/>
<path d="M24 11.5H22V13.5H24V11.5Z" fill="url(#paint7_linear_2799_1060)"/>
<path d="M8 13.5H6V15.5H8V17.5H6V19.5H8V21.5H10V19.5H18V17.5H10V15.5H20V13.5H10V11.5H8V13.5Z" fill="url(#paint8_linear_2799_1060)"/>
<path d="M22 9.5H20V11.5H22V9.5Z" fill="url(#paint9_linear_2799_1060)"/>
<path d="M12 9.5H10V11.5H12V9.5Z" fill="url(#paint10_linear_2799_1060)"/>
<path d="M12 7.5V9.5H20V7.5H12Z" fill="url(#paint11_linear_2799_1060)"/>
</g>
<path d="M37.8857 13.7305H48.0891V16.7871H41.1957V19.5871H47.7057V22.6438H41.1957V25.7005H48.4724V28.7571H37.8857V13.7305Z" fill="#272B38"/>
<path d="M63.5658 22.9671C63.5658 23.8571 63.4292 24.6805 63.1592 25.4305C62.8858 26.1771 62.4892 26.8305 61.9625 27.3838C61.4358 27.9371 60.7725 28.3671 59.9758 28.6738C59.1858 28.9871 58.2692 29.1405 57.2325 29.1405C56.1958 29.1405 55.2625 28.9871 54.4725 28.6738C53.6825 28.3605 53.0192 27.9271 52.4858 27.3838C51.9525 26.8405 51.5525 26.1771 51.2892 25.4305C51.0192 24.6838 50.8825 23.8605 50.8825 22.9671V13.7305H54.1925V22.8305C54.1925 23.2971 54.2692 23.7305 54.4125 24.1305C54.5658 24.5305 54.7692 24.8705 55.0392 25.1571C55.3125 25.4471 55.6325 25.6738 56.0058 25.8371C56.3792 25.9971 56.7858 26.0838 57.2292 26.0838C57.6725 26.0838 58.0692 26.0005 58.4425 25.8371C58.8092 25.6771 59.1292 25.4471 59.3925 25.1571C59.6658 24.8671 59.8692 24.5205 60.0192 24.1305C60.1625 23.7305 60.2392 23.2971 60.2392 22.8305V13.7305H63.5492V22.9671H63.5658Z" fill="#272B38"/>
<path d="M66.4525 13.7305H72.2691C73.0325 13.7305 73.7558 13.8071 74.4425 13.9505C75.1291 14.1038 75.7325 14.3505 76.2425 14.6971C76.7591 15.0438 77.1691 15.5105 77.4725 16.0971C77.7791 16.6838 77.9325 17.4138 77.9325 18.2971C77.9325 19.3571 77.6525 20.2571 77.0991 21.0038C76.5458 21.7505 75.7391 22.2171 74.6791 22.4138L78.4991 28.7638H74.5358L71.3958 22.7605H69.7658V28.7638H66.4558V13.7305H66.4525ZM69.7625 19.9538H71.7158C72.0125 19.9538 72.3258 19.9438 72.6591 19.9205C72.9891 19.9038 73.2958 19.8371 73.5591 19.7338C73.8225 19.6305 74.0525 19.4605 74.2291 19.2338C74.4058 19.0038 74.4925 18.6905 74.4925 18.2838C74.4925 17.9005 74.4158 17.5971 74.2625 17.3738C74.1091 17.1438 73.9058 16.9738 73.6691 16.8571C73.4325 16.7371 73.1525 16.6538 72.8458 16.6105C72.5325 16.5671 72.2258 16.5505 71.9291 16.5505H69.7658V19.9638V19.9538H69.7625Z" fill="#272B38"/>
<path d="M79.5189 21.2437C79.5189 20.0371 79.7222 18.9504 80.1222 17.9737C80.5289 16.9971 81.0889 16.1671 81.8122 15.4771C82.5356 14.7871 83.3922 14.2637 84.3856 13.8971C85.3789 13.5304 86.4556 13.3438 87.6289 13.3438C88.8022 13.3438 89.8856 13.5304 90.8789 13.8971C91.8722 14.2637 92.7222 14.7871 93.4422 15.4771C94.1622 16.1638 94.7255 16.9971 95.1322 17.9737C95.5389 18.9504 95.7355 20.0371 95.7355 21.2437C95.7355 22.4504 95.5322 23.5371 95.1322 24.5138C94.7322 25.4904 94.1655 26.3204 93.4422 27.0104C92.7222 27.6971 91.8622 28.2237 90.8789 28.5904C89.8856 28.9571 88.8089 29.1437 87.6289 29.1437C86.4489 29.1437 85.3722 28.9571 84.3856 28.5904C83.3922 28.2237 82.5356 27.7004 81.8122 27.0104C81.0922 26.3237 80.5289 25.4904 80.1222 24.5138C79.7155 23.5371 79.5189 22.4504 79.5189 21.2437ZM82.9555 21.2437C82.9555 21.9471 83.0655 22.6004 83.2855 23.1871C83.5055 23.7737 83.8189 24.2837 84.2289 24.7137C84.6356 25.1471 85.1289 25.4771 85.7055 25.7237C86.2755 25.9604 86.9189 26.0904 87.6256 26.0904C88.3322 26.0904 88.9756 25.9704 89.5456 25.7237C90.1156 25.4871 90.6056 25.1471 91.0222 24.7137C91.4289 24.2804 91.7422 23.7704 91.9655 23.1871C92.1855 22.6004 92.2956 21.9571 92.2956 21.2437C92.2956 20.5304 92.1855 19.9104 91.9655 19.3171C91.7455 18.7238 91.4322 18.2138 91.0222 17.7804C90.6156 17.3471 90.1222 17.0171 89.5456 16.7704C88.9689 16.5338 88.3322 16.4037 87.6256 16.4037C86.9189 16.4037 86.2755 16.5238 85.7055 16.7704C85.1289 17.0071 84.6456 17.3471 84.2289 17.7804C83.8222 18.2138 83.5089 18.7238 83.2855 19.3171C83.0655 19.9104 82.9555 20.5571 82.9555 21.2437Z" fill="#272B38"/>
<path d="M42.5761 10.0066H41.3294V9.42659H41.3127C41.2594 9.50659 41.1861 9.58325 41.0994 9.66659C41.0127 9.74659 40.9094 9.82325 40.7927 9.88659C40.6761 9.95325 40.5461 10.0066 40.4027 10.0499C40.2627 10.0933 40.1161 10.1133 39.9661 10.1133C39.6394 10.1133 39.3461 10.0566 39.0794 9.94659C38.8127 9.83659 38.5861 9.67992 38.3961 9.47659C38.2061 9.27325 38.0594 9.03659 37.9561 8.75659C37.8527 8.47992 37.8027 8.17659 37.8027 7.84326C37.8027 7.53659 37.8494 7.24325 37.9427 6.96325C38.0361 6.68325 38.1694 6.43325 38.3394 6.21659C38.5127 5.99992 38.7194 5.82659 38.9661 5.69659C39.2127 5.56659 39.4927 5.50326 39.8061 5.50326C40.0894 5.50326 40.3527 5.54659 40.5961 5.63325C40.8394 5.71992 41.0394 5.86992 41.1961 6.07992H41.2127V3.16992H42.5694V10.0033L42.5761 10.0066ZM41.3294 7.80992C41.3294 7.47992 41.2361 7.20992 41.0461 7.00659C40.8561 6.80326 40.5894 6.69992 40.2461 6.69992C39.9027 6.69992 39.6361 6.80326 39.4461 7.00659C39.2561 7.21326 39.1627 7.47992 39.1627 7.80992C39.1627 8.13992 39.2561 8.40992 39.4461 8.61326C39.6361 8.81659 39.9027 8.91992 40.2461 8.91992C40.5894 8.91992 40.8561 8.81659 41.0461 8.61326C41.2361 8.40992 41.3294 8.13992 41.3294 7.80992Z" fill="black"/>
<path d="M47.5492 9.24659C47.3325 9.52325 47.0592 9.73659 46.7259 9.88992C46.3959 10.0399 46.0525 10.1166 45.6959 10.1166C45.3392 10.1166 45.0392 10.0633 44.7425 9.95326C44.4425 9.84326 44.1859 9.68992 43.9659 9.48659C43.7459 9.28325 43.5725 9.04326 43.4459 8.75992C43.3192 8.47659 43.2559 8.15992 43.2559 7.80992C43.2559 7.45992 43.3192 7.14326 43.4459 6.85992C43.5725 6.57659 43.7459 6.33326 43.9659 6.13326C44.1859 5.92992 44.4459 5.77659 44.7425 5.66659C45.0392 5.55659 45.3592 5.50326 45.6959 5.50326C46.0092 5.50326 46.2925 5.55659 46.5492 5.66659C46.8059 5.77659 47.0225 5.92992 47.1992 6.13326C47.3759 6.33659 47.5125 6.57659 47.6092 6.85992C47.7059 7.14326 47.7525 7.45992 47.7525 7.80992V8.23326H44.6059C44.6592 8.49326 44.7792 8.69992 44.9592 8.85325C45.1392 9.00659 45.3625 9.08326 45.6292 9.08326C45.8525 9.08326 46.0392 9.03325 46.1959 8.93325C46.3492 8.83325 46.4825 8.70659 46.5992 8.54992L47.5492 9.24659ZM46.4025 7.31326C46.4092 7.08326 46.3325 6.88992 46.1759 6.72659C46.0192 6.56326 45.8159 6.48326 45.5692 6.48326C45.4192 6.48326 45.2859 6.50659 45.1725 6.55659C45.0592 6.60326 44.9592 6.66659 44.8792 6.74326C44.7992 6.81992 44.7359 6.90659 44.6892 7.00659C44.6425 7.10659 44.6192 7.20992 44.6125 7.31992H46.4025V7.31326Z" fill="black"/>
<path d="M51.6093 7.03016C51.5427 6.93349 51.4493 6.85349 51.3293 6.79016C51.2093 6.72682 51.0794 6.69682 50.9394 6.69682C50.596 6.69682 50.3293 6.80016 50.1393 7.00349C49.9493 7.21016 49.856 7.47682 49.856 7.80682C49.856 8.13682 49.9493 8.40682 50.1393 8.61016C50.3293 8.81349 50.596 8.91682 50.9394 8.91682C51.0894 8.91682 51.2193 8.88349 51.3293 8.81682C51.4393 8.75016 51.5327 8.67349 51.6093 8.58016L52.5027 9.52016C52.2927 9.73682 52.0427 9.89016 51.756 9.97682C51.4693 10.0635 51.196 10.1068 50.9394 10.1068C50.6027 10.1068 50.2827 10.0535 49.986 9.94349C49.686 9.83349 49.4293 9.68016 49.2093 9.47682C48.9893 9.27349 48.816 9.03349 48.6894 8.75016C48.5627 8.46682 48.4993 8.15016 48.4993 7.80016C48.4993 7.45016 48.5627 7.13349 48.6894 6.85016C48.816 6.56682 48.9893 6.32349 49.2093 6.12349C49.4293 5.92016 49.6893 5.76682 49.986 5.65682C50.2827 5.54682 50.6027 5.49349 50.9394 5.49349C51.1994 5.49349 51.4727 5.53682 51.756 5.62349C52.0427 5.71016 52.2893 5.86349 52.5027 6.08016L51.6093 7.02016V7.03016Z" fill="black"/>
<path d="M57.016 9.24659C56.7993 9.52325 56.526 9.73659 56.1927 9.88992C55.8627 10.0399 55.5193 10.1166 55.1627 10.1166C54.806 10.1166 54.506 10.0633 54.2093 9.95326C53.9093 9.84326 53.6527 9.68992 53.4327 9.48659C53.2127 9.28325 53.0393 9.04326 52.9127 8.75992C52.786 8.47659 52.7227 8.15992 52.7227 7.80992C52.7227 7.45992 52.786 7.14326 52.9127 6.85992C53.0393 6.57659 53.2127 6.33326 53.4327 6.13326C53.6527 5.92992 53.9127 5.77659 54.2093 5.66659C54.506 5.55659 54.826 5.50326 55.1627 5.50326C55.476 5.50326 55.7593 5.55659 56.016 5.66659C56.2727 5.77659 56.4893 5.92992 56.666 6.13326C56.8427 6.33659 56.9793 6.57659 57.076 6.85992C57.1727 7.14326 57.2193 7.45992 57.2193 7.80992V8.23326H54.0727C54.126 8.49326 54.246 8.69992 54.426 8.85325C54.606 9.00659 54.8293 9.08326 55.096 9.08326C55.3193 9.08326 55.506 9.03325 55.6627 8.93325C55.816 8.83325 55.9493 8.70659 56.066 8.54992L57.016 9.24659ZM55.866 7.31326C55.8727 7.08326 55.796 6.88992 55.6393 6.72659C55.4827 6.56326 55.2793 6.48326 55.0327 6.48326C54.8827 6.48326 54.7493 6.50659 54.636 6.55659C54.5227 6.60326 54.4227 6.66659 54.3427 6.74326C54.2627 6.81992 54.1993 6.90659 54.1527 7.00659C54.106 7.10659 54.0827 7.20992 54.076 7.31992H55.866V7.31326Z" fill="black"/>
<path d="M58.0459 5.61326H59.3492V6.20992H59.3659C59.4092 6.12659 59.4692 6.03992 59.5459 5.95659C59.6226 5.87326 59.7192 5.79659 59.8259 5.72992C59.9359 5.66326 60.0592 5.60992 60.1959 5.56659C60.3326 5.52326 60.4859 5.50326 60.6492 5.50326C60.9926 5.50326 61.2692 5.55659 61.4826 5.65992C61.6926 5.76659 61.8592 5.91326 61.9759 6.09992C62.0926 6.28659 62.1726 6.50659 62.2159 6.75992C62.2592 7.01326 62.2792 7.28659 62.2792 7.58326V10.0066H60.9226V7.85326C60.9226 7.72659 60.9192 7.59659 60.9092 7.45992C60.8992 7.32326 60.8726 7.19992 60.8292 7.08326C60.7826 6.96992 60.7159 6.87659 60.6226 6.80326C60.5292 6.72992 60.3959 6.69326 60.2192 6.69326C60.0426 6.69326 59.9026 6.72326 59.7926 6.78659C59.6859 6.84992 59.6026 6.93326 59.5426 7.03992C59.4859 7.14659 59.4492 7.26326 59.4292 7.39659C59.4126 7.52992 59.4026 7.66659 59.4026 7.81326V9.99992H58.0459V5.60659V5.61326Z" fill="black"/>
<path d="M66.2261 6.69656H65.0328V8.1599C65.0328 8.2799 65.0395 8.3899 65.0495 8.4899C65.0628 8.5899 65.0895 8.67656 65.1295 8.74656C65.1728 8.8199 65.2361 8.87323 65.3228 8.91323C65.4095 8.95323 65.5261 8.97323 65.6695 8.97323C65.7428 8.97323 65.8361 8.96656 65.9528 8.9499C66.0695 8.93656 66.1595 8.8999 66.2195 8.84656V9.97656C66.0695 10.0299 65.9128 10.0666 65.7495 10.0866C65.5861 10.1032 65.4261 10.1132 65.2695 10.1132C65.0395 10.1132 64.8295 10.0899 64.6361 10.0399C64.4428 9.99323 64.2761 9.91656 64.1295 9.8099C63.9861 9.70323 63.8728 9.56656 63.7895 9.3999C63.7095 9.2299 63.6661 9.02656 63.6661 8.78656V6.69656H62.7995V5.61323H63.6661V4.3099H65.0228V5.61323H66.2161V6.69656H66.2261Z" fill="black"/>
<path d="M66.9128 5.61318H68.2694V6.31984H68.2861C68.4294 6.04984 68.6028 5.84651 68.8028 5.70984C69.0028 5.57318 69.2528 5.50651 69.5528 5.50651C69.6294 5.50651 69.7094 5.50651 69.7861 5.51651C69.8661 5.52318 69.9361 5.53318 70.0028 5.55318V6.79318C69.9061 6.76318 69.8128 6.73984 69.7194 6.72651C69.6261 6.71318 69.5294 6.70318 69.4261 6.70318C69.1661 6.70318 68.9628 6.73984 68.8128 6.81318C68.6628 6.88651 68.5461 6.98651 68.4661 7.11651C68.3861 7.24651 68.3328 7.39984 68.3094 7.58318C68.2861 7.76651 68.2728 7.96318 68.2728 8.17984V10.0165H66.9161V5.62318L66.9128 5.61318Z" fill="black"/>
<path d="M73.3526 9.45326H73.3359C73.1859 9.68992 72.9859 9.85659 72.7359 9.95992C72.4859 10.0633 72.2226 10.1133 71.9459 10.1133C71.7392 10.1133 71.5426 10.0833 71.3526 10.0266C71.1626 9.96992 70.9959 9.88326 70.8492 9.76992C70.7059 9.65659 70.5892 9.51326 70.5059 9.34659C70.4226 9.17659 70.3792 8.98326 70.3792 8.75992C70.3792 8.50659 70.4259 8.29326 70.5192 8.11659C70.6126 7.94326 70.7392 7.79659 70.8992 7.68326C71.0592 7.56992 71.2426 7.47992 71.4459 7.41659C71.6526 7.35326 71.8626 7.30659 72.0826 7.27659C72.3026 7.24659 72.5226 7.22992 72.7426 7.22326C72.9626 7.21659 73.1659 7.21325 73.3526 7.21325C73.3526 6.97325 73.2659 6.77992 73.0959 6.63992C72.9226 6.49992 72.7192 6.42659 72.4859 6.42659C72.2626 6.42659 72.0592 6.47326 71.8759 6.56659C71.6926 6.65992 71.5292 6.78659 71.3826 6.94992L70.6592 6.20992C70.9126 5.97325 71.2092 5.79992 71.5459 5.67992C71.8826 5.56326 72.2326 5.50326 72.5959 5.50326C72.9926 5.50326 73.3192 5.55326 73.5759 5.65326C73.8326 5.75326 74.0359 5.89992 74.1892 6.09326C74.3426 6.28659 74.4492 6.52326 74.5092 6.80326C74.5692 7.08326 74.5992 7.40659 74.5992 7.77659V10.0099H73.3526V9.45326ZM73.0159 8.07992C72.9126 8.07992 72.7859 8.08326 72.6326 8.09326C72.4792 8.10326 72.3326 8.12659 72.1892 8.16992C72.0492 8.21326 71.9259 8.27659 71.8292 8.35992C71.7292 8.44326 71.6792 8.56326 71.6792 8.71326C71.6792 8.87659 71.7492 8.99659 71.8859 9.07326C72.0259 9.15326 72.1692 9.18992 72.3192 9.18992C72.4526 9.18992 72.5792 9.17326 72.7026 9.13659C72.8259 9.09992 72.9359 9.04992 73.0326 8.98326C73.1292 8.91659 73.2059 8.83326 73.2626 8.72992C73.3192 8.62659 73.3492 8.50659 73.3492 8.36992V8.07992H73.0159Z" fill="black"/>
<path d="M75.4661 3.16992H76.8228V10.0033H75.4661V3.16992Z" fill="black"/>
<path d="M77.7093 4.23003C77.7093 4.01336 77.786 3.82669 77.9393 3.67336C78.0926 3.52003 78.2793 3.44336 78.496 3.44336C78.7126 3.44336 78.8993 3.52003 79.0526 3.67336C79.206 3.82669 79.2826 4.01336 79.2826 4.23003C79.2826 4.44669 79.206 4.63336 79.0526 4.78669C78.8993 4.94003 78.7126 5.01669 78.496 5.01669C78.2793 5.01669 78.0926 4.94003 77.9393 4.78669C77.786 4.63336 77.7093 4.44669 77.7093 4.23003ZM77.816 5.61336H79.1726V10.0067H77.816V5.61336Z" fill="black"/>
<path d="M79.9792 8.64995L82.2559 6.69661H80.0326V5.61328H83.8292V6.91661L81.4426 8.92328H83.8826V10.0066H79.9759V8.64995H79.9792Z" fill="black"/>
<path d="M88.8295 9.24659C88.6128 9.52325 88.3395 9.73659 88.0061 9.88992C87.6761 10.0399 87.3328 10.1166 86.9761 10.1166C86.6195 10.1166 86.3195 10.0633 86.0228 9.95326C85.7228 9.84326 85.4661 9.68992 85.2461 9.48659C85.0261 9.28325 84.8528 9.04326 84.7261 8.75992C84.5995 8.47659 84.5361 8.15992 84.5361 7.80992C84.5361 7.45992 84.5995 7.14326 84.7261 6.85992C84.8528 6.57659 85.0261 6.33326 85.2461 6.13326C85.4661 5.92992 85.7261 5.77659 86.0228 5.66659C86.3195 5.55659 86.6395 5.50326 86.9761 5.50326C87.2895 5.50326 87.5728 5.55659 87.8295 5.66659C88.0861 5.77659 88.3028 5.92992 88.4795 6.13326C88.6561 6.33659 88.7928 6.57659 88.8895 6.85992C88.9861 7.14326 89.0328 7.45992 89.0328 7.80992V8.23326H85.8861C85.9395 8.49326 86.0595 8.69992 86.2395 8.85325C86.4195 9.00659 86.6428 9.08326 86.9095 9.08326C87.1328 9.08326 87.3195 9.03325 87.4761 8.93325C87.6295 8.83325 87.7628 8.70659 87.8795 8.54992L88.8295 9.24659ZM87.6795 7.31326C87.6861 7.08326 87.6095 6.88992 87.4528 6.72659C87.2961 6.56326 87.0928 6.48326 86.8461 6.48326C86.6961 6.48326 86.5628 6.50659 86.4495 6.55659C86.3361 6.60326 86.2361 6.66659 86.1561 6.74326C86.0761 6.81992 86.0128 6.90659 85.9661 7.00659C85.9195 7.10659 85.8961 7.20992 85.8895 7.31992H87.6795V7.31326Z" fill="black"/>
<path d="M94.4693 10.0066H93.2226V9.42659H93.206C93.1526 9.50659 93.0793 9.58325 92.9926 9.66659C92.906 9.74659 92.8026 9.82325 92.686 9.88659C92.5693 9.95325 92.4393 10.0066 92.296 10.0499C92.156 10.0933 92.0093 10.1133 91.8593 10.1133C91.5326 10.1133 91.2393 10.0566 90.9726 9.94659C90.706 9.83659 90.4793 9.67992 90.2893 9.47659C90.0993 9.27325 89.9526 9.03659 89.8493 8.75659C89.746 8.47992 89.696 8.17659 89.696 7.84326C89.696 7.53659 89.7426 7.24325 89.836 6.96325C89.9293 6.68325 90.0626 6.43325 90.2326 6.21659C90.406 5.99992 90.6126 5.82659 90.8593 5.69659C91.106 5.56659 91.386 5.50326 91.6993 5.50326C91.9826 5.50326 92.246 5.54659 92.4893 5.63325C92.7326 5.71992 92.9326 5.86992 93.0893 6.07992H93.106V3.16992H94.4626V10.0033L94.4693 10.0066ZM93.2226 7.80992C93.2226 7.47992 93.1293 7.20992 92.9393 7.00659C92.7493 6.80326 92.4826 6.69992 92.1393 6.69992C91.796 6.69992 91.5293 6.80326 91.3393 7.00659C91.1493 7.21326 91.056 7.47992 91.056 7.80992C91.056 8.13992 91.1493 8.40992 91.3393 8.61326C91.5293 8.81659 91.796 8.91992 92.1393 8.91992C92.4826 8.91992 92.7493 8.81659 92.9393 8.61326C93.1293 8.40992 93.2226 8.13992 93.2226 7.80992Z" fill="black"/>
<defs>
<linearGradient id="paint0_linear_2799_1060" x1="16" y1="32.5" x2="16" y2="0.5" gradientUnits="userSpaceOnUse">
<stop stop-color="#424756"/>
<stop offset="0.31" stop-color="#505565"/>
<stop offset="0.42" stop-color="#5F6475"/>
<stop offset="0.61" stop-color="#747A8B"/>
<stop offset="0.73" stop-color="#7C8394"/>
<stop offset="0.88" stop-color="#757C8C"/>
<stop offset="1" stop-color="#6E7484"/>
</linearGradient>
<radialGradient id="paint1_radial_2799_1060" cx="0" cy="0" r="1" gradientUnits="userSpaceOnUse" gradientTransform="translate(16 16.5) rotate(90) scale(16)">
<stop offset="0.80207" stop-color="#272B38" stop-opacity="0"/>
<stop offset="0.848055" stop-color="#272B38" stop-opacity="0.0421641"/>
<stop offset="0.882811" stop-color="#272B38" stop-opacity="0.0948692"/>
<stop offset="0.913817" stop-color="#272B38" stop-opacity="0.15"/>
<stop offset="0.957038" stop-color="#272B38" stop-opacity="0.34"/>
</radialGradient>
<linearGradient id="paint2_linear_2799_1060" x1="16" y1="32.5" x2="16" y2="0.5" gradientUnits="userSpaceOnUse">
<stop stop-color="#6D6E7C"/>
<stop offset="0.17" stop-color="#7A7C8A"/>
<stop offset="0.51" stop-color="#9EA2B1"/>
<stop offset="0.67" stop-color="#B3B8C7"/>
</linearGradient>
<linearGradient id="paint3_linear_2799_1060" x1="15" y1="8.5" x2="15" y2="24.3333" gradientUnits="userSpaceOnUse">
<stop offset="0.4" stop-color="white"/>
<stop offset="0.54" stop-color="#EAEAEC"/>
<stop offset="0.84" stop-color="#C4C6CB"/>
<stop offset="0.99" stop-color="#B6B8BF"/>
</linearGradient>
<linearGradient id="paint4_linear_2799_1060" x1="15" y1="8.5" x2="15" y2="24.3333" gradientUnits="userSpaceOnUse">
<stop offset="0.4" stop-color="white"/>
<stop offset="0.54" stop-color="#EAEAEC"/>
<stop offset="0.84" stop-color="#C4C6CB"/>
<stop offset="0.99" stop-color="#B6B8BF"/>
</linearGradient>
<linearGradient id="paint5_linear_2799_1060" x1="15" y1="8.5" x2="15" y2="24.3333" gradientUnits="userSpaceOnUse">
<stop offset="0.4" stop-color="white"/>
<stop offset="0.54" stop-color="#EAEAEC"/>
<stop offset="0.84" stop-color="#C4C6CB"/>
<stop offset="0.99" stop-color="#B6B8BF"/>
</linearGradient>
<linearGradient id="paint6_linear_2799_1060" x1="15" y1="8.5" x2="15" y2="24.3333" gradientUnits="userSpaceOnUse">
<stop offset="0.4" stop-color="white"/>
<stop offset="0.54" stop-color="#EAEAEC"/>
<stop offset="0.84" stop-color="#C4C6CB"/>
<stop offset="0.99" stop-color="#B6B8BF"/>
</linearGradient>
<linearGradient id="paint7_linear_2799_1060" x1="15" y1="8.5" x2="15" y2="24.3333" gradientUnits="userSpaceOnUse">
<stop offset="0.4" stop-color="white"/>
<stop offset="0.54" stop-color="#EAEAEC"/>
<stop offset="0.84" stop-color="#C4C6CB"/>
<stop offset="0.99" stop-color="#B6B8BF"/>
</linearGradient>
<linearGradient id="paint8_linear_2799_1060" x1="15" y1="8.5" x2="15" y2="24.3333" gradientUnits="userSpaceOnUse">
<stop offset="0.4" stop-color="white"/>
<stop offset="0.54" stop-color="#EAEAEC"/>
<stop offset="0.84" stop-color="#C4C6CB"/>
<stop offset="0.99" stop-color="#B6B8BF"/>
</linearGradient>
<linearGradient id="paint9_linear_2799_1060" x1="15" y1="8.5" x2="15" y2="24.3333" gradientUnits="userSpaceOnUse">
<stop offset="0.4" stop-color="white"/>
<stop offset="0.54" stop-color="#EAEAEC"/>
<stop offset="0.84" stop-color="#C4C6CB"/>
<stop offset="0.99" stop-color="#B6B8BF"/>
</linearGradient>
<linearGradient id="paint10_linear_2799_1060" x1="15" y1="8.5" x2="15" y2="24.3333" gradientUnits="userSpaceOnUse">
<stop offset="0.4" stop-color="white"/>
<stop offset="0.54" stop-color="#EAEAEC"/>
<stop offset="0.84" stop-color="#C4C6CB"/>
<stop offset="0.99" stop-color="#B6B8BF"/>
</linearGradient>
<linearGradient id="paint11_linear_2799_1060" x1="15" y1="8.5" x2="15" y2="24.3333" gradientUnits="userSpaceOnUse">
<stop offset="0.4" stop-color="white"/>
<stop offset="0.54" stop-color="#EAEAEC"/>
<stop offset="0.84" stop-color="#C4C6CB"/>
<stop offset="0.99" stop-color="#B6B8BF"/>
</linearGradient>
<clipPath id="clip0_2799_1060">
<rect width="32" height="32" fill="white" transform="translate(0 0.5)"/>
</clipPath>
</defs>
</svg>
