<svg width="156" height="40" viewBox="0 0 156 40" fill="none" xmlns="http://www.w3.org/2000/svg">
<g clip-path="url(#clip0_4203_2026)">
<path d="M20.8252 40C31.8709 40 40.8252 31.0457 40.8252 20C40.8252 8.9543 31.8709 0 20.8252 0C9.7795 0 0.825195 8.9543 0.825195 20C0.825195 31.0457 9.7795 40 20.8252 40Z" fill="url(#paint0_linear_4203_2026)"/>
<path d="M20.8252 40C31.8709 40 40.8252 31.0457 40.8252 20C40.8252 8.9543 31.8709 0 20.8252 0C9.7795 0 0.825195 8.9543 0.825195 20C0.825195 31.0457 9.7795 40 20.8252 40Z" fill="url(#paint1_radial_4203_2026)"/>
<path d="M20.8252 1.25C31.1627 1.25 39.5752 9.6625 39.5752 20C39.5752 30.3375 31.1627 38.75 20.8252 38.75C10.4877 38.75 2.0752 30.3375 2.0752 20C2.0752 9.6625 10.4877 1.25 20.8252 1.25ZM20.8252 0C9.7752 0 0.825195 8.95 0.825195 20C0.825195 31.05 9.7752 40 20.8252 40C31.8752 40 40.8252 31.05 40.8252 20C40.8252 8.95 31.8752 0 20.8252 0Z" fill="url(#paint2_linear_4203_2026)"/>
<path d="M25.8252 32.5V30H15.8252V32.5H25.8252Z" fill="#272B38" fill-opacity="0.45"/>
<path d="M28.3252 27.5H25.8252V30H28.3252V27.5Z" fill="#272B38" fill-opacity="0.45"/>
<path d="M15.8252 27.5H13.3252V30H15.8252V27.5Z" fill="#272B38" fill-opacity="0.45"/>
<path d="M30.8252 25H28.3252V27.5H30.8252V25Z" fill="#272B38" fill-opacity="0.45"/>
<path d="M30.8252 15H28.3252V17.5H30.8252V15Z" fill="#272B38" fill-opacity="0.45"/>
<path d="M10.8252 17.5H8.3252V20H10.8252V22.5H8.3252V25H10.8252V27.5H13.3252V25H23.3252V22.5H13.3252V20H25.8252V17.5H13.3252V15H10.8252V17.5Z" fill="#272B38" fill-opacity="0.45"/>
<path d="M28.3252 12.5H25.8252V15H28.3252V12.5Z" fill="#272B38" fill-opacity="0.45"/>
<path d="M15.8252 12.5H13.3252V15H15.8252V12.5Z" fill="#272B38" fill-opacity="0.45"/>
<path d="M15.8252 10V12.5H25.8252V10H15.8252Z" fill="#272B38" fill-opacity="0.45"/>
<path d="M25.8252 31.25V28.75H15.8252V31.25H25.8252Z" fill="url(#paint3_linear_4203_2026)"/>
<path d="M28.3252 26.25H25.8252V28.75H28.3252V26.25Z" fill="url(#paint4_linear_4203_2026)"/>
<path d="M15.8252 26.25H13.3252V28.75H15.8252V26.25Z" fill="url(#paint5_linear_4203_2026)"/>
<path d="M30.8252 23.75H28.3252V26.25H30.8252V23.75Z" fill="url(#paint6_linear_4203_2026)"/>
<path d="M30.8252 13.75H28.3252V16.25H30.8252V13.75Z" fill="url(#paint7_linear_4203_2026)"/>
<path d="M10.8252 16.25H8.3252V18.75H10.8252V21.25H8.3252V23.75H10.8252V26.25H13.3252V23.75H23.3252V21.25H13.3252V18.75H25.8252V16.25H13.3252V13.75H10.8252V16.25Z" fill="url(#paint8_linear_4203_2026)"/>
<path d="M28.3252 11.25H25.8252V13.75H28.3252V11.25Z" fill="url(#paint9_linear_4203_2026)"/>
<path d="M15.8252 11.25H13.3252V13.75H15.8252V11.25Z" fill="url(#paint10_linear_4203_2026)"/>
<path d="M15.8252 8.75V11.25H25.8252V8.75H15.8252Z" fill="url(#paint11_linear_4203_2026)"/>
</g>
<path d="M65.8516 31.0623H61.5391V29.0623H61.4766C61.2891 29.3373 61.0391 29.6123 60.7391 29.8873C60.4391 30.1623 60.0891 30.4248 59.6766 30.6498C59.2641 30.8748 58.8266 31.0623 58.3266 31.2123C57.8391 31.3623 57.3266 31.4373 56.8141 31.4373C55.6891 31.4373 54.6641 31.2498 53.7516 30.8623C52.8391 30.4748 52.0516 29.9373 51.3891 29.2373C50.7266 28.5373 50.2266 27.7123 49.8766 26.7498C49.5266 25.7873 49.3516 24.7373 49.3516 23.5873C49.3516 22.5248 49.5141 21.5123 49.8391 20.5373C50.1641 19.5748 50.6141 18.7123 51.2141 17.9623C51.8141 17.2123 52.5266 16.6123 53.3891 16.1623C54.2391 15.7123 55.2141 15.4873 56.2891 15.4873C57.2641 15.4873 58.1766 15.6373 59.0266 15.9373C59.8766 16.2373 60.5641 16.7498 61.1016 17.4873H61.1641V8.92475H65.8516V31.0623ZM61.5391 23.4748C61.5391 22.3248 61.2141 21.3998 60.5516 20.6873C59.9016 19.9748 58.9766 19.6248 57.7891 19.6248C56.6016 19.6248 55.6766 19.9748 55.0266 20.6873C54.3766 21.3998 54.0391 22.3248 54.0391 23.4748C54.0391 24.6248 54.3641 25.5498 55.0266 26.2498C55.6766 26.9623 56.6016 27.3123 57.7891 27.3123C58.9766 27.3123 59.9016 26.9623 60.5516 26.2498C61.2016 25.5373 61.5391 24.6123 61.5391 23.4748Z" fill="#272B38"/>
<path d="M70.5307 8.93725H85.5557V13.4373H75.4057V17.5623H84.9932V22.0623H75.4057V26.5623H86.1182V31.0623H70.5307V8.93725Z" fill="#272B38"/>
<path d="M108.343 22.5373C108.343 23.8498 108.143 25.0623 107.743 26.1623C107.343 27.2623 106.756 28.2248 105.981 29.0373C105.206 29.8498 104.231 30.4873 103.056 30.9373C101.893 31.3998 100.543 31.6248 99.0182 31.6248C97.4932 31.6248 96.1182 31.3998 94.9557 30.9373C93.7932 30.4748 92.8182 29.8373 92.0307 29.0373C91.2432 28.2373 90.6557 27.2623 90.2682 26.1623C89.8682 25.0623 89.6682 23.8498 89.6682 22.5373V8.93725H94.5432V22.3373C94.5432 23.0248 94.6557 23.6623 94.8682 24.2498C95.0932 24.8373 95.3932 25.3373 95.7932 25.7623C96.1932 26.1873 96.6682 26.5248 97.2182 26.7623C97.7682 26.9998 98.3682 27.1248 99.0182 27.1248C99.6682 27.1248 100.256 26.9998 100.806 26.7623C101.343 26.5248 101.818 26.1873 102.206 25.7623C102.606 25.3373 102.906 24.8248 103.131 24.2498C103.343 23.6623 103.456 23.0248 103.456 22.3373V8.93725H108.331V22.5373H108.343Z" fill="#272B38"/>
<path d="M112.593 8.93725H121.156C122.281 8.93725 123.343 9.04975 124.356 9.26225C125.368 9.48725 126.256 9.84975 127.006 10.3623C127.768 10.8748 128.368 11.5623 128.818 12.4248C129.268 13.2873 129.493 14.3623 129.493 15.6623C129.493 17.2248 129.081 18.5498 128.268 19.6498C127.456 20.7498 126.268 21.4373 124.706 21.7248L130.331 31.0748H124.493L119.868 22.2373H117.468V31.0748H112.593V8.93725ZM117.468 18.0998H120.343C120.781 18.0998 121.243 18.0873 121.731 18.0498C122.218 18.0248 122.668 17.9248 123.056 17.7748C123.443 17.6248 123.781 17.3748 124.043 17.0373C124.306 16.6998 124.431 16.2373 124.431 15.6373C124.431 15.0748 124.318 14.6248 124.093 14.2998C123.868 13.9623 123.568 13.7123 123.218 13.5373C122.868 13.3623 122.456 13.2373 122.006 13.1748C121.543 13.1123 121.093 13.0873 120.656 13.0873H117.468V18.1123V18.0998Z" fill="#272B38"/>
<path d="M131.831 19.9998C131.831 18.2248 132.131 16.6248 132.718 15.1873C133.318 13.7498 134.143 12.5248 135.206 11.5123C136.268 10.4998 137.531 9.72476 138.993 9.18726C140.456 8.64976 142.043 8.37476 143.768 8.37476C145.493 8.37476 147.093 8.64976 148.556 9.18726C150.018 9.72476 151.268 10.4998 152.331 11.5123C153.393 12.5248 154.218 13.7498 154.818 15.1873C155.418 16.6248 155.706 18.2248 155.706 19.9998C155.706 21.7748 155.406 23.3748 154.818 24.8123C154.231 26.2498 153.393 27.4748 152.331 28.4873C151.268 29.4998 150.006 30.2748 148.556 30.8123C147.093 31.3498 145.506 31.6248 143.768 31.6248C142.031 31.6248 140.443 31.3498 138.993 30.8123C137.531 30.2748 136.268 29.4998 135.206 28.4873C134.143 27.4748 133.318 26.2498 132.718 24.8123C132.118 23.3748 131.831 21.7748 131.831 19.9998ZM136.893 19.9998C136.893 21.0373 137.056 21.9998 137.381 22.8623C137.706 23.7248 138.168 24.4748 138.768 25.1123C139.368 25.7498 140.093 26.2373 140.943 26.5998C141.781 26.9498 142.731 27.1373 143.768 27.1373C144.806 27.1373 145.756 26.9623 146.593 26.5998C147.431 26.2498 148.156 25.7498 148.768 25.1123C149.368 24.4748 149.831 23.7248 150.156 22.8623C150.481 21.9998 150.643 21.0498 150.643 19.9998C150.643 18.9498 150.481 18.0373 150.156 17.1623C149.831 16.2873 149.368 15.5373 148.768 14.8998C148.168 14.2623 147.443 13.7748 146.593 13.4123C145.743 13.0623 144.806 12.8748 143.768 12.8748C142.731 12.8748 141.781 13.0498 140.943 13.4123C140.093 13.7623 139.381 14.2623 138.768 14.8998C138.168 15.5373 137.706 16.2873 137.381 17.1623C137.056 18.0373 136.893 18.9873 136.893 19.9998Z" fill="#272B38"/>
<defs>
<linearGradient id="paint0_linear_4203_2026" x1="20.8252" y1="40" x2="20.8252" y2="0" gradientUnits="userSpaceOnUse">
<stop stop-color="#424756"/>
<stop offset="0.31" stop-color="#505565"/>
<stop offset="0.42" stop-color="#5F6475"/>
<stop offset="0.61" stop-color="#747A8B"/>
<stop offset="0.73" stop-color="#7C8394"/>
<stop offset="0.88" stop-color="#757C8C"/>
<stop offset="1" stop-color="#6E7484"/>
</linearGradient>
<radialGradient id="paint1_radial_4203_2026" cx="0" cy="0" r="1" gradientUnits="userSpaceOnUse" gradientTransform="translate(20.8252 20) rotate(90) scale(20)">
<stop offset="0.80207" stop-color="#272B38" stop-opacity="0"/>
<stop offset="0.848055" stop-color="#272B38" stop-opacity="0.0421641"/>
<stop offset="0.882811" stop-color="#272B38" stop-opacity="0.0948692"/>
<stop offset="0.913817" stop-color="#272B38" stop-opacity="0.15"/>
<stop offset="0.957038" stop-color="#272B38" stop-opacity="0.34"/>
</radialGradient>
<linearGradient id="paint2_linear_4203_2026" x1="20.8252" y1="40" x2="20.8252" y2="0" gradientUnits="userSpaceOnUse">
<stop stop-color="#6D6E7C"/>
<stop offset="0.17" stop-color="#7A7C8A"/>
<stop offset="0.51" stop-color="#9EA2B1"/>
<stop offset="0.67" stop-color="#B3B8C7"/>
</linearGradient>
<linearGradient id="paint3_linear_4203_2026" x1="19.5752" y1="10" x2="19.5752" y2="29.7917" gradientUnits="userSpaceOnUse">
<stop offset="0.4" stop-color="white"/>
<stop offset="0.54" stop-color="#EAEAEC"/>
<stop offset="0.84" stop-color="#C4C6CB"/>
<stop offset="0.99" stop-color="#B6B8BF"/>
</linearGradient>
<linearGradient id="paint4_linear_4203_2026" x1="19.5752" y1="10" x2="19.5752" y2="29.7917" gradientUnits="userSpaceOnUse">
<stop offset="0.4" stop-color="white"/>
<stop offset="0.54" stop-color="#EAEAEC"/>
<stop offset="0.84" stop-color="#C4C6CB"/>
<stop offset="0.99" stop-color="#B6B8BF"/>
</linearGradient>
<linearGradient id="paint5_linear_4203_2026" x1="19.5752" y1="10" x2="19.5752" y2="29.7917" gradientUnits="userSpaceOnUse">
<stop offset="0.4" stop-color="white"/>
<stop offset="0.54" stop-color="#EAEAEC"/>
<stop offset="0.84" stop-color="#C4C6CB"/>
<stop offset="0.99" stop-color="#B6B8BF"/>
</linearGradient>
<linearGradient id="paint6_linear_4203_2026" x1="19.5752" y1="10" x2="19.5752" y2="29.7917" gradientUnits="userSpaceOnUse">
<stop offset="0.4" stop-color="white"/>
<stop offset="0.54" stop-color="#EAEAEC"/>
<stop offset="0.84" stop-color="#C4C6CB"/>
<stop offset="0.99" stop-color="#B6B8BF"/>
</linearGradient>
<linearGradient id="paint7_linear_4203_2026" x1="19.5752" y1="10" x2="19.5752" y2="29.7917" gradientUnits="userSpaceOnUse">
<stop offset="0.4" stop-color="white"/>
<stop offset="0.54" stop-color="#EAEAEC"/>
<stop offset="0.84" stop-color="#C4C6CB"/>
<stop offset="0.99" stop-color="#B6B8BF"/>
</linearGradient>
<linearGradient id="paint8_linear_4203_2026" x1="19.5752" y1="10" x2="19.5752" y2="29.7917" gradientUnits="userSpaceOnUse">
<stop offset="0.4" stop-color="white"/>
<stop offset="0.54" stop-color="#EAEAEC"/>
<stop offset="0.84" stop-color="#C4C6CB"/>
<stop offset="0.99" stop-color="#B6B8BF"/>
</linearGradient>
<linearGradient id="paint9_linear_4203_2026" x1="19.5752" y1="10" x2="19.5752" y2="29.7917" gradientUnits="userSpaceOnUse">
<stop offset="0.4" stop-color="white"/>
<stop offset="0.54" stop-color="#EAEAEC"/>
<stop offset="0.84" stop-color="#C4C6CB"/>
<stop offset="0.99" stop-color="#B6B8BF"/>
</linearGradient>
<linearGradient id="paint10_linear_4203_2026" x1="19.5752" y1="10" x2="19.5752" y2="29.7917" gradientUnits="userSpaceOnUse">
<stop offset="0.4" stop-color="white"/>
<stop offset="0.54" stop-color="#EAEAEC"/>
<stop offset="0.84" stop-color="#C4C6CB"/>
<stop offset="0.99" stop-color="#B6B8BF"/>
</linearGradient>
<linearGradient id="paint11_linear_4203_2026" x1="19.5752" y1="10" x2="19.5752" y2="29.7917" gradientUnits="userSpaceOnUse">
<stop offset="0.4" stop-color="white"/>
<stop offset="0.54" stop-color="#EAEAEC"/>
<stop offset="0.84" stop-color="#C4C6CB"/>
<stop offset="0.99" stop-color="#B6B8BF"/>
</linearGradient>
<clipPath id="clip0_4203_2026">
<rect width="40" height="40" fill="white" transform="translate(0.825195)"/>
</clipPath>
</defs>
</svg>
