<svg width="40" height="40" viewBox="0 0 40 40" fill="none" xmlns="http://www.w3.org/2000/svg">
<path d="M0 10.2831C0 4.60389 4.60389 0 10.2831 0H29.7169C35.3961 0 40 4.60389 40 10.2831V29.7169C40 35.3961 35.3961 40 29.7169 40H10.2831C4.60389 40 0 35.3961 0 29.7169V10.2831Z" fill="white"/>
<g clip-path="url(#clip0_6001_1717)">
<path d="M25.758 28.3682L33.7537 20.3725C33.9602 20.166 33.9602 19.8309 33.7537 19.6214L24.196 10.0667L20.6261 13.6366L26.6139 19.6244C26.8203 19.8309 26.8203 20.166 26.6139 20.3755L22.1911 24.7983L25.761 28.3682H25.758Z" fill="#E73955"/>
<path d="M23.5257 30.6035L13.2977 20.3755C13.0912 20.169 13.0912 19.8339 13.2977 19.6244L23.5257 9.39642H16.6043C16.4637 9.39642 16.329 9.45328 16.2302 9.55203L6.15486 19.6244C5.94838 19.8309 5.94838 20.166 6.15486 20.3755L16.2273 30.4479C16.326 30.5467 16.4607 30.6035 16.6013 30.6035H23.5257Z" fill="#E73955"/>
</g>
<defs>
<clipPath id="clip0_6001_1717">
<rect width="28" height="21.2071" fill="white" transform="translate(6 9.39642)"/>
</clipPath>
</defs>
</svg>
