<svg width="40" height="40" viewBox="0 0 40 40" fill="none" xmlns="http://www.w3.org/2000/svg">
<path d="M0 10.2831C0 4.60389 4.60389 0 10.2831 0H29.7169C35.3961 0 40 4.60389 40 10.2831V29.7169C40 35.3961 35.3961 40 29.7169 40H10.2831C4.60389 40 0 35.3961 0 29.7169V10.2831Z" fill="white"/>
<rect x="11.3057" y="6.50055" width="17.3969" height="17.3969" rx="2.89948" fill="#E73955"/>
<path d="M21.801 11.5036L22.2363 9.87102L21.2568 9.59893L20.8758 11.1771C20.6037 11.1227 20.3316 11.0682 20.0595 11.0138L20.4405 9.38125L19.4065 9.16357L19.0256 10.7961C18.8079 10.7417 18.5902 10.6873 18.3726 10.6329L17.0121 10.3064L16.74 11.3948C16.74 11.3948 17.5019 11.558 17.4474 11.558C17.8284 11.6668 17.9372 11.9389 17.9372 12.1566L16.7944 16.619C16.74 16.7278 16.6312 16.9455 16.3046 16.8366L15.5972 16.6734L15.1074 17.8162L16.4135 18.1427L17.1209 18.306L16.6856 19.9385L17.6651 20.2106L18.1005 18.5781C18.3726 18.6325 18.6447 18.7413 18.9167 18.7957L18.5358 20.4283L19.5154 20.7004L19.9507 19.0678C21.6377 19.3943 22.9438 19.2855 23.4879 17.7073C23.9233 16.4557 23.4879 15.7483 22.5628 15.3129C23.2158 15.1497 23.7056 14.7143 23.8145 13.8436C23.9777 12.592 23.107 11.9389 21.801 11.5036ZM21.5289 16.9999C21.2023 18.2515 19.1344 17.5441 18.4814 17.3808L19.0256 15.2041C19.6786 15.3673 21.8554 15.6938 21.5289 16.9999ZM21.8554 13.7892C21.5833 14.932 19.8419 14.3334 19.2977 14.2245L19.7875 12.211C20.3316 12.3199 22.1275 12.592 21.8554 13.7892Z" fill="white"/>
<path d="M20.7275 28.4557C21.5735 28.7042 22.2366 29.3748 22.4766 30.2243H34.998V31.6745H22.4639C22.1429 32.7307 21.1621 33.4997 20.001 33.4997C18.8399 33.4996 17.859 32.7307 17.5381 31.6745H5.00195V30.2243H17.5254C17.7656 29.3738 18.4301 28.7026 19.2773 28.4548V23.6306H20.7275V28.4557Z" fill="#E73955"/>
</svg>
