<svg width="40" height="40" viewBox="0 0 40 40" fill="none" xmlns="http://www.w3.org/2000/svg">
<rect width="40" height="40" rx="9.33333" fill="white"/>
<g clip-path="url(#clip0_6001_1551)">
<path fill-rule="evenodd" clip-rule="evenodd" d="M27.6759 7.03381C27.8343 7.07747 27.9782 7.16235 28.093 7.2798C28.2079 7.39726 28.2895 7.54308 28.3296 7.70238L29.1226 10.8781L32.2983 11.6711C32.4577 11.7112 32.6035 11.7929 32.721 11.9078C32.8385 12.0227 32.9234 12.1667 32.967 12.3251C33.0106 12.4835 33.0114 12.6507 32.9693 12.8096C32.9272 12.9684 32.8437 13.1132 32.7273 13.2292L29.013 16.9435C28.8997 17.0565 28.7591 17.1382 28.6049 17.1809C28.4506 17.2235 28.288 17.2255 28.1327 17.1868L25.191 16.4532L20.8212 20.8212C20.6035 21.0389 20.3082 21.1612 20.0003 21.1612C19.6924 21.1612 19.3972 21.0389 19.1795 20.8212C18.9618 20.6035 18.8394 20.3083 18.8394 20.0004C18.8394 19.6925 18.9618 19.3972 19.1795 19.1795L23.5475 14.8097L22.812 11.8679C22.773 11.7124 22.7748 11.5494 22.8175 11.3948C22.8601 11.2402 22.942 11.0993 23.0553 10.9858L26.7696 7.27152C26.8859 7.15543 27.0308 7.07226 27.1897 7.0305C27.3486 6.98874 27.5157 6.98988 27.674 7.03381M19.2612 9.37381C19.5685 9.35312 19.8551 9.21119 20.0578 8.97923C20.2605 8.74728 20.3627 8.4443 20.342 8.13695C20.3213 7.8296 20.1794 7.54306 19.9475 7.34036C19.7155 7.13766 19.4125 7.03541 19.1052 7.05609C16.6331 7.22818 14.2624 8.10624 12.2747 9.58595C10.2869 11.0657 8.76569 13.0848 7.89168 15.4036C7.01767 17.7224 6.82761 20.2434 7.34408 22.667C7.86056 25.0906 9.06186 27.315 10.8053 29.0761C12.5487 30.8371 14.761 32.0606 17.1793 32.6014C19.5976 33.1422 22.1203 32.9775 24.4477 32.1268C26.7752 31.2761 28.8095 29.7752 30.3091 27.8024C31.8087 25.8296 32.7106 23.4679 32.9075 20.9977C32.9321 20.6908 32.8338 20.3867 32.6342 20.1523C32.4347 19.9179 32.1502 19.7724 31.8433 19.7478C31.5365 19.7232 31.2324 19.8215 30.998 20.021C30.7636 20.2206 30.6181 20.5051 30.5935 20.8119C30.4325 22.8397 29.6928 24.7787 28.4622 26.3984C27.2317 28.0181 25.562 29.2506 23.6516 29.9493C21.7413 30.648 19.6704 30.7837 17.6852 30.3401C15.7 29.8965 13.8839 28.8924 12.4526 27.447C11.0213 26.0016 10.035 24.1757 9.61086 22.1863C9.18675 20.1968 9.34264 18.1275 10.06 16.224C10.7774 14.3206 12.0262 12.6631 13.6579 11.4484C15.2896 10.2338 17.2356 9.51309 19.2649 9.37195M19.0885 14.5162C19.1441 14.6582 19.1712 14.8097 19.1683 14.9621C19.1653 15.1145 19.1324 15.2649 19.0713 15.4046C19.0103 15.5442 18.9223 15.6705 18.8125 15.7762C18.7026 15.8819 18.573 15.9649 18.431 16.0205C17.7687 16.2796 17.1813 16.6998 16.7221 17.243C16.263 17.7862 15.9464 18.4352 15.8012 19.1315C15.6559 19.8278 15.6865 20.5493 15.8902 21.2307C16.0939 21.9122 16.4643 22.5321 16.9678 23.0345C17.4713 23.5368 18.0921 23.9057 18.7741 24.1078C19.456 24.3099 20.1776 24.3388 20.8735 24.1919C21.5694 24.0451 22.2178 23.727 22.7599 23.2666C23.302 22.8061 23.7208 22.2178 23.9783 21.5548C24.0949 21.2753 24.316 21.0524 24.5946 20.9337C24.8732 20.815 25.1872 20.8098 25.4695 20.9194C25.7518 21.0289 25.9801 21.2444 26.1058 21.52C26.2314 21.7955 26.2444 22.1093 26.1419 22.3942C25.7452 23.4179 25.0995 24.3265 24.2632 25.0378C23.4269 25.749 22.4265 26.2405 21.3524 26.4678C20.2783 26.695 19.1646 26.6509 18.1119 26.3392C17.0592 26.0276 16.1008 25.4584 15.3235 24.6831C14.5462 23.9079 13.9745 22.951 13.6601 21.8991C13.3458 20.8472 13.2987 19.7335 13.5231 18.6589C13.7476 17.5842 14.2365 16.5825 14.9455 15.7444C15.6546 14.9062 16.5615 14.2582 17.5842 13.8588C17.7261 13.8032 17.8776 13.7761 18.03 13.779C18.1825 13.7819 18.3328 13.8149 18.4725 13.8759C18.6122 13.937 18.7385 14.0249 18.8442 14.1348C18.9499 14.2447 19.0329 14.3743 19.0885 14.5162Z" fill="#E73955"/>
</g>
<defs>
<clipPath id="clip0_6001_1551">
<rect width="26" height="26" fill="white" transform="translate(7 7)"/>
</clipPath>
</defs>
</svg>
