<svg width="40" height="40" viewBox="0 0 40 40" fill="none" xmlns="http://www.w3.org/2000/svg">
<rect width="40" height="40" rx="9.33333" fill="white"/>
<path d="M9.41304 31.9125C9.23532 32.0781 9.00026 32.1682 8.75739 32.164C8.51451 32.1597 8.28278 32.0613 8.11101 31.8895C7.93925 31.7177 7.84086 31.486 7.83657 31.2431C7.83229 31.0003 7.92244 30.7652 8.08804 30.5875L10.6005 28.0737C9.63304 26.7325 9.46554 25.2425 9.65929 23.9612C9.88179 22.4962 10.588 21.2112 11.213 20.5862L13.088 18.7112C13.2638 18.5357 13.5021 18.4371 13.7505 18.4371C13.999 18.4371 14.2373 18.5357 14.413 18.7112L21.288 25.5862C21.3752 25.6733 21.4443 25.7767 21.4914 25.8905C21.5386 26.0042 21.5628 26.1262 21.5628 26.2494C21.5628 26.3725 21.5386 26.4945 21.4914 26.6083C21.4443 26.722 21.3752 26.8254 21.288 26.9125L19.413 28.7875C18.788 29.4125 17.5043 30.1187 16.0393 30.3412C14.758 30.535 13.268 30.3662 11.9268 29.3987L9.41304 31.9125ZM18.788 18.1625C18.7022 18.2546 18.5987 18.3285 18.4837 18.3797C18.3687 18.431 18.2446 18.4585 18.1187 18.4607C17.9928 18.4629 17.8678 18.4398 17.751 18.3926C17.6343 18.3455 17.5283 18.2753 17.4392 18.1863C17.3502 18.0973 17.28 17.9912 17.2329 17.8745C17.1857 17.7577 17.1626 17.6327 17.1648 17.5068C17.167 17.381 17.1946 17.2568 17.2458 17.1418C17.2971 17.0268 17.3709 16.9233 17.463 16.8375L19.3005 15L18.713 14.4125C18.5375 14.2367 18.4389 13.9984 18.4389 13.75C18.4389 13.5015 18.5375 13.2633 18.713 13.0875L20.588 11.2125C21.213 10.5875 22.4968 9.88124 23.9618 9.65874C25.243 9.46499 26.733 9.63374 28.0743 10.6012L30.5868 8.08749C30.6732 7.9979 30.7766 7.92644 30.891 7.87725C31.0054 7.82806 31.1284 7.80214 31.2528 7.801C31.3773 7.79986 31.5008 7.82353 31.616 7.87061C31.7313 7.91769 31.836 7.98726 31.924 8.07524C32.0121 8.16322 32.0818 8.26786 32.129 8.38305C32.1761 8.49825 32.1999 8.62168 32.1989 8.74617C32.1979 8.87065 32.1721 8.99368 32.123 9.10808C32.0739 9.22248 32.0025 9.32596 31.913 9.41249L29.4005 11.9275C30.368 13.2675 30.538 14.7575 30.343 16.04C30.1205 17.5037 29.4143 18.7875 28.7893 19.4125L26.9143 21.2875C26.7385 21.463 26.5002 21.5617 26.2518 21.5617C26.0034 21.5617 25.7651 21.463 25.5893 21.2875L25.0018 20.7L23.1643 22.5375C23.0785 22.6296 22.975 22.7035 22.86 22.7547C22.745 22.806 22.6208 22.8335 22.4949 22.8357C22.3691 22.8379 22.244 22.8148 22.1273 22.7676C22.0106 22.7205 21.9045 22.6503 21.8155 22.5613C21.7265 22.4723 21.6563 22.3662 21.6091 22.2495C21.562 22.1327 21.5388 22.0077 21.5411 21.8818C21.5433 21.756 21.5708 21.6318 21.6221 21.5168C21.6733 21.4018 21.7472 21.2983 21.8393 21.2125L23.6768 19.375L20.6268 16.325L18.788 18.1625Z" fill="#E73955"/>
</svg>
