<svg width="41" height="40" viewBox="0 0 41 40" fill="none" xmlns="http://www.w3.org/2000/svg">
<path d="M0.870117 10.2831C0.870117 4.60389 5.47401 0 11.1532 0H30.587C36.2662 0 40.8701 4.60389 40.8701 10.2831V29.7169C40.8701 35.3961 36.2662 40 30.587 40H11.1532C5.47401 40 0.870117 35.3961 0.870117 29.7169V10.2831Z" fill="white"/>
<g clip-path="url(#clip0_4966_2765)">
<path d="M20.8711 34.7484V5.25195" stroke="#E73955" stroke-width="0.475044" stroke-miterlimit="10"/>
<path d="M31.4905 30.4258L10.2539 9.56836" stroke="#E73955" stroke-width="0.475044" stroke-miterlimit="10"/>
<path d="M31.4905 9.56836L10.2539 30.4258" stroke="#E73955" stroke-width="0.475044" stroke-miterlimit="10"/>
<path d="M35.8873 20H5.85449" stroke="#E73955" stroke-width="0.475044" stroke-miterlimit="10"/>
<path d="M20.8709 6.90197C21.7828 6.90197 22.5221 6.16271 22.5221 5.25079C22.5221 4.33887 21.7828 3.59961 20.8709 3.59961C19.959 3.59961 19.2197 4.33887 19.2197 5.25079C19.2197 6.16271 19.959 6.90197 20.8709 6.90197Z" fill="#E73955"/>
<path d="M20.8709 36.4C21.7828 36.4 22.5221 35.6608 22.5221 34.7488C22.5221 33.8369 21.7828 33.0977 20.8709 33.0977C19.959 33.0977 19.2197 33.8369 19.2197 34.7488C19.2197 35.6608 19.959 36.4 20.8709 36.4Z" fill="#E73955"/>
<path d="M5.85333 21.6481C6.76525 21.6481 7.50451 20.9088 7.50451 19.9969C7.50451 19.085 6.76525 18.3457 5.85333 18.3457C4.94141 18.3457 4.20215 19.085 4.20215 19.9969C4.20215 20.9088 4.94141 21.6481 5.85333 21.6481Z" fill="#E73955"/>
<path d="M35.8875 21.6481C36.7994 21.6481 37.5387 20.9088 37.5387 19.9969C37.5387 19.085 36.7994 18.3457 35.8875 18.3457C34.9756 18.3457 34.2363 19.085 34.2363 19.9969C34.2363 20.9088 34.9756 21.6481 35.8875 21.6481Z" fill="#E73955"/>
<path d="M10.2527 11.2223C11.1647 11.2223 11.9039 10.483 11.9039 9.5711C11.9039 8.65918 11.1647 7.91992 10.2527 7.91992C9.34082 7.91992 8.60156 8.65918 8.60156 9.5711C8.60156 10.483 9.34082 11.2223 10.2527 11.2223Z" fill="#E73955"/>
<path d="M31.49 32.0817C32.402 32.0817 33.1412 31.3424 33.1412 30.4305C33.1412 29.5186 32.402 28.7793 31.49 28.7793C30.5781 28.7793 29.8389 29.5186 29.8389 30.4305C29.8389 31.3424 30.5781 32.0817 31.49 32.0817Z" fill="#E73955"/>
<path d="M10.2527 32.0817C11.1647 32.0817 11.9039 31.3424 11.9039 30.4305C11.9039 29.5186 11.1647 28.7793 10.2527 28.7793C9.34082 28.7793 8.60156 29.5186 8.60156 30.4305C8.60156 31.3424 9.34082 32.0817 10.2527 32.0817Z" fill="#E73955"/>
<path d="M31.49 11.2223C32.402 11.2223 33.1412 10.483 33.1412 9.5711C33.1412 8.65918 32.402 7.91992 31.49 7.91992C30.5781 7.91992 29.8389 8.65918 29.8389 9.5711C29.8389 10.483 30.5781 11.2223 31.49 11.2223Z" fill="#E73955"/>
<path d="M20.8711 28.3488C25.5655 28.3488 29.3711 24.6111 29.3711 20.0006C29.3711 15.39 25.5655 11.6523 20.8711 11.6523C16.1767 11.6523 12.3711 15.39 12.3711 20.0006C12.3711 24.6111 16.1767 28.3488 20.8711 28.3488Z" fill="#E73955"/>
<path d="M21.8057 14.8926C24.5912 14.8926 26.8496 17.0862 26.8496 19.9375C26.8495 22.7887 24.5386 25.0985 21.6885 25.0986H18.0391V23.0273H21.1934C22.861 23.0273 24.2246 21.6628 24.2246 19.9951C24.2244 18.3276 22.8609 16.9639 21.1934 16.9639H18.0391V14.8926H21.8057ZM17.1797 17.167C18.7424 17.1672 20.0088 18.4343 20.0088 19.9971C20.0087 21.5598 18.7424 22.827 17.1797 22.8271C15.6169 22.8271 14.3496 21.5599 14.3496 19.9971C14.3496 18.4342 15.6168 17.167 17.1797 17.167ZM19.0605 17.3691C19.3904 17.3099 19.7369 17.3129 20.084 17.3916C21.4692 17.7042 22.339 19.0816 22.0264 20.4668C21.7374 21.7462 20.5406 22.5861 19.2676 22.46C19.9651 21.8671 20.4082 20.9826 20.4082 19.9951C20.4081 18.9129 19.8765 17.9566 19.0605 17.3691Z" fill="white"/>
</g>
<defs>
<clipPath id="clip0_4966_2765">
<rect width="34" height="34" fill="white" transform="translate(3.87012 3)"/>
</clipPath>
</defs>
</svg>
