<svg width="40" height="40" viewBox="0 0 40 40" fill="none" xmlns="http://www.w3.org/2000/svg">
<path d="M0 10.2831C0 4.60389 4.60389 0 10.2831 0H29.7169C35.3961 0 40 4.60389 40 10.2831V29.7169C40 35.3961 35.3961 40 29.7169 40H10.2831C4.60389 40 0 35.3961 0 29.7169V10.2831Z" fill="white"/>
<path d="M18.7657 16.6708C18.7387 16.7332 18.7302 16.8028 18.7473 16.8696C18.7799 17.003 18.8807 17.2047 19.1832 17.2047H28.5045C28.7388 17.2047 28.8524 17.493 28.6806 17.6534L28.6777 17.6563L15.4598 32.3908C15.261 32.6124 14.8918 32.4746 14.8875 32.1764C14.8875 32.1267 14.8975 32.077 14.9188 32.033L19.6348 21.9434C19.8208 21.5174 19.5084 21.0403 19.044 21.0403H10.5421C10.0735 21.0403 9.82643 20.485 10.1403 20.1371L21.4908 7.69455C21.6044 7.571 21.7649 7.5 21.9324 7.5C22.1327 7.5 22.2733 7.69881 22.2023 7.88768C21.6854 9.2694 19.9018 14.0152 18.7657 16.6708Z" fill="#E73955"/>
</svg>
