<svg width="40" height="40" viewBox="0 0 40 40" fill="none" xmlns="http://www.w3.org/2000/svg">
<path d="M0 10.2831C0 4.60389 4.60389 0 10.2831 0H29.7169C35.3961 0 40 4.60389 40 10.2831V29.7169C40 35.3961 35.3961 40 29.7169 40H10.2831C4.60389 40 0 35.3961 0 29.7169V10.2831Z" fill="white"/>
<path d="M7.9315 15.001C7.39457 15.0009 6.8675 14.8567 6.40528 14.5834C5.94307 14.3102 5.56263 13.918 5.30367 13.4476C5.04471 12.9772 4.91671 12.446 4.93303 11.9093C4.94934 11.3726 5.10937 10.8502 5.39642 10.3964C5.68347 9.94263 6.08702 9.57421 6.56498 9.32956C7.04294 9.08491 7.57779 8.973 8.11374 9.0055C8.64969 9.038 9.1671 9.21373 9.612 9.51434C10.0569 9.81495 10.413 10.2294 10.6431 10.7146H16.9329L18.2189 12.0005L16.9329 13.2864L16.0757 12.4291L15.2184 13.2864L14.3611 12.4291L13.5038 13.2864L12.6465 12.4291L11.7893 13.2864H10.6431C10.3997 13.7995 10.0157 14.233 9.53569 14.5365C9.05569 14.84 8.49941 15.0011 7.9315 15.001ZM7.07422 12.8578C7.30159 12.8578 7.51964 12.7674 7.68041 12.6067C7.84118 12.4459 7.9315 12.2278 7.9315 12.0005C7.9315 11.7731 7.84118 11.5551 7.68041 11.3943C7.51964 11.2335 7.30159 11.1432 7.07422 11.1432C6.84686 11.1432 6.62881 11.2335 6.46803 11.3943C6.30726 11.5551 6.21694 11.7731 6.21694 12.0005C6.21694 12.2278 6.30726 12.4459 6.46803 12.6067C6.62881 12.7674 6.84686 12.8578 7.07422 12.8578Z" fill="#E73955"/>
<path d="M7.9315 23C7.39457 22.9999 6.8675 22.8557 6.40528 22.5825C5.94307 22.3092 5.56263 21.917 5.30367 21.4466C5.04471 20.9763 4.91671 20.445 4.93303 19.9083C4.94934 19.3717 5.10937 18.8492 5.39642 18.3954C5.68347 17.9417 6.08702 17.5732 6.56498 17.3286C7.04294 17.0839 7.57779 16.972 8.11374 17.0045C8.64969 17.037 9.1671 17.2127 9.612 17.5134C10.0569 17.814 10.413 18.2285 10.6431 18.7136H16.9329L18.2189 19.9995L16.9329 21.2854L16.0757 20.4281L15.2184 21.2854L14.3611 20.4281L13.5038 21.2854L12.6465 20.4281L11.7893 21.2854H10.6431C10.3997 21.7985 10.0157 22.232 9.53569 22.5355C9.05569 22.8391 8.49941 23.0001 7.9315 23ZM7.07422 20.8568C7.30159 20.8568 7.51964 20.7665 7.68041 20.6057C7.84118 20.4449 7.9315 20.2269 7.9315 19.9995C7.9315 19.7721 7.84118 19.5541 7.68041 19.3933C7.51964 19.2325 7.30159 19.1422 7.07422 19.1422C6.84686 19.1422 6.62881 19.2325 6.46803 19.3933C6.30726 19.5541 6.21694 19.7721 6.21694 19.9995C6.21694 20.2269 6.30726 20.4449 6.46803 20.6057C6.62881 20.7665 6.84686 20.8568 7.07422 20.8568Z" fill="#E73955"/>
<path d="M7.9315 31C7.39457 30.9999 6.8675 30.8557 6.40528 30.5825C5.94307 30.3092 5.56263 29.917 5.30367 29.4466C5.04471 28.9763 4.91671 28.445 4.93303 27.9083C4.94934 27.3717 5.10937 26.8492 5.39642 26.3954C5.68347 25.9417 6.08702 25.5732 6.56498 25.3286C7.04294 25.0839 7.57779 24.972 8.11374 25.0045C8.64969 25.037 9.1671 25.2127 9.612 25.5134C10.0569 25.814 10.413 26.2285 10.6431 26.7136H16.9329L18.2189 27.9995L16.9329 29.2854L16.0757 28.4281L15.2184 29.2854L14.3611 28.4281L13.5038 29.2854L12.6465 28.4281L11.7893 29.2854H10.6431C10.3997 29.7985 10.0157 30.232 9.53569 30.5355C9.05569 30.8391 8.49941 31.0001 7.9315 31ZM7.07422 28.8568C7.30159 28.8568 7.51964 28.7665 7.68041 28.6057C7.84118 28.4449 7.9315 28.2269 7.9315 27.9995C7.9315 27.7721 7.84118 27.5541 7.68041 27.3933C7.51964 27.2325 7.30159 27.1422 7.07422 27.1422C6.84686 27.1422 6.62881 27.2325 6.46803 27.3933C6.30726 27.5541 6.21694 27.7721 6.21694 27.9995C6.21694 28.2269 6.30726 28.4449 6.46803 28.6057C6.62881 28.7665 6.84686 28.8568 7.07422 28.8568Z" fill="#E73955"/>
<line x1="24.9229" y1="19.9876" x2="19.9229" y2="19.9876" stroke="#E73955" stroke-width="1.22627"/>
<line x1="24.9229" y1="11.9876" x2="19.9229" y2="11.9876" stroke="#E73955" stroke-width="1.22627"/>
<rect x="23.584" y="8.99969" width="11.4853" height="21.9997" rx="2.04379" fill="#E73955"/>
<path d="M30.773 16.6707L31.1159 15.3848L30.3444 15.1705L30.0444 16.4135C29.8301 16.3707 29.6157 16.3278 29.4014 16.2849L29.7015 14.9991L28.8871 14.8276L28.5871 16.1135C28.4156 16.0706 28.2442 16.0278 28.0727 15.9849L27.0012 15.7277L26.7868 16.585C26.7868 16.585 27.3869 16.7136 27.344 16.7136C27.6441 16.7993 27.7298 17.0136 27.7298 17.1851L26.8297 20.6998C26.7868 20.7855 26.7011 20.9569 26.4439 20.8712L25.8867 20.7426L25.501 21.6427L26.5297 21.8999L27.0869 22.0285L26.744 23.3143L27.5155 23.5287L27.8584 22.2428C28.0727 22.2856 28.287 22.3714 28.5013 22.4142L28.2013 23.7001L28.9728 23.9144L29.3157 22.6285C30.6444 22.8857 31.6731 22.8 32.1017 21.557C32.4446 20.5712 32.1017 20.014 31.3731 19.6711C31.8874 19.5425 32.2732 19.1996 32.3589 18.5138C32.4875 17.528 31.8017 17.0136 30.773 16.6707ZM30.5587 20.9998C30.3015 21.9856 28.6728 21.4284 28.1584 21.2998L28.5871 19.5853C29.1014 19.7139 30.8159 19.9711 30.5587 20.9998ZM30.8159 18.4709C30.6016 19.371 29.23 18.8995 28.8014 18.8138L29.1871 17.2279C29.6157 17.3136 31.0302 17.528 30.8159 18.4709Z" fill="white"/>
</svg>
