<svg width="40" height="40" viewBox="0 0 40 40" fill="none" xmlns="http://www.w3.org/2000/svg">
<path d="M0 10.2831C0 4.60389 4.60389 0 10.2831 0H29.7169C35.3961 0 40 4.60389 40 10.2831V29.7169C40 35.3961 35.3961 40 29.7169 40H10.2831C4.60389 40 0 35.3961 0 29.7169V10.2831Z" fill="white"/>
<path d="M20 13.6418C22.8368 13.6422 24.5322 15.2924 24.5322 21.8C24.5322 23.8568 24.2301 26.0319 23.7695 28.0451C21.5576 28.6294 20.0306 28.6369 19.2061 28.6369C18.4185 28.6367 20.801 29.9015 23.292 29.8869C22.2817 33.3709 20.8832 36.0002 20 36.0002C18.4889 35.9985 15.4683 28.3065 15.4678 21.8C15.4674 15.2932 17.1635 13.6424 20 13.6418ZM15.584 24.0783C15.6465 24.7287 15.7305 25.3769 15.8359 26.0217C18.572 26.3591 21.5579 24.8218 20.6904 24.8215C19.8008 24.8215 18.0923 24.8135 15.584 24.0783ZM24.5146 20.6975C22.1268 21.3695 20.4983 21.3728 19.6338 21.3732C18.7616 21.3725 21.7728 22.9213 24.5176 22.5685C24.5266 21.9451 24.5259 21.3209 24.5146 20.6975ZM15.8252 17.5705C15.7035 18.1653 15.6177 18.7672 15.5684 19.3723C18.3098 19.7184 21.3104 18.1737 20.4395 18.174C19.6088 18.174 18.0654 18.1683 15.8252 17.5705ZM20.1006 4.07831C20.1007 3.47428 22.3759 6.4952 21.7725 8.9123C22.3771 8.30791 25.3274 6.49628 24.1191 9.51777C22.963 12.2549 22.2635 12.7742 21.8076 13.1428C21.138 13.6835 20.1102 12.5479 20.1016 12.5383C20.1016 12.5383 18.9715 13.6284 18.2881 13.1428C18.0564 12.9842 17.0758 12.4408 15.8711 9.51679C14.6628 6.49642 17.6831 8.30776 18.2881 8.9123C17.6839 6.49522 20.1005 3.47429 20.1006 4.07831Z" fill="#E73955"/>
</svg>
