<svg width="40" height="40" viewBox="0 0 40 40" fill="none" xmlns="http://www.w3.org/2000/svg">
<rect width="40" height="40" rx="9.33333" fill="white"/>
<path d="M26.0449 9.09717C26.6902 9.09717 27.296 9.3476 27.752 9.80615C28.208 10.2622 28.4531 10.8708 28.4531 11.5161L28.4482 12.9771H29.5918C30.9198 12.9771 32 14.0573 32 15.3853V18.5972H27C25.067 18.5972 23.5 20.1642 23.5 22.0972C23.5 24.0302 25.067 25.5972 27 25.5972H32V28.4946C31.9999 29.8226 30.9197 30.9028 29.5918 30.9028H11.915C10.7339 30.9028 9.73346 30.6174 9.02148 30.0815C8.3709 29.5909 8.00009 28.9053 8 28.1987V11.3931C8.00007 10.0411 9.41334 9.0972 11.4346 9.09717H26.0449ZM32 19.5972V24.5972H27C25.6193 24.5972 24.5 23.4779 24.5 22.0972C24.5 20.7165 25.6193 19.5972 27 19.5972H32ZM11.4346 10.0884C9.82934 10.0884 9.08887 10.6628 9.08887 11.5132C9.08887 12.3067 9.80529 12.977 11.4346 12.9771L27.4473 12.98L27.4531 11.5161C27.4473 10.6285 26.8123 10.0884 26 10.0884H11.4346Z" fill="#E73955"/>
</svg>
