<svg width="268" height="30" viewBox="0 0 268 30" fill="none" xmlns="http://www.w3.org/2000/svg">
<path d="M30.8252 13.9857C30.8252 12.1001 30.8252 11.1573 30.2394 10.5715C29.6536 9.98571 28.7108 9.98571 26.8252 9.98571H24.8395C22.9539 9.98571 22.0111 9.98571 21.4253 9.39993C20.8395 8.81414 20.8395 7.87133 20.8395 5.98571V4C20.8395 2.11438 20.8395 1.17157 20.2537 0.585786C19.6679 0 18.7251 0 16.8395 0H14.8109C12.9253 0 11.9825 0 11.3967 0.585786C10.8109 1.17157 10.8109 2.11438 10.8109 4V5.98572C10.8109 7.87133 10.8109 8.81414 10.2251 9.39993C9.63934 9.98571 8.69653 9.98571 6.81091 9.98571H4.82519C2.93958 9.98571 1.99677 9.98571 1.41098 10.5715C0.825195 11.1573 0.825195 12.1001 0.825195 13.9857V16.0143C0.825195 17.8999 0.825195 18.8427 1.41098 19.4285C1.99677 20.0143 2.93958 20.0143 4.82519 20.0143H6.81091C8.69653 20.0143 9.63934 20.0143 10.2251 20.6001C10.8109 21.1859 10.8109 22.1287 10.8109 24.0143V26C10.8109 27.8856 10.8109 28.8284 11.3967 29.4142C11.9825 30 12.9253 30 14.8109 30H16.8395C18.7251 30 19.6679 30 20.2537 29.4142C20.8395 28.8284 20.8395 27.8856 20.8395 26V24.0143C20.8395 22.1287 20.8395 21.1859 21.4253 20.6001C22.0111 20.0143 22.9539 20.0143 24.8395 20.0143H26.8252C28.7108 20.0143 29.6536 20.0143 30.2394 19.4285C30.8252 18.8427 30.8252 17.8999 30.8252 16.0143V13.9857ZM16.7966 10.0286C18.6822 10.0286 19.625 10.0286 20.2108 10.6144C20.7966 11.2001 20.7966 12.143 20.7966 14.0286V15.9714C20.7966 17.857 20.7966 18.7999 20.2108 19.3856C19.625 19.9714 18.6822 19.9714 16.7966 19.9714H14.8538C12.9681 19.9714 12.0253 19.9714 11.4396 19.3856C10.8538 18.7999 10.8538 17.857 10.8538 15.9714V14.0286C10.8538 12.143 10.8538 11.2001 11.4396 10.6144C12.0253 10.0286 12.9681 10.0286 14.8538 10.0286H16.7966Z" fill="#E95353"/>
<path d="M44.8004 10.1946V13.6032H51.6413V16.992H44.8004V22.3066H40.415V6.80575H52.5706V10.1946H44.8004Z" fill="#070915"/>
<path d="M59.89 10.5149C60.578 10.242 61.361 10.1036 62.2468 10.1036V13.8919C61.8632 13.8484 61.5468 13.8246 61.2938 13.8246C60.3922 13.8246 59.6883 14.0698 59.1782 14.5562C58.6681 15.0426 58.415 15.7899 58.415 16.7943V22.3066H54.2077V10.3053H58.2173V11.7447C58.6444 11.199 59.2019 10.7877 59.89 10.5149Z" fill="#070915"/>
<path d="M73.564 11.4679C74.6119 12.3774 75.1378 13.7693 75.1378 15.6436V22.3106H71.2191V20.7605C70.6141 21.927 69.4317 22.5083 67.676 22.5083C66.7468 22.5083 65.9401 22.3462 65.2639 22.0219C64.5838 21.6977 64.0737 21.2587 63.7257 20.7051C63.3777 20.1515 63.2037 19.5188 63.2037 18.811C63.2037 17.6761 63.6387 16.7943 64.5086 16.1656C65.3786 15.5369 66.723 15.2245 68.5381 15.2245H70.9304C70.8553 13.9551 70.0091 13.3185 68.3838 13.3185C67.8065 13.3185 67.2252 13.4094 66.636 13.5953C66.0468 13.7811 65.5447 14.0342 65.1294 14.3585L63.7138 11.5035C64.3781 11.0606 65.1848 10.7166 66.1378 10.4753C67.0908 10.2302 68.0477 10.1116 69.0047 10.1116C70.9976 10.1116 72.5161 10.5663 73.5679 11.4718L73.564 11.4679ZM70.1316 19.4951C70.4994 19.2579 70.7643 18.9138 70.9304 18.4551V17.4152H69.1154C67.8896 17.4152 67.2766 17.8224 67.2766 18.6331C67.2766 19.0008 67.415 19.2974 67.6958 19.5188C67.9765 19.7403 68.3601 19.851 68.8465 19.851C69.3329 19.851 69.7599 19.7324 70.1316 19.4951Z" fill="#070915"/>
<path d="M89.2112 11.4362C90.1207 12.322 90.5714 13.6586 90.5714 15.4459V22.3106H86.3641V16.134C86.3641 14.4969 85.7077 13.6744 84.3948 13.6744C83.6712 13.6744 83.0939 13.9116 82.6549 14.3822C82.22 14.8567 82.0025 15.5645 82.0025 16.5096V22.3106H77.7951V10.3053H81.8048V11.6102C82.2753 11.1239 82.8368 10.7521 83.4893 10.4912C84.1378 10.2341 84.8456 10.1036 85.6167 10.1036C87.1075 10.1036 88.3056 10.5465 89.2151 11.4323L89.2112 11.4362Z" fill="#070915"/>
<path d="M98.6541 18.0993L97.4124 19.3607V22.3066H93.205V5.87649H97.4124V14.489L101.707 10.3053H106.689L101.707 15.442L107.108 22.3066H102.015L98.6501 18.0993H98.6541Z" fill="#070915"/>
<path d="M120.067 17.3717H111.343C111.521 17.9925 111.865 18.467 112.372 18.7992C112.882 19.1313 113.518 19.2974 114.285 19.2974C114.863 19.2974 115.361 19.2183 115.78 19.0522C116.199 18.8901 116.626 18.6252 117.053 18.2535L119.268 20.5549C118.101 21.8558 116.397 22.5043 114.151 22.5043C112.747 22.5043 111.517 22.2394 110.454 21.7056C109.39 21.1717 108.567 20.4362 107.986 19.4912C107.405 18.5461 107.112 17.4745 107.112 16.2803C107.112 15.0861 107.397 14.0382 107.966 13.101C108.536 12.1638 109.319 11.4283 110.323 10.8985C111.328 10.3686 112.455 10.0997 113.712 10.0997C114.97 10.0997 115.994 10.3488 116.966 10.8431C117.939 11.3374 118.714 12.0531 119.28 12.9903C119.849 13.9275 120.134 15.0386 120.134 16.3238C120.134 16.3554 120.11 16.6994 120.067 17.3637V17.3717ZM112.107 13.6507C111.672 14.0184 111.395 14.5206 111.276 15.1572H116.191C116.073 14.5246 115.796 14.0224 115.361 13.6507C114.926 13.2829 114.384 13.0971 113.732 13.0971C113.079 13.0971 112.542 13.2829 112.103 13.6507H112.107Z" fill="#070915"/>
<path d="M133.499 11.4362C134.409 12.322 134.86 13.6586 134.86 15.4459V22.3106H130.652V16.134C130.652 14.4969 129.996 13.6744 128.683 13.6744C127.959 13.6744 127.382 13.9116 126.943 14.3822C126.508 14.8567 126.291 15.5645 126.291 16.5096V22.3106H122.083V10.3053H126.093V11.6102C126.564 11.1239 127.125 10.7521 127.778 10.4912C128.426 10.2341 129.134 10.1036 129.905 10.1036C131.396 10.1036 132.594 10.5465 133.503 11.4323L133.499 11.4362Z" fill="#070915"/>
<path d="M140.241 21.7095C139.194 21.1797 138.379 20.4402 137.794 19.4951C137.212 18.55 136.92 17.4784 136.92 16.2842C136.92 15.09 137.212 14.0224 137.794 13.0852C138.375 12.148 139.194 11.4165 140.241 10.8945C141.289 10.3725 142.48 10.1076 143.808 10.1076C145.137 10.1076 146.339 10.4002 147.328 10.9815C148.316 11.5667 149.016 12.3734 149.431 13.4055L146.177 15.0663C145.631 13.9907 144.832 13.449 143.785 13.449C143.033 13.449 142.408 13.7021 141.914 14.2003C141.42 14.7025 141.171 15.3945 141.171 16.2803C141.171 17.166 141.416 17.8857 141.914 18.3958C142.408 18.9059 143.033 19.159 143.785 19.159C144.832 19.159 145.631 18.6212 146.177 17.5417L149.431 19.2025C149.016 20.2346 148.316 21.0452 147.328 21.6265C146.339 22.2117 145.165 22.5004 143.808 22.5004C142.452 22.5004 141.289 22.2355 140.241 21.7016V21.7095Z" fill="#070915"/>
<path d="M153.437 21.7095C152.405 21.1797 151.594 20.4402 151.013 19.4951C150.432 18.55 150.139 17.4784 150.139 16.2842C150.139 15.09 150.432 14.0421 151.013 13.0971C151.594 12.152 152.401 11.4165 153.425 10.8945C154.449 10.3725 155.612 10.1076 156.913 10.1076C158.214 10.1076 159.376 10.3686 160.412 10.8945C161.444 11.4204 162.251 12.148 162.825 13.0852C163.402 14.0224 163.687 15.09 163.687 16.2842C163.687 17.4784 163.398 18.55 162.825 19.4951C162.247 20.4402 161.444 21.1797 160.412 21.7095C159.38 22.2394 158.214 22.5083 156.913 22.5083C155.612 22.5083 154.469 22.2434 153.437 21.7095ZM158.732 18.3998C159.202 17.8897 159.44 17.1858 159.44 16.2842C159.44 15.3826 159.202 14.7065 158.732 14.2043C158.257 13.7021 157.652 13.4529 156.917 13.4529C156.181 13.4529 155.572 13.706 155.102 14.2043C154.627 14.7065 154.394 15.3985 154.394 16.2842C154.394 17.17 154.631 17.8897 155.102 18.3998C155.572 18.9099 156.177 19.163 156.917 19.163C157.656 19.163 158.261 18.9099 158.732 18.3998Z" fill="#070915"/>
<path d="M165.881 8.33607C165.407 7.909 165.173 7.37517 165.173 6.74248C165.173 6.10979 165.411 5.57596 165.881 5.1489C166.352 4.72183 166.973 4.5083 167.74 4.5083C168.507 4.5083 169.128 4.70997 169.598 5.11726C170.069 5.52456 170.306 6.04257 170.306 6.67921C170.306 7.31586 170.069 7.89319 169.598 8.32816C169.124 8.76313 168.507 8.98062 167.74 8.98062C166.973 8.98062 166.352 8.76709 165.881 8.34002V8.33607ZM165.64 10.3053H169.847V22.3066H165.64V10.3053Z" fill="#070915"/>
<path d="M183.984 11.4362C184.894 12.322 185.344 13.6586 185.344 15.4459V22.3106H181.137V16.134C181.137 14.4969 180.48 13.6744 179.168 13.6744C178.444 13.6744 177.867 13.9116 177.428 14.3822C176.993 14.8567 176.775 15.5645 176.775 16.5096V22.3106H172.568V10.3053H176.578V11.6102C177.048 11.1239 177.61 10.7521 178.262 10.4912C178.911 10.2341 179.618 10.1036 180.39 10.1036C181.88 10.1036 183.078 10.5465 183.988 11.4323L183.984 11.4362Z" fill="#070915"/>
<path d="M216.382 6.80575L211.356 22.3066H206.662L203.696 12.8717L200.596 22.3066H195.902L190.876 6.80575H195.392L198.516 16.7034L201.794 6.80575H205.824L208.948 16.7943L212.202 6.80575H216.386H216.382Z" fill="#070915"/>
<path d="M226.544 11.4679C227.592 12.3774 228.118 13.7693 228.118 15.6436V22.3106H224.199V20.7605C223.594 21.927 222.412 22.5083 220.656 22.5083C219.727 22.5083 218.92 22.3462 218.244 22.0219C217.564 21.6977 217.054 21.2587 216.706 20.7051C216.358 20.1515 216.184 19.5188 216.184 18.811C216.184 17.6761 216.619 16.7943 217.489 16.1656C218.359 15.5369 219.703 15.2245 221.518 15.2245H223.911C223.836 13.9551 222.989 13.3185 221.364 13.3185C220.787 13.3185 220.205 13.4094 219.616 13.5953C219.027 13.7811 218.525 14.0342 218.11 14.3585L216.694 11.5035C217.358 11.0606 218.165 10.7166 219.118 10.4753C220.071 10.2302 221.028 10.1116 221.985 10.1116C223.978 10.1116 225.496 10.5663 226.548 11.4718L226.544 11.4679ZM223.112 19.4951C223.48 19.2579 223.745 18.9138 223.911 18.4551V17.4152H222.096C220.87 17.4152 220.257 17.8224 220.257 18.6331C220.257 19.0008 220.395 19.2974 220.676 19.5188C220.957 19.7403 221.34 19.851 221.827 19.851C222.313 19.851 222.74 19.7324 223.112 19.4951Z" fill="#070915"/>
<path d="M230.775 5.87649H234.983V22.3066H230.775V5.87649Z" fill="#070915"/>
<path d="M237.703 5.87649H241.911V22.3066H237.703V5.87649Z" fill="#070915"/>
<path d="M256.838 17.3717H248.115C248.293 17.9925 248.637 18.467 249.143 18.7992C249.653 19.1313 250.29 19.2974 251.057 19.2974C251.634 19.2974 252.133 19.2183 252.552 19.0522C252.971 18.8901 253.398 18.6252 253.825 18.2535L256.039 20.5549C254.873 21.8558 253.169 22.5043 250.922 22.5043C249.519 22.5043 248.289 22.2394 247.225 21.7056C246.162 21.1717 245.339 20.4362 244.758 19.4912C244.176 18.5461 243.884 17.4745 243.884 16.2803C243.884 15.0861 244.169 14.0382 244.738 13.101C245.307 12.1638 246.09 11.4283 247.095 10.8985C248.099 10.3686 249.226 10.0997 250.484 10.0997C251.741 10.0997 252.765 10.3488 253.738 10.8431C254.711 11.3374 255.486 12.0531 256.051 12.9903C256.621 13.9275 256.905 15.0386 256.905 16.3238C256.905 16.3554 256.882 16.6994 256.838 17.3637V17.3717ZM248.874 13.6507C248.439 14.0184 248.162 14.5206 248.044 15.1572H252.959C252.84 14.5246 252.564 14.0224 252.129 13.6507C251.694 13.2829 251.152 13.0971 250.499 13.0971C249.847 13.0971 249.309 13.2829 248.87 13.6507H248.874Z" fill="#070915"/>
<path d="M267.135 21.8202C266.779 22.0417 266.348 22.2117 265.838 22.3304C265.328 22.449 264.786 22.5083 264.209 22.5083C262.643 22.5083 261.441 22.1247 260.599 21.3576C259.756 20.5905 259.337 19.4477 259.337 17.9253V13.8958H257.589V10.7521H259.337V7.62825H263.545V10.7521H266.289V13.8958H263.545V17.8818C263.545 18.3088 263.659 18.6449 263.889 18.8901C264.118 19.1353 264.423 19.2539 264.806 19.2539C265.292 19.2539 265.72 19.1274 266.091 18.8782L267.131 21.8242L267.135 21.8202Z" fill="#070915"/>
</svg>
