<svg width="41" height="16" viewBox="0 0 41 16" fill="none" xmlns="http://www.w3.org/2000/svg">
<path d="M19.6776 8.04826V12.5233H18.2341V1.45599H21.9873C22.9016 1.45599 23.7677 1.79282 24.4414 2.41837C25.1151 2.99579 25.4519 3.86193 25.4519 4.77619C25.4519 5.69044 25.1151 6.50846 24.4414 7.13401C23.7677 7.75955 22.9497 8.09638 21.9873 8.09638L19.6776 8.04826ZM19.6776 2.80332V6.65282H22.0836C22.6129 6.65282 23.1422 6.46034 23.479 6.07539C24.2489 5.35361 24.2489 4.15064 23.5271 3.42886L23.479 3.38074C23.0941 2.99579 22.6129 2.7552 22.0836 2.80332H19.6776Z" fill="#5F6368"/>
<path d="M28.7721 4.72806C29.8307 4.72806 30.6487 5.01678 31.2743 5.5942C31.8998 6.17163 32.1885 6.94153 32.1885 7.9039V12.5233H30.8412V11.4647H30.7931C30.2156 12.3308 29.3976 12.7639 28.4352 12.7639C27.6172 12.7639 26.8954 12.5233 26.318 12.0421C25.7887 11.5609 25.4519 10.8873 25.4519 10.1655C25.4519 9.39558 25.7406 8.77004 26.318 8.28885C26.8954 7.80766 27.7135 7.61519 28.6758 7.61519C29.542 7.61519 30.2156 7.75954 30.7449 8.09637V7.75954C30.7449 7.27836 30.5525 6.79717 30.1675 6.50846C29.7826 6.17163 29.3014 5.97915 28.7721 5.97915C27.9541 5.97915 27.3285 6.31598 26.8954 6.98964L25.6444 6.21974C26.4143 5.20925 27.4248 4.72806 28.7721 4.72806ZM26.9436 10.2136C26.9436 10.5986 27.136 10.9354 27.4248 11.1279C27.7616 11.3685 28.1465 11.5128 28.5315 11.5128C29.1089 11.5128 29.6863 11.2722 30.1194 10.8391C30.6006 10.4061 30.8412 9.87677 30.8412 9.29934C30.4081 8.96251 29.7826 8.77004 28.9646 8.77004C28.3871 8.77004 27.9059 8.91439 27.521 9.20311C27.136 9.4437 26.9436 9.78053 26.9436 10.2136Z" fill="#5F6368"/>
<path d="M39.9837 4.96866L35.22 15.8916H33.7764L35.5568 12.0902L32.4291 5.01678H33.9689L36.2305 10.4542H36.2786L38.4921 5.01678H39.9837V4.96866Z" fill="#5F6368"/>
<path d="M13.9514 7.08656C13.9514 6.65349 13.9033 6.22042 13.8552 5.78735H7.84033V8.24141H11.2568C11.1124 9.01131 10.6793 9.73309 10.0057 10.1662V11.7541H12.0748C13.2778 10.6473 13.9514 9.01131 13.9514 7.08656Z" fill="#4285F4"/>
<path d="M7.84043 13.294C9.5727 13.294 11.0163 12.7166 12.0749 11.7542L10.0058 10.1663C9.42835 10.5513 8.70656 10.7919 7.84043 10.7919C6.20439 10.7919 4.76083 9.68512 4.27964 8.14532H2.16241V9.78136C3.26915 11.9467 5.43449 13.294 7.84043 13.294Z" fill="#34A853"/>
<path d="M4.2796 8.14521C3.99089 7.37531 3.99089 6.50917 4.2796 5.69115V4.05511H2.16238C1.24812 5.83551 1.24812 7.95273 2.16238 9.78125L4.2796 8.14521Z" fill="#FBBC04"/>
<path d="M7.84028 3.09253C8.75454 3.09253 9.62068 3.42936 10.2943 4.05491L12.1229 2.22639C10.968 1.16778 9.4282 0.542239 7.8884 0.590357C5.48246 0.590357 3.269 1.93768 2.21039 4.10303L4.32761 5.73906C4.76068 4.19926 6.20424 3.09253 7.84028 3.09253Z" fill="#EA4335"/>
</svg>
