<svg width="41" height="41" viewBox="0 0 41 41" fill="none" xmlns="http://www.w3.org/2000/svg">
<path d="M40.9766 20.9863C40.9766 32.032 32.0223 40.9863 20.9766 40.9863C9.93087 40.9863 0.976562 32.032 0.976562 20.9863C0.976562 9.94063 9.93087 0.986328 20.9766 0.986328C32.0223 0.986328 40.9766 9.94063 40.9766 20.9863Z" fill="#7A89A7"/>
<circle cx="20.978" cy="20.9877" r="15.5034" stroke="white" stroke-width="0.792394"/>
<path d="M21.8492 26.5865C19.696 26.5865 17.8183 25.3634 16.8881 23.5719H21.8492L22.7105 21.8493H16.3197C16.2766 21.5651 16.2508 21.2809 16.2508 20.988C16.2508 20.6952 16.2766 20.4109 16.3197 20.1267H21.8492L22.7105 18.4041H16.8881C17.3598 17.4955 18.0718 16.7339 18.9467 16.2023C19.8215 15.6708 20.8255 15.3896 21.8492 15.3896C23.2359 15.3896 24.5106 15.8977 25.4925 16.7418L27.017 15.2173C25.5986 13.9408 23.7575 13.235 21.8492 13.2363C18.4729 13.2363 15.6134 15.3896 14.5282 18.4041H11.5136L10.6523 20.1267H14.1492C14.0975 20.4109 14.0975 20.6952 14.0975 20.988C14.0975 21.2809 14.0975 21.5651 14.1492 21.8493H11.5136L10.6523 23.5719H14.5282C15.6134 26.5865 18.4729 28.7397 21.8492 28.7397C23.8388 28.7397 25.6475 27.9904 27.017 26.7587L25.4839 25.2342C24.5106 26.0783 23.2445 26.5865 21.8492 26.5865Z" fill="white"/>
</svg>
