<svg width="150" height="150" viewBox="0 0 150 150" fill="none" xmlns="http://www.w3.org/2000/svg">
<path d="M139.895 11.2043C145.189 11.2043 149.513 15.5131 149.513 20.8079V73.4436C149.513 78.7404 145.189 83.0491 139.895 83.0491H101.877V78.5647C101.877 71.5851 96.1868 65.9204 89.2188 65.9202H86.1777V65.9231H51.1826V20.8098C51.1827 15.5131 55.506 11.2043 60.8008 11.2063H139.895V11.2043ZM91.1523 69.1565C91.2988 69.1865 91.444 69.22 91.5879 69.2571L91.1523 69.1565ZM89.7129 68.9739L90.1992 69.011C89.8767 68.9781 89.5497 68.9612 89.2188 68.9612L89.7129 68.9739Z" fill="url(#paint0_linear_4385_5318)"/>
<path d="M134.187 53.4718C132.657 51.9414 130.584 51.083 128.421 51.083C126.684 51.083 125.01 51.6438 123.624 52.6543C122.24 51.6471 120.568 51.0846 118.835 51.083C116.672 51.083 114.597 51.943 113.068 53.4718C111.539 55.0005 110.679 57.0769 110.679 59.2384C110.679 61.4015 111.539 63.4764 113.068 65.0051C114.597 66.5338 116.673 67.3971 118.835 67.3971C120.568 67.3971 122.24 66.833 123.624 65.8259C125.01 66.8347 126.686 67.3971 128.421 67.3971C130.584 67.3971 132.659 66.5371 134.187 65.0084C135.718 63.478 136.576 61.4015 136.576 59.2384C136.576 57.0753 135.716 55.0005 134.187 53.4718ZM120.347 60.3568C120.355 60.4124 120.363 60.4663 120.373 60.5219C120.491 61.2593 120.707 61.9722 121.016 62.6458C121.034 62.6867 121.053 62.7259 121.071 62.7651C121.232 63.1003 121.41 63.4257 121.616 63.738C120.787 64.2514 119.825 64.5342 118.833 64.5342C117.429 64.5342 116.083 63.9767 115.089 62.9842C114.096 61.9918 113.539 60.6445 113.539 59.2401C113.539 57.8356 114.096 56.4916 115.089 55.4992C116.081 54.5067 117.429 53.9459 118.833 53.9459C119.827 53.9459 120.788 54.2271 121.619 54.7422C121.413 55.0544 121.233 55.3814 121.071 55.7166C121.052 55.7575 121.034 55.7967 121.016 55.836C120.707 56.5096 120.491 57.2225 120.373 57.9599C120.365 58.0154 120.355 58.0694 120.347 58.125C120.296 58.4929 120.26 58.864 120.26 59.2401C120.26 59.6161 120.296 59.9889 120.347 60.3584V60.3568ZM132.163 62.9826C131.171 63.9767 129.824 64.5359 128.419 64.5359C127.015 64.5359 125.669 63.975 124.675 62.9826C124.667 62.9744 124.659 62.963 124.649 62.9548C124.649 62.9532 124.647 62.9515 124.645 62.9483C123.671 61.9591 123.123 60.6266 123.123 59.2368C123.123 57.8487 123.673 56.5194 124.645 55.5286C124.66 55.5122 124.677 55.4959 124.69 55.4795C125.682 54.4953 127.019 53.9426 128.417 53.9426C129.822 53.9426 131.167 54.5002 132.162 55.4943C133.156 56.4883 133.712 57.834 133.712 59.2384C133.712 60.6429 133.154 61.9885 132.162 62.9826H132.163Z" fill="white"/>
<g clip-path="url(#clip0_4385_5318)">
<path d="M114.352 27.2545L111.45 41.198H107.939L110.842 27.2545H114.352ZM129.124 36.2582L130.972 31.0217L132.035 36.2582H129.124ZM133.043 41.198H136.289L133.453 27.2545H130.458C129.783 27.2545 129.214 27.6566 128.962 28.2766L123.694 41.198H127.381L128.113 39.1158H132.617L133.043 41.198ZM123.877 36.6458C123.892 32.966 118.926 32.762 118.959 31.1179C118.97 30.6182 119.433 30.086 120.447 29.95C120.95 29.8833 122.338 29.8297 123.91 30.5741L124.525 27.616C123.681 27.3022 122.594 26.9998 121.241 26.9998C117.77 26.9998 115.329 28.8939 115.309 31.6087C115.287 33.6161 117.053 34.7353 118.381 35.4038C119.751 36.0873 120.21 36.5257 120.203 37.1362C120.193 38.0717 119.111 38.4857 118.103 38.5015C116.337 38.5296 115.313 38.011 114.497 37.6202L113.86 40.6769C114.682 41.0634 116.196 41.3997 117.763 41.417C121.453 41.417 123.866 39.5448 123.877 36.6458ZM109.336 27.2545L103.647 41.198H99.9359L97.1362 30.07C96.9666 29.3858 96.8186 29.1343 96.3024 28.8452C95.4582 28.3739 94.0643 27.9333 92.8389 27.6591L92.9217 27.2545H98.8962C99.6571 27.2545 100.342 27.7748 100.516 28.6753L101.995 36.7447L105.647 27.2545H109.336Z" fill="white"/>
</g>
<rect x="64.4419" y="41.613" width="15.8059" height="11.4952" rx="1.4369" fill="#072440" fill-opacity="0.3"/>
<path d="M89.2188 68.9629H10.125C4.83017 68.9609 0.507324 73.2698 0.507324 78.5666V131.202C0.507324 136.497 4.83017 140.806 10.125 140.806H89.2188C94.5136 140.806 98.8365 136.497 98.8365 131.2V78.5646C98.8365 73.2698 94.5136 68.9609 89.2188 68.9609V68.9629Z" fill="url(#paint1_linear_4385_5318)"/>
<path d="M67.2063 99.7313H62.1871V116.087H67.2063V99.7313Z" fill="white"/>
<path d="M78.2941 99.7313H73.2748V116.087H78.2941V99.7313Z" fill="white"/>
<path d="M56.1186 99.7313H51.0993V116.087H56.1186V99.7313Z" fill="white"/>
<path d="M45.1752 95.168L64.5931 85.001L83.9663 95.168L83.9701 97.4626H45.1738L45.1752 95.168Z" fill="white"/>
<path d="M83.9701 118.354H45.1738V122.74H83.9701V118.354Z" fill="white"/>
<rect x="13.7656" y="99.3699" width="15.8059" height="11.4952" rx="1.4369" fill="#072440" fill-opacity="0.3"/>
<defs>
<linearGradient id="paint0_linear_4385_5318" x1="63.3157" y1="11.2043" x2="131.872" y2="86.0785" gradientUnits="userSpaceOnUse">
<stop offset="0.0791422" stop-color="#F5516C"/>
<stop offset="0.640778" stop-color="#9B405E"/>
<stop offset="1" stop-color="#443051"/>
</linearGradient>
<linearGradient id="paint1_linear_4385_5318" x1="12.639" y1="68.9609" x2="81.1947" y2="143.835" gradientUnits="userSpaceOnUse">
<stop offset="0.0791422" stop-color="#F5516C"/>
<stop offset="0.640778" stop-color="#9B405E"/>
<stop offset="1" stop-color="#443051"/>
</linearGradient>
<clipPath id="clip0_4385_5318">
<rect width="43.8793" height="14.6264" fill="white" transform="translate(92.6973 26.8564)"/>
</clipPath>
</defs>
</svg>
