<svg width="150" height="150" viewBox="0 0 150 150" fill="none" xmlns="http://www.w3.org/2000/svg">
<path fill-rule="evenodd" clip-rule="evenodd" d="M75 7.40234C96.6325 7.40234 117.087 17.2625 130.559 34.1919C144.031 51.1212 149.043 73.2655 144.185 94.3475C139.318 115.43 125.112 133.141 105.585 142.46C104.89 142.779 104.069 142.528 103.682 141.862L88.2982 115.207C88.0857 114.831 88.0374 114.396 88.1823 113.981C88.3271 113.566 88.6265 113.247 89.0321 113.083C99.8677 108.708 108.028 99.5239 111.119 88.2634C114.209 76.9933 111.862 64.9312 104.774 55.6408C97.6948 46.3505 86.6757 40.9037 74.9903 40.9037C63.3049 40.9037 52.2956 46.3505 45.2071 55.6408C38.1185 64.9312 35.7815 76.9933 38.8622 88.2634C41.9525 99.5239 50.1226 108.708 60.9485 113.083C61.3542 113.247 61.6535 113.575 61.7984 113.981C61.9433 114.387 61.895 114.831 61.6825 115.207L46.2983 141.862C45.912 142.528 45.0912 142.779 44.3958 142.46C24.888 133.151 10.682 115.439 5.81469 94.3475C0.957036 73.2655 5.9692 51.1212 19.4412 34.1919C32.9132 17.2625 53.3675 7.40234 75 7.40234ZM80.3598 65.559L66.5691 89.3837C66.1635 90.2238 66.4725 91.2282 67.2838 91.6918C68.095 92.1553 69.1187 91.9139 69.6305 91.1413L83.4212 67.3166C83.8751 66.4764 83.5757 65.4238 82.7452 64.9409C81.9147 64.458 80.8524 64.7284 80.3502 65.5396V65.559H80.3598ZM56.1585 66.6019L45.6416 77.1285C45.3133 77.4568 45.1201 77.9107 45.1201 78.3839C45.1201 78.8571 45.3133 79.311 45.6416 79.649L56.1585 90.1659C56.4868 90.5039 56.9407 90.6874 57.414 90.6874C57.8872 90.6874 58.3411 90.5039 58.6694 90.1659C59.0074 89.8375 59.1909 89.3837 59.1909 88.9104C59.1909 88.4372 59.0074 87.993 58.6694 87.655L49.408 78.3743L58.6115 69.1129C58.9495 68.7845 59.133 68.3306 59.133 67.8477C59.133 67.3649 58.9495 66.9206 58.6115 66.5923C57.9161 65.9163 56.7959 65.9163 56.0909 66.5923H56.1585V66.6019ZM91.3789 69.1225L100.64 78.3839L91.3789 87.6646C91.0409 87.993 90.8574 88.4469 90.8574 88.9201C90.8574 89.3933 91.0409 89.8375 91.3789 90.1756C91.7072 90.5136 92.1611 90.6971 92.6343 90.6971C93.1075 90.6971 93.5614 90.5136 93.8994 90.1756L104.416 79.6587C104.754 79.3303 104.938 78.8764 104.938 78.3936C104.938 77.9107 104.754 77.4665 104.416 77.1381L93.8994 66.6116C93.1945 65.9356 92.0742 65.9356 91.3789 66.6116C91.0409 66.94 90.8574 67.3939 90.8574 67.8671C90.8574 68.3403 91.0409 68.7942 91.3789 69.1322V69.1225Z" fill="url(#paint0_linear_4385_5308)"/>
<defs>
<linearGradient id="paint0_linear_4385_5308" x1="75" y1="7.40234" x2="75" y2="142.598" gradientUnits="userSpaceOnUse">
<stop offset="0.0882967" stop-color="#F5516C"/>
<stop offset="0.627975" stop-color="#9B405E"/>
<stop offset="1" stop-color="#443051"/>
</linearGradient>
</defs>
</svg>
