<svg width="150" height="150" viewBox="0 0 150 150" fill="none" xmlns="http://www.w3.org/2000/svg">
<path d="M33.5003 39L60.694 64.2797" stroke="#713156" stroke-width="2.5"/>
<path d="M117.795 44.8313L99.7553 60.3981" stroke="#713156" stroke-width="2.5"/>
<path d="M54.012 103.254L37.2897 120.228" stroke="#713156" stroke-width="2.5"/>
<path d="M95.9994 101.574L114.039 117.141" stroke="#713156" stroke-width="2.5"/>
<path d="M75 46.5C94.0538 46.5 109.5 61.9462 109.5 81C109.5 100.054 94.0538 115.5 75 115.5C55.9462 115.5 40.5 100.054 40.5 81C40.5 61.9462 55.9462 46.5 75 46.5ZM91.4805 63.9717C90.7758 63.6666 89.9639 63.7238 89.2285 63.8633C88.841 63.9366 88.4652 64.0681 88.0801 64.1367C87.6213 64.2171 87.1575 64.4923 86.7295 64.6768C84.8047 65.4997 82.877 66.3246 80.9521 67.1475C79.0275 67.9703 77.1004 68.7953 75.1758 69.6182C73.2509 70.4411 71.3233 71.2669 69.3984 72.0898C67.4736 72.9127 65.5459 73.7376 63.6211 74.5605C62.6588 74.9743 61.6967 75.3864 60.7344 75.7979C60.252 76.0036 59.7715 76.2093 59.2891 76.415C59.0504 76.519 58.8094 76.6206 58.5684 76.7246C58.443 76.779 58.3177 76.8314 58.1924 76.8857C58.1096 76.9188 57.9625 77.0205 57.875 77.0205C56.253 77.7157 54.6285 78.4109 53.0254 79.1533C52.9332 79.1959 52.8387 79.2408 52.7441 79.2881L52.7393 79.2852C52.3491 79.4838 51.9777 79.7278 51.7861 80.1133C51.4812 80.7281 51.7723 81.5038 52.2783 81.9648C52.7843 82.4257 53.4604 82.6453 54.1152 82.8486C55.3472 83.2341 56.5841 83.6085 57.8232 83.9727C59.3012 84.4078 60.8386 84.8328 62.3662 84.6152C64.0733 84.374 65.5583 83.3625 66.9746 82.3789C71.3162 79.3639 75.6555 76.3461 79.9971 73.3311C80.3423 73.0922 80.7779 72.8419 81.1562 73.0264C81.7918 73.3364 81.4272 74.3051 80.9639 74.8418C77.6794 78.6489 73.265 81.3923 70.2051 85.3838C69.8362 85.8638 69.4745 86.4034 69.4697 87.0088C69.4604 88.0137 70.3915 88.7377 71.2285 89.291C74.7494 91.6225 78.273 93.9536 81.7939 96.2852C82.6429 96.8456 83.5089 97.4156 84.4902 97.6875C85.4716 97.957 86.602 97.8861 87.3965 97.25C88.335 96.4981 88.581 95.1931 88.7607 94.0039C90.0802 85.3349 91.3977 76.6631 92.7148 67.9941C92.904 66.7503 93.0286 65.2985 92.1348 64.4141C91.948 64.2274 91.7239 64.0781 91.4805 63.9717Z" fill="url(#paint0_linear_4627_11466)"/>
<path d="M22.2139 4.33691C34.088 4.33691 43.7139 13.9628 43.7139 25.8369C43.7139 37.711 34.088 47.3369 22.2139 47.3369C10.3397 47.3369 0.713867 37.711 0.713867 25.8369C0.713884 13.9628 10.3398 4.33691 22.2139 4.33691ZM29.0664 14.1123C20.8505 8.92723 9.5012 15.0613 10.3828 23.0703C10.0519 23.2411 9.81975 23.5267 9.72559 23.8711C7.77895 23.9042 6.21397 25.3435 6.21387 27.1191C6.21387 28.8948 7.77889 30.3357 9.72559 30.3701C9.87785 30.9307 10.4102 31.3563 11.0732 31.3564C11.861 31.3564 12.497 30.7768 12.4971 30.0605V24.1807C12.497 23.7717 12.2791 23.4248 11.958 23.1865C12.3125 21.1629 13.3697 19.0239 14.8525 17.6973C17.0305 15.5868 20.8086 14.3649 24.9609 15.2852C26.5558 15.759 28.1298 16.5564 29.4395 17.8291C30.8973 19.1336 32.0814 21.0896 32.4678 23.1875C31.6273 23.8074 31.9297 24.345 31.9297 30.0605C31.9297 30.5068 32.1936 30.8844 32.5742 31.1172V31.6133C32.5742 31.93 32.4841 32.2401 32.3125 32.5059C30.4533 35.3859 30.3315 35.6797 27.5254 36.5723C26.6434 36.8547 25.6461 36.9759 24.6367 37.2197C23.7119 36.3051 22.0706 36.9068 22.0703 38.1299C22.0703 39.6699 24.4899 40.0243 24.9609 38.4805C25.6408 38.3165 26.3415 38.2197 27.002 38.0186C30.6224 36.9248 31.8045 36.2728 33.7207 32.6348C33.902 32.2905 33.999 31.9092 33.999 31.5195V31.1973C34.3535 31.0306 34.6103 30.7314 34.71 30.3691C36.6508 30.3317 38.2137 28.8936 38.2139 27.1182C38.2139 25.3426 36.6495 23.9075 34.71 23.8701C34.613 23.523 34.3786 23.24 34.0449 23.0664C34.1169 22.2881 34.0114 21.3334 33.8301 20.5469C33.6709 19.9022 33.4285 19.1801 33.0547 18.4238C32.6615 17.6829 32.1756 16.8897 31.4932 16.1611C30.8452 15.4049 30.0106 14.7198 29.0664 14.1123ZM28.2754 18.9922C25.1464 16.5251 21.7116 16.6363 18.1631 17.792C15.7748 18.5717 14.3535 20.3967 14.082 22.7178C13.5684 27.1493 14.6154 31.2561 17.9424 34.4893C20.3418 36.8201 24.0618 36.762 26.5 34.4863C29.1961 31.9705 30.1252 28.7453 30.4053 26.1045L30.4521 25.585C30.5186 22.4111 30.1001 20.4331 28.2754 18.9922Z" fill="url(#paint1_linear_4627_11466)"/>
<path d="M131.223 14.4551C141.593 14.4551 150 22.8615 150 33.2314C150 43.6016 141.593 52.0088 131.223 52.0088C120.853 52.0087 112.446 43.6015 112.446 33.2314C112.446 22.8616 120.853 14.4551 131.223 14.4551ZM131.223 33.7236C129.796 33.7236 128.505 33.9486 127.351 34.3994C126.196 34.8425 125.207 35.4216 124.383 36.1367C123.559 36.8518 122.927 37.6214 122.485 38.4453C122.052 39.2614 121.834 40.0429 121.834 40.7891C121.834 41.3643 122.022 41.8121 122.397 42.1309C122.78 42.4571 123.461 42.6201 124.438 42.6201H138.008C138.986 42.6201 139.662 42.4571 140.037 42.1309C140.42 41.8121 140.611 41.3643 140.611 40.7891C140.611 40.0429 140.39 39.2614 139.949 38.4453C139.508 37.6214 138.875 36.8518 138.052 36.1367C137.235 35.4216 136.249 34.8425 135.095 34.3994C133.947 33.9486 132.657 33.7236 131.223 33.7236ZM131.223 21.3398C130.406 21.3399 129.652 21.5697 128.961 22.0283C128.277 22.4869 127.729 23.1046 127.317 23.8818C126.913 24.6592 126.711 25.5223 126.711 26.4707C126.711 27.4422 126.913 28.3204 127.317 29.1055C127.729 29.8906 128.277 30.517 128.961 30.9834C129.645 31.4498 130.399 31.6826 131.223 31.6826C132.054 31.6826 132.811 31.4497 133.495 30.9834C134.179 30.517 134.723 29.8906 135.128 29.1055C135.54 28.3126 135.746 27.4267 135.746 26.4473C135.746 25.5067 135.54 24.6475 135.128 23.8701C134.716 23.0929 134.168 22.4791 133.484 22.0283C132.8 21.5697 132.046 21.3398 131.223 21.3398Z" fill="url(#paint2_linear_4627_11466)"/>
<path d="M123.967 106.591C134.337 106.591 142.744 114.997 142.744 125.367C142.744 135.737 134.337 144.144 123.967 144.144C113.597 144.144 105.19 135.737 105.19 125.367C105.191 114.997 113.597 106.591 123.967 106.591ZM123.967 126.859C122.54 126.859 121.249 127.084 120.095 127.535C118.94 127.978 117.951 128.557 117.127 129.272C116.303 129.987 115.671 130.757 115.229 131.581C114.796 132.397 114.578 133.178 114.578 133.925C114.578 134.5 114.767 134.948 115.142 135.266C115.524 135.593 116.205 135.756 117.183 135.756H130.752C131.73 135.756 132.406 135.593 132.781 135.266C133.164 134.948 133.355 134.5 133.355 133.925C133.355 133.178 133.135 132.397 132.693 131.581C132.252 130.757 131.62 129.987 130.796 129.272C129.98 128.557 128.994 127.978 127.839 127.535C126.692 127.084 125.401 126.859 123.967 126.859ZM123.967 114.475C123.15 114.475 122.396 114.705 121.705 115.164C121.021 115.622 120.473 116.24 120.062 117.017C119.657 117.795 119.455 118.658 119.455 119.606C119.455 120.578 119.657 121.456 120.062 122.241C120.473 123.026 121.021 123.652 121.705 124.119C122.389 124.585 123.143 124.818 123.967 124.818C124.798 124.818 125.555 124.585 126.239 124.119C126.923 123.652 127.468 123.026 127.872 122.241C128.284 121.448 128.49 120.562 128.49 119.583C128.49 118.642 128.284 117.783 127.872 117.006C127.46 116.228 126.912 115.615 126.229 115.164C125.545 114.705 124.791 114.475 123.967 114.475Z" fill="url(#paint3_linear_4627_11466)"/>
<path d="M27.3291 114.598C36.3164 114.598 43.6016 121.884 43.6016 130.871C43.6014 139.858 36.3163 147.143 27.3291 147.144C18.3418 147.144 11.0558 139.858 11.0557 130.871C11.0557 121.884 18.3417 114.598 27.3291 114.598ZM27.3291 131.297C26.0925 131.297 24.9734 131.492 23.9727 131.883C22.9721 132.267 22.1152 132.769 21.4014 133.389C20.6875 134.008 20.1393 134.676 19.7568 135.39C19.3808 136.097 19.1924 136.774 19.1924 137.421C19.1924 137.919 19.3547 138.307 19.6797 138.583C20.0111 138.866 20.6007 139.008 21.4482 139.008H33.209C34.0565 139.008 34.6426 138.866 34.9678 138.583C35.2992 138.307 35.4658 137.919 35.4658 137.421C35.4658 136.774 35.274 136.097 34.8916 135.39C34.5092 134.676 33.961 134.009 33.2471 133.389C32.5396 132.769 31.6853 132.267 30.6846 131.883C29.6903 131.492 28.5718 131.297 27.3291 131.297ZM27.3291 120.564C26.6216 120.564 25.9683 120.764 25.3691 121.161C24.7764 121.559 24.3013 122.094 23.9443 122.768C23.5938 123.441 23.418 124.189 23.418 125.011C23.418 125.853 23.5938 126.615 23.9443 127.295C24.3013 127.975 24.7764 128.518 25.3691 128.922C25.9619 129.326 26.6153 129.528 27.3291 129.528C28.0493 129.528 28.7061 129.326 29.2988 128.922C29.8915 128.518 30.3633 127.975 30.7139 127.295C31.0707 126.608 31.249 125.84 31.249 124.991C31.249 124.176 31.0707 123.431 30.7139 122.758C30.357 122.084 29.8817 121.552 29.2891 121.161C28.6963 120.764 28.0429 120.565 27.3291 120.564Z" fill="url(#paint4_linear_4627_11466)"/>
<defs>
<linearGradient id="paint0_linear_4627_11466" x1="75" y1="46.5" x2="75" y2="115.5" gradientUnits="userSpaceOnUse">
<stop stop-color="#F5516C"/>
<stop offset="1" stop-color="#443051"/>
</linearGradient>
<linearGradient id="paint1_linear_4627_11466" x1="17.3401" y1="4.33691" x2="34.0373" y2="50.5157" gradientUnits="userSpaceOnUse">
<stop stop-color="#F5516C"/>
<stop offset="1" stop-color="#443051"/>
</linearGradient>
<linearGradient id="paint2_linear_4627_11466" x1="131.223" y1="14.4551" x2="131.223" y2="52.0086" gradientUnits="userSpaceOnUse">
<stop stop-color="#F5516C"/>
<stop offset="1" stop-color="#443051"/>
</linearGradient>
<linearGradient id="paint3_linear_4627_11466" x1="123.967" y1="106.591" x2="123.967" y2="144.144" gradientUnits="userSpaceOnUse">
<stop stop-color="#F5516C"/>
<stop offset="1" stop-color="#443051"/>
</linearGradient>
<linearGradient id="paint4_linear_4627_11466" x1="27.3286" y1="114.598" x2="27.3286" y2="147.144" gradientUnits="userSpaceOnUse">
<stop stop-color="#F5516C"/>
<stop offset="1" stop-color="#443051"/>
</linearGradient>
</defs>
</svg>
