<svg width="150" height="150" viewBox="0 0 150 150" fill="none" xmlns="http://www.w3.org/2000/svg">
<path d="M139.895 11.2043C145.189 11.2043 149.513 15.5131 149.513 20.8079V73.4436C149.513 78.7404 145.189 83.0491 139.895 83.0491H101.877V78.5647C101.877 71.5851 96.1868 65.9204 89.2188 65.9202H86.1777V65.9231H51.1826V20.8098C51.1827 15.5131 55.506 11.2043 60.8008 11.2063H139.895V11.2043ZM91.1523 69.1565C91.2988 69.1865 91.444 69.22 91.5879 69.2571L91.1523 69.1565ZM89.7129 68.9739L90.1992 69.011C89.8767 68.9781 89.5497 68.9612 89.2188 68.9612L89.7129 68.9739Z" fill="url(#paint0_linear_4385_5318)"/>
<path d="M113.207 41.991H106.187V58.347H113.207V41.991Z" fill="white"/>
<path d="M124.295 41.991H117.275V58.347H124.295V41.991Z" fill="white"/>
<path d="M102.119 41.991H95.0994V58.347H102.119V41.991Z" fill="white"/>
<path d="M91.1753 37.428L110.593 27.261L129.966 37.428L129.97 39.723H91.174L91.1753 37.428Z" fill="white"/>
<path d="M129.97 60.614H91.174V64.0H129.97V60.614Z" fill="white"/>
<rect x="64.4419" y="41.613" width="15.8059" height="11.4952" rx="1.4369" fill="#072440" fill-opacity="0.3"/>
<path d="M89.2188 68.9629H10.125C4.83017 68.9609 0.507324 73.2698 0.507324 78.5666V131.202C0.507324 136.497 4.83017 140.806 10.125 140.806H89.2188C94.5136 140.806 98.8365 136.497 98.8365 131.2V78.5646C98.8365 73.2698 94.5136 68.9609 89.2188 68.9609V68.9629Z" fill="url(#paint1_linear_4385_5318)"/>
<path d="M67.2063 99.7313H62.1871V116.087H67.2063V99.7313Z" fill="white"/>
<path d="M78.2941 99.7313H73.2748V116.087H78.2941V99.7313Z" fill="white"/>
<path d="M56.1186 99.7313H51.0993V116.087H56.1186V99.7313Z" fill="white"/>
<path d="M45.1752 95.168L64.5931 85.001L83.9663 95.168L83.9701 97.4626H45.1738L45.1752 95.168Z" fill="white"/>
<path d="M83.9701 118.354H45.1738V122.74H83.9701V118.354Z" fill="white"/>
<rect x="13.7656" y="99.3699" width="15.8059" height="11.4952" rx="1.4369" fill="#072440" fill-opacity="0.3"/>
<defs>
<linearGradient id="paint0_linear_4385_5318" x1="63.3157" y1="11.2043" x2="131.872" y2="86.0785" gradientUnits="userSpaceOnUse">
<stop offset="0.0791422" stop-color="#F5516C"/>
<stop offset="0.640778" stop-color="#9B405E"/>
<stop offset="1" stop-color="#443051"/>
</linearGradient>
<linearGradient id="paint1_linear_4385_5318" x1="12.639" y1="68.9609" x2="81.1947" y2="143.835" gradientUnits="userSpaceOnUse">
<stop offset="0.0791422" stop-color="#F5516C"/>
<stop offset="0.640778" stop-color="#9B405E"/>
<stop offset="1" stop-color="#443051"/>
</linearGradient>
</defs>
</svg>
