<svg width="150" height="150" viewBox="0 0 150 150" fill="none" xmlns="http://www.w3.org/2000/svg">
<g clip-path="url(#clip0_4644_13085)">
<path d="M142.91 47.75H100.57C99.9198 47.75 99.3998 48.26 99.3998 48.92V60.74H132.78C133.39 60.74 133.89 61.24 133.89 61.85C133.89 62.46 133.39 62.96 132.78 62.96H99.3998V68.98H132.78C133.39 68.98 133.89 69.48 133.89 70.09C133.89 70.7 133.39 71.2 132.78 71.2H99.3998V77.22H132.78C133.39 77.22 133.89 77.72 133.89 78.33C133.89 78.94 133.39 79.44 132.78 79.44H99.3998V85.46H132.78C133.39 85.46 133.89 85.96 133.89 86.57C133.89 87.18 133.39 87.68 132.78 87.68H99.3998V91.94C99.3998 92.55 99.3098 93.14 99.1398 93.7H132.78C133.39 93.7 133.89 94.2 133.89 94.81C133.89 95.42 133.39 95.92 132.78 95.92H97.9298C96.7998 97.25 95.1298 98.09 93.2698 98.09H64.2598C63.6098 98.09 63.0898 98.6 63.0898 99.26V110.95C63.0898 114.86 66.2698 118.04 70.1798 118.04H97.5298L110.53 134.64C110.74 134.92 111.09 135.08 111.44 135.08C111.58 135.08 111.7 135.05 111.81 135.01C112.28 134.85 112.61 134.41 112.61 133.91V118.03H142.92C146.83 118.03 150.01 114.85 150.01 110.94V54.82C150.01 50.91 146.83 47.73 142.92 47.73L142.91 47.75ZM132.78 104.16H80.2998C79.6898 104.16 79.1898 103.66 79.1898 103.05C79.1898 102.44 79.6898 101.94 80.2998 101.94H132.78C133.39 101.94 133.89 102.44 133.89 103.05C133.89 103.66 133.39 104.16 132.78 104.16Z" fill="url(#paint0_linear_4644_13085)"/>
<path d="M37.01 121.5C36.89 121.5 36.75 121.48 36.64 121.43C36.17 121.26 35.84 120.82 35.84 120.33V100.41H8.46C3.78 100.41 0 96.59 0 91.94V22.49C0 17.81 3.81 14 8.46 14H93.27C97.95 14 101.73 17.81 101.73 22.49V91.94C101.73 96.62 97.92 100.4 93.27 100.4H54.1L37.92 121.04C37.71 121.35 37.36 121.49 37.01 121.49V121.5ZM8.46 16.34C5.07 16.34 2.33 19.1 2.33 22.49V91.94C2.33 95.33 5.09 98.07 8.46 98.07H37.01C37.66 98.07 38.18 98.58 38.18 99.24V116.94L52.61 98.52C52.82 98.24 53.17 98.08 53.52 98.08H93.25C96.64 98.08 99.38 95.32 99.38 91.95V22.49C99.38 19.1 96.62 16.34 93.25 16.34H8.46Z" fill="url(#paint1_linear_4644_13085)"/>
<path d="M55.42 79.16C55.42 82.45 52.77 85.11 49.47 85.11C46.17 85.11 43.56 82.46 43.56 79.16C43.56 75.86 46.21 73.21 49.47 73.21C52.76 73.22 55.42 75.91 55.42 79.16Z" fill="url(#paint2_linear_4644_13085)"/>
<path d="M45.15 67.56V66.88C45.15 63.74 45.43 61.29 46 59.53C46.56 57.77 47.39 56.37 48.48 55.32C49.57 54.27 50.88 53.29 52.42 52.35C54.03 51.34 55.37 50.19 56.46 48.88C57.55 47.57 58.1 45.99 58.1 44.12C58.1 42.73 57.77 41.53 57.11 40.52C56.45 39.51 55.58 38.73 54.49 38.16C53.4 37.6 52.17 37.31 50.8 37.31C49.58 37.31 48.4 37.57 47.28 38.1C46.15 38.63 45.22 39.43 44.49 40.51C43.76 41.59 43.34 42.94 43.25 44.57H34.08C34.15 41.26 34.95 38.5 36.47 36.28C37.99 34.06 40.01 32.4 42.53 31.28C45.05 30.16 47.82 29.61 50.84 29.61C54.17 29.61 57.1 30.19 59.63 31.35C62.16 32.51 64.13 34.17 65.55 36.33C66.96 38.49 67.67 41.03 67.67 43.95C67.67 46.87 66.98 49.47 65.6 51.52C64.22 53.57 62.32 55.31 59.9 56.75C58.46 57.64 57.29 58.5 56.38 59.34C55.47 60.18 54.8 61.17 54.38 62.32C53.96 63.47 53.75 64.98 53.75 66.85V67.53H45.16L45.15 67.56Z" fill="url(#paint3_linear_4644_13085)"/>
</g>
<defs>
<linearGradient id="paint0_linear_4644_13085" x1="106.55" y1="51" x2="106.55" y2="146" gradientUnits="userSpaceOnUse">
<stop stop-color="#F5516C"/>
<stop offset="1" stop-color="#443051"/>
</linearGradient>
<linearGradient id="paint1_linear_4644_13085" x1="50.865" y1="23" x2="50.865" y2="105.5" gradientUnits="userSpaceOnUse">
<stop stop-color="#F5516C"/>
<stop offset="1" stop-color="#443051"/>
</linearGradient>
<linearGradient id="paint2_linear_4644_13085" x1="50.865" y1="23" x2="50.865" y2="105.5" gradientUnits="userSpaceOnUse">
<stop stop-color="#F5516C"/>
<stop offset="1" stop-color="#443051"/>
</linearGradient>
<linearGradient id="paint3_linear_4644_13085" x1="50.865" y1="23" x2="50.865" y2="105.5" gradientUnits="userSpaceOnUse">
<stop stop-color="#F5516C"/>
<stop offset="1" stop-color="#443051"/>
</linearGradient>
<clipPath id="clip0_4644_13085">
<rect width="150" height="150" fill="white"/>
</clipPath>
</defs>
</svg>
