<svg width="174" height="202" viewBox="0 0 174 202" fill="none" xmlns="http://www.w3.org/2000/svg">
<g clip-path="url(#clip0_4152_414)">
<path d="M27.28 56.33C24.12 57.47 20.19 57.69 16.91 57.26C15.23 57.04 13.42 56.62 11.86 55.9C11.22 55.61 10.57 55.23 10.01 54.78C10.85 54.11 11.9 53.6 12.9 53.24C53.21 38.74 93.51 24.23 133.82 9.73003C135.98 8.95003 138.43 8.84003 140.53 10.04C142.5 11.17 144.48 12.3 146.45 13.43L27.28 56.33Z" fill="#072440" stroke="black" stroke-linecap="round" stroke-linejoin="round"/>
<path d="M168.11 103V132.98C168.11 137.74 166.39 142.59 163.83 146.51C162.52 148.51 160.94 150.36 159.13 151.92C157.33 153.47 155.25 154.79 153 155.6C112.69 170.1 72.39 184.61 32.08 199.11C27.84 200.63 22.82 201.15 18.38 200.97C16.08 200.88 13.74 200.59 11.49 200.08C9.29999 199.58 6.95999 198.81 4.98999 197.68C3.97999 197.1 2.95999 196.37 2.17999 195.47C1.39999 194.58 0.819992 193.48 0.819992 192.24V52.21C0.819992 53.45 1.39999 54.55 2.17999 55.44C2.95999 56.33 3.96999 57.06 4.98999 57.65C6.95999 58.78 9.29999 59.55 11.49 60.05C13.73 60.56 16.08 60.84 18.38 60.94C22.82 61.12 27.85 60.61 32.08 59.08C72.39 44.58 112.69 30.07 153 15.57C156.09 14.46 159.58 14.3 162.59 16.02C164.54 17.14 165.96 18.87 166.86 20.9C167.76 22.91 168.12 25.14 168.12 27.32V59.52" fill="url(#paint0_linear_4152_414)"/>
<path d="M168.11 103V132.98C168.11 137.74 166.39 142.59 163.83 146.51C162.52 148.51 160.94 150.36 159.13 151.92C157.33 153.47 155.25 154.79 153 155.6C112.69 170.1 72.39 184.61 32.08 199.11C27.84 200.63 22.82 201.15 18.38 200.97C16.08 200.88 13.74 200.59 11.49 200.08C9.29999 199.58 6.95999 198.81 4.98999 197.68C3.97999 197.1 2.95999 196.37 2.17999 195.47C1.39999 194.58 0.819992 193.48 0.819992 192.24V52.21C0.819992 53.45 1.39999 54.55 2.17999 55.44C2.95999 56.33 3.96999 57.06 4.98999 57.65C6.95999 58.78 9.29999 59.55 11.49 60.05C13.73 60.56 16.08 60.84 18.38 60.94C22.82 61.12 27.85 60.61 32.08 59.08C72.39 44.58 112.69 30.07 153 15.57C156.09 14.46 159.58 14.3 162.59 16.02C164.54 17.14 165.96 18.87 166.86 20.9C167.76 22.91 168.12 25.14 168.12 27.32V59.52" stroke="black" stroke-linecap="round" stroke-linejoin="round"/>
<path d="M138.48 70.1801C135.78 71.1501 133.28 72.7401 131.12 74.6001C128.95 76.4801 127.05 78.7001 125.48 81.1001C122.4 85.8001 120.34 91.6201 120.34 97.3301C120.34 99.9401 120.78 102.62 121.85 105.03C122.93 107.46 124.63 109.54 126.97 110.88C127.77 111.34 128.57 111.79 129.37 112.25C127.03 110.91 125.33 108.82 124.25 106.4C123.17 103.98 122.73 101.31 122.73 98.6901C122.73 92.9701 124.79 87.1601 127.87 82.4601C129.44 80.0601 131.34 77.8401 133.51 75.9601C135.67 74.1001 138.16 72.5101 140.87 71.5401C150.66 68.0201 160.46 64.4901 170.25 60.9701C170.9 60.7401 171.58 60.4201 172.12 59.9901C172.65 59.5801 173.17 58.9701 173.17 58.2301C173.17 57.2201 172.24 56.4801 171.5 56.0501C170.36 55.4001 169.23 54.7501 168.09 54.1001C168.09 55.0401 168.09 55.9801 168.09 56.9201C168.22 56.9901 168.35 57.0701 168.48 57.1401C168.85 57.3501 169.31 57.7201 169.31 58.2301C169.31 58.6001 169.05 58.9101 168.79 59.1101C168.5 59.3301 168.19 59.4801 167.85 59.6001C158.06 63.1201 148.26 66.6501 138.47 70.1701L138.48 70.1801Z" fill="#F5516C" stroke="black" stroke-linecap="round" stroke-linejoin="round"/>
<path d="M173.19 58.2302V99.4702C173.19 100.22 172.67 100.82 172.14 101.23C171.59 101.66 170.91 101.98 170.27 102.21C160.48 105.73 150.68 109.26 140.89 112.78C137.18 114.11 132.99 114.3 129.39 112.24C127.05 110.9 125.35 108.81 124.27 106.39C123.19 103.97 122.75 101.3 122.75 98.6802C122.75 92.9602 124.81 87.1502 127.89 82.4502C129.46 80.0502 131.36 77.8302 133.53 75.9502C135.69 74.0902 138.18 72.5002 140.89 71.5302C150.68 68.0102 160.48 64.4802 170.27 60.9602C170.92 60.7302 171.6 60.4102 172.14 59.9802C172.67 59.5702 173.19 58.9602 173.19 58.2202V58.2302Z" fill="#F5516C" stroke="black" stroke-linecap="round" stroke-linejoin="round"/>
<path d="M10.01 54.79C10.85 54.11 11.91 53.61 12.9 53.25C53.21 38.75 93.51 24.24 133.82 9.74001C135.98 8.96001 138.43 8.85001 140.53 10.05C142.5 11.18 144.48 12.31 146.45 13.44C147.03 13.23 147.61 13.02 148.19 12.81C148.31 12.77 148.44 12.72 148.56 12.68C147.9 9.59001 146.28 6.67001 143.4 5.02001C140.4 3.30001 136.9 3.46001 133.81 4.57001C93.52 19.09 53.21 33.59 12.91 48.09C11.94 48.44 10.92 48.92 10.1 49.56C9.31 50.18 8.53 51.08 8.53 52.2C8.53 53.32 9.26 54.16 10.02 54.78L10.01 54.79Z" fill="url(#paint1_linear_4152_414)" stroke="black" stroke-linecap="round" stroke-linejoin="round"/>
<path d="M148.2 12.82C151.29 11.71 154.78 11.55 157.79 13.27L162.58 16.01C159.58 14.29 156.08 14.45 152.99 15.56C112.68 30.06 72.38 44.57 32.07 59.07C27.83 60.59 22.81 61.11 18.37 60.93C16.07 60.84 13.73 60.55 11.48 60.04C9.29 59.54 6.95 58.77 4.98 57.64C3.97 57.06 2.95 56.33 2.17 55.43C1.39 54.54 0.809998 53.44 0.809998 52.2C0.809998 50.33 2.11 48.82 3.43 47.79C4.8 46.72 6.5 45.92 8.12 45.34C48.42 30.85 88.73 16.34 129.03 1.84003C132.12 0.730028 135.61 0.570028 138.62 2.29003C140.22 3.20003 141.81 4.12003 143.41 5.03003C140.41 3.31003 136.91 3.47003 133.82 4.58003C93.52 19.09 53.21 33.59 12.91 48.09C11.94 48.44 10.92 48.92 10.1 49.56C9.31 50.18 8.53 51.08 8.53 52.2C8.53 53.12 9.05 53.89 9.68 54.48C10.31 55.07 11.1 55.54 11.88 55.89C13.44 56.61 15.25 57.03 16.93 57.25C20.21 57.68 24.13 57.45 27.3 56.32C67.61 41.82 107.91 27.31 148.22 12.81L148.2 12.82Z" fill="url(#paint2_linear_4152_414)" stroke="black" stroke-linecap="round" stroke-linejoin="round"/>
<path d="M142.44 89.3798C143.52 88.4398 144.31 87.0698 144.58 85.6698C144.72 84.9698 144.73 84.2098 144.54 83.5098C144.35 82.8098 143.95 82.1698 143.29 81.7898C142.28 81.2098 141.1 81.4798 140.18 81.9998C139.24 82.5398 138.47 83.3898 137.94 84.3198C137.41 85.2398 137.07 86.3498 137.08 87.4298C137.09 88.4798 137.47 89.6398 138.47 90.2198C138.74 90.3698 139.02 90.4698 139.32 90.5098V103.25C140.36 102.88 141.4 102.5 142.44 102.13V89.3898V89.3798Z" fill="#072440" stroke="black" stroke-linecap="round" stroke-linejoin="round"/>
<path d="M140.04 88.0102C140.94 87.2202 141.63 86.1402 142 85.0002C142.35 83.9102 142.45 82.5502 141.88 81.4602C142.37 81.4402 142.86 81.5302 143.29 81.7802C143.95 82.1602 144.35 82.8002 144.54 83.5002C144.73 84.2002 144.72 84.9602 144.58 85.6602C144.31 87.0602 143.52 88.4302 142.44 89.3702V102.11C141.4 102.48 140.36 102.86 139.32 103.23C139.32 102.49 139.32 101.74 139.32 101C139.56 100.91 139.8 100.83 140.04 100.74V88.0002V88.0102Z" fill="#C54863" stroke="black" stroke-linecap="round" stroke-linejoin="round"/>
<path d="M140.04 100.75L142.44 102.12" stroke="black" stroke-linecap="round" stroke-linejoin="round"/>
<path d="M140.04 88.0098L142.44 89.3798" stroke="black" stroke-linecap="round" stroke-linejoin="round"/>
</g>
<defs>
<linearGradient id="paint0_linear_4152_414" x1="84.46" y1="201" x2="84.46" y2="14.72" gradientUnits="userSpaceOnUse">
<stop offset="0.01" stop-color="#192447"/>
<stop offset="0.2" stop-color="#4C2F4E"/>
<stop offset="0.44" stop-color="#8A3C57"/>
<stop offset="0.65" stop-color="#B7455D"/>
<stop offset="0.8" stop-color="#D34B61"/>
<stop offset="0.9" stop-color="#DE4E63"/>
</linearGradient>
<linearGradient id="paint1_linear_4152_414" x1="8.52" y1="29.27" x2="148.57" y2="29.27" gradientUnits="userSpaceOnUse">
<stop stop-color="#2F2C48"/>
<stop offset="0.7" stop-color="#A2425D"/>
</linearGradient>
<linearGradient id="paint2_linear_4152_414" x1="0.809998" y1="30.98" x2="162.58" y2="30.98" gradientUnits="userSpaceOnUse">
<stop stop-color="#F5516C"/>
<stop offset="0.92" stop-color="#F5516C"/>
</linearGradient>
<clipPath id="clip0_4152_414">
<rect width="173.38" height="201" fill="white" transform="translate(0.309998 0.5)"/>
</clipPath>
</defs>
</svg>
