<?xml version="1.0" encoding="UTF-8"?><svg id="Ebene_2" xmlns="http://www.w3.org/2000/svg" viewBox="0 0 312.24 80"><defs><style>.cls-1{fill:#fe6e02;}</style></defs><g id="Ebene_1-2"><polygon class="cls-1" points="0 19.24 20.44 0 20.44 78.99 0 60.76 0 19.24"/><path class="cls-1" d="M66.4,80L25.57,40,65.91.02c15.3,23.98,13.93,55.59.49,79.98Z"/><polygon class="cls-1" points="108.31 17.22 108.31 33.42 117.63 33.42 132.33 17.22 147.14 17.22 126.68 38.99 148.16 62.78 133.88 62.78 117.68 44.56 108.31 44.56 108.31 62.79 98.1 62.79 98.1 17.22 108.31 17.22"/><path class="cls-1" d="M173.81,15.35c-13.45,0-24.35,10.92-24.35,24.38s10.9,24.38,24.35,24.38,24.35-10.92,24.35-24.38-10.9-24.38-24.35-24.38ZM173.81,53.79c-7.76,0-14.04-6.3-14.04-14.07s6.29-14.07,14.04-14.07,14.04,6.3,14.04,14.07-6.29,14.07-14.04,14.07Z"/><path class="cls-1" d="M287.9,15.35c-13.45,0-24.35,10.92-24.35,24.38s10.9,24.38,24.35,24.38,24.35-10.92,24.35-24.38-10.9-24.38-24.35-24.38ZM287.9,53.79c-7.76,0-14.04-6.3-14.04-14.07s6.29-14.07,14.04-14.07,14.04,6.3,14.04,14.07-6.29,14.07-14.04,14.07Z"/><path class="cls-1" d="M233.64,16.66h-27.44v46.13h27.44c29.69,0,29.47-46.13,0-46.13ZM232.35,51.88h-15.67v-24.3h15.67c16.83,0,16.96,24.3,0,24.3Z"/></g></svg>