<svg width="121" height="40" viewBox="0 0 121 40" fill="none" xmlns="http://www.w3.org/2000/svg">
<g clip-path="url(#clip0_4438_1228)">
<path d="M102.889 37.4813V39.9994H120.173V28.6421H117.654V37.4813H102.889ZM102.889 0V2.51826H117.654V11.3579H120.173V0H102.889ZM93.9759 19.4816V13.6299H97.9265C99.8528 13.6299 100.544 14.2718 100.544 16.0251V17.0619C100.544 18.8643 99.8771 19.4816 97.9265 19.4816H93.9759ZM100.247 20.5184C102.049 20.0493 103.308 18.3701 103.308 16.3705C103.308 15.1114 102.815 13.9753 101.877 13.0616C100.692 11.9256 99.1109 11.3579 97.0618 11.3579H91.5065V28.6415H93.9759V21.753H97.6796C99.5806 21.753 100.346 22.5431 100.346 24.5187V28.6421H102.865V24.9137C102.865 22.1977 102.223 21.1608 100.247 20.8644V20.5184ZM79.4578 21.0861H87.0628V18.8147H79.4578V13.6293H87.8034V11.3579H76.939V28.6415H88.1737V26.3701H79.4578V21.0861ZM71.1859 21.9998V23.1849C71.1859 25.6787 70.2721 26.4937 67.9762 26.4937H67.4331C65.1365 26.4937 64.0256 25.7528 64.0256 22.3207V17.6787C64.0256 14.2222 65.1862 13.5057 67.4821 13.5057H67.9756C70.2228 13.5057 70.9387 14.3453 70.9631 16.6663H73.6793C73.4324 13.2588 71.1609 11.1111 67.7534 11.1111C66.0993 11.1111 64.7165 11.6298 63.6796 12.617C62.124 14.074 61.2599 16.5432 61.2599 19.9997C61.2599 23.3331 62.0009 25.8023 63.5315 27.3328C64.5684 28.3451 66.0006 28.8883 67.4081 28.8883C68.8893 28.8883 70.2477 28.2955 70.9387 27.0119H71.284V28.6415H73.5556V19.7284H66.8643V21.9998H71.1859ZM49.409 13.6293H52.1006C54.644 13.6293 56.0268 14.2712 56.0268 17.7283V22.2712C56.0268 25.7277 54.644 26.3701 52.1006 26.3701H49.409V13.6293ZM52.3224 28.6421C57.0387 28.6421 58.7912 25.0619 58.7912 20.0003C58.7912 14.8646 56.9149 11.3585 52.2728 11.3585H46.9393V28.6421H52.3224ZM35.0143 21.0861H42.6193V18.8147H35.0143V13.6293H43.3596V11.3579H32.4953V28.6415H43.7303V26.3701H35.0143V21.0861ZM20.4466 11.3579H17.9283V28.6415H29.2863V26.3701H20.4466V11.3579ZM0.619629 28.6421V40H17.9033V37.4813H3.13789V28.6421H0.619629ZM0.619629 0V11.3579H3.13789V2.51826H17.9033V0H0.619629Z" fill="black"/>
</g>
<defs>
<clipPath id="clip0_4438_1228">
<rect width="119.688" height="40" fill="white" transform="translate(0.619629)"/>
</clipPath>
</defs>
</svg>
