<svg width="444" height="180" viewBox="0 0 444 180" fill="none" xmlns="http://www.w3.org/2000/svg">
<path d="M401.321 43.7578C400.791 43.9141 400.488 44.4702 400.644 44.9999L403.191 53.6321C403.347 54.1618 403.903 54.4645 404.433 54.3083C404.963 54.152 405.266 53.5959 405.109 53.0662L402.846 45.3931L410.519 43.1294C411.048 42.9732 411.351 42.417 411.195 41.8873C411.039 41.3576 410.483 41.0549 409.953 41.2112L401.321 43.7578ZM111.132 19.1367C111.132 22.0822 113.52 24.4701 116.465 24.4701C119.411 24.4701 121.799 22.0822 121.799 19.1367C121.799 16.1912 119.411 13.8034 116.465 13.8034C113.52 13.8034 111.132 16.1912 111.132 19.1367ZM1.5 93.8932H0.5C0.5 106.02 6.86601 117.461 18.1376 127.755C29.4087 138.049 45.6626 147.273 65.6632 154.999C105.671 170.454 160.874 179.992 221.8 179.992V178.992V177.992C161.056 177.992 106.109 168.479 66.3839 153.134C46.5183 145.46 30.5105 136.347 19.4863 126.278C8.46267 116.211 2.5 105.266 2.5 93.8932H1.5ZM221.8 178.992V179.992C282.727 179.992 337.929 170.454 377.937 154.999C397.938 147.273 414.192 138.049 425.463 127.755C436.734 117.461 443.1 106.02 443.1 93.8932H442.1H441.1C441.1 105.266 435.138 116.211 424.114 126.278C413.09 136.347 397.082 145.46 377.216 153.134C337.492 168.479 282.544 177.992 221.8 177.992V178.992ZM442.1 93.8932H443.1C443.1 74.9889 427.651 57.758 402.082 43.8386L401.604 44.7169L401.125 45.5952C426.55 59.4361 441.1 76.1531 441.1 93.8932H442.1ZM116.465 19.1367L116.259 18.1582C81.9427 25.3906 53.0753 36.0481 32.7597 48.9869C12.4802 61.9026 0.5 77.2454 0.5 93.8932H1.5H2.5C2.5 78.2796 13.7547 63.462 33.834 50.6738C53.8771 37.9086 82.4925 27.3186 116.672 20.1152L116.465 19.1367Z" fill="#7A89A7" fill-opacity="0.42"/>
<path d="M378.971 10.256L392.057 3.6113L405.144 10.256M382.739 18.929V27.905M392.057 19.1482V27.905M401.452 19.1482V27.905M378.971 32.5031H405.144M378.971 14.4472H405.144" stroke="white" stroke-width="2.40765" stroke-linecap="round"/>
</svg>
