<svg width="220" height="55" viewBox="0 0 220 55" fill="none" xmlns="http://www.w3.org/2000/svg">
<rect width="220" height="55" rx="27.5" fill="#365F87" fill-opacity="0.2"/>
<rect x="0.5" y="0.5" width="219" height="54" rx="27" stroke="white" stroke-opacity="0.3"/>
<g clip-path="url(#clip0_4165_1036)">
<g clip-path="url(#clip1_4165_1036)">
<path d="M81.4248 12.5C89.6131 12.5 96.2517 18.9485 96.252 27.3301C96.252 35.7118 89.4577 42.5029 81.0791 42.5029H70.3525V36.4121H79.625C84.5271 36.4121 88.5359 32.4041 88.5361 27.502C88.5361 22.5997 84.5273 18.5909 79.625 18.5908H70.3525V12.5H81.4248ZM122.215 18.0713H106.485V26H119.198V31.5703H106.485V42.5H99.542V12.5H122.215V18.0713ZM140.002 22.2285L146.774 12.5H154.274L143.817 26.9854L155.004 42.5H146.986L139.742 32.084L132.628 42.5H124.655L135.756 27.2422L125.216 12.5H133.101L140.002 22.2285Z" fill="white"/>
<path d="M74.7036 34.7841C78.8794 34.7841 82.2646 31.3989 82.2646 27.2231C82.2646 23.0473 78.8794 19.6621 74.7036 19.6621C70.5278 19.6621 67.1426 23.0473 67.1426 27.2231C67.1426 31.3989 70.5278 34.7841 74.7036 34.7841Z" fill="url(#paint0_linear_4165_1036)"/>
<path d="M67.8184 35.8203C72.4125 35.8203 76.1367 32.0961 76.1367 27.502C76.1367 22.9079 72.4125 19.1836 67.8184 19.1836C63.2243 19.1836 59.5 22.9079 59.5 27.502C59.5 32.0961 63.2243 35.8203 67.8184 35.8203Z" fill="url(#paint1_linear_4165_1036)"/>
</g>
</g>
<defs>
<linearGradient id="paint0_linear_4165_1036" x1="81.0482" y1="23.9141" x2="67.6101" y2="30.8443" gradientUnits="userSpaceOnUse">
<stop offset="0.04" stop-color="#F5516C"/>
<stop offset="0.14" stop-color="#C74863"/>
<stop offset="0.31" stop-color="#853B57"/>
<stop offset="0.44" stop-color="#55324E"/>
<stop offset="0.55" stop-color="#382D49"/>
<stop offset="0.61" stop-color="#2D2B47"/>
</linearGradient>
<linearGradient id="paint1_linear_4165_1036" x1="72.8918" y1="21.4557" x2="62.1967" y2="34.1979" gradientUnits="userSpaceOnUse">
<stop offset="0.2" stop-color="#F5516C"/>
<stop offset="1" stop-color="#6B3753"/>
</linearGradient>
<clipPath id="clip0_4165_1036">
<rect width="96" height="30" fill="white" transform="translate(59.5 12.5)"/>
</clipPath>
<clipPath id="clip1_4165_1036">
<rect width="95.5012" height="30" fill="white" transform="translate(59.5 12.5)"/>
</clipPath>
</defs>
</svg>
