<svg width="81" height="40" viewBox="0 0 81 40" fill="none" xmlns="http://www.w3.org/2000/svg">
<g clip-path="url(#clip0_4438_1207)">
<path d="M45.6263 30.8571V39.619H41.1184V33.5238L35.9755 34.0952C34.8327 34.2222 34.3882 34.6031 34.3882 35.3016C34.3882 36.3174 35.3406 36.6984 37.3088 36.6984C39.2771 36.6984 39.912 36.5079 41.1184 36.1904L38.7692 39.492C37.8168 39.6825 36.9279 39.8095 35.9755 39.8095C31.912 39.8095 29.5628 38.1587 29.5628 35.3016C29.5628 32.4444 31.4041 31.4285 35.5311 30.9206L40.9914 30.2857C40.6739 28.6984 39.4676 28 37.1184 28C34.7692 28 32.42 28.5714 30.1977 29.6508L30.8961 25.7143C32.9279 24.8254 35.3406 24.3809 37.6898 24.3809C42.8961 24.3809 45.6263 26.5397 45.6263 30.7936V30.8571ZM5.18186 19.873L0.292969 39.619H5.18186L7.59456 29.7143L11.785 34.7936H16.9279L21.1819 29.7143L23.5946 39.619H28.4834L23.5946 19.873L14.3882 30.9206L5.18186 19.873ZM23.658 0.126953L14.4517 11.1746L5.18186 0.126953L0.292969 19.873H5.18186L7.59456 9.96822L11.785 15.0476H16.9279L21.1819 9.96822L23.5946 19.873H28.4834L23.658 0.126953ZM57.3723 30.6666L53.4358 30.0952C52.42 29.9682 52.039 29.6508 52.039 29.0793C52.039 28.1904 52.9914 27.8095 54.9596 27.8095C56.9279 27.8095 59.3406 28.2539 61.4993 29.3333L60.9279 25.4603C59.1501 24.8254 57.1819 24.5079 55.0866 24.5079C50.1977 24.5079 47.5311 26.2222 47.5311 29.2698C47.5311 32.3174 48.9914 33.0158 52.1025 33.4603L56.1025 34.0952C57.1184 34.2222 57.5628 34.6666 57.5628 35.3016C57.5628 36.1904 56.6104 36.6349 54.7057 36.6349C52.8009 36.6349 49.4993 36 47.2771 34.9206L47.7215 38.7936C49.6263 39.492 52.1025 39.9365 54.4517 39.9365C59.4676 39.9365 62.0708 38.1587 62.0708 35.0476C62.0708 31.9365 60.6104 31.1746 57.3723 30.7301V30.6666ZM63.8485 21.6508V39.619H68.3565V21.6508H63.8485ZM73.5628 31.5555L79.785 24.7619H74.1977L68.293 31.8095L74.5787 39.6825H80.2295L73.4993 31.619L73.5628 31.5555ZM63.2136 15.619C63.2136 18.5397 65.5628 20.127 69.6263 20.127C73.6898 20.127 71.5311 20 72.42 19.8095L74.7692 16.5079C73.5628 16.8254 72.2295 17.0158 70.9596 17.0158C68.9279 17.0158 68.039 16.5714 68.039 15.619C68.039 14.6666 68.5469 14.5397 69.6263 14.4127L74.7692 13.8412V19.9365H79.2771V11.1746C79.2771 6.9841 76.6104 4.76187 71.3406 4.76187C66.0707 4.76187 66.6422 5.20632 64.5469 6.09521L63.8485 10.0317C66.0708 8.95235 68.5469 8.38092 70.7692 8.38092C72.9914 8.38092 74.3882 9.07933 74.6422 10.6666L69.1819 11.3016C65.0549 11.746 63.2136 13.1428 63.2136 15.6825V15.619ZM50.6422 14.6666C50.6422 18.2857 52.7374 20.127 56.8644 20.127C60.9914 20.127 59.8485 19.873 61.1819 19.2381L61.7533 15.2381C60.4834 16 59.2136 16.3809 57.9438 16.3809C56.039 16.3809 55.1501 15.619 55.1501 13.8412V8.5714H61.9438V4.88886H55.1501V1.84124L46.6422 6.41267V8.63489H50.7057V14.6666H50.6422ZM46.2612 13.0158V13.9047H34.1342C34.7057 15.746 36.293 16.5714 39.2136 16.5714C42.1342 16.5714 43.6581 16.127 45.5628 15.1746L44.9914 19.0476C43.2136 19.8095 40.9914 20.1904 38.7692 20.1904C32.7374 20.1904 29.4358 17.5238 29.4358 12.5079C29.4358 7.49203 32.8009 4.76187 37.9438 4.76187C43.0866 4.76187 46.2612 7.80949 46.2612 13.0793V13.0158ZM34.0707 10.8571H41.7533C41.3723 9.07933 40.039 8.19044 37.8803 8.19044C35.7215 8.19044 34.5152 9.07933 34.0707 10.8571Z" fill="black"/>
</g>
<defs>
<clipPath id="clip0_4438_1207">
<rect width="80.6349" height="40" fill="white" transform="translate(0.166016)"/>
</clipPath>
</defs>
</svg>
