<svg width="141" height="135" viewBox="0 0 141 135" fill="none" xmlns="http://www.w3.org/2000/svg">
<g clip-path="url(#clip0_4308_1405)">
<path d="M131.492 130.355L101.34 121.377L78.6016 134.97L62.7362 134.963L39.9842 121.377L9.84578 130.355L0.678741 99.4062L9.84677 65.0579L0.678741 36.0177L9.84677 0.0249023L56.94 28.161H84.3978L131.492 0.0249023L140.66 36.0177L131.492 65.0579L140.66 99.4062L131.492 130.355Z" fill="#FF5C16"/>
<path d="M9.85266 0.0249023L56.9469 28.1807L55.0746 47.5036L9.85266 0.0249023ZM39.9921 99.419L60.7131 115.203L39.9921 121.376V99.419ZM59.0567 73.3228L55.0746 47.5174L29.5828 65.0657L29.569 65.0588V65.0717L29.6479 83.1346L39.9852 73.3238L59.0567 73.3228ZM131.492 0.0249023L84.3977 28.1807L86.2641 47.5036L131.492 0.0249023ZM101.354 99.419L80.6315 115.203L101.354 121.376V99.419ZM111.77 65.0707V65.0579L111.764 65.0648L86.271 47.5174L82.2889 73.3228H101.353L111.697 83.1326L111.77 65.0707Z" fill="#FF5C16"/>
<path d="M39.9852 121.376L9.84677 130.354L0.678741 99.419H39.9852V121.376ZM59.0499 73.3159L64.8066 110.623L56.8276 89.8793L29.6351 83.1327L39.9783 73.3169L59.0499 73.3159ZM101.353 121.376L131.492 130.354L140.66 99.418H101.353C101.353 99.419 101.353 121.376 101.353 121.376ZM82.2889 73.3159L76.5321 110.623L84.5101 89.8793L111.705 83.1327L101.355 73.3169L82.2889 73.3159Z" fill="#E34807"/>
<path d="M0.678741 99.4061L9.84677 65.0578H29.5621L29.6341 83.1267L56.8296 89.8733L64.8076 110.616L60.7062 115.184L39.9852 99.3992H0.678741V99.4061ZM140.66 99.4061L131.492 65.0578H111.776L111.704 83.1267L84.5101 89.8733L76.5311 110.616L80.6316 115.184L101.354 99.3992H140.66V99.4061ZM84.3978 28.1609H56.94L55.0756 47.4838L64.8086 110.595H76.5321L86.271 47.4838L84.3978 28.1609Z" fill="#FF8D5D"/>
<path d="M9.84677 0.0249023L0.678741 36.0177L9.84677 65.0579H29.5621L55.0678 47.5046L9.84677 0.0249023ZM53.3523 80.8088H44.4209L39.5583 85.5757L56.8355 89.8586L53.3523 80.8019V80.8088ZM131.492 0.0249023L140.66 36.0177L131.492 65.0579H111.776L86.271 47.5046L131.492 0.0249023ZM87.9993 80.8088H96.9435L101.806 85.5817L84.5092 89.8734L87.9993 80.8019V80.8088ZM78.5947 122.658L80.6325 115.198L76.5311 110.63H64.7987L60.6983 115.198L62.7352 122.658" fill="#661800"/>
<path d="M78.5947 122.657V134.976H62.7372V122.657H78.5947Z" fill="#C0C4CD"/>
<path d="M39.9921 121.363L62.75 134.969V122.65L60.7121 115.191L39.9921 121.363ZM101.354 121.363L78.5947 134.969V122.65L80.6325 115.191L101.354 121.363Z" fill="#E7EBF6"/>
</g>
<defs>
<clipPath id="clip0_4308_1405">
<rect width="140" height="134.95" fill="white" transform="translate(0.678741 0.0249023)"/>
</clipPath>
</defs>
</svg>
