<svg width="211" height="30" viewBox="0 0 211 30" fill="none" xmlns="http://www.w3.org/2000/svg">
<g clip-path="url(#clip0_4097_840)">
<mask id="mask0_4097_840" style="mask-type:luminance" maskUnits="userSpaceOnUse" x="0" y="0" width="211" height="30">
<path d="M210.199 0H0.199051V30H210.199V0Z" fill="white"/>
</mask>
<g mask="url(#mask0_4097_840)">
<path d="M17.5891 11.59C16.6791 10.68 15.5891 9.95995 14.3891 9.48995C11.7691 8.47995 8.85906 8.47995 6.23906 9.48995C5.03906 9.96995 3.94906 10.69 3.03906 11.6C2.12906 12.51 1.41906 13.61 0.949059 14.81C-0.0609412 17.44 -0.0609412 20.36 0.949059 22.99C1.41906 24.19 2.13906 25.28 3.04906 26.2C3.95906 27.12 5.04906 27.83 6.24906 28.31C8.86906 29.33 11.7791 29.33 14.3991 28.31C15.5991 27.83 16.6891 27.11 17.5991 26.2C18.5091 25.28 19.2291 24.19 19.6991 22.99C20.7191 20.36 20.7191 17.44 19.6991 14.81C19.2191 13.61 18.4991 12.51 17.5791 11.59H17.5891ZM14.9391 21.2C14.6891 21.84 14.3091 22.42 13.8291 22.91C13.3691 23.37 12.8191 23.74 12.2091 23.98C11.6091 24.22 10.9691 24.35 10.3191 24.35C9.66906 24.35 9.01906 24.23 8.40906 23.98C7.80906 23.73 7.26906 23.37 6.80906 22.91C6.32906 22.42 5.94906 21.84 5.69906 21.2C5.14906 19.72 5.14906 18.09 5.69906 16.6C5.94906 15.96 6.32906 15.38 6.80906 14.89C7.26906 14.43 7.80906 14.07 8.40906 13.82C9.00906 13.57 9.65906 13.44 10.3191 13.45C10.9691 13.45 11.6091 13.58 12.2091 13.82C12.8191 14.06 13.3691 14.43 13.8291 14.89C14.3091 15.38 14.6891 15.96 14.9391 16.6C15.4891 18.08 15.4891 19.71 14.9391 21.2ZM41.4791 13.54C41.7891 14.62 41.9391 15.75 41.9291 16.87V28.46H36.8191V17.49C36.8191 16.11 36.5191 15.09 35.8991 14.43C35.2891 13.77 34.3991 13.44 33.2291 13.45C32.5791 13.44 31.9391 13.59 31.3791 13.9C30.8491 14.2 30.3791 14.61 30.0191 15.11C29.6191 15.65 29.3291 16.26 29.1491 16.9C28.9491 17.62 28.8491 18.36 28.8591 19.1V28.46H23.7591V9.34995H28.5491V11.84H28.8591C29.4491 10.88 30.2891 10.1 31.2791 9.55995C32.3391 8.98995 33.5391 8.69995 34.7391 8.71995C35.8191 8.69995 36.8991 8.88995 37.8991 9.29995C38.7691 9.65995 39.5391 10.23 40.1391 10.96C40.7491 11.72 41.1991 12.6 41.4691 13.54H41.4791ZM59.5791 21.55L64.2591 23.57C63.4491 25.16 62.2491 26.52 60.7691 27.52C59.2691 28.55 57.4091 29.06 55.1791 29.06C53.7891 29.08 52.3991 28.82 51.1091 28.3C49.9091 27.82 48.8191 27.1 47.9091 26.18C47.0091 25.26 46.2891 24.17 45.8091 22.97C45.2891 21.67 45.0391 20.29 45.0491 18.9C45.0391 17.5 45.2891 16.11 45.8091 14.81C46.2791 13.61 46.9991 12.52 47.9091 11.6C48.8191 10.68 49.9091 9.96995 51.1091 9.48995C52.3991 8.96995 53.7891 8.70995 55.1791 8.72995C57.3891 8.72995 59.2491 9.23995 60.7491 10.25C62.2091 11.21 63.3691 12.58 64.0591 14.19L59.3791 16.14C58.9991 15.33 58.4191 14.63 57.6791 14.12C56.8991 13.64 55.9991 13.4 55.0791 13.44C54.4191 13.44 53.7691 13.57 53.1691 13.83C52.5591 14.09 52.0091 14.48 51.5591 14.96C51.0991 15.44 50.7491 16.01 50.5191 16.64C49.9991 18.1 49.9991 19.7 50.5191 21.16C50.7491 21.78 51.0991 22.35 51.5591 22.84C52.0191 23.32 52.5691 23.71 53.1691 23.97C53.7691 24.23 54.4191 24.36 55.0791 24.36C56.0291 24.39 56.9791 24.14 57.7891 23.64C58.5591 23.13 59.1791 22.41 59.5691 21.57L59.5791 21.55ZM83.7691 10.91C84.9491 12.36 85.5391 14.35 85.5391 16.87V28.46H80.4391V17.49C80.4391 16.16 80.1291 15.16 79.4991 14.47C78.8791 13.78 77.9991 13.45 76.8791 13.45C76.2291 13.44 75.5791 13.59 75.0091 13.9C74.4591 14.2 73.9891 14.62 73.6291 15.13C73.2391 15.68 72.9391 16.29 72.7591 16.94C72.5591 17.66 72.4591 18.4 72.4691 19.14V28.46H67.3791V0.539954H72.4791V8.36995L72.1691 11.83H72.4791C73.0591 10.89 73.8691 10.12 74.8391 9.58995C75.8891 8.99995 77.0791 8.69995 78.2891 8.71995C80.7591 8.71995 82.5791 9.43995 83.7691 10.9V10.91ZM98.0791 8.72995C94.5691 8.72995 91.7991 9.99995 89.7791 12.55L93.4791 15.08C94.6991 13.6 96.1991 12.86 97.9591 12.86C99.0491 12.82 100.109 13.18 100.959 13.85C101.339 14.15 101.649 14.53 101.859 14.96C102.069 15.4 102.179 15.88 102.169 16.36V16.94C101.519 16.69 100.859 16.49 100.179 16.33C99.1691 16.12 98.1291 16.02 97.0991 16.04C96.0491 16.04 95.0091 16.18 93.9991 16.49C93.0991 16.76 92.2591 17.21 91.5291 17.8C90.8391 18.35 90.2791 19.05 89.8891 19.84C89.4891 20.67 89.2991 21.59 89.3091 22.51C89.2991 23.42 89.4891 24.33 89.8591 25.16C90.2091 25.95 90.7291 26.66 91.3791 27.23C92.0491 27.81 92.8191 28.27 93.6591 28.58C94.5491 28.91 95.4991 29.07 96.4491 29.07C97.7691 29.07 98.8591 28.81 99.6991 28.29C100.519 27.79 101.249 27.16 101.869 26.42H102.179V28.44H107.209V16.98C107.209 14.25 106.429 12.19 104.869 10.8C103.309 9.40995 101.049 8.71995 98.0791 8.72995ZM101.839 22.35C101.619 22.87 101.299 23.35 100.909 23.75C100.469 24.18 99.9491 24.52 99.3791 24.75C98.8091 24.98 98.1991 25.1 97.5791 25.09C96.7891 25.1 96.0191 24.86 95.3791 24.39C95.0791 24.18 94.8291 23.9 94.6691 23.58C94.4991 23.25 94.4191 22.89 94.4291 22.52C94.4291 22.14 94.5191 21.76 94.6891 21.42C94.8591 21.08 95.1091 20.78 95.4191 20.55C96.0791 20.02 97.0291 19.75 98.2491 19.75C98.9491 19.75 99.6491 19.83 100.329 20C100.969 20.17 101.589 20.4 102.179 20.68C102.179 21.25 102.069 21.81 101.859 22.34L101.839 22.35ZM111.979 9.35995H117.089V28.46H111.989V9.35995H111.979ZM116.859 1.18995C117.169 1.48995 117.419 1.84995 117.579 2.24995C117.749 2.64995 117.829 3.07995 117.829 3.50995C117.829 3.93995 117.739 4.36995 117.579 4.76995C117.409 5.16995 117.169 5.52995 116.859 5.82995C116.549 6.13995 116.189 6.37995 115.789 6.53995C115.389 6.69995 114.959 6.77995 114.519 6.77995C113.879 6.77995 113.259 6.58995 112.719 6.22995C112.189 5.87995 111.769 5.36995 111.519 4.77995C111.179 3.95995 111.179 3.02995 111.519 2.20995C111.729 1.71995 112.059 1.27995 112.489 0.949954C112.909 0.609954 113.399 0.379954 113.929 0.279954C114.459 0.179954 114.999 0.209954 115.519 0.359954C116.029 0.519954 116.499 0.799954 116.879 1.16995H116.859V1.18995ZM139.909 13.55C140.219 14.63 140.369 15.76 140.359 16.88V28.46H135.259V17.49C135.259 16.11 134.949 15.09 134.339 14.43C133.729 13.77 132.839 13.44 131.669 13.45C131.019 13.44 130.389 13.59 129.819 13.9C129.279 14.2 128.819 14.61 128.449 15.11C128.059 15.65 127.759 16.26 127.579 16.9C127.379 17.62 127.289 18.36 127.289 19.1V28.46H122.189V9.34995H126.979V11.84H127.289C127.879 10.88 128.719 10.1 129.709 9.55995C130.779 8.98995 131.969 8.69995 133.179 8.71995C134.259 8.69995 135.329 8.88995 136.339 9.29995C137.209 9.65995 137.979 10.23 138.579 10.96C139.189 11.72 139.639 12.6 139.909 13.54V13.55ZM145.389 28.06V0.929954H148.179V28.07H145.389V28.06ZM159.489 28.69C157.489 28.69 155.799 28.1 154.469 26.92C153.829 26.39 153.319 25.71 152.969 24.96C152.629 24.2 152.459 23.37 152.479 22.54C152.479 20.68 153.159 19.23 154.569 18.13C155.979 17.03 157.919 16.46 160.309 16.46C162.359 16.46 164.059 16.84 165.379 17.58L165.959 17.91V16.41C165.959 15.75 165.819 15.1 165.539 14.5C165.259 13.9 164.849 13.37 164.339 12.95C163.319 12.03 161.989 11.53 160.609 11.54C159.669 11.52 158.729 11.73 157.889 12.14C157.039 12.56 156.309 13.17 155.759 13.94L153.269 12.37C154.939 10.18 157.279 9.11995 160.429 9.11995C162.969 9.11995 164.989 9.79995 166.439 11.14C167.889 12.48 168.609 14.34 168.609 16.68V28.06H165.969V24.14C165.369 25.5 164.429 26.68 163.229 27.55C162.139 28.31 160.829 28.71 159.499 28.68L159.489 28.69ZM160.899 18.55C159.519 18.5 158.159 18.9 157.029 19.68C155.949 20.46 155.399 21.44 155.399 22.61C155.399 23.13 155.519 23.64 155.749 24.1C155.979 24.56 156.319 24.96 156.739 25.26C157.599 25.94 158.669 26.3 159.769 26.28C161.379 26.28 162.929 25.63 164.069 24.49C164.669 23.96 165.139 23.31 165.469 22.58C165.799 21.85 165.959 21.06 165.959 20.27V20.08L165.809 19.96C164.639 19.02 162.979 18.55 160.889 18.55H160.899ZM189.669 11.95C188.019 10.07 185.959 9.11995 183.569 9.11995C182.299 9.10995 181.039 9.40995 179.909 9.98995C178.679 10.63 177.679 11.64 177.059 12.88L176.659 13.68V0.929954H173.859V28.07H176.499V24.13C176.969 25.23 177.669 26.21 178.549 27.02C179.889 28.22 181.799 28.68 183.559 28.68C185.949 28.68 187.999 27.73 189.659 25.85C191.379 23.95 192.309 21.47 192.259 18.9C192.299 16.34 191.369 13.85 189.649 11.95H189.669ZM187.609 24.11C187.039 24.77 186.329 25.3 185.529 25.66C184.729 26.02 183.869 26.2 182.989 26.19C182.109 26.21 181.239 26.03 180.439 25.68C179.639 25.33 178.919 24.8 178.329 24.15C177.129 22.78 176.519 21.02 176.519 18.9C176.519 16.78 177.129 15.05 178.339 13.69C178.919 13.04 179.639 12.51 180.439 12.15C181.239 11.79 182.109 11.61 182.979 11.61C183.849 11.61 184.719 11.8 185.519 12.15C186.319 12.51 187.029 13.03 187.619 13.69C188.849 15.06 189.469 16.81 189.469 18.9C189.469 20.99 188.849 22.77 187.619 24.11H187.609ZM202.679 28.68C200.959 28.71 199.269 28.21 197.839 27.25C196.589 26.4 195.609 25.21 195.009 23.83L197.499 22.77C197.949 23.76 198.639 24.61 199.519 25.25C200.439 25.92 201.549 26.28 202.699 26.28C203.779 26.31 204.849 26.04 205.779 25.48C206.659 24.9 207.109 24.21 207.109 23.39C207.109 21.98 206.069 20.95 204.029 20.32L200.739 19.5C197.189 18.61 195.459 16.97 195.459 14.5C195.439 13.74 195.609 12.99 195.949 12.31C196.289 11.63 196.799 11.05 197.429 10.62C198.769 9.61995 200.519 9.11995 202.629 9.11995C204.169 9.09995 205.679 9.49995 207.009 10.27C208.109 10.89 208.999 11.83 209.549 12.96L207.059 13.99C206.649 13.26 206.029 12.66 205.289 12.26C204.389 11.77 203.379 11.52 202.349 11.53C201.389 11.52 200.439 11.78 199.619 12.29C198.749 12.83 198.329 13.52 198.329 14.34C198.329 15.63 199.469 16.55 201.719 17.06L204.589 17.8C208.219 18.69 209.989 20.44 209.989 23.15C209.989 24.7 209.329 25.98 207.969 27.05C206.609 28.12 204.809 28.68 202.709 28.68H202.679Z" fill="#121212"/>
</g>
</g>
<defs>
<clipPath id="clip0_4097_840">
<rect width="210" height="30" fill="white" transform="translate(0.199051)"/>
</clipPath>
</defs>
</svg>
