<svg width="148" height="40" viewBox="0 0 148 40" fill="none" xmlns="http://www.w3.org/2000/svg">
<g clip-path="url(#clip0_4097_599)">
<path d="M33.5414 0L14.2494 19.292C13.8602 19.687 13.8602 20.3186 14.2494 20.708L33.5414 40H20.4808C20.2156 40 19.961 39.8923 19.7748 39.7061L0.776736 20.708C0.387571 20.313 0.387573 19.6814 0.776736 19.292L19.7806 0.293945C19.9668 0.107791 20.2206 0.000117132 20.4857 0H33.5414ZM37.7572 35.7842H37.7513L37.7543 35.7812L37.7572 35.7842ZM52.8324 19.2861C53.2218 19.6812 53.2218 20.3137 52.8324 20.7031L37.7543 35.7812L31.0238 29.0508L39.3656 20.708C39.7549 20.3129 39.755 19.6814 39.3656 19.292L28.0717 7.99805L34.8051 1.26465L52.8324 19.2861Z" fill="#2231EF"/>
<path d="M61.43 15.4885C60.7773 15.1445 60.2657 14.6594 59.9129 14.0243C59.5601 13.3893 59.3837 12.666 59.3837 11.8369V7.97363C59.3837 7.16216 59.5601 6.4389 59.9217 5.81266C60.2834 5.18642 60.7861 4.7013 61.4388 4.35731C62.0915 4.01332 62.8324 3.83691 63.6792 3.83691C64.5259 3.83691 65.2933 4.01332 65.9372 4.35731C66.5899 4.7013 67.0926 5.18642 67.4543 5.81266C67.8159 6.4389 67.9923 7.16216 67.9923 7.97363V11.8369C67.9923 12.6572 67.8159 13.3893 67.4543 14.0243C67.0926 14.6594 66.5899 15.1445 65.9372 15.4885C65.2845 15.8325 64.5347 16.0089 63.6792 16.0089C62.8236 16.0089 62.0827 15.8413 61.43 15.4885ZM65.3903 13.6451C65.8225 13.2041 66.0342 12.6219 66.0342 11.8987V7.95599C66.0342 7.2239 65.8225 6.63295 65.3903 6.19193C64.9581 5.75092 64.3936 5.53041 63.6792 5.53041C62.9647 5.53041 62.4179 5.75092 61.9857 6.19193C61.5535 6.63295 61.3418 7.21508 61.3418 7.95599V11.8987C61.3418 12.6219 61.5535 13.2041 61.9857 13.6451C62.4179 14.0861 62.9824 14.3066 63.6792 14.3066C64.376 14.3066 64.9581 14.0861 65.3903 13.6451Z" fill="#00083F"/>
<path d="M76.6979 4.40153C77.236 4.6926 77.6593 5.10716 77.9592 5.64519C78.2591 6.18323 78.4091 6.80065 78.4091 7.49745C78.4091 8.19426 78.2591 8.79404 77.9504 9.32325C77.6417 9.85247 77.2095 10.267 76.6538 10.5493C76.0981 10.8403 75.4454 10.9815 74.7134 10.9815H72.0055C71.9526 10.9815 71.9173 11.0079 71.9173 11.0697V15.6209C71.9173 15.6739 71.8997 15.7268 71.8556 15.7621C71.8115 15.8062 71.7674 15.8238 71.7145 15.8238H70.1533C70.1003 15.8238 70.0474 15.8062 70.0121 15.7621C69.968 15.7268 69.9504 15.6739 69.9504 15.6209V4.16339C69.9504 4.11046 69.968 4.05754 70.0121 4.02226C70.0562 3.98698 70.1003 3.96052 70.1533 3.96052H74.8104C75.5248 3.96052 76.1511 4.11046 76.6891 4.40153H76.6979ZM75.9217 8.89106C76.2745 8.55589 76.451 8.10605 76.451 7.55038C76.451 6.9947 76.2745 6.52722 75.9217 6.17441C75.5689 5.8216 75.1103 5.64519 74.537 5.64519H72.0144C71.9614 5.64519 71.9261 5.67165 71.9261 5.7334V9.30561C71.9261 9.35853 71.9526 9.39382 72.0144 9.39382H74.537C75.1103 9.39382 75.5777 9.22623 75.9217 8.88224V8.89106Z" fill="#00083F"/>
<path d="M88.0937 5.6095C88.0937 5.6095 88.0055 5.67124 87.9526 5.67124H82.1753C82.1224 5.67124 82.0871 5.6977 82.0871 5.75944V8.92593C82.0871 8.97885 82.1136 9.01413 82.1753 9.01413H86.0562C86.1092 9.01413 86.1621 9.03177 86.1974 9.07587C86.2327 9.11997 86.2591 9.16407 86.2591 9.217V10.5048C86.2591 10.5577 86.2415 10.6106 86.1974 10.6459C86.1533 10.6812 86.1092 10.7076 86.0562 10.7076H82.1753C82.1224 10.7076 82.0871 10.7341 82.0871 10.7958V14.0682C82.0871 14.1211 82.1136 14.1564 82.1753 14.1564H87.9526C88.0055 14.1564 88.0585 14.174 88.0937 14.2181C88.129 14.2622 88.1555 14.3063 88.1555 14.3592V15.647C88.1555 15.6999 88.1378 15.7528 88.0937 15.7881C88.0496 15.8322 88.0055 15.8499 87.9526 15.8499H80.3319C80.279 15.8499 80.226 15.8322 80.1908 15.7881C80.1467 15.7528 80.129 15.6999 80.129 15.647V4.18061C80.129 4.12769 80.1467 4.07477 80.1908 4.03949C80.2349 4.00421 80.279 3.97775 80.3319 3.97775H87.9526C88.0055 3.97775 88.0585 3.99539 88.0937 4.03949C88.129 4.08359 88.1555 4.12769 88.1555 4.18061V5.46837C88.1555 5.5213 88.1378 5.57422 88.0937 5.6095Z" fill="#00083F"/>
<path d="M96.9405 4.03949C96.9405 4.03949 97.0287 3.97775 97.0816 3.97775H98.6428C98.6957 3.97775 98.7486 3.99539 98.7839 4.03949C98.8192 4.08359 98.8457 4.12769 98.8457 4.18061V15.6293C98.8457 15.6823 98.828 15.7352 98.7839 15.7705C98.7398 15.8146 98.6957 15.8322 98.6428 15.8322H97.1345C97.0199 15.8322 96.9405 15.7881 96.8964 15.6999L92.0188 7.70873C92.0188 7.70873 91.9747 7.66463 91.9482 7.66463C91.9217 7.66463 91.9129 7.69991 91.9129 7.74401L91.9482 15.6382C91.9482 15.6911 91.9306 15.744 91.8865 15.7793C91.8424 15.8234 91.7983 15.841 91.7453 15.841H90.1841C90.1312 15.841 90.0783 15.8234 90.043 15.7793C89.9989 15.744 89.9813 15.6911 89.9813 15.6382V4.18061C89.9813 4.12769 89.9989 4.07477 90.043 4.03949C90.0871 4.00421 90.1312 3.97775 90.1841 3.97775H91.6924C91.8071 3.97775 91.8865 4.02185 91.9306 4.11005L96.7905 12.1012C96.7905 12.1012 96.8346 12.1453 96.8611 12.1453C96.8876 12.1453 96.8964 12.1101 96.8964 12.0659L96.8787 4.17179C96.8787 4.11887 96.8964 4.06595 96.9405 4.03067V4.03949Z" fill="#00083F"/>
<path d="M61.3947 35.4664C60.7508 35.1312 60.2569 34.6638 59.9041 34.0728C59.5513 33.473 59.3749 32.7762 59.3749 31.9912V27.8104C59.3749 27.0166 59.5513 26.3286 59.9041 25.7288C60.2569 25.129 60.7508 24.6704 61.3947 24.344C62.0386 24.0177 62.7795 23.8501 63.6263 23.8501C64.473 23.8501 65.2051 24.0089 65.849 24.3264C66.4928 24.6439 66.9868 25.0849 67.3396 25.6671C67.6924 26.2404 67.8688 26.9107 67.8688 27.6693C67.8688 27.7222 67.8512 27.7751 67.8071 27.8104C67.763 27.8457 67.7189 27.8721 67.6659 27.8721L66.1048 27.9603C65.9724 27.9603 65.9019 27.8986 65.9019 27.7751C65.9019 27.1048 65.699 26.5756 65.2845 26.1698C64.8699 25.7641 64.3231 25.5612 63.6351 25.5612C62.9471 25.5612 62.3914 25.7641 61.9769 26.1698C61.5623 26.5756 61.3506 27.1136 61.3506 27.7751V32.0971C61.3506 32.7498 61.5623 33.279 61.9769 33.6847C62.3914 34.0904 62.9471 34.2933 63.6351 34.2933C64.3231 34.2933 64.8699 34.0904 65.2845 33.6935C65.699 33.2966 65.9019 32.7586 65.9019 32.0971C65.9019 31.9736 65.9724 31.9118 66.1048 31.9118L67.6659 31.9824C67.7189 31.9824 67.7718 32 67.8071 32.0353C67.8424 32.0706 67.8688 32.1059 67.8688 32.15C67.8688 32.9173 67.6924 33.5965 67.3396 34.1698C66.9868 34.752 66.4928 35.2018 65.849 35.5193C65.2051 35.8369 64.4642 35.9956 63.6263 35.9956C62.7883 35.9956 62.0386 35.828 61.3947 35.4929V35.4664Z" fill="#00083F"/>
<path d="M76.1687 35.6782L73.9372 30.8006C73.9107 30.7565 73.8843 30.73 73.8313 30.73H71.8027C71.7497 30.73 71.7145 30.7565 71.7145 30.8182V35.6253C71.7145 35.6782 71.6968 35.7311 71.6527 35.7664C71.6086 35.8017 71.5645 35.8282 71.5116 35.8282H69.9504C69.8975 35.8282 69.8446 35.8105 69.8093 35.7664C69.7652 35.7311 69.7475 35.6782 69.7475 35.6253V24.1766C69.7475 24.1236 69.7652 24.0707 69.8093 24.0354C69.8534 24.0002 69.8975 23.9737 69.9504 23.9737H74.6075C75.2955 23.9737 75.9041 24.1148 76.4333 24.4059C76.9625 24.697 77.3771 25.1027 77.6682 25.6231C77.9592 26.1523 78.1092 26.7521 78.1092 27.4224C78.1092 28.1986 77.9063 28.869 77.5094 29.4158C77.1125 29.9627 76.5568 30.3419 75.8424 30.5625C75.8159 30.5625 75.7983 30.5713 75.7894 30.5977C75.7806 30.6242 75.7806 30.6418 75.7894 30.6683L78.1797 35.5988C78.2062 35.6429 78.215 35.6782 78.215 35.7047C78.215 35.7929 78.1533 35.837 78.0298 35.837H76.4069C76.2922 35.837 76.2128 35.7841 76.1687 35.687V35.6782ZM71.7145 25.7554V29.1247C71.7145 29.1777 71.7409 29.2129 71.8027 29.2129H74.3429C74.8809 29.2129 75.322 29.0542 75.6571 28.7278C75.9923 28.4103 76.1599 27.9781 76.1599 27.4489C76.1599 26.9197 75.9923 26.4875 75.6571 26.1611C75.322 25.8348 74.8898 25.6672 74.3429 25.6672H71.8027C71.7497 25.6672 71.7145 25.6937 71.7145 25.7554Z" fill="#00083F"/>
<path d="M82.6957 35.7576C82.6957 35.7576 82.634 35.6694 82.634 35.6165V31.074C82.634 31.0299 82.634 30.9946 82.6163 30.9682L79.1235 24.2118C79.097 24.1677 79.0882 24.1325 79.0882 24.106C79.0882 24.0178 79.15 23.9737 79.2734 23.9737H80.9493C81.064 23.9737 81.1433 24.0266 81.1874 24.1236L83.5601 28.8513C83.5954 28.8954 83.6307 28.8954 83.6659 28.8513L86.0562 24.1236C86.1092 24.0178 86.1885 23.9737 86.2944 23.9737H87.9879C88.0673 23.9737 88.1202 24.0002 88.1467 24.0443C88.1731 24.0884 88.1731 24.1501 88.1467 24.2118L84.645 30.9682C84.6185 31.0123 84.6097 31.0476 84.6097 31.074V35.6165C84.6097 35.6694 84.5921 35.7223 84.548 35.7576C84.5039 35.7929 84.4598 35.8193 84.4068 35.8193H82.8457C82.7927 35.8193 82.7398 35.8017 82.7045 35.7576H82.6957Z" fill="#00083F"/>
<path d="M96.5877 24.4059C97.1257 24.6969 97.5491 25.1115 97.849 25.6495C98.1489 26.1876 98.2988 26.805 98.2988 27.5018C98.2988 28.1986 98.1489 28.7984 97.8402 29.3276C97.5314 29.8568 97.0992 30.2714 96.5436 30.5536C95.9879 30.8359 95.3352 30.9858 94.6031 30.9858H91.8953C91.8424 30.9858 91.8071 31.0123 91.8071 31.074V35.6253C91.8071 35.6782 91.7894 35.7311 91.7453 35.7664C91.7012 35.8105 91.6571 35.8281 91.6042 35.8281H90.043C89.9901 35.8281 89.9372 35.8105 89.9019 35.7664C89.8666 35.7311 89.8402 35.6782 89.8402 35.6253V24.1589C89.8402 24.106 89.8578 24.0531 89.9019 24.0178C89.9372 23.9825 89.9901 23.956 90.043 23.956H94.7001C95.4146 23.956 96.0408 24.106 96.5788 24.3971L96.5877 24.4059ZM95.8027 28.8866C96.1555 28.5514 96.3319 28.1016 96.3319 27.5459C96.3319 26.9902 96.1555 26.5227 95.8027 26.1699C95.4499 25.8171 94.9912 25.6407 94.4179 25.6407H91.8953C91.8424 25.6407 91.8071 25.6672 91.8071 25.7289V29.3011C91.8071 29.3541 91.8335 29.3893 91.8953 29.3893H94.4179C94.9912 29.3893 95.4587 29.2218 95.8027 28.8778V28.8866Z" fill="#00083F"/>
<path d="M108.098 24.0354C108.098 24.0354 108.16 24.1236 108.16 24.1766V25.482C108.16 25.5349 108.142 25.5878 108.098 25.6231C108.054 25.6584 108.01 25.6848 107.957 25.6848H104.843C104.791 25.6848 104.755 25.7113 104.755 25.773V35.6253C104.755 35.6782 104.738 35.7311 104.694 35.7664C104.649 35.8017 104.605 35.8282 104.552 35.8282H102.991C102.938 35.8282 102.885 35.8105 102.85 35.7664C102.806 35.7311 102.788 35.6782 102.788 35.6253V25.773C102.788 25.7201 102.762 25.6848 102.7 25.6848H99.7012C99.6483 25.6848 99.5954 25.6672 99.5601 25.6231C99.516 25.5878 99.4984 25.5349 99.4984 25.482V24.1766C99.4984 24.1236 99.516 24.0707 99.5601 24.0354C99.6042 24.0002 99.6483 23.9737 99.7012 23.9737H107.948C108.001 23.9737 108.054 23.9913 108.089 24.0354H108.098Z" fill="#00083F"/>
<path d="M111.529 35.484C110.877 35.14 110.365 34.6549 110.012 34.0199C109.659 33.3848 109.483 32.6615 109.483 31.8324V27.9691C109.483 27.1577 109.659 26.4344 110.021 25.8082C110.383 25.1819 110.885 24.6968 111.538 24.3528C112.191 24.0088 112.932 23.8324 113.778 23.8324C114.625 23.8324 115.393 24.0088 116.036 24.3528C116.689 24.6968 117.192 25.1819 117.553 25.8082C117.915 26.4344 118.092 27.1577 118.092 27.9691V31.8324C118.092 32.6527 117.915 33.3848 117.553 34.0199C117.192 34.6549 116.689 35.14 116.036 35.484C115.384 35.828 114.634 36.0044 113.778 36.0044C112.923 36.0044 112.182 35.828 111.529 35.484ZM115.498 33.6494C115.931 33.2084 116.142 32.6263 116.142 31.903V27.9603C116.142 27.2282 115.931 26.6373 115.498 26.1963C115.066 25.7553 114.502 25.5347 113.787 25.5347C113.073 25.5347 112.526 25.7553 112.094 26.1963C111.662 26.6373 111.45 27.2194 111.45 27.9603V31.903C111.45 32.6263 111.662 33.2084 112.094 33.6494C112.526 34.0904 113.09 34.3109 113.787 34.3109C114.484 34.3109 115.066 34.0904 115.498 33.6494Z" fill="#00083F"/>
<path d="M127.212 24.4059C127.75 24.6969 128.173 25.1115 128.473 25.6495C128.773 26.1876 128.923 26.805 128.923 27.5018C128.923 28.1986 128.773 28.7984 128.464 29.3276C128.155 29.8568 127.723 30.2714 127.168 30.5536C126.612 30.8359 125.959 30.9858 125.227 30.9858H122.519C122.466 30.9858 122.431 31.0123 122.431 31.074V35.6253C122.431 35.6782 122.413 35.7311 122.369 35.7664C122.325 35.8105 122.281 35.8281 122.228 35.8281H120.667C120.614 35.8281 120.561 35.8105 120.526 35.7664C120.482 35.7311 120.464 35.6782 120.464 35.6253V24.1589C120.464 24.106 120.482 24.0531 120.526 24.0178C120.561 23.9825 120.614 23.956 120.667 23.956H125.324C126.039 23.956 126.665 24.106 127.203 24.3971L127.212 24.4059ZM126.427 28.8866C126.78 28.5514 126.956 28.1016 126.956 27.5459C126.956 26.9902 126.78 26.5227 126.427 26.1699C126.074 25.8171 125.615 25.6407 125.042 25.6407H122.519C122.466 25.6407 122.431 25.6672 122.431 25.7289V29.3011C122.431 29.3541 122.458 29.3893 122.519 29.3893H125.042C125.615 29.3893 126.083 29.2218 126.427 28.8778V28.8866Z" fill="#00083F"/>
<path d="M136.773 35.6606L136.217 33.8524C136.191 33.8083 136.164 33.7819 136.129 33.7819H131.657C131.657 33.7819 131.595 33.8083 131.569 33.8524L131.013 35.6606C130.978 35.7752 130.907 35.8282 130.793 35.8282H129.099C129.029 35.8282 128.985 35.8105 128.949 35.7664C128.914 35.7311 128.905 35.6694 128.932 35.59L132.61 24.1413C132.645 24.0266 132.716 23.9737 132.83 23.9737H134.947C135.062 23.9737 135.132 24.0266 135.168 24.1413L138.863 35.59C138.863 35.59 138.881 35.6429 138.881 35.6782C138.881 35.7841 138.819 35.8282 138.696 35.8282H137.002C136.888 35.8282 136.817 35.7752 136.782 35.6606H136.773ZM132.169 32.2471H135.609C135.679 32.2471 135.697 32.2118 135.679 32.1413L133.933 26.4698C133.924 26.4257 133.906 26.3993 133.88 26.3993C133.853 26.3993 133.836 26.4257 133.827 26.4698L132.098 32.1413C132.089 32.2118 132.107 32.2471 132.169 32.2471Z" fill="#00083F"/>
<path d="M141.809 35.7576C141.809 35.7576 141.748 35.6694 141.748 35.6165V31.074C141.748 31.0299 141.748 30.9946 141.73 30.9682L138.237 24.2118C138.211 24.1677 138.202 24.1325 138.202 24.106C138.202 24.0178 138.264 23.9737 138.387 23.9737H140.063C140.178 23.9737 140.257 24.0266 140.301 24.1236L142.674 28.8513C142.709 28.8954 142.744 28.8954 142.78 28.8513L145.17 24.1236C145.223 24.0178 145.302 23.9737 145.408 23.9737H147.101C147.181 23.9737 147.234 24.0002 147.26 24.0443C147.287 24.0884 147.287 24.1501 147.26 24.2118L143.759 30.9682C143.732 31.0123 143.723 31.0476 143.723 31.074V35.6165C143.723 35.6694 143.706 35.7223 143.662 35.7576C143.617 35.7929 143.573 35.8193 143.52 35.8193H141.959C141.906 35.8193 141.853 35.8017 141.818 35.7576H141.809Z" fill="#00083F"/>
</g>
<defs>
<clipPath id="clip0_4097_599">
<rect width="146.875" height="40" fill="white" transform="translate(0.484863)"/>
</clipPath>
</defs>
</svg>
