<svg width="160" height="40" viewBox="0 0 160 40" fill="none" xmlns="http://www.w3.org/2000/svg">
<g clip-path="url(#clip0_4097_701)">
<path d="M54.4999 11.8701H61.0599C66.0499 11.8701 68.5399 13.8101 68.5399 17.7001C68.5399 21.5901 66.0399 23.5301 61.0599 23.5301H58.2099V29.2201H54.4899V11.8701H54.4999ZM64.7399 17.7001C64.7399 16.0001 63.5699 15.1501 61.2199 15.1501H58.2199V20.2601H61.2199C63.5699 20.2601 64.7399 19.4001 64.7399 17.7001Z" fill="black"/>
<path d="M71.2998 27.9097C70.0298 26.7997 69.3898 25.2597 69.3898 23.2697C69.3898 21.2797 70.0298 19.7497 71.2998 18.6497C72.6198 17.5797 74.2698 16.9897 75.9598 16.9897C77.6498 16.9897 79.3098 17.5797 80.6198 18.6497C81.8898 19.7597 82.5198 21.2997 82.5098 23.2897C82.5098 25.2697 81.8798 26.8197 80.6198 27.9297C79.2998 28.9997 77.6498 29.5897 75.9598 29.5897C74.2698 29.5897 72.6098 28.9997 71.2998 27.9297V27.9097ZM78.2198 25.5897C78.7498 24.9297 79.0398 24.1197 79.0398 23.2697C79.0398 22.4197 78.7498 21.6097 78.2198 20.9497C77.9298 20.6397 77.5798 20.4097 77.1898 20.2497C76.7998 20.0897 76.3798 20.0197 75.9598 20.0497C75.5398 20.0297 75.1298 20.0997 74.7398 20.2497C74.3498 20.4097 73.9998 20.6497 73.7198 20.9497C73.1998 21.6097 72.9098 22.4297 72.9098 23.2697C72.9098 24.1097 73.1898 24.9297 73.7198 25.5897C74.0098 25.8997 74.3498 26.1397 74.7398 26.2897C75.1298 26.4497 75.5498 26.5197 75.9598 26.4897C76.3798 26.5097 76.7898 26.4397 77.1798 26.2797C77.5698 26.1197 77.9098 25.8797 78.1998 25.5697H78.2098L78.2198 25.5897Z" fill="black"/>
<path d="M88.5499 13.38C88.5699 13.65 88.5299 13.92 88.4299 14.17C88.3299 14.42 88.1799 14.65 87.9799 14.83C87.5699 15.17 87.0499 15.35 86.5199 15.33C85.9999 15.35 85.4799 15.17 85.0799 14.83C84.8799 14.64 84.7299 14.42 84.6299 14.17C84.5299 13.92 84.4899 13.65 84.5099 13.38C84.4899 13.11 84.5399 12.85 84.6399 12.6C84.7399 12.35 84.8899 12.13 85.0899 11.94C85.4899 11.6 85.9999 11.43 86.5299 11.44C87.0599 11.42 87.5799 11.6 87.9899 11.94C88.1899 12.12 88.3399 12.35 88.4399 12.59C88.5399 12.84 88.5799 13.11 88.5599 13.38H88.5499ZM88.2499 29.23H84.8199V17.33H88.2599V29.23H88.2499Z" fill="black"/>
<path d="M94.2999 18.84C94.7799 18.25 95.3799 17.78 96.0699 17.46C96.7599 17.14 97.5099 16.98 98.2599 16.98C99.7799 16.98 100.96 17.44 101.81 18.35C102.68 19.31 103.14 20.57 103.09 21.86V29.23H99.6399V22.3C99.6599 21.98 99.6199 21.66 99.5099 21.35C99.3999 21.05 99.2299 20.77 99.0099 20.54C98.5499 20.13 97.9499 19.92 97.3399 19.95C96.2699 19.95 95.3799 20.45 94.6899 21.46V29.23H91.2499V17.33H94.2999V18.84Z" fill="black"/>
<path d="M106.64 13.8503L110.06 13.0303V17.3203H113.83V20.2403H110.06V24.8903C110.06 26.0803 110.7 26.6803 111.97 26.6803C112.71 26.6803 113.44 26.5503 114.12 26.2803V29.0503C113.09 29.4003 112.01 29.5803 110.92 29.5703C109.81 29.6203 108.72 29.2803 107.84 28.6003C107.04 27.9503 106.64 26.9403 106.64 25.5503V20.2203H104.63V17.3003H106.64V13.8403V13.8503Z" fill="black"/>
<path d="M116.5 11.8701H123.04C128.03 11.8701 130.53 13.8101 130.53 17.7001C130.53 21.5901 128.03 23.5301 123.04 23.5301H120.22V29.2201H116.5V11.8701ZM126.74 17.7001C126.74 16.0001 125.57 15.1501 123.22 15.1501H120.22V20.2601H123.22C125.56 20.2601 126.73 19.4001 126.73 17.7001H126.74Z" fill="black"/>
<path d="M141.56 27.4897C140.55 28.8897 139.11 29.5897 137.25 29.5897C135.39 29.5897 134.03 28.9797 132.99 27.7397C131.98 26.4797 131.43 24.9097 131.43 23.2897C131.43 21.6697 131.98 20.0997 132.99 18.8397C134.03 17.6097 135.45 16.9897 137.25 16.9897C139.05 16.9897 140.55 17.6797 141.56 19.0697V17.3297H144.59V29.2097H141.57V27.4697L141.56 27.4897ZM135.78 20.8597C135.24 21.5497 134.94 22.3997 134.94 23.2797C134.94 24.1597 135.24 25.0097 135.78 25.6997C136.06 26.0197 136.41 26.2797 136.81 26.4497C137.21 26.6197 137.63 26.6997 138.06 26.6797C138.74 26.6897 139.4 26.4897 139.96 26.1097C140.49 25.7597 140.9 25.2697 141.16 24.6997V21.8697C140.9 21.2897 140.48 20.8097 139.96 20.4597C139.4 20.0797 138.74 19.8797 138.06 19.8897C137.63 19.8697 137.2 19.9497 136.81 20.1197C136.42 20.2897 136.06 20.5497 135.78 20.8697V20.8597Z" fill="black"/>
<path d="M153.23 25.3601L156.18 17.3401H159.75L154.47 30.6801C153.3 33.5801 151.59 35.0201 149.34 35.0201C148.71 35.0001 148.09 34.9101 147.48 34.7501V31.9001C147.94 32.0001 148.42 32.0601 148.89 32.0701C150.14 32.0701 151.08 31.2001 151.71 29.4701L151.73 29.4201L146.1 17.3301H149.74L153.21 25.3601H153.23Z" fill="black"/>
<mask id="mask0_4097_701" style="mask-type:luminance" maskUnits="userSpaceOnUse" x="0" y="0" width="41" height="40">
<path d="M40.5899 0H0.359863V40H40.5899V0Z" fill="white"/>
</mask>
<g mask="url(#mask0_4097_701)">
<path fill-rule="evenodd" clip-rule="evenodd" d="M20.3599 0C3.88986 0 0.359863 3.53 0.359863 20C0.359863 36.47 3.88986 40 20.3599 40C36.8299 40 40.3599 36.47 40.3599 20C40.3599 3.53 36.8299 0 20.3599 0Z" fill="url(#paint0_linear_4097_701)"/>
<path fill-rule="evenodd" clip-rule="evenodd" d="M26.1199 9.48967C24.8999 8.92967 23.4599 8.65967 21.7799 8.65967H14.2099C13.9099 8.65967 13.6599 8.90967 13.6599 9.20967V24.8897C14.2799 24.4497 15.0399 24.1997 15.8599 24.1997C16.6799 24.1997 17.3899 24.4397 17.9999 24.8497V22.8697C17.9999 22.5597 18.2499 22.3197 18.5499 22.3197H21.7799C23.4599 22.3197 24.9099 22.0497 26.1199 21.5097C27.3399 20.9497 28.2699 20.1597 28.9399 19.1397C29.5999 18.1197 29.9299 16.9097 29.9299 15.4997C29.9299 14.0897 29.5999 12.8597 28.9399 11.8397C28.2799 10.8197 27.3399 10.0397 26.1199 9.49967V9.48967ZM24.5399 17.8897C23.8799 18.4597 22.8799 18.7497 21.5399 18.7497H18.5499C18.2499 18.7497 17.9999 18.4997 17.9999 18.1997V12.7597C17.9999 12.4497 18.2499 12.2097 18.5499 12.2097H21.5399C22.8799 12.2097 23.8799 12.4997 24.5399 13.0697C25.1999 13.6397 25.5299 14.4497 25.5299 15.4897C25.5299 16.5297 25.1999 17.3097 24.5399 17.8897Z" fill="white"/>
<path d="M19.1699 28.53C19.1699 30.36 17.6899 31.85 15.8599 31.85C14.0299 31.85 12.5499 30.36 12.5499 28.53C12.5499 26.7 14.0299 25.21 15.8599 25.21C17.6899 25.21 19.1699 26.7 19.1699 28.53Z" fill="white"/>
</g>
</g>
<defs>
<linearGradient id="paint0_linear_4097_701" x1="20.3599" y1="-20" x2="20.3599" y2="20" gradientUnits="userSpaceOnUse">
<stop stop-color="#5CC6F6"/>
<stop offset="1" stop-color="#007AFF"/>
</linearGradient>
<clipPath id="clip0_4097_701">
<rect width="159.38" height="40" fill="white" transform="translate(0.359863)"/>
</clipPath>
</defs>
</svg>
