<svg width="145" height="126" viewBox="0 0 145 126" fill="none" xmlns="http://www.w3.org/2000/svg">
<g clip-path="url(#clip0_4308_1393)">
<path d="M144.191 71.9762C149.815 59.3611 122.013 24.1164 95.452 9.43316C78.71 -1.94195 61.2645 -0.379192 57.7314 4.61533C49.9776 15.5763 83.4068 24.8639 105.764 35.7022C100.958 37.798 96.4289 41.5595 93.7657 46.3693C85.4311 37.2325 67.1369 29.3641 45.6711 35.7022C31.2058 39.9735 19.1837 50.0423 14.5373 65.2506C13.4084 64.7467 12.1583 64.4669 10.8432 64.4669C5.81426 64.4669 1.73743 68.5601 1.73743 73.6101C1.73743 78.6597 5.81426 82.7534 10.8432 82.7534C11.7754 82.7534 14.6899 82.1252 14.6899 82.1252L61.2645 82.4642C42.6385 112.134 27.9184 116.471 27.9184 121.612C27.9184 126.752 42.0026 125.359 47.2914 123.443C72.6072 114.271 99.7976 85.6852 104.464 77.4563C124.058 79.9111 140.524 80.2012 144.191 71.9762Z" fill="url(#paint0_linear_4308_1393)"/>
<path fill-rule="evenodd" clip-rule="evenodd" d="M105.761 35.704C105.763 35.7045 105.764 35.705 105.765 35.706C106.801 35.296 106.634 33.7589 106.349 32.5521C105.695 29.7783 94.4109 18.5897 83.8143 13.5779C69.3754 6.74949 58.7431 7.10108 57.1713 10.248C60.1124 16.3012 73.7484 21.9843 87.9896 27.9198C94.0655 30.4524 100.252 33.0305 105.764 35.703C105.763 35.7035 105.762 35.7035 105.761 35.704Z" fill="url(#paint1_linear_4308_1393)"/>
<path fill-rule="evenodd" clip-rule="evenodd" d="M87.4383 96.6253C84.5183 95.505 81.2196 94.4767 77.4693 93.5438C81.4681 86.3593 82.3071 75.7235 78.5304 68.9989C73.2309 59.5617 66.5777 54.5391 51.1179 54.5391C42.615 54.5391 19.7218 57.4146 19.3152 76.6041C19.2727 78.6177 19.3142 80.463 19.4591 82.16L61.2644 82.4638C55.6283 91.4417 50.3503 98.1002 45.7288 103.163C51.2774 104.59 55.8563 105.789 60.0595 106.889C64.048 107.933 67.6989 108.889 71.5201 109.868C77.2839 105.651 82.7028 101.053 87.4383 96.6253Z" fill="url(#paint2_linear_4308_1393)"/>
<path d="M13.9794 80.1876C15.6872 94.7649 23.9378 100.478 40.7977 102.169C57.6571 103.859 67.3282 102.725 80.2031 103.901C90.9562 104.884 100.558 110.386 104.12 108.485C107.325 106.773 105.532 100.591 101.243 96.6244C95.6824 91.4829 87.9873 87.9077 74.4466 86.6392C77.145 79.2205 76.3892 68.8185 72.1982 63.1594C66.1384 54.9765 54.9538 51.2767 40.7977 52.8935C26.0076 54.5822 11.8361 61.8934 13.9794 80.1876Z" fill="url(#paint3_linear_4308_1393)"/>
</g>
<defs>
<linearGradient id="paint0_linear_4308_1393" x1="43.9868" y1="60.8047" x2="143.04" y2="88.7794" gradientUnits="userSpaceOnUse">
<stop stop-color="white"/>
<stop offset="1" stop-color="white"/>
</linearGradient>
<linearGradient id="paint1_linear_4308_1393" x1="126.31" y1="58.9152" x2="54.5887" y2="-12.6873" gradientUnits="userSpaceOnUse">
<stop stop-color="#8697FF"/>
<stop offset="1" stop-color="#8697FF" stop-opacity="0"/>
</linearGradient>
<linearGradient id="paint2_linear_4308_1393" x1="89.4255" y1="99.13" x2="20.6713" y2="59.7628" gradientUnits="userSpaceOnUse">
<stop stop-color="#8697FF"/>
<stop offset="1" stop-color="#8697FF" stop-opacity="0"/>
</linearGradient>
<linearGradient id="paint3_linear_4308_1393" x1="49.8969" y1="60.0628" x2="96.5102" y2="119.048" gradientUnits="userSpaceOnUse">
<stop stop-color="white"/>
<stop offset="0.983895" stop-color="#D1D8FF"/>
</linearGradient>
<clipPath id="clip0_4308_1393">
<rect width="145" height="125.921" fill="white" transform="translate(0 0.0393066)"/>
</clipPath>
</defs>
</svg>
