<svg width="191" height="40" viewBox="0 0 191 40" fill="none" xmlns="http://www.w3.org/2000/svg">
<g clip-path="url(#clip0_4441_1681)">
<g clip-path="url(#clip1_4441_1681)">
<path d="M45.7329 22.867C47.5306 18.8377 38.6439 7.58048 30.1539 2.89052C24.8025 -0.742742 19.2262 -0.2436 18.097 1.35168C15.6184 4.8527 26.3039 7.81923 33.4501 11.2809C31.9139 11.9505 30.4662 13.1517 29.615 14.6881C26.9509 11.7699 21.1034 9.25657 14.242 11.2809C9.61825 12.6452 5.7756 15.8613 4.29039 20.7189C3.92952 20.558 3.52997 20.4686 3.10961 20.4686C1.50215 20.4686 0.199036 21.7761 0.199036 23.3889C0.199036 25.0019 1.50215 26.3094 3.10961 26.3094C3.40757 26.3094 4.33916 26.1088 4.33916 26.1088L19.2262 26.217C13.2726 35.6938 8.56747 37.0791 8.56747 38.7209C8.56747 40.3627 13.0695 39.9178 14.7598 39.3058C22.8518 36.3763 31.5431 27.2458 33.0345 24.6175C39.2975 25.4016 44.5609 25.4942 45.7329 22.867Z" fill="url(#paint0_linear_4441_1681)"/>
<path fill-rule="evenodd" clip-rule="evenodd" d="M33.4494 11.2815C33.4498 11.2816 33.4503 11.282 33.4506 11.2821C33.7819 11.1512 33.7283 10.6602 33.6373 10.2748C33.4283 9.38882 29.8214 5.81507 26.4342 4.21431C21.8187 2.03314 18.4202 2.14557 17.918 3.1509C18.8581 5.08428 23.2167 6.89945 27.7687 8.79523C29.7108 9.60414 31.6881 10.4276 33.4502 11.2812C33.4502 11.2812 33.4497 11.2815 33.4494 11.2815Z" fill="url(#paint1_linear_4441_1681)"/>
<path fill-rule="evenodd" clip-rule="evenodd" d="M27.5925 30.74C26.6591 30.3821 25.6047 30.0538 24.4059 29.7558C25.6841 27.4611 25.9523 24.0639 24.7451 21.9161C23.0511 18.9017 20.9245 17.2974 15.9831 17.2974C13.2652 17.2974 5.94749 18.216 5.81765 24.3452C5.8039 24.9883 5.81718 25.5777 5.86359 26.1197L19.2262 26.2167C17.4248 29.0844 15.7376 31.2111 14.2605 32.8281C16.0341 33.2841 17.4975 33.6669 18.8411 34.0185C20.1161 34.3519 21.283 34.6571 22.5044 34.9699C24.3469 33.623 26.0789 32.1542 27.5925 30.74Z" fill="url(#paint2_linear_4441_1681)"/>
<path d="M4.11208 25.49C4.65796 30.1461 7.29527 31.9708 12.6842 32.5108C18.0732 33.0508 21.1645 32.6886 25.2798 33.0642C28.717 33.378 31.7861 35.1355 32.9246 34.5282C33.9492 33.9816 33.3761 32.0069 32.005 30.7399C30.2276 29.0977 27.7679 27.9558 23.4398 27.5506C24.3025 25.1811 24.0607 21.8586 22.7211 20.051C20.7842 17.4374 17.209 16.2556 12.6842 16.7721C7.95683 17.3114 3.42701 19.6467 4.11208 25.49Z" fill="url(#paint3_linear_4441_1681)"/>
<path d="M60.1336 20.4791H60.8978C61.6964 20.4791 62.309 20.2977 62.7359 19.9347C63.1628 19.5719 63.3762 19.0502 63.3762 18.3698C63.3762 17.6894 63.1628 17.1678 62.7359 16.805C62.309 16.442 61.6964 16.2606 60.8978 16.2606H60.1336V20.4791ZM69.0353 29.9366H63.9958L60.1336 23.3594V29.9366H56.0854V12.8359H62.3848C63.2523 12.8359 64.0097 12.9797 64.6567 13.2669C65.3039 13.5391 65.834 13.917 66.247 14.4009C66.6739 14.8847 66.9906 15.4442 67.1972 16.0792C67.4175 16.7142 67.5276 17.3945 67.5276 18.1203C67.5276 19.4206 67.2384 20.4791 66.6601 21.2955C66.0956 22.0969 65.2558 22.6413 64.1404 22.9284L69.0353 29.9366Z" fill="#8697FF"/>
<path d="M72.3661 24.0852C72.3661 24.4632 72.4279 24.8185 72.5518 25.1512C72.6759 25.4687 72.8411 25.7483 73.0476 25.9902C73.2679 26.2322 73.5226 26.4212 73.8118 26.5572C74.1147 26.6933 74.4382 26.7615 74.7825 26.7615C75.1129 26.7615 75.4228 26.6933 75.712 26.5572C76.0148 26.4212 76.2697 26.2322 76.4761 25.9902C76.6964 25.7483 76.8686 25.4687 76.9925 25.1512C77.1301 24.8337 77.199 24.4935 77.199 24.1305C77.199 23.7677 77.1301 23.4274 76.9925 23.1099C76.8686 22.7772 76.6964 22.4901 76.4761 22.2482C76.2697 22.0062 76.0148 21.8172 75.712 21.6812C75.4228 21.5451 75.1129 21.4771 74.7825 21.4771C74.4382 21.4771 74.1147 21.5451 73.8118 21.6812C73.5226 21.8172 73.2679 22.0062 73.0476 22.2482C72.8411 22.4901 72.6759 22.7697 72.5518 23.0872C72.4279 23.3897 72.3661 23.7222 72.3661 24.0852ZM77.0751 18.3019H80.834V29.9366H77.0751V28.6438C76.2765 29.7476 75.1956 30.2994 73.8325 30.2994C73.0614 30.2994 72.3523 30.1482 71.7051 29.8458C71.0579 29.5283 70.4934 29.0899 70.0115 28.5304C69.5297 27.971 69.1509 27.3133 68.8756 26.5572C68.614 25.8013 68.4831 24.9772 68.4831 24.0852C68.4831 23.2537 68.614 22.4674 68.8756 21.7265C69.1372 20.9705 69.502 20.3127 69.9703 19.7533C70.4384 19.194 70.9961 18.7555 71.6431 18.4379C72.2903 18.1054 73.0064 17.939 73.7912 17.939C75.1129 17.939 76.2076 18.4455 77.0751 19.4585V18.3019Z" fill="#8697FF"/>
<path d="M90.5861 24.1531C90.5861 23.7903 90.5242 23.4501 90.4003 23.1325C90.2764 22.8 90.1042 22.5126 89.8839 22.2707C89.6636 22.0289 89.4089 21.8398 89.1197 21.7037C88.8306 21.5525 88.5139 21.477 88.1697 21.477C87.8392 21.477 87.5294 21.545 87.2403 21.6811C86.9511 21.8171 86.6964 22.0061 86.4761 22.2481C86.2695 22.49 86.0975 22.7771 85.9597 23.1098C85.8358 23.4273 85.7739 23.7676 85.7739 24.1304C85.7739 24.4934 85.8358 24.8336 85.9597 25.1511C86.0836 25.4686 86.2558 25.7482 86.4761 25.9901C86.6964 26.217 86.9511 26.4061 87.2403 26.5571C87.5431 26.6932 87.8598 26.7614 88.1903 26.7614C88.5208 26.7614 88.8306 26.6932 89.1197 26.5571C89.4089 26.4211 89.6567 26.2321 89.8633 25.9901C90.0836 25.7482 90.2556 25.4686 90.3797 25.1511C90.5173 24.8336 90.5861 24.5009 90.5861 24.1531ZM85.8772 11.1123V19.4584C86.7583 18.4454 87.8598 17.9389 89.1817 17.9389C89.9665 17.9389 90.6825 18.1053 91.3297 18.4378C91.9906 18.7554 92.5483 19.1939 93.0026 19.7532C93.4708 20.2976 93.8356 20.9478 94.0973 21.7037C94.3589 22.4446 94.4897 23.2384 94.4897 24.0851C94.4897 24.947 94.352 25.7559 94.0765 26.5118C93.815 27.2678 93.4433 27.9256 92.9612 28.485C92.4794 29.0443 91.9079 29.4904 91.247 29.8231C90.6 30.1406 89.8976 30.2993 89.1404 30.2993C87.7634 30.2993 86.6758 29.7475 85.8772 28.6437V29.9365H82.1387V11.1123H85.8772Z" fill="#8697FF"/>
<path d="M103.829 24.1531C103.829 23.7903 103.767 23.4501 103.643 23.1325C103.519 22.8 103.347 22.5126 103.126 22.2707C102.906 22.0289 102.651 21.8398 102.362 21.7037C102.073 21.5525 101.756 21.477 101.412 21.477C101.082 21.477 100.772 21.545 100.483 21.6811C100.194 21.8171 99.9389 22.0061 99.7186 22.2481C99.512 22.49 99.34 22.7771 99.2023 23.1098C99.0784 23.4273 99.0164 23.7676 99.0164 24.1304C99.0164 24.4934 99.0784 24.8336 99.2023 25.1511C99.3262 25.4686 99.4983 25.7482 99.7186 25.9901C99.9389 26.217 100.194 26.4061 100.483 26.5571C100.786 26.6932 101.102 26.7614 101.433 26.7614C101.763 26.7614 102.073 26.6932 102.362 26.5571C102.651 26.4211 102.899 26.2321 103.106 25.9901C103.326 25.7482 103.498 25.4686 103.622 25.1511C103.76 24.8336 103.829 24.5009 103.829 24.1531ZM99.1197 11.1123V19.4584C100.001 18.4454 101.102 17.9389 102.424 17.9389C103.209 17.9389 103.925 18.1053 104.572 18.4378C105.233 18.7554 105.791 19.1939 106.245 19.7532C106.713 20.2976 107.078 20.9478 107.34 21.7037C107.601 22.4446 107.732 23.2384 107.732 24.0851C107.732 24.947 107.595 25.7559 107.319 26.5118C107.057 27.2678 106.686 27.9256 106.204 28.485C105.722 29.0443 105.15 29.4904 104.49 29.8231C103.843 30.1406 103.14 30.2993 102.383 30.2993C101.006 30.2993 99.9183 29.7475 99.1197 28.6437V29.9365H95.3814V11.1123H99.1197Z" fill="#8697FF"/>
<path d="M111.901 28.3488L106.779 18.3018H111.116L113.945 24.2664L116.692 18.3018H120.988L112.479 35.7424H108.286L111.901 28.3488Z" fill="#8697FF"/>
<path d="M129.773 12.8359L132.458 23.8809L135.762 12.8359H138.984L142.289 23.8809L144.974 12.8359H149.208L144.561 29.9366H140.43L137.373 20.0255L134.317 29.9366H130.186L125.539 12.8359H129.773Z" fill="#8697FF"/>
<path d="M152.022 24.0852C152.022 24.4632 152.085 24.8185 152.208 25.1512C152.333 25.4687 152.497 25.7483 152.705 25.9902C152.926 26.2322 153.18 26.4212 153.469 26.5572C153.772 26.6933 154.096 26.7615 154.44 26.7615C154.769 26.7615 155.08 26.6933 155.369 26.5572C155.672 26.4212 155.927 26.2322 156.133 25.9902C156.354 25.7483 156.526 25.4687 156.649 25.1512C156.787 24.8337 156.855 24.4935 156.855 24.1305C156.855 23.7677 156.787 23.4274 156.649 23.1099C156.526 22.7772 156.354 22.4901 156.133 22.2482C155.927 22.0062 155.672 21.8172 155.369 21.6812C155.08 21.5451 154.769 21.4771 154.44 21.4771C154.096 21.4771 153.772 21.5451 153.469 21.6812C153.18 21.8172 152.926 22.0062 152.705 22.2482C152.497 22.4901 152.333 22.7697 152.208 23.0872C152.085 23.3897 152.022 23.7222 152.022 24.0852ZM156.732 18.3019H160.491V29.9366H156.732V28.6438C155.933 29.7476 154.852 30.2994 153.49 30.2994C152.718 30.2994 152.01 30.1482 151.362 29.8458C150.715 29.5283 150.151 29.0899 149.668 28.5304C149.187 27.971 148.808 27.3133 148.532 26.5572C148.271 25.8013 148.14 24.9772 148.14 24.0852C148.14 23.2537 148.271 22.4674 148.532 21.7265C148.794 20.9705 149.158 20.3127 149.627 19.7533C150.096 19.194 150.654 18.7555 151.301 18.4379C151.947 18.1054 152.663 17.939 153.447 17.939C154.769 17.939 155.865 18.4455 156.732 19.4585V18.3019Z" fill="#8697FF"/>
<path d="M165.533 11.1123V29.9365H161.796V11.1123H165.533Z" fill="#8697FF"/>
<path d="M170.588 11.1123V29.9365H166.849V11.1123H170.588Z" fill="#8697FF"/>
<path d="M179.649 22.4292C179.524 21.8547 179.269 21.3934 178.883 21.0458C178.499 20.698 178.03 20.524 177.48 20.524C176.901 20.524 176.426 20.6905 176.055 21.0231C175.696 21.3556 175.469 21.8244 175.372 22.4292H179.649ZM175.269 24.8106C175.269 26.5795 176.027 27.464 177.541 27.464C178.354 27.464 178.966 27.1012 179.38 26.3755H182.994C182.265 29.0365 180.44 30.367 177.521 30.367C176.626 30.367 175.807 30.2234 175.063 29.9362C174.319 29.6337 173.679 29.2105 173.143 28.6661C172.619 28.1219 172.213 27.4717 171.924 26.7156C171.635 25.9597 171.49 25.113 171.49 24.1755C171.49 23.2078 171.627 22.3384 171.904 21.5673C172.179 20.7811 172.571 20.1159 173.08 19.5715C173.59 19.0272 174.202 18.6114 174.919 18.3242C175.649 18.0217 176.468 17.8706 177.377 17.8706C178.271 17.8706 179.077 18.0217 179.793 18.3242C180.508 18.6114 181.115 19.0348 181.61 19.5942C182.107 20.1536 182.485 20.8415 182.746 21.6581C183.008 22.4594 183.138 23.3665 183.138 24.3797V24.8106H175.269Z" fill="#8697FF"/>
<path d="M188.349 21.7264V29.9366H184.612V21.7264H183.372V18.3019H184.612V14.8091H188.349V18.3019H190.477V21.7264H188.349Z" fill="#8697FF"/>
</g>
</g>
<defs>
<linearGradient id="paint0_linear_4441_1681" x1="13.7036" y1="19.2989" x2="45.3617" y2="28.2464" gradientUnits="userSpaceOnUse">
<stop stop-color="#8697FF"/>
<stop offset="1" stop-color="#ABB7FF"/>
</linearGradient>
<linearGradient id="paint1_linear_4441_1681" x1="40.0178" y1="18.6954" x2="17.1094" y2="-4.19191" gradientUnits="userSpaceOnUse">
<stop stop-color="#8697FF"/>
<stop offset="1" stop-color="#5156D8" stop-opacity="0"/>
</linearGradient>
<linearGradient id="paint2_linear_4441_1681" x1="28.2276" y1="31.54" x2="6.25905" y2="18.9521" gradientUnits="userSpaceOnUse">
<stop stop-color="#465EED"/>
<stop offset="1" stop-color="#8697FF" stop-opacity="0"/>
</linearGradient>
<linearGradient id="paint3_linear_4441_1681" x1="15.5926" y1="19.0619" x2="30.4789" y2="37.9127" gradientUnits="userSpaceOnUse">
<stop stop-color="#8898FF"/>
<stop offset="0.983895" stop-color="#6277F1"/>
</linearGradient>
<clipPath id="clip0_4441_1681">
<rect width="190.303" height="40" fill="white" transform="translate(0.199036)"/>
</clipPath>
<clipPath id="clip1_4441_1681">
<rect width="190.312" height="40" fill="white" transform="translate(0.199036)"/>
</clipPath>
</defs>
</svg>
