<svg width="55" height="16" viewBox="0 0 55 16" fill="none" xmlns="http://www.w3.org/2000/svg">
<g clip-path="url(#clip0_6001_1567)">
<g clip-path="url(#clip1_6001_1567)">
<path d="M54.4193 14.7991L50.1153 0.66387C49.996 0.268532 49.6305 0 49.2202 0H43.4841C43.0738 0 42.7083 0.268532 42.589 0.66387L41.6044 3.95338C41.5522 3.64009 41.4776 3.35664 41.3955 3.11049C40.8958 1.69324 39.9037 0.745921 38.4417 0.290909C37.8375 0.0895105 37.017 0 35.9428 0H28.8566C28.3419 0 27.9242 0.417716 27.9242 0.932401V1.43963C26.589 0.544522 25.0076 0.0671329 23.3592 0.0671329C21.7107 0.0671329 20.1219 0.551981 18.7643 1.462C17.6305 2.22284 16.7205 3.24476 16.1088 4.43823H15.1018C14.7363 4.43823 14.4081 4.64709 14.2515 4.98275V5.00513C14.2515 4.90816 14.2515 4.81865 14.2515 4.74406C14.2515 1.79021 12.6179 0.731002 11.2529 0.365501C10.5368 0.171562 9.41789 0.0820513 7.83654 0.0820513C6.8743 0.0820513 5.98666 0.119347 5.18106 0.18648C4.09202 0.275991 3.16708 0.581818 2.43608 1.10396C1.86172 1.4993 1.45146 2.05874 1.20531 2.78228C0.988989 3.41632 0.877101 4.21445 0.877101 5.20653C0.877101 6.54918 1.08596 7.55618 1.51113 8.27972C1.8095 8.80932 2.26451 9.22704 2.86871 9.54033H1.79458C1.2799 9.54033 0.862183 9.95804 0.862183 10.4727C0.862183 11.7557 0.959152 12.6359 1.16801 13.2401C1.57081 14.4037 2.43608 15.2168 3.6743 15.5972C4.54703 15.8657 5.99412 15.9925 8.09015 15.9925C9.35076 15.9925 10.2682 15.9329 10.9097 15.8135C12.6104 15.4928 13.7368 14.6872 14.2589 13.4117C14.4379 12.979 14.5498 12.4196 14.6095 11.7184H16.1759C17.5708 14.3217 20.3307 15.9702 23.3592 15.9702C24.9927 15.9702 26.5741 15.4928 27.9242 14.5977V15.0601C27.9242 15.5748 28.3419 15.9925 28.8566 15.9925H32.6608C33.1755 15.9925 33.5932 15.5748 33.5932 15.0601V12.345H34.9284C34.9284 12.345 34.9508 12.345 34.9582 12.345L35.5848 12.3226C37.4272 12.2928 37.7032 12.2629 37.8226 12.2406C38.3447 12.1734 38.8146 12.0392 39.2398 11.8452L38.3522 14.7916C38.2701 15.0751 38.3223 15.3809 38.4939 15.6196C38.6729 15.8583 38.9489 15.9925 39.2398 15.9925H43.1783C43.596 15.9925 43.9615 15.7166 44.0734 15.3138L44.5657 13.5534H48.2505L48.7801 15.3287C48.8995 15.724 49.265 15.9925 49.6752 15.9925H53.5317C53.83 15.9925 54.106 15.8508 54.2776 15.6121C54.4566 15.3734 54.5088 15.0676 54.4193 14.7841V14.7991Z" fill="white"/>
<path d="M12.8791 7.64563C12.3345 7.12348 11.4544 6.80274 10.246 6.68339C9.86554 6.64609 8.91076 6.5715 7.38162 6.46707L6.66554 6.41486C6.35225 6.39248 6.09864 6.32535 5.91216 6.21346C5.64363 6.04936 5.51682 5.71369 5.51682 5.19901C5.51682 4.63211 5.66601 4.25915 5.96437 4.09504C6.26274 3.92348 6.8744 3.84143 7.79934 3.84143C8.72428 3.84143 9.32848 3.99061 9.54479 4.28152C9.67906 4.48292 9.74619 4.8708 9.74619 5.45262H13.2819C13.3042 5.13933 13.3192 4.9081 13.3192 4.75145C13.3192 2.84936 12.5509 1.68572 11.0068 1.27546C10.3728 1.1039 9.31356 1.02185 7.82918 1.02185C6.88186 1.02185 6.02405 1.05915 5.25575 1.12628C4.32335 1.20087 3.56251 1.45448 2.96577 1.87966C2.55552 2.15565 2.26461 2.56591 2.07813 3.09551C1.89165 3.63257 1.80214 4.3412 1.80214 5.22884C1.80214 6.39248 1.9737 7.26521 2.30936 7.83957C2.69724 8.51835 3.46554 8.96591 4.62918 9.18222C5.06927 9.25682 5.85249 9.33887 6.98629 9.41346C8.39608 9.51043 9.18675 9.58502 9.35085 9.63723C9.80587 9.7715 10.0296 10.1519 10.0296 10.771C10.0296 11.047 9.99981 11.2783 9.94759 11.4498C9.84316 11.7333 9.6343 11.9421 9.3061 12.0689C9.12708 12.1361 8.7019 12.1734 8.03803 12.1734H6.74013C6.39701 12.1659 6.09864 12.0988 5.85249 11.9794C5.5019 11.8004 5.32288 11.4125 5.32288 10.7934C5.32288 10.7263 5.32288 10.6293 5.32288 10.5025H1.79468C1.79468 11.6512 1.87673 12.4717 2.04829 12.9715C2.35412 13.8591 2.98815 14.4484 3.94293 14.7393C4.72615 14.978 6.1061 15.0974 8.08279 15.0974C9.2688 15.0974 10.1564 15.0452 10.7308 14.9333C12.1108 14.6797 12.9909 14.0605 13.3863 13.0983C13.6026 12.5687 13.7145 11.7407 13.7145 10.5995C13.7145 10.1072 13.6921 9.65961 13.6399 9.27173C13.5578 8.61532 13.3042 8.08572 12.8716 7.67546L12.8791 7.64563Z" fill="#10298E"/>
<path d="M49.2279 0.932007H43.4917L39.2474 15.0672H43.1859L43.8721 12.6206H48.9593L49.6829 15.0672H53.5393L49.2428 0.932007H49.2279ZM44.6777 9.86814L46.4083 3.74413L48.191 9.86814H44.6777Z" fill="#10298E"/>
<path d="M40.4783 9.18189C40.702 8.55532 40.8214 7.52595 40.8214 6.09378C40.8214 4.90031 40.717 4.0052 40.5081 3.41592C40.1053 2.28212 39.3221 1.5362 38.1585 1.1707C37.6512 1.01406 36.9053 0.932007 35.9356 0.932007H28.8494V15.0672H32.6536V11.4197H34.9212L35.5552 11.3973C36.8009 11.3749 37.5095 11.3525 37.6736 11.3227C39.0834 11.1362 40.0233 10.4201 40.4783 9.18189ZM36.8531 7.22012C36.7785 7.59308 36.6293 7.83923 36.4055 7.96604C36.2414 8.05555 35.7864 8.11522 35.033 8.14506H32.661V4.02758H35.0629C35.4508 4.02758 35.6969 4.02758 35.8013 4.04996C36.3235 4.13947 36.6517 4.38562 36.786 4.78842C36.8829 5.07933 36.9277 5.51942 36.9277 6.11616C36.9277 6.601 36.9053 6.97396 36.8531 7.22012Z" fill="#10298E"/>
<path d="M23.598 2.92419C25.1644 2.92419 26.5667 3.64773 27.4917 4.78153L28.3122 3.02116C27.0292 1.80531 25.2838 1.05939 23.3593 1.05939C20.3607 1.05939 17.7947 2.87197 16.743 5.43048H15.1467L14.1994 7.45193H16.2581C16.2432 7.63841 16.2357 7.82489 16.2357 8.01883C16.2357 8.25006 16.2507 8.4813 16.273 8.70508H15.2362L14.2889 10.7265H16.7952C17.8768 13.2254 20.4129 14.9783 23.3593 14.9783C24.8437 14.9783 26.2236 14.5307 27.3723 13.7699V11.286C26.4549 12.3302 25.1047 12.9941 23.6054 12.9941C21.8525 12.9941 20.3085 12.0916 19.4134 10.7191H24.6572L25.6045 8.69762H18.6451C18.6078 8.45146 18.5928 8.20531 18.5928 7.95169C18.5928 7.78013 18.6003 7.60857 18.6152 7.44447H26.1863L27.1336 5.42302H19.2716C20.1444 3.92372 21.763 2.90927 23.6129 2.90927" fill="#FFBE00"/>
</g>
</g>
<defs>
<clipPath id="clip0_6001_1567">
<rect width="53.5944" height="16" fill="white" transform="translate(0.862183)"/>
</clipPath>
<clipPath id="clip1_6001_1567">
<rect width="53.5944" height="16" fill="white" transform="translate(0.862183)"/>
</clipPath>
</defs>
</svg>
