<svg width="200" height="34" viewBox="0 0 200 34" fill="none" xmlns="http://www.w3.org/2000/svg">
<path fill-rule="evenodd" clip-rule="evenodd" d="M159.394 33.3056H1.29846V1.01172H159.428L159.393 33.3056H159.394Z" fill="#CC2229"/>
<path fill-rule="evenodd" clip-rule="evenodd" d="M193.58 11.9102C195.329 16.2721 194.295 22.1005 191.077 25.5082C189.521 26.9007 187.848 28.3644 185.691 27.906C184.514 27.6148 183.669 26.7491 183.376 25.5721C183.122 24.5504 183.186 23.567 183.312 22.5068L192.065 22.4904L191.828 22.1726C187.411 16.6684 183.906 10.4538 181.56 3.90959C179.039 10.5378 175.502 17.0857 171.292 22.5242L179.869 22.505C179.819 23.7167 180.085 25.1968 179.556 26.2378C179.023 27.3783 177.77 27.9444 176.614 27.97C173.154 27.6275 170.853 24.4125 169.537 21.3709C168.006 17.6336 168.569 12.5019 170.978 9.30696C174.327 4.60629 180.244 2.70703 185.755 4.50859C189.117 5.62532 192.104 8.3902 193.58 11.9093V11.9102ZM196.023 9.37636C198.896 14.771 197.988 22.0685 194.396 26.7062C190.227 31.963 182.935 34.2631 176.487 32.1082C170.415 30.2491 165.721 24.3175 165.406 17.5103C165.032 11.1569 168.585 5.3103 173.734 2.51254C178.757 -0.321746 185.893 -0.0542058 190.701 3.31151C192.841 4.74234 194.734 6.99132 196.023 9.37636Z" fill="#27824D"/>
<path fill-rule="evenodd" clip-rule="evenodd" d="M59.2154 9.71062C59.4872 10.2704 59.6295 10.8794 59.6112 11.6281L42.1356 11.6336C41.6021 11.6336 40.7658 11.9404 40.4594 12.6435C40.0772 13.5183 40.5177 14.5245 41.3832 14.9099C41.7289 15.0642 42.3399 15.0441 42.3399 15.0441H55.0531C57.3276 15.2066 59.3549 16.6804 60.1383 19.1101C60.8196 21.224 60.4685 22.9826 59.0813 24.7102C57.4799 26.7045 55.2884 26.7291 52.8734 26.7245L38.8068 26.7081C37.2801 26.7081 35.9951 25.1914 35.7772 23.6309L35.7681 22.842L54.339 22.8612C54.96 22.8612 55.7562 21.9965 55.7772 21.1098C55.8009 20.152 55.1452 19.2435 54.1985 19.2435H40.8205C38.5068 19.2435 36.1484 17.0502 35.769 14.3109C35.4616 12.0938 36.1839 10.4174 37.8884 8.9847C39.1753 7.9045 40.1538 7.59587 41.9523 7.59313L54.3244 7.57669C56.2396 7.54108 58.3189 7.87254 59.2145 9.70971L59.2154 9.71062ZM88.1393 7.6607C91.1306 7.66344 93.5556 10.7671 93.4735 14.0141C93.3951 17.1479 90.6883 20.0424 88.2049 20.0424H77.7708C76.2441 19.8525 75.0713 18.7349 74.4685 17.4428C74.2624 16.9369 74.2505 16.2266 74.194 15.6988L74.733 15.7097H87.3458C87.8903 15.7097 88.4092 15.2075 88.6673 14.5766C88.9026 13.9986 88.8889 13.5311 88.6007 12.9768C88.2834 12.3632 87.7115 11.977 87.1479 11.977H73.0813L72.95 12.1112V24.681C72.95 25.8507 71.9386 26.7118 70.7448 26.688C69.6988 26.6688 68.7229 25.8142 68.7229 24.7029V11.2446C68.7229 10.1325 69.1415 9.47504 69.9259 8.72538C70.6582 8.04146 71.6185 7.65613 72.619 7.64518L88.1365 7.6607H88.1393ZM110.784 12.7357C112.17 14.6807 113.695 16.5553 115.017 18.5769H105.688L110.329 12.7111C110.329 12.7111 110.453 12.5129 110.573 12.5239C110.689 12.5349 110.784 12.7357 110.784 12.7357ZM114.599 10.5552C117.006 13.9328 121.865 20.2698 124.33 23.84C124.64 24.65 124.277 25.5174 123.868 26.1739C123.203 26.8003 122.115 26.9327 121.357 26.5739C120.167 25.501 119.342 24.166 118.386 22.9744L102.338 22.9397L100.441 25.5348C99.8429 26.3529 99.0832 26.9154 97.9131 26.7045C97.3048 26.5812 96.7275 26.0635 96.5269 25.5055C96.2159 24.7824 96.2505 24.0984 96.6582 23.4374L106.83 9.84028C107.682 8.5528 108.603 7.63148 110.196 7.64152C112.704 7.6744 112.873 8.31083 114.6 10.5525L114.599 10.5552ZM150.677 7.6607C152.883 7.66344 154.948 9.35086 155.776 11.7815C156.666 14.3885 155.847 16.6959 153.847 18.576C153.404 18.9951 152.593 19.5083 152.593 19.5083L155.351 23.4931C155.603 23.8565 155.683 24.5806 155.448 25.207C155.23 25.7877 154.942 26.1274 154.376 26.3721C153.608 26.7045 152.593 26.3967 152.265 25.9904C152.265 25.9904 149.629 22.7498 148.169 20.9062C147.913 20.635 147.779 20.3839 147.508 20.1082L140.479 20.1429C138.737 20.1502 136.678 18.0464 136.678 16.3717V15.7243L149.767 15.7079C150.257 15.707 150.807 15.245 151.074 14.6405C151.317 14.0954 151.312 13.6552 151.074 13.1083C150.788 12.4545 150.143 11.9906 149.635 11.9916L135.397 12.0327L135.358 12.176V24.9805C135.358 25.8343 134.191 26.9318 133.048 26.8222C131.993 26.7227 131.128 25.6379 131.131 24.8837L131.147 11.3104C131.15 9.89598 131.557 9.34721 132.441 8.56833C133.303 7.81045 134.082 7.64244 135.225 7.64426L150.678 7.65979L150.677 7.6607Z" fill="white"/>
</svg>
