<svg width="151" height="150" viewBox="0 0 151 150" fill="none" xmlns="http://www.w3.org/2000/svg">
<g clip-path="url(#clip0_4630_12984)">
<path d="M80.0228 42.1062C79.8107 41.3468 79.2989 40.7291 78.569 40.3494C78.7265 38.6468 78.4963 36.5585 78.0995 34.8378C77.7512 33.4275 77.2212 31.8485 76.4034 30.1941C75.5433 28.5729 74.4802 26.8372 72.987 25.2431C71.5696 23.5887 69.7433 22.0911 67.6777 20.7621C49.7052 9.41963 24.8787 22.8384 26.808 40.3584C26.0841 40.7321 25.5753 41.3558 25.3693 42.1092C21.1109 42.1815 17.6885 45.3305 17.6885 49.2148C17.6885 53.0991 21.1109 56.2512 25.3693 56.3265C25.7025 57.553 26.8686 58.4841 28.3193 58.4841C30.0427 58.4841 31.4329 57.2155 31.4329 55.6485V42.7872C31.4329 41.8922 30.9573 41.1328 30.2547 40.6115C31.03 36.1848 33.341 31.505 36.5847 28.6031C41.3489 23.9865 49.6143 21.3136 58.6975 23.3266C62.1866 24.3632 65.6302 26.1079 68.4954 28.8923C71.6847 31.746 74.2742 36.0251 75.1192 40.6145C73.2808 41.9706 73.9411 43.1458 73.9411 55.6485C73.9411 56.6248 74.5196 57.4505 75.3525 57.9598V59.0446C75.3525 59.7377 75.1556 60.4157 74.78 60.9973C70.7124 67.2984 70.4459 67.9402 64.3067 69.8929C62.3774 70.5107 60.1967 70.7758 57.9888 71.3092C55.9656 69.3083 52.3735 70.6252 52.3735 73.3011C52.3735 76.6701 57.6677 77.4445 58.6975 74.0665C60.1846 73.7079 61.7171 73.497 63.1618 73.057C71.082 70.6644 73.6685 69.239 77.8602 61.2806C78.257 60.5272 78.469 59.6925 78.469 58.8397V58.1346C79.2444 57.7699 79.8047 57.116 80.0228 56.3235C84.269 56.2421 87.6885 53.0961 87.6885 49.2118C87.6885 45.3275 84.266 42.1875 80.0228 42.1062Z" fill="url(#paint0_linear_4630_12984)"/>
<path d="M70.7124 45.8581C70.2491 51.8247 68.3561 59.4607 62.0654 65.3308C56.7318 70.309 48.5936 70.4356 43.3448 65.3369C36.0668 58.2644 33.7771 49.2814 34.9007 39.5872C35.4944 34.5096 38.6019 30.5168 43.8264 28.8112C51.589 26.283 59.1033 26.0389 65.9483 31.4359C69.9401 34.588 70.8548 38.9152 70.7094 45.8581" fill="url(#paint1_linear_4630_12984)"/>
<path fill-rule="evenodd" clip-rule="evenodd" d="M150 109.905L128.239 127.996L150 146.087V109.905ZM148.912 148.904C148.306 149.466 147.496 149.811 146.613 149.811H88.4512C87.5706 149.811 86.7634 149.468 86.1602 148.913L109.081 129.857L112.582 132.769C113.961 133.914 115.766 134.484 117.561 134.475C119.354 134.466 121.161 133.885 122.549 132.729L126.003 129.857L148.913 148.905L148.912 148.904ZM85.0645 146.103L106.846 127.997L85.0645 109.891V146.103ZM86.1602 107.08C86.764 106.522 87.5712 106.183 88.4518 106.183H146.613C147.5 106.183 148.31 106.529 148.913 107.089L125.106 126.883L125.074 126.909L120.719 130.531C119.856 131.249 118.708 131.609 117.553 131.614C116.401 131.62 115.262 131.272 114.416 130.571L110.015 126.912L109.977 126.879L86.1602 107.08Z" fill="url(#paint2_linear_4630_12984)"/>
<path d="M7.06934 1.48438H97.4414L97.7139 1.49121C100.501 1.63274 102.72 3.93463 102.72 6.69141V97.2549L91.6543 87.6328L91.2354 87.2686H7.06934C4.15578 87.2684 1.79199 84.9059 1.79199 82.0596V6.69141C1.79214 3.84558 4.15548 1.48456 7.06934 1.48438Z" stroke="url(#paint3_linear_4630_12984)" stroke-width="2.96846"/>
</g>
<defs>
<linearGradient id="paint0_linear_4630_12984" x1="52.6885" y1="16.5727" x2="68.8947" y2="86.5002" gradientUnits="userSpaceOnUse">
<stop stop-color="#F5516C"/>
<stop offset="1" stop-color="#443051"/>
</linearGradient>
<linearGradient id="paint1_linear_4630_12984" x1="52.6885" y1="16.5727" x2="68.8947" y2="86.5002" gradientUnits="userSpaceOnUse">
<stop stop-color="#F5516C"/>
<stop offset="1" stop-color="#443051"/>
</linearGradient>
<linearGradient id="paint2_linear_4630_12984" x1="117.532" y1="106.183" x2="117.532" y2="149.811" gradientUnits="userSpaceOnUse">
<stop stop-color="#F5516C"/>
<stop offset="1" stop-color="#443051"/>
</linearGradient>
<linearGradient id="paint3_linear_4630_12984" x1="52.2557" y1="1.4199e-06" x2="85.9236" y2="116.727" gradientUnits="userSpaceOnUse">
<stop stop-color="#F5516C"/>
<stop offset="1" stop-color="#443051"/>
</linearGradient>
<clipPath id="clip0_4630_12984">
<rect width="150" height="150" fill="white" transform="translate(0.307617)"/>
</clipPath>
</defs>
</svg>
