<svg width="256" height="256" viewBox="0 0 256 256" fill="none" xmlns="http://www.w3.org/2000/svg">
<circle cx="128" cy="128" r="128" fill="url(#paint0_linear_4804_4017)"/>
<path d="M85.0006 191.717H170.999C177.199 191.717 181.487 190.682 183.864 188.613C186.288 186.593 187.5 183.76 187.5 180.115C187.5 175.385 186.102 170.434 183.305 165.261C180.508 160.038 176.5 155.161 171.279 150.629C166.105 146.096 159.859 142.426 152.541 139.618C145.27 136.76 137.089 135.331 128 135.331C118.957 135.331 110.777 136.76 103.459 139.618C96.1408 142.426 89.8715 146.096 84.651 150.629C79.4305 155.161 75.4219 160.038 72.6251 165.261C69.875 170.434 68.5 175.385 68.5 180.115C68.5 183.76 69.6886 186.593 72.0658 188.613C74.4896 190.682 78.8012 191.717 85.0006 191.717ZM128 122.399C133.267 122.399 138.068 120.921 142.403 117.965C146.738 115.009 150.187 111.043 152.751 106.067C155.361 101.042 156.666 95.4257 156.666 89.2181C156.666 83.2569 155.361 77.8129 152.751 72.8863C150.141 67.9597 146.668 64.0676 142.333 61.2102C137.998 58.3035 133.221 56.8501 128 56.8501C122.826 56.8501 118.048 58.3035 113.667 61.2102C109.332 64.1169 105.859 68.0336 103.249 72.9602C100.685 77.8868 99.4036 83.3554 99.4036 89.3659C99.4036 95.5242 100.685 101.091 103.249 106.067C105.859 111.043 109.332 115.009 113.667 117.965C118.002 120.921 122.779 122.399 128 122.399Z" fill="url(#paint1_linear_4804_4017)"/>
<defs>
<linearGradient id="paint0_linear_4804_4017" x1="128" y1="0" x2="128" y2="256" gradientUnits="userSpaceOnUse">
<stop stop-color="#7C3A56"/>
<stop offset="0.923077" stop-color="#072440"/>
</linearGradient>
<linearGradient id="paint1_linear_4804_4017" x1="128" y1="56.8501" x2="128" y2="191.717" gradientUnits="userSpaceOnUse">
<stop stop-color="white"/>
<stop offset="1" stop-color="#D3DAE5"/>
</linearGradient>
</defs>
</svg>
