<svg width="157" height="33" viewBox="0 0 157 33" fill="none" xmlns="http://www.w3.org/2000/svg">
<g clip-path="url(#clip0_4368_3798)">
<path d="M18.9726 25.103V14.7525H23.9388V10.4797H18.9726V4.82007H14.1491L13.1804 10.4797H0.484375V14.7525H13.0376V26.0616C13.0376 30.7525 15.5156 32.4045 19.9312 32.4045C22.0013 32.4045 23.2454 31.9864 24.3467 31.7111V27.163C23.5207 27.4383 22.5519 27.7136 21.4506 27.7136C19.6558 27.7136 18.9726 26.8876 18.9726 25.0929V25.103Z" fill="#4DD0E1"/>
<path d="M32.4836 12.6925V10.3471H26.6914V32.0067H32.6264V16.6899C33.7277 15.8639 35.3899 15.1705 37.5926 15.1705C38.5614 15.1705 39.3874 15.3133 39.9381 15.4458V10.3369C39.52 10.1941 38.8367 10.0615 38.1433 10.0615C35.7978 10.0615 33.8705 11.0303 32.4836 12.6823V12.6925Z" fill="#4DD0E1"/>
<path d="M53.7353 18.7601H46.1483C46.4236 15.9966 47.943 14.4873 50.2885 14.4873C52.6339 14.4873 53.7353 16.5574 53.7353 18.6275V18.7703V18.7601ZM50.2783 10.0718C43.5173 10.0718 39.9277 15.1808 39.9277 21.2483C39.9277 27.8666 43.2419 32.4249 51.2368 32.4249C53.8576 32.4249 56.3458 31.8742 58.1304 31.1808V26.6326C56.611 27.3261 54.2655 28.0093 51.6448 28.0093C47.372 28.0093 46.1279 25.6639 45.9851 22.0743H59.3643C59.3643 21.3809 59.5071 20.5549 59.5071 20.0042C59.5071 14.8952 57.1616 10.0718 50.2681 10.0718H50.2783Z" fill="#4DD0E1"/>
<path d="M67.7983 10.4797H61.8633V32.1394H67.7983V10.4797Z" fill="#4DD0E1"/>
<path d="M64.904 0.689941C62.8339 0.689941 61.3145 2.20938 61.3145 4.00415C61.3145 5.9315 62.8339 7.45094 64.904 7.45094C66.9741 7.45094 68.4935 5.9315 68.4935 4.00415C68.4935 2.20938 66.9741 0.689941 64.904 0.689941Z" fill="#4DD0E1"/>
<path d="M80.3509 27.8665C79.3821 27.8665 78.2808 27.7238 77.5873 27.4484V15.7212C78.2808 15.1705 79.5147 14.6199 80.7588 14.6199C84.2056 14.6199 85.4497 17.3834 85.4497 21.1055C85.3069 25.2457 83.7977 27.8665 80.3407 27.8665H80.3509ZM82.6963 10.0717C80.2183 10.0717 78.4235 11.1731 77.5873 11.9991V2.06665H71.6523V30.8952C73.855 31.7212 77.1692 32.4146 80.2081 32.4146C87.7951 32.4146 91.5172 27.1731 91.5172 20.9628C91.5172 14.7524 89.0392 10.0616 82.6861 10.0616L82.6963 10.0717Z" fill="#4DD0E1"/>
<path d="M144.637 9.929V8.6849C144.637 6.48222 145.463 5.64602 147.676 5.64602C148.92 5.64602 149.746 5.92135 150.439 6.06412V1.79134C149.471 1.516 147.951 1.0979 146.167 1.0979C141.476 1.0979 138.722 3.30058 138.722 7.99146V10.0616H128.096V23.3082C128.096 26.2043 127.403 27.9991 124.232 27.9991C121.06 27.9991 120.367 26.2043 120.367 23.3082V10.0616H114.432V23.3082C114.432 29.5185 118.154 32.69 124.221 32.69C130.289 32.69 133.736 29.6511 133.736 23.3082V14.3446H138.702V32.1393H144.637V14.3446H156.915V10.0718H144.637V9.929Z" fill="#4DD0E1"/>
<path d="M104.776 26.7653C104.083 27.4587 103.124 28.0094 101.737 28.0094C99.9426 28.0094 98.8413 27.1834 98.8413 25.5212C98.8413 23.4511 100.218 22.6251 103.389 22.6251C103.94 22.6251 104.491 22.6251 104.766 22.7678V26.7653H104.776ZM110.701 26.0719V17.1082C110.701 11.7239 107.662 9.37842 101.87 9.37842C99.1064 9.37842 96.761 9.92909 95.2517 10.6225V15.3134C96.4959 14.7627 98.6985 14.2121 100.911 14.2121C103.808 14.2121 104.909 15.1808 104.909 17.8016V19.3211C104.491 19.3211 103.808 19.1783 103.114 19.1783C97.1791 19.1783 93.1816 21.1056 93.1816 25.9393C93.1816 30.2121 96.0778 32.2822 100.075 32.2822C102.839 32.2822 104.766 31.0381 105.735 29.6614C106.428 31.3134 107.805 32.2822 110.008 32.2822C111.66 32.2822 112.496 31.8641 113.047 31.5887V27.7239C112.771 27.7239 112.496 27.8666 112.221 27.8666C111.252 27.8666 110.701 27.4485 110.701 26.0719Z" fill="#4DD0E1"/>
</g>
<defs>
<clipPath id="clip0_4368_3798">
<rect width="156.431" height="32" fill="white" transform="translate(0.484375 0.689941)"/>
</clipPath>
</defs>
</svg>
