<svg width="158" height="40" viewBox="0 0 158 40" fill="none" xmlns="http://www.w3.org/2000/svg">
<g clip-path="url(#clip0_4438_1173)">
<path d="M97.2554 12.2505H113.621V16.5569L104.72 28.6158H113.621V33.6876H97.2554V29.3811L106.156 17.3222H97.2554V12.2505Z" fill="#1A1A1A"/>
<path d="M152.476 25.7444C154.484 24.9781 156.591 22.9686 156.591 19.4275C156.591 15.121 153.625 12.3452 149.222 12.3452H139.174V33.6871H144.724V26.5097H146.83L150.754 33.6871H157.166L152.476 25.7444ZM148.552 21.5331H144.724V17.2267H148.552C149.987 17.2267 150.945 18.0882 150.945 19.3323C150.945 20.6716 149.987 21.5331 148.552 21.5331Z" fill="#1A1A1A"/>
<path d="M125.68 11.9624C119.171 11.9624 114.58 16.6515 114.58 22.9685C114.58 29.2854 119.267 33.9745 125.68 33.9745C132.092 33.9745 136.877 29.2844 136.877 22.9685C136.877 16.6526 132.187 11.9624 125.68 11.9624ZM125.68 28.9979C122.426 28.9979 120.224 26.5096 120.224 22.9727C120.224 19.3364 122.426 16.9475 125.68 16.9475C128.933 16.9475 131.23 19.4358 131.23 22.9727C131.23 26.5096 128.933 28.9979 125.68 28.9979Z" fill="#1A1A1A"/>
<path d="M79.0719 12.2505H94.5757V17.2271H84.6225V20.3845H94.2882V25.266H84.6225V28.7109H94.5757V33.6876H79.0719V12.2505Z" fill="#1A1A1A"/>
<path d="M24.0427 9.28305C24.0427 4.20919 19.64 0 14.2808 0C8.92151 0 4.51888 4.21131 4.51888 9.28305V12.2502H0.502075V33.5921L14.2808 40L28.0627 33.5879V12.3411H24.0458L24.0427 9.28305ZM9.49549 9.28305C9.49549 6.89094 11.6011 4.97661 14.2808 4.97661C16.9604 4.97661 19.0661 6.89094 19.0661 9.28305V12.2502H9.49549V9.28305ZM22.511 30.1461L14.2808 33.9748L6.05055 30.1461V17.322H22.511V30.1461Z" fill="#1A1A1A"/>
<path d="M76.4884 19.4275C76.4884 15.121 73.5212 12.3452 69.1186 12.3452H59.0703V33.6871H64.6208V26.5097H66.7265L70.6503 33.6871H77.0645L72.3743 25.7444C74.3827 24.9781 76.4884 22.9686 76.4884 19.4275ZM68.4484 21.5331H64.6208V17.2267H68.4484C69.8839 17.2267 70.8416 18.0882 70.8416 19.3323C70.8416 20.6716 69.8839 21.5331 68.4484 21.5331Z" fill="#1A1A1A"/>
<path d="M39.2601 12.2505H56.582V17.3222H50.6488V33.6876H45.0971V17.3222H39.2601V12.2505Z" fill="#1A1A1A"/>
</g>
<defs>
<clipPath id="clip0_4438_1173">
<rect width="156.664" height="40" fill="white" transform="translate(0.502075)"/>
</clipPath>
</defs>
</svg>
