<svg width="146" height="146" viewBox="0 0 146 146" fill="none" xmlns="http://www.w3.org/2000/svg">
<g clip-path="url(#clip0_4308_1441)">
<g clip-path="url(#clip1_4308_1441)">
<path d="M107.585 34.1511C107.585 15.7583 91.6252 0.5 72.1978 0.5C52.7705 0.5 36.8109 15.766 36.8109 34.1511V44.907H22.25V122.271L72.1978 145.5L122.157 122.256V45.2365H107.596L107.585 34.1511ZM54.8511 34.1511C54.8511 25.4797 62.4841 18.5402 72.1978 18.5402C81.9115 18.5402 89.5445 25.4797 89.5445 34.1511V44.907H54.8511V34.1511ZM102.032 109.78L72.1978 123.659L42.3632 109.78V63.2921H102.032V109.78Z" fill="white"/>
</g>
</g>
<defs>
<clipPath id="clip0_4308_1441">
<rect width="145" height="145" fill="white" transform="translate(0.5 0.5)"/>
</clipPath>
<clipPath id="clip1_4308_1441">
<rect width="145" height="145" fill="white" transform="translate(0.5 0.5)"/>
</clipPath>
</defs>
</svg>
