<svg width="20" height="21" viewBox="0 0 20 21" fill="none" xmlns="http://www.w3.org/2000/svg">
<path fill-rule="evenodd" clip-rule="evenodd" d="M10.75 1.7998C10.75 1.24752 10.3023 0.799805 9.75 0.799805C9.19771 0.799805 8.75 1.24752 8.75 1.7998V9.5498H1C0.447715 9.5498 0 9.99752 0 10.5498C0 11.1021 0.447715 11.5498 1 11.5498H8.75L8.75 19.2998C8.75 19.8521 9.19771 20.2998 9.75 20.2998C10.3023 20.2998 10.75 19.8521 10.75 19.2998L10.75 11.5498L18.5 11.5498C19.0523 11.5498 19.5 11.1021 19.5 10.5498C19.5 9.99752 19.0523 9.5498 18.5 9.5498L10.75 9.5498V1.7998Z" fill="#272B38"/>
</svg>
