<svg width="150" height="92" viewBox="0 0 150 92" fill="none" xmlns="http://www.w3.org/2000/svg">
<g clip-path="url(#clip0_4308_1417)">
<path d="M30.7018 18.0285C55.1368 -5.90077 94.7449 -5.90077 119.212 18.0285L122.151 20.905C123.384 22.1062 123.384 24.0345 122.151 25.2357L112.099 35.0982C111.499 35.6988 110.487 35.6988 109.886 35.0982L105.84 31.1469C88.8021 14.4565 61.1428 14.4565 44.1047 31.1469L39.7741 35.3827C39.1735 35.9833 38.1619 35.9833 37.5613 35.3827L27.4775 25.5202C26.2447 24.319 26.2447 22.3907 27.4775 21.1895L30.7018 18.0285ZM140.011 38.3857L148.957 47.1418C150.19 48.343 150.19 50.2713 148.957 51.4725L108.59 91.0174C107.358 92.2186 105.398 92.2186 104.165 91.0174L75.4941 62.9471C75.1779 62.6627 74.7038 62.6627 74.3877 62.9471L45.7485 91.0174C44.5156 92.2186 42.5558 92.2186 41.323 91.0174L0.924611 51.5041C-0.308204 50.3029 -0.308204 48.3747 0.924611 47.1735L9.87041 38.4173C11.1032 37.2161 13.0631 37.2161 14.2959 38.4173L42.9667 66.4875C43.2828 66.772 43.757 66.772 44.0731 66.4875L72.7123 38.4173C73.9451 37.2161 75.905 37.2161 77.1378 38.4173L105.809 66.4875C106.125 66.772 106.599 66.772 106.915 66.4875L135.586 38.4173C136.787 37.1845 138.779 37.1845 140.011 38.3857Z" fill="white"/>
</g>
<defs>
<clipPath id="clip0_4308_1417">
<rect width="150" height="91.8367" fill="white" transform="translate(0 0.081543)"/>
</clipPath>
</defs>
</svg>
