<svg width="432" height="400" viewBox="0 0 432 400" fill="none" xmlns="http://www.w3.org/2000/svg">
<g clip-path="url(#clip0_4203_1702)">
<rect x="0.410645" width="210.589" height="195" rx="12.1673" fill="white" fill-opacity="0.02"/>
<rect x="0.910645" y="0.5" width="209.589" height="194" rx="11.6673" stroke="white" stroke-opacity="0.1"/>
<path d="M114.791 130.668H107.157V120.347L98.4483 121.315C96.513 121.53 95.7604 122.175 95.7604 123.357C95.7604 125.078 97.3731 125.723 100.706 125.723C104.039 125.723 105.114 125.4 107.157 124.863L103.179 130.453C101.566 130.776 100.061 130.991 98.4483 130.991C91.5673 130.991 87.5893 128.196 87.5893 123.357C87.5893 118.519 90.7072 116.799 97.6957 115.939L106.942 114.864C106.404 112.176 104.362 110.993 100.384 110.993C96.4055 110.993 92.4274 111.961 88.6644 113.789L89.8471 107.123C93.2875 105.617 97.3731 104.865 101.351 104.865C110.167 104.865 114.791 108.52 114.791 115.724V130.668ZM46.3035 97.2312L38.0249 130.668H46.3035L50.3891 113.896L57.4851 122.497H66.1938L73.3973 113.896L77.4829 130.668H85.7615L77.4829 97.2312L61.8932 115.939L46.3035 97.2312ZM77.5904 63.7941L62.0007 82.5017L46.3035 63.7941L38.0249 97.2312H46.3035L50.3891 80.4589L57.4851 89.0601H66.1938L73.3973 80.4589L77.4829 97.2312H85.7615L77.5904 63.7941ZM134.681 115.509L128.015 114.541C126.295 114.326 125.65 113.789 125.65 112.821C125.65 111.316 127.262 110.671 130.595 110.671C133.928 110.671 138.014 111.423 141.669 113.251L140.702 106.693C137.691 105.617 134.358 105.08 130.81 105.08C122.532 105.08 118.016 107.983 118.016 113.143C118.016 118.304 120.489 119.487 125.757 120.239L132.53 121.315C134.251 121.53 135.003 122.282 135.003 123.357C135.003 124.863 133.391 125.615 130.165 125.615C126.94 125.615 121.349 124.54 117.586 122.712L118.339 129.271C121.564 130.453 125.757 131.206 129.735 131.206C138.229 131.206 142.637 128.196 142.637 122.927C142.637 117.659 140.164 116.369 134.681 115.616V115.509ZM145.647 100.242V130.668H153.281V100.242H145.647ZM162.097 117.014L172.634 105.51H163.172L153.173 117.444L163.817 130.776H173.386L161.99 117.121L162.097 117.014ZM144.572 90.0277C144.572 94.9734 148.55 97.6613 155.431 97.6613C162.312 97.6613 158.657 97.4463 160.162 97.1237L164.14 91.5329C162.097 92.0705 159.839 92.3931 157.689 92.3931C154.248 92.3931 152.743 91.6404 152.743 90.0277C152.743 88.415 153.603 88.2 155.431 87.9849L164.14 87.0173V97.3387H171.773V82.5017C171.773 75.4057 167.258 71.6427 158.334 71.6427C149.41 71.6427 150.378 72.3953 146.83 73.9005L145.647 80.5664C149.41 78.7387 153.603 77.771 157.366 77.771C161.129 77.771 163.495 78.9537 163.925 81.6416L154.679 82.7167C147.69 83.4693 144.572 85.8346 144.572 90.1352V90.0277ZM123.284 88.415C123.284 94.5434 126.832 97.6613 133.821 97.6613C140.809 97.6613 138.874 97.2312 141.132 96.1561L142.099 89.3826C139.949 90.6728 137.799 91.3179 135.648 91.3179C132.423 91.3179 130.918 90.0277 130.918 87.0173V78.0936H142.422V71.8577H130.918V66.697L116.511 74.4381V78.2011H123.392V88.415H123.284ZM115.866 85.6196V87.1248H95.3303C96.298 90.2428 98.9858 91.6404 103.932 91.6404C108.877 91.6404 111.458 90.8878 114.683 89.2751L113.715 95.8335C110.705 97.1237 106.942 97.7688 103.179 97.7688C92.965 97.7688 87.3742 93.2532 87.3742 84.7595C87.3742 76.2658 93.0725 71.6427 101.781 71.6427C110.49 71.6427 115.866 76.8034 115.866 85.7271V85.6196ZM95.2228 81.9641H108.232C107.587 78.9537 105.329 77.4485 101.674 77.4485C98.0182 77.4485 95.9754 78.9537 95.2228 81.9641Z" fill="white"/>
<rect x="221" width="210.589" height="92.5" rx="12.1673" fill="white" fill-opacity="0.02"/>
<rect x="221.5" y="0.5" width="209.589" height="91.5" rx="11.6673" stroke="white" stroke-opacity="0.1"/>
<path d="M305.19 47.4768L303.1 55.2719H300.925L298.016 43.858H300.405L302.136 52.122H302.196L304.252 43.858H306.197L308.252 52.122H308.312L310.052 43.858H312.441L309.523 55.2719H307.348L305.258 47.4768H305.19ZM315.614 53.7323C316.578 53.7323 317.38 53.0776 317.38 52.1574V51.538L315.657 51.6442C314.829 51.7062 314.351 52.0955 314.351 52.6971C314.351 53.343 314.855 53.7323 315.614 53.7323ZM314.88 55.4046C313.328 55.4046 312.142 54.3606 312.142 52.8387C312.142 51.2992 313.285 50.4055 315.324 50.2728L317.38 50.1489V49.5915C317.38 48.804 316.842 48.3439 316.006 48.3439C315.179 48.3439 314.65 48.7686 314.539 49.3968H312.5C312.586 47.7511 313.933 46.6186 316.1 46.6186C318.199 46.6186 319.563 47.7423 319.563 49.4499V55.2807H317.414V53.9801H317.371C316.91 54.8737 315.904 55.4046 314.88 55.4046ZM321.056 43.858H323.282V55.2719H321.056V43.858ZM324.835 43.858H327.061V55.2719H324.835V43.858ZM332.231 48.3174C331.258 48.3174 330.55 49.0872 330.473 50.1401H333.945C333.903 49.0606 333.22 48.3174 332.231 48.3174ZM333.979 52.6794H336.027C335.779 54.3429 334.321 55.4577 332.299 55.4577C329.783 55.4577 328.273 53.7854 328.273 51.078C328.273 48.3705 329.8 46.6186 332.214 46.6186C334.594 46.6186 336.095 48.2908 336.095 50.8656V51.5734H330.465V51.715C330.465 52.9272 331.207 53.7589 332.342 53.7589C333.143 53.7412 333.766 53.3253 333.979 52.6794ZM337.826 44.8401H340.053V46.7955H341.563V48.5386H340.053V52.591C340.053 53.2369 340.36 53.5465 341.017 53.5465C341.213 53.5465 341.418 53.5288 341.554 53.5111V55.21C341.324 55.263 340.94 55.3073 340.496 55.3073C338.577 55.3073 337.826 54.6437 337.826 52.9891V48.5386H336.675V46.7955H337.826V44.8401ZM347.832 55.4665C344.634 55.4665 342.629 53.2457 342.629 49.5561C342.629 45.8753 344.651 43.6545 347.832 43.6545C350.477 43.6545 352.49 45.3976 352.669 47.9458H350.426C350.212 46.5478 349.172 45.6276 347.832 45.6276C346.092 45.6276 344.975 47.1406 344.975 49.5384C344.975 51.9716 346.084 53.4758 347.841 53.4758C349.206 53.4758 350.187 52.644 350.434 51.2903H352.678C352.413 53.8562 350.536 55.4665 347.832 55.4665ZM357.651 55.4489C355.177 55.4489 353.599 53.8031 353.599 51.0249C353.599 48.282 355.202 46.6097 357.651 46.6097C360.099 46.6097 361.702 48.2731 361.702 51.0249C361.702 53.812 360.124 55.4489 357.651 55.4489ZM357.651 53.6881C358.742 53.6881 359.433 52.7325 359.433 51.0337C359.433 49.3526 358.734 48.3793 357.651 48.3793C356.567 48.3793 355.859 49.3526 355.859 51.0337C355.859 52.7325 356.559 53.6881 357.651 53.6881ZM362.846 55.2719V46.7955H364.995V48.3085H365.038C365.473 47.2556 366.334 46.6363 367.597 46.6363C369.414 46.6363 370.429 47.8219 370.429 49.8038V55.2719H368.202V50.2905C368.202 49.1845 367.699 48.5474 366.701 48.5474C365.703 48.5474 365.072 49.3084 365.072 50.4055V55.2719H362.846ZM371.836 55.2719V46.7955H373.986V48.3085H374.029C374.464 47.2556 375.325 46.6363 376.579 46.6363C378.396 46.6363 379.411 47.8219 379.411 49.8038V55.2719H377.185V50.2905C377.185 49.1845 376.681 48.5474 375.683 48.5474C374.685 48.5474 374.054 49.3084 374.054 50.4055V55.2719H371.836ZM384.504 48.3174C383.531 48.3174 382.823 49.0872 382.746 50.1401H386.218C386.176 49.0606 385.493 48.3174 384.504 48.3174ZM386.244 52.6794H388.291C388.044 54.3429 386.585 55.4577 384.563 55.4577C382.047 55.4577 380.537 53.7854 380.537 51.078C380.537 48.3705 382.064 46.6186 384.478 46.6186C386.858 46.6186 388.359 48.2908 388.359 50.8656V51.5734H382.729V51.715C382.729 52.9272 383.471 53.7589 384.606 53.7589C385.416 53.7412 386.039 53.3253 386.244 52.6794ZM396.924 49.9454H394.859C394.731 49.0518 394.16 48.4236 393.247 48.4236C392.147 48.4236 391.464 49.388 391.464 51.0249C391.464 52.6971 392.147 53.6439 393.256 53.6439C394.151 53.6439 394.723 53.0864 394.868 52.1663H396.941C396.83 54.1659 395.388 55.4577 393.239 55.4577C390.773 55.4577 389.212 53.7943 389.212 51.0337C389.212 48.3174 390.773 46.6186 393.221 46.6186C395.422 46.6097 396.83 48.0254 396.924 49.9454ZM398.604 44.8401H400.83V46.7955H402.34V48.5386H400.83V52.591C400.83 53.2369 401.138 53.5465 401.794 53.5465C401.991 53.5465 402.195 53.5288 402.332 53.5111V55.21C402.101 55.263 401.726 55.3073 401.274 55.3073C399.355 55.3073 398.604 54.6437 398.604 52.9891V48.5386H397.452V46.7955H398.604V44.8401Z" fill="white"/>
<path d="M258.534 38.4207C265.128 31.7227 275.816 31.7227 282.418 38.4207L283.212 39.2258C283.544 39.562 283.544 40.1018 283.212 40.438L280.499 43.1986C280.337 43.3667 280.064 43.3667 279.902 43.1986L278.81 42.0926C274.212 37.4208 266.749 37.4208 262.151 42.0926L260.982 43.2782C260.82 43.4463 260.547 43.4463 260.385 43.2782L257.664 40.5176C257.331 40.1814 257.331 39.6417 257.664 39.3054L258.534 38.4207ZM288.031 44.1187L290.445 46.5696C290.778 46.9059 290.778 47.4456 290.445 47.7818L279.552 58.8506C279.22 59.1868 278.691 59.1868 278.358 58.8506L270.621 50.9936C270.536 50.914 270.408 50.914 270.323 50.9936L262.594 58.8506C262.262 59.1868 261.733 59.1868 261.4 58.8506L250.499 47.7907C250.166 47.4544 250.166 46.9147 250.499 46.5785L252.913 44.1276C253.245 43.7914 253.774 43.7914 254.107 44.1276L261.844 51.9846C261.929 52.0642 262.057 52.0642 262.142 51.9846L269.871 44.1276C270.203 43.7914 270.732 43.7914 271.065 44.1276L278.802 51.9846C278.887 52.0642 279.015 52.0642 279.1 51.9846L286.837 44.1276C287.161 43.7825 287.699 43.7825 288.031 44.1187Z" fill="white"/>
<rect x="221" y="102.5" width="210.589" height="195" rx="12.1673" fill="white" fill-opacity="0.02"/>
<rect x="221.5" y="103" width="209.589" height="194" rx="11.6673" stroke="white" stroke-opacity="0.1"/>
<path d="M276.899 239.772H277.497C278.122 239.772 278.601 239.63 278.935 239.346C279.269 239.062 279.436 238.654 279.436 238.122C279.436 237.59 279.269 237.181 278.935 236.898C278.601 236.614 278.122 236.472 277.497 236.472H276.899V239.772ZM283.863 247.169H279.921L276.899 242.025V247.169H273.733V233.793H278.66C279.339 233.793 279.931 233.905 280.438 234.13C280.944 234.343 281.358 234.639 281.682 235.017C282.015 235.396 282.263 235.833 282.425 236.33C282.597 236.827 282.683 237.359 282.683 237.927C282.683 238.944 282.457 239.772 282.005 240.41C281.563 241.037 280.906 241.463 280.034 241.688L283.863 247.169Z" fill="white"/>
<path d="M286.468 242.592C286.468 242.888 286.516 243.166 286.613 243.426C286.71 243.675 286.84 243.893 287.001 244.082C287.173 244.272 287.373 244.42 287.599 244.526C287.836 244.632 288.089 244.686 288.358 244.686C288.617 244.686 288.859 244.632 289.085 244.526C289.322 244.42 289.521 244.272 289.683 244.082C289.855 243.893 289.99 243.675 290.087 243.426C290.195 243.178 290.248 242.912 290.248 242.628C290.248 242.344 290.195 242.078 290.087 241.829C289.99 241.569 289.855 241.345 289.683 241.155C289.521 240.966 289.322 240.818 289.085 240.712C288.859 240.605 288.617 240.552 288.358 240.552C288.089 240.552 287.836 240.605 287.599 240.712C287.373 240.818 287.173 240.966 287.001 241.155C286.84 241.345 286.71 241.563 286.613 241.812C286.516 242.048 286.468 242.309 286.468 242.592ZM290.151 238.068H293.092V247.169H290.151V246.158C289.527 247.021 288.681 247.453 287.615 247.453C287.012 247.453 286.457 247.335 285.951 247.098C285.445 246.85 285.003 246.507 284.626 246.069C284.249 245.632 283.953 245.117 283.738 244.526C283.533 243.935 283.43 243.29 283.43 242.592C283.43 241.942 283.533 241.327 283.738 240.747C283.942 240.156 284.228 239.641 284.594 239.204C284.96 238.766 285.396 238.423 285.903 238.175C286.409 237.915 286.969 237.785 287.583 237.785C288.617 237.785 289.473 238.181 290.151 238.973V238.068Z" fill="white"/>
<path d="M300.72 242.646C300.72 242.362 300.672 242.096 300.575 241.847C300.478 241.587 300.343 241.362 300.171 241.173C299.998 240.984 299.799 240.836 299.573 240.73C299.347 240.611 299.099 240.552 298.83 240.552C298.571 240.552 298.329 240.605 298.103 240.712C297.877 240.818 297.677 240.966 297.505 241.155C297.343 241.345 297.209 241.569 297.101 241.83C297.004 242.078 296.956 242.344 296.956 242.628C296.956 242.912 297.004 243.178 297.101 243.426C297.198 243.675 297.333 243.893 297.505 244.082C297.677 244.26 297.877 244.408 298.103 244.526C298.34 244.632 298.587 244.686 298.846 244.686C299.104 244.686 299.347 244.632 299.573 244.526C299.799 244.42 299.993 244.272 300.155 244.082C300.327 243.893 300.462 243.675 300.558 243.426C300.666 243.178 300.72 242.918 300.72 242.646ZM297.036 232.445V238.973C297.726 238.181 298.587 237.785 299.621 237.785C300.235 237.785 300.795 237.915 301.302 238.175C301.819 238.423 302.255 238.766 302.61 239.204C302.976 239.63 303.262 240.138 303.467 240.73C303.671 241.309 303.773 241.93 303.773 242.592C303.773 243.266 303.666 243.899 303.45 244.491C303.246 245.082 302.955 245.596 302.578 246.034C302.201 246.471 301.754 246.821 301.237 247.081C300.731 247.329 300.182 247.453 299.589 247.453C298.512 247.453 297.661 247.021 297.036 246.158V247.169H294.112V232.445H297.036Z" fill="white"/>
<path d="M311.079 242.646C311.079 242.362 311.03 242.096 310.933 241.847C310.836 241.587 310.702 241.362 310.529 241.173C310.357 240.984 310.158 240.836 309.932 240.73C309.705 240.611 309.458 240.552 309.188 240.552C308.93 240.552 308.688 240.605 308.461 240.712C308.235 240.818 308.036 240.966 307.864 241.155C307.702 241.345 307.567 241.569 307.46 241.83C307.363 242.078 307.314 242.344 307.314 242.628C307.314 242.912 307.363 243.178 307.46 243.426C307.557 243.675 307.691 243.893 307.864 244.082C308.036 244.26 308.235 244.408 308.461 244.526C308.698 244.632 308.946 244.686 309.204 244.686C309.463 244.686 309.705 244.632 309.932 244.526C310.158 244.42 310.352 244.272 310.513 244.082C310.686 243.893 310.82 243.675 310.917 243.426C311.025 243.178 311.079 242.918 311.079 242.646ZM307.395 232.445V238.973C308.084 238.181 308.946 237.785 309.98 237.785C310.594 237.785 311.154 237.915 311.66 238.175C312.177 238.423 312.613 238.766 312.969 239.204C313.335 239.63 313.621 240.138 313.825 240.73C314.03 241.309 314.132 241.93 314.132 242.592C314.132 243.266 314.024 243.899 313.809 244.491C313.604 245.082 313.313 245.596 312.937 246.034C312.56 246.471 312.113 246.821 311.596 247.081C311.089 247.329 310.54 247.453 309.948 247.453C308.871 247.453 308.02 247.021 307.395 246.158V247.169H304.471V232.445H307.395Z" fill="white"/>
<path d="M317.393 245.928L313.386 238.068H316.779L318.992 242.734L321.141 238.068H324.501L317.845 251.711H314.565L317.393 245.928Z" fill="white"/>
<path d="M331.373 233.793L333.473 242.433L336.058 233.793H338.578L341.163 242.433L343.263 233.793H346.575L342.94 247.169H339.709L337.318 239.417L334.927 247.169H331.696L328.061 233.793H331.373Z" fill="white"/>
<path d="M348.777 242.592C348.777 242.888 348.826 243.166 348.923 243.426C349.02 243.675 349.149 243.893 349.31 244.082C349.482 244.272 349.682 244.42 349.908 244.526C350.145 244.632 350.398 244.686 350.667 244.686C350.926 244.686 351.168 244.632 351.394 244.526C351.631 244.42 351.831 244.272 351.992 244.082C352.164 243.893 352.299 243.675 352.396 243.426C352.504 243.178 352.558 242.912 352.558 242.628C352.558 242.344 352.504 242.078 352.396 241.829C352.299 241.569 352.164 241.345 351.992 241.155C351.831 240.966 351.631 240.818 351.394 240.712C351.168 240.605 350.926 240.552 350.667 240.552C350.398 240.552 350.145 240.605 349.908 240.712C349.682 240.818 349.482 240.966 349.31 241.155C349.149 241.345 349.02 241.563 348.923 241.812C348.826 242.048 348.777 242.309 348.777 242.592ZM352.461 238.068H355.401V247.169H352.461V246.158C351.836 247.021 350.991 247.453 349.924 247.453C349.321 247.453 348.766 247.335 348.26 247.098C347.754 246.85 347.312 246.507 346.935 246.069C346.559 245.632 346.262 245.117 346.047 244.526C345.842 243.935 345.74 243.29 345.74 242.592C345.74 241.942 345.842 241.327 346.047 240.747C346.251 240.156 346.537 239.641 346.903 239.204C347.269 238.766 347.705 238.423 348.212 238.175C348.718 237.915 349.278 237.785 349.892 237.785C350.926 237.785 351.782 238.181 352.461 238.973V238.068Z" fill="white"/>
<path d="M359.346 232.445V247.169H356.422V232.445H359.346Z" fill="white"/>
<path d="M363.299 232.445V247.169H360.375V232.445H363.299Z" fill="white"/>
<path d="M370.386 241.297C370.289 240.848 370.09 240.487 369.788 240.215C369.487 239.943 369.121 239.807 368.69 239.807C368.238 239.807 367.866 239.937 367.575 240.197C367.295 240.457 367.117 240.824 367.042 241.297H370.386ZM366.961 243.16C366.961 244.544 367.554 245.236 368.738 245.236C369.374 245.236 369.853 244.952 370.176 244.384H373.003C372.433 246.466 371.006 247.506 368.722 247.506C368.022 247.506 367.381 247.394 366.799 247.169C366.218 246.933 365.717 246.602 365.297 246.176C364.888 245.75 364.57 245.242 364.344 244.65C364.118 244.059 364.005 243.397 364.005 242.663C364.005 241.907 364.112 241.226 364.328 240.623C364.543 240.008 364.85 239.488 365.249 239.062C365.647 238.636 366.126 238.311 366.687 238.086C367.257 237.85 367.898 237.731 368.609 237.731C369.309 237.731 369.939 237.85 370.499 238.086C371.059 238.311 371.533 238.642 371.921 239.08C372.309 239.517 372.605 240.055 372.809 240.694C373.014 241.321 373.117 242.031 373.117 242.823V243.16H366.961Z" fill="white"/>
<path d="M377.193 240.747V247.169H374.268V240.747H373.299V238.068H374.268V235.336H377.193V238.068H378.857V240.747H377.193Z" fill="white"/>
<path d="M368.256 190.391C371.587 182.927 355.123 162.072 339.395 153.383C329.481 146.653 319.151 147.577 317.059 150.533C312.467 157.018 332.263 162.514 345.502 168.927C342.656 170.168 339.974 172.393 338.397 175.239C333.461 169.833 322.628 165.177 309.917 168.927C301.351 171.455 294.233 177.413 291.481 186.412C290.813 186.113 290.072 185.948 289.294 185.948C286.316 185.948 283.902 188.37 283.902 191.358C283.902 194.346 286.316 196.768 289.294 196.768C289.846 196.768 291.572 196.397 291.572 196.397L319.151 196.597C308.122 214.154 299.405 216.72 299.405 219.761C299.405 222.803 307.745 221.979 310.877 220.845C325.868 215.418 341.969 198.503 344.732 193.634C356.334 195.086 366.085 195.258 368.256 190.391Z" fill="url(#paint0_linear_4203_1702)"/>
<path fill-rule="evenodd" clip-rule="evenodd" d="M345.5 168.929C345.501 168.929 345.502 168.929 345.503 168.929C346.116 168.687 346.017 167.778 345.849 167.064C345.461 165.422 338.779 158.801 332.504 155.836C323.954 151.795 317.658 152.004 316.728 153.866C318.469 157.447 326.543 160.81 334.977 164.323C338.574 165.821 342.238 167.346 345.502 168.928C345.502 168.928 345.501 168.928 345.5 168.929Z" fill="url(#paint1_linear_4203_1702)"/>
<path fill-rule="evenodd" clip-rule="evenodd" d="M334.65 204.977C332.921 204.313 330.967 203.705 328.747 203.153C331.115 198.902 331.611 192.609 329.375 188.63C326.237 183.045 322.297 180.073 313.143 180.073C308.108 180.073 294.551 181.775 294.311 193.129C294.285 194.321 294.31 195.413 294.396 196.417L319.151 196.597C315.814 201.909 312.688 205.849 309.952 208.845C313.237 209.689 315.948 210.399 318.437 211.05C320.799 211.668 322.961 212.233 325.224 212.812C328.637 210.317 331.846 207.596 334.65 204.977Z" fill="url(#paint2_linear_4203_1702)"/>
<path d="M291.151 195.25C292.162 203.876 297.048 207.256 307.032 208.257C317.015 209.257 322.742 208.586 330.366 209.282C336.733 209.863 342.419 213.119 344.528 211.994C346.426 210.981 345.364 207.323 342.824 204.976C339.532 201.933 334.975 199.818 326.957 199.067C328.555 194.678 328.107 188.523 325.626 185.174C322.037 180.332 315.414 178.143 307.032 179.099C298.274 180.099 289.882 184.425 291.151 195.25Z" fill="url(#paint3_linear_4203_1702)"/>
<rect x="221" y="307.5" width="210.589" height="92.5" rx="12.1673" fill="white" fill-opacity="0.02"/>
<rect x="221.5" y="308" width="209.589" height="91.5" rx="11.6673" stroke="white" stroke-opacity="0.1"/>
<g clip-path="url(#clip1_4203_1702)">
<path d="M307.95 361.926C310.815 361.926 312.331 360.646 312.331 358.455C312.331 356.264 310.781 354.95 307.95 354.95H302.333V361.926H307.95ZM302.333 351.276H307.849C310.276 351.276 311.624 350.153 311.624 348.176C311.624 346.198 310.377 345.277 307.883 345.277H302.322L302.333 351.276ZM317.05 358.826C317.05 363.005 314.185 365.566 309.635 365.566H297.604V341.637H308.995C313.208 341.637 316.207 343.884 316.207 347.805C316.305 350.18 314.778 352.318 312.5 352.995C315.432 353.905 316.993 355.826 316.993 358.826" fill="white"/>
<path d="M324.487 341.638H320.105V346.019H324.487V341.638Z" fill="white"/>
<path d="M324.487 348.344H320.105V365.566H324.487V348.344Z" fill="white"/>
<path d="M338.316 365.33C337.069 365.758 335.759 365.975 334.44 365.971C331.07 365.971 329.553 364.386 329.553 361.118V351.681H326.486V348.378H329.553V343.019H333.934V348.378H338.046V351.748H333.934V360.646C333.934 361.825 334.44 362.23 335.653 362.23C336.384 362.19 337.108 362.066 337.81 361.859L338.316 365.33Z" fill="white"/>
<path d="M351.369 361.926C354.234 361.926 355.751 360.646 355.751 358.455C355.751 356.264 354.2 354.95 351.369 354.95H345.752V361.926H351.369ZM345.752 351.276H351.28C353.706 351.276 355.054 350.153 355.054 348.176C355.054 346.198 353.774 345.277 351.302 345.277H345.741L345.752 351.276ZM360.514 358.826C360.514 363.005 357.649 365.566 353.1 365.566H341.023V341.638H352.414C356.627 341.638 359.626 343.884 359.626 347.805C359.725 350.18 358.198 352.318 355.919 352.995C358.851 353.905 360.469 355.826 360.469 358.826" fill="white"/>
<path d="M366.985 356.938C366.985 360.309 368.771 362.398 371.478 362.398C374.186 362.398 375.972 360.275 375.972 356.938C375.972 353.602 374.186 351.479 371.478 351.479C368.771 351.479 366.985 353.725 366.985 356.938ZM380.466 356.938C380.466 362.398 376.725 366.105 371.478 366.105C366.232 366.105 362.491 362.398 362.491 356.938C362.491 351.479 366.232 347.771 371.478 347.771C376.725 347.771 380.466 351.479 380.466 356.938Z" fill="white"/>
<path d="M392.969 365.566L389.094 359.668L385.184 365.566H380.466L386.667 356.534L381.039 348.344H385.791L389.161 353.4L392.464 348.344H397.171L391.621 356.365L397.778 365.566H392.969Z" fill="white"/>
<path d="M254.812 362.747V354.583L261.406 351.747V339.04L267.945 336.191V357.033L254.812 362.747Z" fill="white"/>
<path d="M284.369 362.815V354.666L277.775 351.816V339.123L271.222 336.26V357.102L284.369 362.815Z" fill="white"/>
<path d="M269.611 359.897L256.505 365.624L269.597 371.309L282.745 365.596L269.611 359.897Z" fill="white"/>
</g>
<rect x="0.410645" y="205" width="210.589" height="92.5" rx="12.1673" fill="white" fill-opacity="0.02"/>
<rect x="0.910645" y="205.5" width="209.589" height="91.5" rx="11.6673" stroke="white" stroke-opacity="0.1"/>
<path d="M121.711 244.517H135.93V248.258L128.197 258.736H135.93V263.143H121.711V259.401L129.444 248.923H121.711V244.517Z" fill="white"/>
<path d="M169.691 256.241C171.436 255.575 173.267 253.829 173.267 250.753C173.267 247.011 170.689 244.599 166.864 244.599H158.133V263.142H162.956V256.906H164.786L168.195 263.142H173.766L169.691 256.241ZM166.282 252.582H162.956V248.84H166.282C167.529 248.84 168.361 249.589 168.361 250.67C168.361 251.834 167.529 252.582 166.282 252.582Z" fill="white"/>
<path d="M146.408 244.266C140.753 244.266 136.765 248.34 136.765 253.829C136.765 259.318 140.837 263.392 146.408 263.392C151.98 263.392 156.138 259.317 156.138 253.829C156.138 248.341 152.062 244.266 146.408 244.266ZM146.408 259.068C143.581 259.068 141.668 256.906 141.668 253.833C141.668 250.673 143.581 248.598 146.408 248.598C149.235 248.598 151.231 250.76 151.231 253.833C151.231 256.906 149.235 259.068 146.408 259.068Z" fill="white"/>
<path d="M105.912 244.517H119.383V248.841H110.735V251.584H119.133V255.825H110.735V258.819H119.383V263.143H105.912V244.517Z" fill="white"/>
<path d="M58.0984 241.938C58.0984 237.53 54.2731 233.872 49.6165 233.872C44.96 233.872 41.1346 237.532 41.1346 241.938V244.516H37.6445V263.06L49.6165 268.628L61.5913 263.056V244.595H58.1012L58.0984 241.938ZM45.4587 241.938C45.4587 239.86 47.2883 238.197 49.6165 238.197C51.9448 238.197 53.7744 239.86 53.7744 241.938V244.516H45.4587V241.938ZM56.7676 260.066L49.6165 263.392L42.4655 260.066V248.923H56.7676V260.066Z" fill="white"/>
<path d="M103.667 250.753C103.667 247.011 101.089 244.599 97.264 244.599H88.5332V263.142H93.356V256.906H95.1855L98.5948 263.142H104.168L100.093 256.241C101.838 255.575 103.667 253.829 103.667 250.753ZM96.6817 252.582H93.356V248.84H96.6817C97.9289 248.84 98.7611 249.589 98.7611 250.67C98.7611 251.834 97.9289 252.582 96.6817 252.582Z" fill="white"/>
<path d="M71.3203 244.517H86.371V248.923H81.2157V263.143H76.392V248.923H71.3203V244.517Z" fill="white"/>
<rect x="0.410645" y="307.5" width="210.589" height="92.5" rx="12.1673" fill="white" fill-opacity="0.02"/>
<rect x="0.910645" y="308" width="209.589" height="91.5" rx="11.6673" stroke="white" stroke-opacity="0.1"/>
<g clip-path="url(#clip2_4203_1702)">
<path d="M153.687 373.521V376.368H173.234V363.524H170.386V373.521H153.687ZM153.687 331.131V333.979H170.386V343.976H173.234V331.131H153.687ZM143.607 353.164V346.546H148.075C150.253 346.546 151.035 347.272 151.035 349.255V350.427C151.035 352.466 150.281 353.164 148.075 353.164H143.607ZM150.699 354.336C152.737 353.806 154.161 351.907 154.161 349.645C154.161 348.221 153.603 346.936 152.542 345.903C151.202 344.618 149.414 343.976 147.097 343.976H140.814V363.523H143.607V355.733H147.795C149.945 355.733 150.811 356.626 150.811 358.86V363.524H153.659V359.307C153.659 356.235 152.934 355.063 150.699 354.728V354.336ZM127.187 354.978H135.788V352.409H127.187V346.545H136.626V343.976H124.339V363.523H137.045V360.954H127.187V354.978ZM117.832 356.012V357.352C117.832 360.172 116.799 361.094 114.202 361.094H113.588C110.991 361.094 109.734 360.256 109.734 356.375V351.125C109.734 347.216 111.047 346.405 113.643 346.405H114.201C116.743 346.405 117.553 347.355 117.58 349.98H120.652C120.373 346.126 117.804 343.697 113.95 343.697C112.08 343.697 110.516 344.284 109.343 345.4C107.584 347.048 106.606 349.841 106.606 353.75C106.606 357.52 107.444 360.312 109.175 362.043C110.348 363.188 111.968 363.802 113.56 363.802C115.235 363.802 116.771 363.132 117.553 361.68H117.943V363.523H120.512V353.443H112.945V356.012H117.832ZM93.2035 346.545H96.2475C99.1241 346.545 100.688 347.271 100.688 351.181V356.319C100.688 360.228 99.1241 360.954 96.2475 360.954H93.2035V346.545ZM96.4985 363.524C101.832 363.524 103.814 359.475 103.814 353.75C103.814 347.942 101.692 343.977 96.4423 343.977H90.4104V363.524H96.4985ZM76.9238 354.978H85.5247V352.409H76.9238V346.545H86.3619V343.976H74.0748V363.523H86.7811V360.954H76.9238V354.978ZM60.4484 343.976H57.6003V363.523H70.4456V360.954H60.4484V343.976ZM38.0249 363.524V376.369H57.5719V373.521H40.8729V363.524H38.0249ZM38.0249 331.131V343.976H40.8729V333.979H57.5719V331.131H38.0249Z" fill="white"/>
</g>
</g>
<defs>
<linearGradient id="paint0_linear_4203_1702" x1="308.92" y1="183.781" x2="367.568" y2="200.357" gradientUnits="userSpaceOnUse">
<stop stop-color="white"/>
<stop offset="1" stop-color="white"/>
</linearGradient>
<linearGradient id="paint1_linear_4203_1702" x1="357.669" y1="182.663" x2="315.23" y2="140.263" gradientUnits="userSpaceOnUse">
<stop stop-color="#B4B4B4"/>
<stop offset="1" stop-color="#B4B4B4" stop-opacity="0"/>
</linearGradient>
<linearGradient id="paint2_linear_4203_1702" x1="335.827" y1="206.458" x2="295.128" y2="183.138" gradientUnits="userSpaceOnUse">
<stop stop-color="#B4B4B4"/>
<stop offset="1" stop-color="#B4B4B4" stop-opacity="0"/>
</linearGradient>
<linearGradient id="paint3_linear_4203_1702" x1="312.42" y1="183.342" x2="339.997" y2="218.264" gradientUnits="userSpaceOnUse">
<stop stop-color="white"/>
<stop offset="0.983895" stop-color="#E4E4E4"/>
</linearGradient>
<clipPath id="clip0_4203_1702">
<rect width="431.179" height="400" fill="white" transform="translate(0.410645)"/>
</clipPath>
<clipPath id="clip1_4203_1702">
<rect width="142.966" height="35.1185" fill="white" transform="translate(254.812 336.191)"/>
</clipPath>
<clipPath id="clip2_4203_1702">
<rect width="135.361" height="45.2382" fill="white" transform="translate(38.0249 331.131)"/>
</clipPath>
</defs>
</svg>
