<svg width="209" height="34" viewBox="0 0 209 34" fill="none" xmlns="http://www.w3.org/2000/svg">
<g clip-path="url(#clip0_4438_1262)">
<path d="M75.6831 18.6226L72.8159 28.9329H69.8317L65.8409 13.8361H69.1178L71.4935 24.7666H71.5754L74.3958 13.8361H77.0641L79.8845 24.7666H79.9664L82.3538 13.8361H85.6306L81.6282 28.9329H78.644L75.7768 18.6226H75.6831ZM89.9841 26.8966C91.3066 26.8966 92.4066 26.0305 92.4066 24.8134V23.9942L90.0427 24.1347C88.9075 24.2166 88.2521 24.7315 88.2521 25.5273C88.2521 26.3816 88.9426 26.8966 89.9841 26.8966ZM88.9777 29.1084C86.8477 29.1084 85.221 27.7275 85.221 25.7146C85.221 23.6782 86.7892 22.4962 89.5862 22.3207L92.4066 22.1569V21.4196C92.4066 20.378 91.6694 19.7695 90.5225 19.7695C89.3873 19.7695 88.6617 20.3312 88.5096 21.1621H85.7126C85.8296 18.9854 87.6787 17.4874 90.6512 17.4874C93.5301 17.4874 95.4026 18.9737 95.4026 21.2323V28.9446H92.4535V27.2242H92.3949C91.763 28.4062 90.382 29.1084 88.9777 29.1084ZM97.4506 13.8361H100.505V28.9329H97.4506V13.8361ZM102.635 13.8361H105.689V28.9329H102.635V13.8361ZM112.781 19.7344C111.447 19.7344 110.476 20.7525 110.371 22.1452H115.134C115.075 20.7174 114.139 19.7344 112.781 19.7344ZM115.181 25.5039H117.989C117.65 27.7041 115.649 29.1786 112.875 29.1786C109.423 29.1786 107.351 26.9668 107.351 23.3857C107.351 19.8046 109.446 17.4874 112.758 17.4874C116.023 17.4874 118.083 19.6992 118.083 23.1048V24.041H110.359V24.2283C110.359 25.8316 111.377 26.9317 112.934 26.9317C114.034 26.9083 114.888 26.3582 115.181 25.5039ZM120.459 15.1351H123.513V17.7214H125.585V20.0269H123.513V25.3869C123.513 26.2412 123.934 26.6508 124.836 26.6508C125.105 26.6508 125.386 26.6274 125.573 26.604V28.851C125.257 28.9212 124.73 28.9797 124.122 28.9797C121.488 28.9797 120.459 28.102 120.459 25.9135V20.0269H118.879V17.7214H120.459V15.1351ZM134.186 29.1903C129.798 29.1903 127.047 26.2529 127.047 21.3728C127.047 16.5043 129.821 13.5669 134.186 13.5669C137.814 13.5669 140.576 15.8724 140.822 19.2428H137.744C137.451 17.3938 136.024 16.1767 134.186 16.1767C131.799 16.1767 130.266 18.1779 130.266 21.3494C130.266 24.5677 131.787 26.5572 134.198 26.5572C136.07 26.5572 137.416 25.4571 137.756 23.6665H140.833C140.471 27.0604 137.896 29.1903 134.186 29.1903ZM147.656 29.1669C144.262 29.1669 142.097 26.9902 142.097 23.3155C142.097 19.6875 144.298 17.4757 147.656 17.4757C151.015 17.4757 153.215 19.6758 153.215 23.3155C153.215 27.0019 151.05 29.1669 147.656 29.1669ZM147.656 26.838C149.154 26.838 150.102 25.5741 150.102 23.3272C150.102 21.1036 149.143 19.8163 147.656 19.8163C146.17 19.8163 145.199 21.1036 145.199 23.3272C145.199 25.5741 146.158 26.838 147.656 26.838ZM154.783 28.9329V17.7214H157.733V19.7226H157.791C158.388 18.33 159.57 17.5108 161.302 17.5108C163.795 17.5108 165.187 19.079 165.187 21.7004V28.9329H162.133V22.3441C162.133 20.8812 161.442 20.0386 160.073 20.0386C158.704 20.0386 157.838 21.0451 157.838 22.4962V28.9329H154.783ZM167.118 28.9329V17.7214H170.067V19.7226H170.126C170.723 18.33 171.905 17.5108 173.625 17.5108C176.118 17.5108 177.511 19.079 177.511 21.7004V28.9329H174.456V22.3441C174.456 20.8812 173.766 20.0386 172.396 20.0386C171.027 20.0386 170.161 21.0451 170.161 22.4962V28.9329H167.118ZM184.497 19.7344C183.163 19.7344 182.192 20.7525 182.086 22.1452H186.849C186.791 20.7174 185.855 19.7344 184.497 19.7344ZM186.885 25.5039H189.693C189.354 27.7041 187.353 29.1786 184.579 29.1786C181.127 29.1786 179.055 26.9668 179.055 23.3857C179.055 19.8046 181.15 17.4874 184.462 17.4874C187.727 17.4874 189.787 19.6992 189.787 23.1048V24.041H182.063V24.2283C182.063 25.8316 183.081 26.9317 184.638 26.9317C185.749 26.9083 186.604 26.3582 186.885 25.5039ZM201.537 21.8877H198.705C198.529 20.7057 197.745 19.8748 196.493 19.8748C194.983 19.8748 194.047 21.1504 194.047 23.3155C194.047 25.5273 194.983 26.7795 196.504 26.7795C197.733 26.7795 198.517 26.0422 198.716 24.8251H201.56C201.408 27.47 199.43 29.1786 196.481 29.1786C193.099 29.1786 190.957 26.9785 190.957 23.3272C190.957 19.7344 193.099 17.4874 196.458 17.4874C199.477 17.4757 201.408 19.3482 201.537 21.8877ZM203.842 15.1351H206.897V17.7214H208.968V20.0269H206.897V25.3869C206.897 26.2412 207.318 26.6508 208.219 26.6508C208.488 26.6508 208.769 26.6274 208.956 26.604V28.851C208.64 28.9212 208.125 28.9797 207.505 28.9797C204.872 28.9797 203.842 28.102 203.842 25.9135V20.0269H202.262V17.7214H203.842V15.1351Z" fill="#3999FA"/>
<path d="M11.6736 6.64435C20.72 -2.21478 35.3838 -2.21478 44.4419 6.64435L45.5303 7.70932C45.9867 8.15403 45.9867 8.86791 45.5303 9.31262L41.8087 12.9639C41.5864 13.1863 41.2119 13.1863 40.9895 12.9639L39.4915 11.5011C33.1836 5.32192 22.9436 5.32192 16.6357 11.5011L15.0324 13.0693C14.81 13.2916 14.4355 13.2916 14.2132 13.0693L10.4799 9.41795C10.0235 8.97324 10.0235 8.25936 10.4799 7.81465L11.6736 6.64435ZM52.1424 14.1811L55.4544 17.4228C55.9108 17.8675 55.9108 18.5814 55.4544 19.0261L40.5097 33.6665C40.0533 34.1112 39.3277 34.1112 38.8713 33.6665L28.2567 23.2742C28.1397 23.1689 27.9641 23.1689 27.8471 23.2742L17.2442 33.6665C16.7878 34.1112 16.0622 34.1112 15.6058 33.6665L0.64944 19.0378C0.193025 18.5931 0.193025 17.8792 0.64944 17.4345L3.96138 14.1928C4.41779 13.748 5.14337 13.748 5.59979 14.1928L16.2144 24.585C16.3314 24.6903 16.5069 24.6903 16.624 24.585L27.2268 14.1928C27.6833 13.748 28.4088 13.748 28.8653 14.1928L39.4798 24.585C39.5969 24.6903 39.7724 24.6903 39.8894 24.585L50.504 14.1928C50.9487 13.7363 51.686 13.7363 52.1424 14.1811Z" fill="#3A99FB"/>
</g>
<defs>
<clipPath id="clip0_4438_1262">
<rect width="208.661" height="34" fill="white" transform="translate(0.307129)"/>
</clipPath>
</defs>
</svg>
