<svg width="151" height="150" viewBox="0 0 151 150" fill="none" xmlns="http://www.w3.org/2000/svg">
<g clip-path="url(#clip0_4318_4056)">
<path d="M72.8077 0C65.9223 0 59.3189 2.73523 54.4501 7.60396C49.5814 12.4727 46.8462 19.0761 46.8462 25.9615V124.038C46.8462 130.924 49.5814 137.527 54.4501 142.396C59.3189 147.265 65.9223 150 72.8077 150C79.6931 150 86.2965 147.265 91.1653 142.396C96.034 137.527 98.7692 130.924 98.7692 124.038V25.9615C98.7692 19.0761 96.034 12.4727 91.1653 7.60396C86.2965 2.73523 79.6931 0 72.8077 0ZM1.05 2.34231C0.10385 8.41154 0.530773 23.3192 5.74039 30.4673L41.0769 79.5058V43.0962L34.5865 42.1904L35.85 34.4423L28.0962 33.1731L29.3596 25.5981L21.6058 24.3404L22.8692 16.5865L15.1154 15.5019L16.3789 7.75385L8.625 6.49038C6.36347 5.96538 2.48077 3.12115 1.05 2.34231ZM72.8077 17.3077C75.1036 17.3085 77.3052 18.2212 78.9281 19.8452C80.551 21.4692 81.4623 23.6714 81.4615 25.9673C81.4608 28.2632 80.548 30.4648 78.924 32.0877C77.3 33.7106 75.0978 34.6219 72.8019 34.6212C71.6651 34.6208 70.5395 34.3965 69.4894 33.9611C68.4392 33.5257 67.4851 32.8877 66.6815 32.0836C65.878 31.2795 65.2406 30.325 64.8059 29.2745C64.3712 28.2241 64.1477 27.0984 64.1481 25.9615C64.1485 24.8247 64.3727 23.6991 64.8081 22.649C65.2435 21.5988 65.8815 20.6447 66.6856 19.8412C67.4897 19.0376 68.4443 18.4002 69.4947 17.9655C70.5451 17.5309 71.6709 17.3073 72.8077 17.3077ZM104.538 23.0769V60.7558C104.538 60.7558 114.935 73.3442 121.488 81.3115C127.292 88.3731 138.883 97.1365 150.15 93.3923C145.362 82.1538 140.919 73.7019 137.169 65.2673C125.256 48.8423 104.538 23.0769 104.538 23.0769ZM6.46154 69.2308C2.15193 69.6462 0.692312 73.8808 0.692312 81.8538C0.692312 103.31 41.0769 126.923 41.0769 126.923V110.515C41.0769 110.515 29.5385 106.327 29.5385 92.85C29.5385 85.2462 27.7558 80.4577 23.7692 77.1635C22.5058 76.1192 18.5769 74.6365 16.7365 75.9C18.3 78.6519 22.7596 88.4942 20.3423 89.9654C17.0192 92.0019 5.49231 88.1192 6.46154 69.2308ZM69.9231 115.385H75.6923V121.154H81.4615V126.923H75.6923V132.692H69.9231V126.923H64.1539V121.154H69.9231V115.385Z" fill="url(#paint0_linear_4318_4056)"/>
</g>
<defs>
<linearGradient id="paint0_linear_4318_4056" x1="75.4002" y1="0" x2="75.4002" y2="150" gradientUnits="userSpaceOnUse">
<stop offset="0.0961538" stop-color="#F5516C"/>
<stop offset="1" stop-color="#443051"/>
</linearGradient>
<clipPath id="clip0_4318_4056">
<rect width="150" height="150" fill="white" transform="translate(0.692383)"/>
</clipPath>
</defs>
</svg>
