<svg width="123" height="34" viewBox="0 0 123 34" fill="none" xmlns="http://www.w3.org/2000/svg">
<mask id="mask0_4097_863" style="mask-type:luminance" maskUnits="userSpaceOnUse" x="7" y="2" width="108" height="31">
<path d="M114.89 2.00342H7.95737V32.0034H114.89V2.00342Z" fill="white"/>
</mask>
<g mask="url(#mask0_4097_863)">
<path d="M27.8339 2.00342L8.0444 31.6284H16.6042L36.3906 2.00342H27.8339Z" fill="#111111"/>
<path d="M14.1777 13.2343C17.2715 12.9103 19.5174 10.1416 19.1927 7.04591C19.1325 6.47297 18.9883 5.93003 18.7748 5.42907L24.358 2.00342H13.5914C13.396 2.00342 13.2005 2.01242 13.0051 2.03341C9.90831 2.36038 7.66539 5.1291 7.98709 8.22177C8.31181 11.3145 11.0839 13.5583 14.1777 13.2343Z" fill="#111111"/>
<path d="M30.7837 20.4007C27.6899 20.7246 25.444 23.4933 25.7687 26.589C25.8289 27.1619 25.9731 27.7049 26.1866 28.2059L20.6064 31.6315H31.373C31.5684 31.6315 31.7639 31.6225 31.9593 31.6015C35.0531 31.2775 37.299 28.5088 36.9743 25.4161C36.6496 22.3234 33.8775 20.0797 30.7837 20.4037V20.4007Z" fill="#111111"/>
<path d="M63.6968 9.43652C62.2055 9.43652 59.6559 9.89246 57.7437 12.0492L56.8869 9.87746H51.6403V31.6313H57.7828V18.6546C57.7828 13.738 65.6331 13.2551 65.6331 18.2946V31.6313H71.7724V17.7067C71.6792 14.152 69.6682 9.43652 63.6938 9.43652H63.6968Z" fill="#111111"/>
<path d="M103.829 2.00928H97.6863V31.6313H103.829V2.00928Z" fill="#111111"/>
<path d="M46.7157 9.87793H40.5732V31.6318H46.7157V9.87793Z" fill="#111111"/>
<path d="M46.7157 2.00342H40.5732V7.30989H46.7157V2.00342Z" fill="#FF652A"/>
<path d="M114.89 9.87793H108.748V31.6318H114.89V9.87793Z" fill="#111111"/>
<path d="M114.89 2.00342H108.748V7.30989H114.89V2.00342Z" fill="#111111"/>
<path d="M89.2587 19.1407C88.6844 18.9187 84.7399 17.7489 82.8336 17.1759C80.5369 16.483 81.2104 13.8672 84.3611 13.8672C85.8344 13.8672 87.7703 14.3592 87.9778 16.429H93.6668C92.9843 11.7945 89.5684 9.51465 84.2708 9.51465C81.2946 9.51465 77.1451 10.5886 75.9363 14.5392C75.1311 17.1669 76.3723 20.4876 80.17 21.6994C82.1089 22.3174 84.8241 23.1393 86.7335 23.6823C89.8781 24.5761 88.94 27.5908 85.1368 27.4768C83.1072 27.4169 81.3217 26.532 80.7865 24.3332H75.08C75.3506 27.9478 78.4862 32.0034 85.221 32.0034C88.513 32.0034 94.2947 30.8515 94.43 25.5001C94.5262 21.7534 91.6341 20.0556 89.2557 19.1407H89.2587Z" fill="#111111"/>
</g>
</svg>
