<svg width="274" height="40" viewBox="0 0 274 40" fill="none" xmlns="http://www.w3.org/2000/svg">
<g clip-path="url(#clip0_4097_763)">
<path d="M44.8937 13.0625C44.7199 13.9747 44.3724 15.8427 44.1986 16.4943H33.7729L33.5557 16.1902C36.0753 12.5846 38.5948 8.89217 41.0275 5.28661H38.5514C36.5531 5.28661 36.1622 5.50382 35.8581 5.93822C35.6409 6.28574 35.2933 6.80703 35.0761 7.67584H34.4245C34.468 6.2423 34.5983 4.93909 34.6417 3.9834H35.163C35.4671 4.4178 35.6843 4.46124 36.2925 4.46124H44.2421L44.4158 4.72189C41.9832 8.32745 39.5505 11.8461 37.0744 15.5386C37.726 15.6254 38.2907 15.6689 39.5071 15.6689C41.0275 15.6689 42.4176 15.5386 42.9823 15.0607C43.4602 14.6263 43.8077 14.0616 44.1986 12.9321L44.8937 13.0625Z" fill="#565D63"/>
<path d="M59.7069 10.3258C59.7069 14.3223 56.666 16.755 52.9736 16.755C49.064 16.755 46.3272 14.0182 46.3272 10.4996C46.3272 7.3284 48.7599 4.20068 53.2342 4.20068C56.7964 4.20068 59.7069 6.67679 59.7069 10.3258ZM49.368 10.152C49.368 13.3232 50.845 16.0165 53.3646 16.0165C55.2325 16.0165 56.7529 14.2789 56.7529 10.8905C56.7529 7.19808 55.1891 5.02605 52.8867 5.02605C50.8885 4.98261 49.368 6.93743 49.368 10.152Z" fill="#565D63"/>
<path d="M71.4358 13.3667C71.2621 14.1487 70.8711 16.0166 70.6973 16.4944H61.1404V15.8428C62.8346 15.7125 63.0518 15.5822 63.0518 14.0183V6.93753C63.0518 5.33024 62.8346 5.24335 61.3576 5.11303V4.46143H67.3524V5.11303C65.8755 5.24335 65.7017 5.37368 65.7017 6.93753V14.1921C65.7017 15.0609 65.7886 15.365 66.1795 15.5387C66.5271 15.6691 67.0483 15.7125 67.6565 15.7125C68.4819 15.7125 69.2204 15.5822 69.6982 15.0609C70.0457 14.6699 70.4367 14.1052 70.7842 13.1495L71.4358 13.3667Z" fill="#565D63"/>
<path d="M82.6 13.3667C82.4263 14.1487 82.0353 16.0166 81.8615 16.4944H72.3046V15.8428C73.9988 15.7125 74.216 15.5822 74.216 14.0183V6.93753C74.216 5.33024 73.9988 5.24335 72.5218 5.11303V4.46143H78.5166V5.11303C77.0396 5.24335 76.8659 5.37368 76.8659 6.93753V14.1921C76.8659 15.0609 76.9528 15.365 77.3437 15.5387C77.6912 15.6691 78.2125 15.7125 78.8207 15.7125C79.6461 15.7125 80.3846 15.5822 80.8624 15.0609C81.2099 14.6699 81.6009 14.1052 81.9484 13.1495L82.6 13.3667Z" fill="#565D63"/>
<path d="M94.2855 13.4102C94.1552 14.2355 93.7642 15.9297 93.5905 16.4944H83.5992V15.8428C85.2499 15.7125 85.4671 15.5822 85.4671 14.0183V6.93753C85.4671 5.33024 85.2499 5.24335 83.8598 5.11303V4.46143H93.1126C93.1126 4.80895 93.2429 6.06872 93.3298 7.24162L92.5913 7.3285C92.4176 6.67689 92.1569 6.06872 91.8094 5.7212C91.4619 5.37368 90.9406 5.24335 89.8546 5.24335H88.8989C88.1604 5.24335 88.0735 5.28679 88.0735 5.89496V9.80461H89.3767C91.0275 9.80461 91.2881 9.71772 91.5488 8.41451H92.2438V12.1504H91.5488C91.2881 10.8037 91.0275 10.7603 89.3767 10.7603H88.0735V13.9749C88.0735 14.8437 88.1604 15.3215 88.5514 15.4953C88.8989 15.6256 89.5505 15.6691 90.3324 15.6691C91.3316 15.6691 92.0266 15.5387 92.5045 15.0609C92.8954 14.6699 93.2429 14.0618 93.5905 13.2364L94.2855 13.4102Z" fill="#565D63"/>
<path d="M107.665 16.6682H107.057C104.581 16.5379 103.842 16.0601 103.017 14.8872C102.496 14.1487 101.974 13.1495 101.41 12.1504C101.106 11.5857 100.758 11.3685 100.107 11.3685H99.759V14.0618C99.759 15.5822 99.9328 15.756 101.41 15.8863V16.5379H95.5018V15.8863C96.9788 15.756 97.196 15.5822 97.196 14.0618V6.93755C97.196 5.46057 97.0223 5.28681 95.5887 5.15649V4.50488H101.106C102.843 4.50488 103.799 4.67864 104.624 5.19993C105.406 5.67778 105.928 6.50315 105.928 7.67604C105.928 9.28334 104.798 10.1956 103.495 10.6734C103.799 11.2382 104.494 12.4545 105.102 13.3233C105.797 14.3659 106.232 14.974 106.579 15.3216C107.014 15.756 107.361 15.9732 107.795 16.1035L107.665 16.6682ZM100.28 10.5866C101.106 10.5866 101.757 10.4562 102.192 10.1087C102.843 9.58742 103.147 8.84893 103.147 7.89324C103.147 5.89498 101.931 5.19993 100.845 5.19993C100.367 5.19993 100.063 5.28681 99.9762 5.37369C99.8459 5.50401 99.8024 5.67778 99.8024 6.06874V10.5866H100.28Z" fill="#565D63"/>
<path d="M113.312 16.4944V15.8428C114.789 15.7125 114.963 15.5822 114.963 14.0183V6.93753C114.963 5.33024 114.789 5.24335 113.312 5.11303V4.46143H119.22V5.11303C117.743 5.24335 117.613 5.37368 117.613 6.93753V14.0183C117.613 15.5822 117.787 15.7125 119.22 15.8428V16.4944H113.312Z" fill="#565D63"/>
<path d="M134.598 5.06956C133.556 5.113 133.121 5.37364 133.034 6.19901C132.991 6.76374 132.861 7.63255 132.861 9.28329V16.6247H131.905L123.738 7.41535H123.695V11.5422C123.695 13.1929 123.782 14.0183 123.868 14.5396C123.955 15.365 124.303 15.7125 125.736 15.7559V16.4075H120.915V15.7559C122.001 15.669 122.478 15.365 122.522 14.583C122.609 13.9749 122.739 13.1495 122.739 11.4988V7.63255C122.739 6.41621 122.739 6.06869 122.348 5.63429C121.957 5.19988 121.523 5.02612 120.697 4.98268V4.37451H124.346L131.862 12.4979H131.905V9.23985C131.905 7.58911 131.818 6.7203 131.731 6.19901C131.644 5.41708 131.253 5.06956 129.776 5.02612V4.41795H134.555V5.06956H134.598Z" fill="#565D63"/>
<path d="M149.064 5.11305C147.804 5.24337 147.457 5.46057 146.631 7.24163C145.98 8.67517 144.199 12.8889 142.678 16.7117H141.679C140.332 13.3233 138.508 8.84893 137.683 6.93755C137.074 5.50401 136.77 5.24337 135.554 5.15649V4.50488H141.418V5.15649C139.985 5.37369 139.985 5.54745 140.289 6.37282C140.854 7.8498 142.418 11.6291 143.113 13.3667H143.156C144.242 10.6734 145.067 8.50141 145.589 6.89411C146.023 5.63434 146.023 5.37369 144.416 5.15649V4.50488H149.021V5.11305H149.064Z" fill="#565D63"/>
<path d="M160.793 13.4102C160.663 14.2355 160.272 15.9297 160.098 16.4944H150.107V15.8428C151.757 15.7125 151.974 15.5822 151.974 14.0183V6.93753C151.974 5.33024 151.757 5.24335 150.367 5.11303V4.46143H159.62C159.62 4.80895 159.75 6.06872 159.837 7.24162L159.099 7.3285C158.925 6.67689 158.664 6.06872 158.317 5.7212C157.969 5.37368 157.448 5.24335 156.362 5.24335H155.406C154.668 5.24335 154.581 5.28679 154.581 5.89496V9.80461H155.884C157.535 9.80461 157.795 9.71772 158.056 8.41451H158.751V12.1504H158.056C157.795 10.8037 157.535 10.7603 155.884 10.7603H154.581V13.9749C154.581 14.8437 154.668 15.3215 155.059 15.4953C155.406 15.6256 156.058 15.6691 156.84 15.6691C157.839 15.6691 158.534 15.5387 159.012 15.0609C159.403 14.6699 159.75 14.0618 160.098 13.2364L160.793 13.4102Z" fill="#565D63"/>
<path d="M169.394 7.45872C169.003 6.28583 168.265 4.93917 166.657 4.93917C165.571 4.93917 164.746 5.67766 164.746 6.76367C164.746 7.7628 165.441 8.37097 167.179 9.19634C169.22 10.152 170.654 11.1946 170.654 13.0191C170.654 15.1477 168.743 16.7984 165.875 16.7984C165.18 16.7984 164.485 16.7115 163.877 16.5378C163.312 16.4075 162.965 16.2337 162.704 16.1468C162.487 15.669 162.27 14.1486 162.096 13.0191L162.791 12.8019C163.182 13.9748 164.355 16.0599 166.223 16.0599C167.439 16.0599 168.178 15.278 168.178 14.1051C168.178 13.0191 167.309 12.3241 165.832 11.5856C163.834 10.6299 162.4 9.63074 162.4 7.84968C162.4 5.80798 164.094 4.20068 166.875 4.20068C168.134 4.20068 169.264 4.59165 169.611 4.67853C169.698 5.37358 169.829 6.19895 170.002 7.3284L169.394 7.45872Z" fill="#565D63"/>
<path d="M182.861 7.63242C182.643 6.67672 182.339 6.02512 181.992 5.72103C181.644 5.37351 181.166 5.28663 179.994 5.28663H179.125V14.0616C179.125 15.6255 179.342 15.7558 181.036 15.8861V16.5377H174.65V15.8861C176.301 15.7558 176.475 15.6255 176.475 14.0616V5.28663H175.823C174.173 5.28663 173.825 5.46039 173.564 5.80792C173.217 6.112 173 6.76361 172.739 7.67586H172.001C172.087 6.3292 172.218 4.98255 172.218 4.02686H172.696C173 4.41782 173.26 4.5047 173.825 4.5047H181.731C182.252 4.5047 182.513 4.37438 182.861 4.02686H183.338C183.338 4.80878 183.469 6.41608 183.556 7.63242H182.861Z" fill="#565D63"/>
<path d="M195.328 16.4944V15.8428C196.805 15.7125 196.892 15.5822 196.892 13.8446L196.848 6.72033H196.762L192.418 16.3641H191.853L187.856 6.93753H187.769L187.552 11.7594C187.465 13.2798 187.465 14.1487 187.552 14.7568C187.639 15.5822 187.987 15.756 189.333 15.8863V16.5379H184.598V15.8863C185.728 15.7994 186.075 15.4953 186.206 14.8003C186.336 14.2355 186.466 13.2364 186.597 11.2816L186.901 7.63258C187.074 5.54744 186.901 5.2868 185.25 5.11303V4.46143H189.29L193.069 12.5848L196.892 4.46143H200.845V5.11303C199.281 5.24335 199.194 5.41712 199.238 6.93753L199.411 13.8446C199.455 15.5388 199.542 15.6691 201.062 15.8428V16.4944H195.328Z" fill="#565D63"/>
<path d="M213.312 13.4102C213.182 14.2355 212.791 15.9297 212.617 16.4944H202.626V15.8428C204.277 15.7125 204.494 15.5822 204.494 14.0183V6.93753C204.494 5.33024 204.277 5.24335 202.887 5.11303V4.46143H212.14C212.14 4.80895 212.27 6.06872 212.313 7.24162L211.575 7.3285C211.401 6.67689 211.14 6.06872 210.793 5.7212C210.445 5.37368 209.924 5.24335 208.838 5.24335H207.882C207.144 5.24335 207.057 5.28679 207.057 5.89496V9.80461H208.36C210.011 9.80461 210.272 9.71772 210.532 8.41451H211.227V12.1504H210.532C210.272 10.8037 210.011 10.7603 208.36 10.7603H207.057V13.9749C207.057 14.8437 207.144 15.3215 207.535 15.4953C207.882 15.6256 208.534 15.6691 209.316 15.6691C210.315 15.6691 211.01 15.5387 211.488 15.0609C211.879 14.6699 212.226 14.0618 212.574 13.2364L213.312 13.4102Z" fill="#565D63"/>
<path d="M228.082 5.06956C227.04 5.113 226.605 5.37364 226.518 6.19901C226.475 6.76374 226.345 7.63255 226.345 9.28329V16.6247H225.389L217.222 7.41535H217.179V11.5422C217.179 13.1929 217.266 14.0183 217.352 14.5396C217.439 15.365 217.787 15.7125 219.22 15.7559V16.4075H214.398V15.7559C215.484 15.669 215.962 15.365 216.006 14.583C216.093 13.9749 216.223 13.1495 216.223 11.4988V7.63255C216.223 6.41621 216.223 6.06869 215.832 5.63429C215.441 5.19988 215.007 5.02612 214.181 4.98268V4.37451H217.83L225.302 12.5848H225.345V9.32673C225.345 7.67599 225.259 6.80718 225.172 6.28589C225.085 5.50396 224.694 5.15644 223.217 5.113V4.50483H227.995V5.06956H228.082Z" fill="#565D63"/>
<path d="M240.159 7.63242C239.941 6.67672 239.637 6.02512 239.29 5.72103C238.942 5.37351 238.464 5.28663 237.292 5.28663H236.423V14.0616C236.423 15.6255 236.64 15.7558 238.334 15.8861V16.5377H231.948V15.8861C233.599 15.7558 233.773 15.6255 233.773 14.0616V5.28663H233.121C231.471 5.28663 231.123 5.46039 230.862 5.80792C230.515 6.112 230.298 6.76361 230.037 7.67586H229.299C229.385 6.3292 229.516 4.98255 229.516 4.02686H229.994C230.298 4.41782 230.558 4.5047 231.123 4.5047H239.029C239.55 4.5047 239.811 4.37438 240.159 4.02686H240.636C240.636 4.80878 240.767 6.41608 240.854 7.63242H240.159Z" fill="#565D63"/>
<path d="M254.016 16.4943V15.8427C255.189 15.669 255.276 15.4518 254.972 14.6264C254.755 14.0617 254.494 13.2797 254.19 12.5412H250.411C250.193 13.106 249.933 13.801 249.716 14.5395C249.412 15.4083 249.498 15.669 250.932 15.8427V16.4943H246.544V15.8427C247.848 15.7124 248.108 15.4952 248.76 13.9313L252.8 4.41787L253.799 4.15723C255.059 7.41526 256.275 10.6299 257.535 13.801C258.186 15.4518 258.447 15.669 259.707 15.7993V16.4509H254.016V16.4943ZM252.365 7.54559H252.322C251.757 8.89224 251.279 10.2389 250.758 11.5421H253.799L252.365 7.54559Z" fill="#565D63"/>
<path d="M273.608 11.3683C272.609 11.5421 272.522 11.629 272.522 12.8888V14.3657C272.522 15.0173 272.522 15.6255 272.652 16.1034C271.479 16.364 269.785 16.755 268.178 16.755C263.617 16.755 260.706 14.3223 260.706 10.5864C260.706 6.37269 264.355 4.15723 268.482 4.15723C270.089 4.15723 271.61 4.54819 272.305 4.67851C272.348 5.28668 272.478 6.28581 272.609 7.71935L271.87 7.84967C271.392 5.76452 269.915 4.89572 268.091 4.89572C265.745 4.89572 263.703 6.89398 263.703 10.2389C263.703 13.0191 265.137 15.973 268.352 15.973C268.742 15.973 269.177 15.9296 269.438 15.7558C269.742 15.5821 269.872 15.278 269.872 14.7133V12.9756C269.872 11.6724 269.785 11.5421 267.7 11.3683V10.7167H273.564V11.3683H273.608Z" fill="#565D63"/>
<path d="M34.4245 26.1816H38.9858V27.1373H35.5106V29.9175H38.7686V30.8732H35.5106V35.0001H34.4245V26.1816Z" fill="#2467AB"/>
<path d="M41.8094 28.2232C43.7208 28.2232 44.1986 29.8305 44.1986 31.6985C44.1986 33.5664 43.7208 35.1737 41.8094 35.1737C39.898 35.1737 39.4202 33.5664 39.4202 31.6985C39.4202 29.8305 39.898 28.2232 41.8094 28.2232ZM40.3324 25.9209H41.2881V27.1807H40.3324V25.9209ZM43.1126 31.6985C43.1126 30.2649 42.8954 29.0486 41.8094 29.0486C40.7234 29.0486 40.5497 30.2649 40.5497 31.6985C40.5497 33.132 40.7669 34.3484 41.8094 34.3484C42.852 34.3484 43.1126 33.132 43.1126 31.6985ZM42.3307 25.9209H43.2864V27.1807H42.3307V25.9209Z" fill="#2467AB"/>
<path d="M45.1109 28.3969H46.1534V29.396H46.1969C46.501 28.7879 46.8919 28.2231 47.6304 28.2231C47.8476 28.2231 47.9779 28.2666 48.1083 28.31V29.3092C48.0214 29.3092 47.8911 29.2657 47.5435 29.2657C47.0223 29.2657 46.1969 29.7436 46.1969 30.8296V34.9999H45.1543V28.3969H45.1109Z" fill="#2467AB"/>
<path d="M53.0171 35.0001H52.0179V34.1747H51.9745C51.8442 34.6525 51.2794 35.1738 50.541 35.1738C48.9771 35.1738 48.3689 33.7837 48.3689 31.6986C48.3689 30.3085 48.5861 28.2233 50.4541 28.2233C51.0622 28.2233 51.6704 28.5709 51.8876 29.1356H51.931V26.1816H52.9736V35.0001H53.0171ZM50.7147 34.2616C51.8442 34.2616 52.0614 33.1756 52.0614 31.6551C52.0614 30.3519 51.8442 29.0487 50.7147 29.0487C49.759 29.0487 49.4984 30.0478 49.4984 31.6551C49.4984 33.2624 49.759 34.2616 50.7147 34.2616Z" fill="#2467AB"/>
<path d="M55.1022 31.8287C55.1022 32.8279 55.1022 34.3917 56.362 34.3917C57.3611 34.3917 57.4914 33.3491 57.4914 32.8713H58.534C58.534 33.5663 58.0996 35.2171 56.3185 35.2171C54.7112 35.2171 54.0162 34.0876 54.0162 31.8287C54.0162 30.178 54.3203 28.2666 56.362 28.2666C58.4037 28.2666 58.5774 30.0477 58.5774 31.4378V31.8722H55.1022V31.8287ZM57.4914 31.0034V30.6558C57.4914 29.9173 57.2742 29.0485 56.362 29.0485C55.276 29.0485 55.1456 30.3952 55.1456 30.7862V31.0468H57.4914V31.0034Z" fill="#2467AB"/>
<path d="M59.62 28.3969H60.6626V29.396H60.706C61.0101 28.7879 61.4011 28.2231 62.1396 28.2231C62.3568 28.2231 62.4871 28.2666 62.6174 28.31V29.3092C62.5305 29.3092 62.4002 29.2657 62.0527 29.2657C61.5314 29.2657 60.706 29.7436 60.706 30.8296V34.9999H59.6634V28.3969H59.62Z" fill="#2467AB"/>
<path d="M67.5262 34.9999H66.527V34.218H66.4836C66.223 34.8262 65.5279 35.1737 64.8763 35.1737C63.1387 35.1737 63.1387 33.8705 63.1387 33.0885V28.397H64.1813V32.9582C64.1813 33.4795 64.2247 34.3049 65.137 34.3049C65.7017 34.3049 66.4402 33.9139 66.4402 32.9582V28.397H67.4827V34.9999H67.5262Z" fill="#2467AB"/>
<path d="M68.7425 28.3969H69.7417V29.1788H69.7851C70.0457 28.5707 70.7408 28.2231 71.3924 28.2231C73.13 28.2231 73.13 29.5264 73.13 30.3083V34.9999H72.0874V30.4386C72.0874 29.9173 72.044 29.092 71.1317 29.092C70.567 29.092 69.8285 29.4829 69.8285 30.4386V34.9999H68.786V28.3969H68.7425Z" fill="#2467AB"/>
<path d="M78.6904 34.5654C78.6904 36.5203 77.7781 37.2587 76.4315 37.2587C76.0405 37.2587 74.4332 37.2587 74.2595 35.608H75.302C75.3455 36.2162 75.8233 36.4334 76.3446 36.4334C77.6913 36.4334 77.6478 35.3908 77.6478 34.9564V34.0876H77.6044C77.3872 34.6523 76.779 34.9564 76.1274 34.9564C74.216 34.9564 74.0857 32.5237 74.0857 31.6549C74.0857 29.8739 74.5635 28.1797 76.2577 28.1797C76.9528 28.1797 77.5609 28.6575 77.6912 29.1788H77.7347V28.3534H78.7338V34.5654H78.6904ZM75.1717 31.6984C75.1717 32.7844 75.3455 34.131 76.388 34.131C77.5175 34.131 77.7347 33.0885 77.7347 31.6984C77.7347 30.3952 77.5175 29.0919 76.388 29.0919C75.4323 29.0919 75.1717 30.0911 75.1717 31.6984Z" fill="#2467AB"/>
<path d="M82.2525 28.397H83.382L84.5983 33.6967H84.6417L85.8581 28.397H86.9875L85.2065 34.9999H84.0336L82.2525 28.397Z" fill="#2467AB"/>
<path d="M89.7677 28.2231C91.6791 28.2231 92.1569 29.8304 92.1569 31.6984C92.1569 33.5663 91.6791 35.1736 89.7677 35.1736C87.8563 35.1736 87.3785 33.5663 87.3785 31.6984C87.3785 29.8304 87.8563 28.2231 89.7677 28.2231ZM91.0275 31.6984C91.0275 30.2648 90.8103 29.0485 89.7243 29.0485C88.6383 29.0485 88.4645 30.2648 88.4645 31.6984C88.4645 33.1319 88.6817 34.3483 89.7243 34.3483C90.7668 34.3483 91.0275 33.1319 91.0275 31.6984Z" fill="#2467AB"/>
<path d="M93.0692 28.3969H94.0683V29.1788H94.1118C94.3724 28.5707 95.0674 28.2231 95.719 28.2231C97.4567 28.2231 97.4567 29.5264 97.4567 30.3083V34.9999H96.4141V30.4386C96.4141 29.9173 96.3707 29.092 95.4584 29.092C94.8937 29.092 94.1552 29.4829 94.1552 30.4386V34.9999H93.1126V28.3969H93.0692Z" fill="#2467AB"/>
<path d="M101.54 26.1816H104.233C105.363 26.1816 106.492 26.7029 106.492 28.4405C106.492 29.2225 106.014 30.0478 105.189 30.265V30.3085C106.275 30.5691 106.753 31.3945 106.753 32.4805C106.753 34.2616 105.754 35.0001 103.886 35.0001H101.497V26.1816H101.54ZM102.626 30.0044H103.886C104.32 30.0044 105.363 29.8741 105.363 28.5274C105.363 27.6152 104.885 27.0939 103.842 27.0939H102.626V30.0044ZM102.626 34.0878H104.103C105.233 34.0878 105.623 33.3059 105.623 32.4805C105.623 31.2642 104.842 30.7863 103.886 30.7863H102.583V34.0878H102.626Z" fill="#2467AB"/>
<path d="M107.622 30.3952C107.622 28.8748 108.273 28.2231 109.837 28.2231C111.835 28.2231 111.835 29.4395 111.835 30.1345V33.827C111.835 34.0876 111.835 34.3483 112.14 34.3483C112.27 34.3483 112.357 34.3048 112.4 34.3048V35.0433C112.313 35.0433 112.053 35.0867 111.792 35.0867C111.401 35.0867 110.923 35.0867 110.836 34.2179H110.793C110.445 34.8261 109.837 35.1736 109.186 35.1736C107.969 35.1736 107.405 34.4351 107.405 33.2622C107.405 32.35 107.796 31.6984 108.664 31.4377L110.054 31.0033C110.793 30.7861 110.793 30.5689 110.793 30.0042C110.793 29.396 110.402 29.0485 109.75 29.0485C108.621 29.0485 108.621 30.0911 108.621 30.3517V30.3952H107.622ZM110.836 31.3943C110.445 31.7853 109.533 31.8721 109.055 32.1762C108.708 32.3934 108.534 32.6541 108.534 33.2188C108.534 33.8704 108.751 34.3483 109.49 34.3483C110.185 34.3483 110.836 33.7835 110.836 33.0885V31.3943Z" fill="#2467AB"/>
<path d="M117.483 34.9999H116.484V34.218H116.44C116.18 34.8262 115.485 35.1737 114.833 35.1737C113.095 35.1737 113.095 33.8705 113.095 33.0885V28.397H114.138V32.9582C114.138 33.4795 114.181 34.3049 115.094 34.3049C115.658 34.3049 116.397 33.9139 116.397 32.9582V28.397H117.439V34.9999H117.483Z" fill="#2467AB"/>
<path d="M125.954 34.9999H124.954V34.218H124.911C124.65 34.8262 123.955 35.1737 123.304 35.1737C121.566 35.1737 121.566 33.8705 121.566 33.0885V28.397H122.609V32.9582C122.609 33.4795 122.652 34.3049 123.564 34.3049C124.129 34.3049 124.868 33.9139 124.868 32.9582V28.397H125.91V34.9999H125.954Z" fill="#2467AB"/>
<path d="M127.17 28.3969H128.169V29.1788H128.213C128.473 28.5707 129.168 28.2231 129.82 28.2231C131.557 28.2231 131.557 29.5264 131.557 30.3083V34.9999H130.515V30.4386C130.515 29.9173 130.471 29.092 129.559 29.092C128.994 29.092 128.256 29.4829 128.256 30.4386V34.9999H127.213V28.3969H127.17Z" fill="#2467AB"/>
<path d="M137.118 35.0001H136.119V34.1747H136.075C135.945 34.6525 135.38 35.1738 134.642 35.1738C133.078 35.1738 132.47 33.7837 132.47 31.6986C132.47 30.3085 132.687 28.2233 134.555 28.2233C135.163 28.2233 135.771 28.5709 135.988 29.1356H136.032V26.1816H137.074V35.0001H137.118ZM134.815 34.2616C135.945 34.2616 136.162 33.1756 136.162 31.6551C136.162 30.3519 135.945 29.0487 134.815 29.0487C133.86 29.0487 133.599 30.0478 133.599 31.6551C133.599 33.2624 133.86 34.2616 134.815 34.2616Z" fill="#2467AB"/>
<path d="M140.202 26.1816H141.288L142.635 33.3928H142.678L143.938 26.1816H145.241L146.501 33.3928H146.544L147.891 26.1816H148.977L147.153 35.0001H145.849L144.633 27.8758H144.59L143.33 35.0001H142.027L140.202 26.1816Z" fill="#2467AB"/>
<path d="M151.41 28.2231C153.321 28.2231 153.799 29.8304 153.799 31.6984C153.799 33.5663 153.321 35.1736 151.41 35.1736C149.498 35.1736 149.021 33.5663 149.021 31.6984C149.021 29.8304 149.498 28.2231 151.41 28.2231ZM152.713 31.6984C152.713 30.2648 152.496 29.0485 151.41 29.0485C150.324 29.0485 150.15 30.2648 150.15 31.6984C150.15 33.1319 150.367 34.3483 151.41 34.3483C152.452 34.3483 152.713 33.1319 152.713 31.6984Z" fill="#2467AB"/>
<path d="M154.711 26.1816H155.754V29.1356H155.797C156.058 28.6143 156.796 28.2233 157.405 28.2233C159.099 28.2233 159.099 29.5266 159.099 30.3085V35.0001H158.056V30.4388C158.056 29.9175 158.013 29.0922 157.1 29.0922C156.536 29.0922 155.797 29.4831 155.797 30.4388V35.0001H154.755V26.1816H154.711Z" fill="#2467AB"/>
<path d="M160.272 28.3969H161.271V29.1788H161.314C161.575 28.5707 162.27 28.2231 162.921 28.2231C164.659 28.2231 164.659 29.5264 164.659 30.3083V34.9999H163.617V30.4386C163.617 29.9173 163.573 29.092 162.661 29.092C162.096 29.092 161.358 29.4829 161.358 30.4386V34.9999H160.315V28.3969H160.272Z" fill="#2467AB"/>
<path d="M166.744 31.8287C166.744 32.8279 166.744 34.3917 168.004 34.3917C169.003 34.3917 169.133 33.3491 169.133 32.8713H170.176C170.176 33.5663 169.742 35.2171 167.961 35.2171C166.353 35.2171 165.658 34.0876 165.658 31.8287C165.658 30.178 165.962 28.2666 168.004 28.2666C170.046 28.2666 170.219 30.0477 170.219 31.4378V31.8722H166.744V31.8287ZM169.133 31.0034V30.6558C169.133 29.9173 168.916 29.0485 168.004 29.0485C166.918 29.0485 166.788 30.3952 166.788 30.7862V31.0468H169.133V31.0034Z" fill="#2467AB"/>
<path d="M171.262 28.3969H172.261V29.1788H172.305C172.565 28.5707 173.26 28.2231 173.912 28.2231C175.65 28.2231 175.65 29.5264 175.65 30.3083V34.9999H174.607V30.4386C174.607 29.9173 174.564 29.092 173.651 29.092C173.087 29.092 172.348 29.4829 172.348 30.4386V34.9999H171.305V28.3969H171.262Z" fill="#2467AB"/>
<path d="M7.00925 9.10049C7.00925 10.2734 6.4228 11.1509 5.60178 11.0901L1.6791 10.6817C0.801606 10.6253 0.0978699 9.50883 0.0978699 8.22299V2.011C0.0978699 0.725166 0.801606 -0.152332 1.6791 0.0214299L5.60178 0.898928C6.36199 1.07269 7.00925 2.18911 7.00925 3.35766V9.09615V9.10049Z" fill="#2467AB"/>
<path d="M15.3238 10.0956C15.3238 11.1512 14.8546 11.9679 14.2117 11.9114L11.1057 11.6204C10.402 11.5639 9.87633 10.5648 9.87633 9.45268V3.94877C9.87633 2.83669 10.4628 2.01567 11.1057 2.19377L14.2117 2.89751C14.7981 3.0148 15.3238 4.00958 15.3238 5.06519V10.0999V10.0956Z" fill="#2467AB"/>
<path d="M22.057 10.9731C22.057 11.9114 21.6487 12.6716 21.1795 12.6108L18.66 12.3762C18.1343 12.3197 17.6652 11.4379 17.6652 10.4431V5.52564C17.6652 4.53085 18.1343 3.77064 18.66 3.88793L21.1795 4.47438C21.7052 4.59167 22.057 5.46917 22.057 6.40748V10.9774V10.9731Z" fill="#2467AB"/>
<path d="M7.00924 22.8018C7.00924 23.9747 6.42279 24.9694 5.60176 25.0259L1.67909 25.317C0.801591 25.3734 0.0978546 24.3787 0.0978546 23.0928V16.9416C0.0978546 15.6515 0.801591 14.6567 1.67909 14.7175L5.60176 14.8913C6.36197 14.9477 7.00924 15.886 7.00924 17.1154V22.7974V22.8018Z" fill="#2467AB"/>
<path d="M15.3238 22.3935C15.3238 23.4491 14.8546 24.3266 14.2117 24.3831L11.1057 24.6177C10.402 24.6742 9.87633 23.7967 9.87633 22.6281V17.1242C9.87633 16.0121 10.4628 15.0738 11.1057 15.1346L14.2117 15.3084C14.7981 15.3084 15.3238 16.2467 15.3238 17.298V22.3935Z" fill="#2467AB"/>
<path d="M22.057 22.0417C22.057 22.98 21.6487 23.7967 21.1795 23.8575L18.66 24.0312C18.1343 24.0877 17.6652 23.271 17.6652 22.2762V17.3588C17.6652 16.364 18.1343 15.543 18.66 15.543L21.1795 15.6603C21.7052 15.6603 22.057 16.4813 22.057 17.4153V22.0417Z" fill="#2467AB"/>
<path d="M7.00924 36.5076C7.00924 37.6805 6.42279 38.7925 5.60176 38.9663L1.67909 39.9611C0.801591 40.1957 0.0978546 39.3182 0.0978546 38.028V31.8203C0.0978546 30.5302 0.801591 29.4181 1.67909 29.3008L5.60176 28.7752C6.36197 28.6579 7.00924 29.5354 7.00924 30.7083V36.5076Z" fill="#2467AB"/>
<path d="M15.3238 34.6305C15.3238 35.6861 14.8546 36.6809 14.2117 36.7982L11.1057 37.5584C10.402 37.7322 9.87633 36.972 9.87633 35.8034V30.2995C9.87633 29.1874 10.4628 28.1926 11.1057 28.0754L14.2117 27.667C14.7981 27.6105 15.3238 28.3708 15.3238 29.422V34.6349V34.6305Z" fill="#2467AB"/>
<path d="M22.057 33.1101C22.057 34.0484 21.6487 34.9259 21.1795 35.0432L18.66 35.6861C18.1343 35.8034 17.6652 35.0997 17.6652 34.1049V29.1874C17.6652 28.1926 18.1343 27.2543 18.66 27.1978L21.1795 26.846C21.7052 26.7895 22.057 27.4889 22.057 28.4837V33.1101Z" fill="#2467AB"/>
</g>
<defs>
<clipPath id="clip0_4097_763">
<rect width="273.51" height="40" fill="white" transform="translate(0.0978699)"/>
</clipPath>
</defs>
</svg>
